<?xml version="1.0" encoding="UTF-8" standalone="no"?>
<svg
   xmlns:dc="http://purl.org/dc/elements/1.1/"
   xmlns:cc="http://creativecommons.org/ns#"
   xmlns:rdf="http://www.w3.org/1999/02/22-rdf-syntax-ns#"
   xmlns:svg="http://www.w3.org/2000/svg"
   xmlns="http://www.w3.org/2000/svg"
   xmlns:sodipodi="http://sodipodi.sourceforge.net/DTD/sodipodi-0.dtd"
   xmlns:inkscape="http://www.inkscape.org/namespaces/inkscape"
   version="1.0"
   width="508mm"
   height="249mm"
   id="svg944"
   sodipodi:docname="Fig1.svg"
   inkscape:version="0.92.4 (5da689c313, 2019-01-14)">
  <metadata
     id="metadata948">
    <rdf:RDF>
      <cc:Work
         rdf:about="">
        <dc:format>image/svg+xml</dc:format>
        <dc:type
           rdf:resource="http://purl.org/dc/dcmitype/StillImage" />
        <dc:title></dc:title>
      </cc:Work>
    </rdf:RDF>
  </metadata>
  <sodipodi:namedview
     pagecolor="#ffffff"
     bordercolor="#666666"
     borderopacity="1"
     objecttolerance="10"
     gridtolerance="10"
     guidetolerance="10"
     inkscape:pageopacity="0"
     inkscape:pageshadow="2"
     inkscape:window-width="1920"
     inkscape:window-height="1017"
     id="namedview946"
     showgrid="false"
     inkscape:zoom="0.37291667"
     inkscape:cx="1185.1565"
     inkscape:cy="740.59537"
     inkscape:window-x="1912"
     inkscape:window-y="-8"
     inkscape:window-maximized="1"
     inkscape:current-layer="svg944" />
  <defs
     id="defs816">
    <pattern
       id="EMFhbasepattern"
       patternUnits="userSpaceOnUse"
       width="6"
       height="6"
       x="0"
       y="0" />
  </defs>
  <path
     style="fill:#000000;fill-rule:nonzero;fill-opacity:1;stroke:none;"
     d="  M 38.079718,393.35709   L 1895.746,390.15711   z "
     id="path818" />
  <path
     style="fill:none;stroke:#000000;stroke-width:0.95999289px;stroke-linecap:butt;stroke-linejoin:miter;stroke-miterlimit:4;stroke-dasharray:none;stroke-opacity:1;"
     d="  M 38.079718,393.35709   L 1895.746,390.15711  "
     id="path820" />
  <path
     style="fill:#000000;fill-rule:nonzero;fill-opacity:1;stroke:none;"
     d="  M 283.3579,362.63731   L 372.15724,362.63731   L 372.15724,409.67697   L 283.3579,409.67697   z "
     id="path822" />
  <path
     style="fill:#000000;fill-rule:nonzero;fill-opacity:1;stroke:none;"
     d="  M 1290.3104,295.35781   L 1299.6704,295.35781   L 1299.6704,393.27709   L 1290.3104,393.27709   z "
     id="path826" />
  <path
     style="fill:none;stroke:#000000;stroke-width:1.759987px;stroke-linecap:butt;stroke-linejoin:miter;stroke-miterlimit:4;stroke-dasharray:none;stroke-opacity:1;"
     d="  M 1299.6704,295.35781   C 1364.7899,322.95761 1374.1498,325.43759 1374.1498,325.43759   L 1287.2705,325.43759   L 1293.4304,322.95761   L 1290.3104,295.35781  "
     id="path828" />
  <path
     style="fill:#ffd42a;fill-rule:nonzero;fill-opacity:1;stroke:none;"
     d="  M 1300.7904,311.59769   C 1300.7904,304.71774 1301.1904,299.11778 1301.5904,299.11778   C 1302.0704,299.11778 1315.3503,304.55774 1331.1101,311.19769   L 1359.9099,323.27761   L 1330.3901,323.6776   L 1300.7904,324.0776   z "
     id="path830" />
  <path
     style="fill:#000000;fill-rule:nonzero;fill-opacity:1;stroke:none;"
     d="  M 1667.3476,295.67781   L 1676.3076,295.67781   L 1676.3076,393.67708   L 1667.3476,393.67708   z "
     id="path832" />
  <path
     style="fill:none;stroke:#000000;stroke-width:1.759987px;stroke-linecap:butt;stroke-linejoin:miter;stroke-miterlimit:4;stroke-dasharray:none;stroke-opacity:1;"
     d="  M 1676.3076,295.67781   C 1739.1071,323.3576 1748.1471,325.83759 1748.1471,325.83759   L 1664.3877,325.83759   L 1670.3876,323.3576   L 1667.3476,295.67781  "
     id="path834" />
  <path
     style="fill:#ffd42a;fill-rule:nonzero;fill-opacity:1;stroke:none;"
     d="  M 1677.7476,312.15769   C 1677.7476,305.27774 1678.0676,299.67778 1678.4676,299.67778   C 1678.8676,299.67778 1691.6675,305.11774 1706.9474,311.75769   L 1734.6272,323.8376   L 1706.1474,324.2376   L 1677.7476,324.6376   z "
     id="path836" />
  <path
     style="fill:#50af9e;fill-rule:nonzero;fill-opacity:1;stroke:none;"
     d="  M 955.83292,674.635   L 976.87276,674.635   L 976.87276,783.99419   L 955.83292,783.99419   z "
     id="path838" />
  <path
     style="fill:#50af9e;fill-rule:nonzero;fill-opacity:1;stroke:none;"
     d="  M 956.15292,796.8741   L 977.27276,796.8741   L 977.27276,906.15329   L 956.15292,906.15329   z "
     id="path840" />
  <path
     style="fill:#50af9e;fill-rule:nonzero;fill-opacity:1;stroke:none;"
     d="  M 955.83292,738.07453   L 955.83292,693.35486   L 957.11291,692.23487   C 957.8329,691.59488 958.4729,691.03488 958.4729,691.03488   C 958.6329,690.87488 958.3129,690.23489 958.1529,690.23489   C 958.0729,690.23489 957.67291,690.47489 957.35291,690.71488   C 957.03291,691.03488 956.55291,691.43488 956.31292,691.67488   L 955.83292,692.07487   L 955.83292,684.47493   L 955.83292,676.87499   L 956.79291,677.91498   C 960.31289,681.91495 965.83285,683.11494 970.63281,681.11495   C 972.6328,680.31496 973.99279,679.35497 975.59277,677.51498   L 976.87276,675.91499   L 976.87276,728.8746   L 976.87276,781.83421   L 975.75277,780.55422   C 972.0728,776.47425 965.59285,775.35426 960.79288,778.07424   C 959.35289,778.87423 957.9929,779.99422 956.87291,781.43421   L 955.83292,782.7142   z "
     id="path842" />
  <path
     style="fill:#50af9e;fill-rule:nonzero;fill-opacity:1;stroke:none;"
     d="  M 955.83292,737.99453   L 955.91292,693.27486   L 956.79291,692.47487   C 957.27291,691.99487 957.9129,691.51488 958.1529,691.27488   C 958.3929,691.11488 958.4729,690.79488 958.3929,690.55488   C 958.2329,690.07489 958.0729,690.15489 956.95291,691.11488   C 956.47292,691.59488 955.91292,691.99487 955.91292,691.99487   C 955.83292,691.99487 955.83292,688.5549 955.83292,684.39493   L 955.83292,676.87499   L 956.79291,677.91498   C 960.31289,681.91495 965.83285,683.11494 970.63281,681.11495   C 972.6328,680.31496 973.99279,679.35497 975.59277,677.51498   L 976.87276,675.91499   L 976.87276,728.8746   L 976.87276,781.83421   L 975.75277,780.55422   C 972.0728,776.47425 965.59285,775.35426 960.79288,778.07424   C 959.35289,778.87423 957.9929,779.99422 956.87291,781.43421   L 955.83292,782.7142   z "
     id="path844" />
  <path
     style="fill:#50af9e;fill-rule:nonzero;fill-opacity:1;stroke:none;"
     d="  M 957.9129,691.11488   C 957.9129,690.95488 958.0729,690.87488 958.0729,690.87488   C 958.1529,690.87488 958.1529,690.95488 958.1529,691.11488   C 958.1529,691.27488 958.0729,691.35488 957.9929,691.35488   C 957.8329,691.35488 957.8329,691.27488 957.9129,691.11488   z "
     id="path846" />
  <path
     style="fill:#50af9e;fill-rule:nonzero;fill-opacity:1;stroke:none;"
     d="  M 955.83292,737.99453   L 955.91292,693.27486   L 957.19291,692.15487   C 957.9129,691.51488 958.4729,690.95488 958.5529,690.87488   C 958.5529,690.79488 958.4729,690.63488 958.3929,690.47489   C 958.2329,690.23489 957.9929,690.31489 957.11291,691.03488   C 956.55291,691.51488 955.99292,691.91487 955.91292,691.99487   C 955.83292,691.99487 955.83292,688.6349 955.83292,684.47493   L 955.83292,676.87499   L 956.79291,677.91498   C 960.31289,681.91495 965.83285,683.11494 970.63281,681.11495   C 972.6328,680.31496 973.99279,679.35497 975.59277,677.51498   L 976.87276,675.91499   L 976.87276,728.8746   L 976.87276,781.83421   L 975.75277,780.55422   C 972.0728,776.47425 965.75285,775.35426 960.87288,778.07424   C 959.35289,778.87423 958.0729,779.99422 956.87291,781.43421   L 955.83292,782.7142   z "
     id="path848" />
  <path
     style="fill:#50af9e;fill-rule:nonzero;fill-opacity:1;stroke:none;"
     d="  M 955.83292,737.99453   L 955.83292,693.35486   L 957.19291,692.07487   C 958.3129,691.11488 958.5529,690.79488 958.3129,690.55488   C 958.0729,690.15489 958.0729,690.23489 956.87291,691.27488   C 956.39292,691.67488 955.99292,691.99487 955.91292,691.99487   C 955.83292,691.99487 955.83292,688.5549 955.83292,684.39493   L 955.83292,676.87499   L 956.79291,677.91498   C 960.31289,681.91495 965.83285,683.11494 970.63281,681.11495   C 972.6328,680.31496 973.99279,679.35497 975.59277,677.51498   L 976.87276,675.91499   L 976.87276,728.8746   L 976.87276,781.83421   L 975.75277,780.55422   C 972.0728,776.47425 965.59285,775.35426 960.79288,778.07424   C 959.35289,778.87423 957.9929,779.99422 956.87291,781.43421   L 955.83292,782.7142   z "
     id="path850" />
  <path
     style="fill:#7fc7c1;fill-rule:nonzero;fill-opacity:1;stroke:none"
     d="  M 920.47318,705.75477   L 947.27298,675.195   L 948.71297,675.595   C 950.15296,675.99499 950.55296,675.91499 950.63296,675.435   C 950.63296,675.275 950.07296,675.035 949.35297,674.875   C 948.63297,674.715 948.07298,674.475 948.07298,674.475   C 947.99298,674.395 949.99296,671.99502 952.47294,669.19504   L 957.03291,663.99508   L 957.03291,665.59507   C 957.11291,671.43503 960.15289,677.19498 964.71285,680.07496   C 966.55284,681.27495 967.99283,681.83495 970.23281,681.99495   L 972.0728,682.07495   L 940.47303,718.23468   L 908.79327,754.39441   L 908.79327,752.63442   C 908.71327,746.47447 904.8733,740.07452 899.91333,737.59454   C 898.47334,736.87454 896.87336,736.47454 895.27337,736.39455   L 893.75338,736.31455   z "
     id="path852" />
  <path
     style="fill:#50af9e;fill-rule:nonzero;fill-opacity:1;stroke:none;"
     d="  M 959.51289,690.79488   L 959.51289,692.79487   C 959.51289,694.87485 959.83289,693.67486 957.11291,695.27485   L 957.11291,694.15486   L 957.11291,692.79487   L 957.11291,691.43488   C 957.11291,689.75489 956.95291,690.79488 959.51289,689.35489   L 959.51289,690.55488   L 959.51289,691.83488   L 959.51289,692.07487   L 957.11291,693.59486   L 957.11291,693.59486   L 957.11291,693.35486   L 957.11291,691.99487   L 957.11291,690.87488   C 959.91289,688.9549 959.51289,688.2349 959.51289,689.99489   L 959.51289,691.27488   L 959.51289,692.63487   C 959.51289,693.03487 959.51289,693.43486 959.59289,693.83486   C 956.71291,695.67485 957.19291,696.31484 957.11291,694.31486   C 957.11291,693.67486 957.19291,692.95487 957.11291,692.31487   z "
     id="path854" />
  <path
     style="fill:#50af9e;fill-rule:nonzero;fill-opacity:1;stroke:none;"
     d="  M 958.4729,688.7949   C 958.3929,689.43489 958.3929,689.99489 958.2329,690.63488   C 958.1529,691.03488 958.1529,691.43488 958.0729,691.91487   L 958.0729,693.19487   L 958.0729,694.55486   C 958.0729,694.95485 958.0729,695.27485 958.2329,695.67485   C 958.3129,695.99484 958.3929,696.23484 958.5529,696.55484   C 958.7129,696.87484 958.8729,697.19484 959.0329,697.51483   C 959.19289,697.91483 959.43289,698.23483 959.59289,698.55483   C 959.75289,698.87482 959.83289,699.11482 959.99289,699.43482   L 957.67291,701.03481   L 957.67291,701.03481   C 957.51291,700.79481 957.43291,700.47481 957.27291,700.23481   C 957.11291,699.91482 956.87291,699.59482 956.71291,699.19482   C 956.55291,698.87482 956.39292,698.55483 956.15292,698.23483   C 956.07292,697.91483 955.91292,697.59483 955.83292,697.27484   C 955.75292,696.87484 955.67292,696.47484 955.67292,696.07484   L 955.67292,694.71485   L 955.67292,693.35486   C 955.67292,692.95487 955.75292,692.47487 955.83292,692.07487   C 955.99292,691.43488 955.99292,690.87488 956.07292,690.31489   z "
     id="path856" />
  <path
     style="fill:#7fc7c1;fill-rule:nonzero;fill-opacity:1;stroke:none"
     d="  M 888.71342,740.47452   L 898.87334,763.03435   L 820.31392,815.51396   L 810.234,792.87413   z "
     id="path858" />
  <path
     style="fill:#ffe680;fill-rule:nonzero;fill-opacity:1;stroke:none;"
     d="  M 979.51274,666.63506   C 979.51274,675.195 973.43279,682.07495 965.99284,682.07495   C 958.5529,682.07495 952.47294,675.195 952.47294,666.63506   C 952.47294,658.15512 958.5529,651.27518 965.99284,651.27518   C 973.43279,651.27518 979.51274,658.15512 979.51274,666.63506   z "
     id="path860" />
  <path
     style="fill:#ffe680;fill-rule:nonzero;fill-opacity:1;stroke:none;"
     d="  M 980.23274,791.99413   C 980.23274,800.47407 974.15278,807.35402 966.71284,807.35402   C 959.27289,807.35402 953.19294,800.47407 953.19294,791.99413   C 953.19294,783.5142 959.27289,776.63425 966.71284,776.63425   C 974.15278,776.63425 980.23274,783.5142 980.23274,791.99413   z "
     id="path862" />
  <path
     style="fill:#ffe680;fill-rule:nonzero;fill-opacity:1;stroke:none;"
     d="  M 911.59325,747.75446   C 911.59325,756.2344 905.59329,763.11435 898.15335,763.11435   C 890.6334,763.11435 884.63345,756.2344 884.63345,747.75446   C 884.63345,739.27452 890.6334,732.39457 898.15335,732.39457   C 905.59329,732.39457 911.59325,739.27452 911.59325,747.75446   z "
     id="path864" />
  <path
     style="fill:#825e8b;fill-rule:nonzero;fill-opacity:1;stroke:#50af9e;stroke-width:1.0399923px;stroke-linecap:butt;stroke-linejoin:miter;stroke-miterlimit:4;stroke-dasharray:none;stroke-opacity:1;"
     d="  M 1454.3092,107.9992   L 1513.7488,107.9992   L 1513.7488,164.23878   L 1454.3092,164.23878   z "
     id="path866" />
  <path
     style="fill:#825e8b;fill-rule:nonzero;fill-opacity:1;stroke:#50af9e;stroke-width:0.95999289px;stroke-linecap:butt;stroke-linejoin:miter;stroke-miterlimit:4;stroke-dasharray:none;stroke-opacity:1;"
     d="  M 1453.5092,150.95888   L 1462.3892,156.15884   L 1447.9093,180.79866   L 1439.0293,175.5187   z "
     id="path868" />
  <path
     style="fill:#825e8b;fill-rule:nonzero;fill-opacity:1;stroke:#50af9e;stroke-width:1.0399923px;stroke-linecap:butt;stroke-linejoin:miter;stroke-miterlimit:4;stroke-dasharray:none;stroke-opacity:1;"
     d="  M 1506.2288,158.39883   L 1514.3888,152.07887   L 1531.8287,174.71871   L 1523.6687,181.03866   z "
     id="path870" />
  <path
     style="fill:#825e8b;fill-rule:nonzero;fill-opacity:1;stroke:#50af9e;stroke-width:1.0399923px;stroke-linecap:butt;stroke-linejoin:miter;stroke-miterlimit:4;stroke-dasharray:none;stroke-opacity:1;"
     d="  M 1454.3092,107.9992   L 1513.7488,107.9992   L 1513.7488,164.23878   L 1454.3092,164.23878   z "
     id="path872" />
  <path
     style="fill:#000000;fill-rule:nonzero;fill-opacity:1;stroke:none;"
     d="  M 257.19809,446.55669   L 257.83809,455.51663   L 257.19809,455.51663   C 256.3981,452.79665 255.27811,450.87666 253.75812,449.67667   C 252.23813,448.47668 250.47814,447.91668 248.39816,447.91668   C 246.63817,447.91668 245.03818,448.39668 243.5982,449.27667   C 242.15821,450.15667 241.03821,451.59665 240.23822,453.51664   C 239.43823,455.51663 239.03823,457.91661 239.03823,460.79659   C 239.03823,463.19657 239.43823,465.27655 240.15822,467.03654   C 240.95822,468.79653 242.07821,470.15652 243.5982,471.11651   C 245.19818,471.9965 246.95817,472.4765 248.95816,472.4765   C 250.63814,472.4765 252.15813,472.1565 253.51812,471.43651   C 254.79811,470.63651 256.2381,469.19652 257.83809,467.03654   L 258.39809,467.35654   C 257.1181,469.75652 255.51811,471.51651 253.75812,472.5565   C 251.99813,473.67649 249.91815,474.23649 247.43817,474.23649   C 243.0382,474.23649 239.67822,472.5565 237.27824,469.35652   C 235.43826,466.87654 234.55826,464.07656 234.55826,460.79659   C 234.55826,458.15661 235.19826,455.67662 236.31825,453.51664   C 237.51824,451.27666 239.19823,449.59667 241.19821,448.31668   C 243.2782,447.11669 245.59818,446.55669 248.07816,446.55669   C 249.99815,446.55669 251.83813,446.95669 253.67812,447.91668   C 254.23812,448.23668 254.63811,448.31668 254.87811,448.31668   C 255.19811,448.31668 255.51811,448.23668 255.8381,447.99668   C 256.1581,447.59668 256.3981,447.11669 256.5581,446.55669   z "
     id="path874" />
  <path
     style="fill:#000000;fill-rule:nonzero;fill-opacity:1;stroke:none;"
     d="  M 271.19799,471.03651   C 269.358,472.4765 268.23801,473.27649 267.75802,473.51649   C 267.03802,473.83649 266.31803,473.99649 265.51803,473.99649   C 264.31804,473.99649 263.27805,473.51649 262.47806,472.7165   C 261.67806,471.8365 261.27806,470.71651 261.27806,469.35652   C 261.27806,468.47653 261.43806,467.75654 261.83806,467.11654   C 262.39806,466.23655 263.27805,465.35655 264.63804,464.63656   C 265.99803,463.83656 268.15801,462.87657 271.19799,461.75658   L 271.19799,461.03658   C 271.19799,459.2766 270.95799,458.07661 270.398,457.35661   C 269.838,456.71662 268.95801,456.39662 267.91802,456.39662   C 267.11802,456.39662 266.47803,456.63662 265.99803,457.03661   C 265.43803,457.51661 265.19804,457.99661 265.19804,458.5566   L 265.27803,459.67659   C 265.27803,460.31659 265.11804,460.79659 264.79804,461.11658   C 264.47804,461.43658 264.07804,461.59658 263.59805,461.59658   C 263.11805,461.59658 262.71805,461.43658 262.39806,461.03658   C 262.07806,460.71659 261.91806,460.23659 261.91806,459.67659   C 261.91806,458.5566 262.55806,457.51661 263.67805,456.55662   C 264.79804,455.67662 266.39803,455.19663 268.47801,455.19663   C 270.078,455.19663 271.35799,455.43663 272.39798,455.99662   C 273.19798,456.39662 273.75797,457.03661 274.07797,457.91661   C 274.31797,458.4766 274.47797,459.5966 274.47797,461.35658   L 274.47797,467.35654   C 274.47797,469.11653 274.47797,470.15652 274.55797,470.55651   C 274.63797,470.95651 274.71797,471.19651 274.87796,471.27651   C 275.03796,471.43651 275.19796,471.51651 275.35796,471.51651   C 275.59796,471.51651 275.75796,471.43651 275.91796,471.35651   C 276.23795,471.19651 276.71795,470.71651 277.51794,469.91652   L 277.51794,471.03651   C 276.07795,472.9565 274.63797,473.99649 273.35798,473.99649   C 272.71798,473.99649 272.15798,473.75649 271.83799,473.27649   C 271.43799,472.8765 271.27799,472.0765 271.19799,471.03651   z  M 271.19799,469.75652   L 271.19799,462.95657   C 269.27801,463.75656 267.99801,464.31656 267.43802,464.63656   C 266.39803,465.19655 265.67803,465.75655 265.19804,466.39655   C 264.79804,467.03654 264.55804,467.67654 264.55804,468.47653   C 264.55804,469.35652 264.79804,470.15652 265.35803,470.79651   C 265.91803,471.43651 266.55803,471.67651 267.35802,471.67651   C 268.31801,471.67651 269.598,471.03651 271.19799,469.75652   z "
     id="path876" />
  <path
     style="fill:#000000;fill-rule:nonzero;fill-opacity:1;stroke:none;"
     d="  M 284.0779,455.19663   L 284.0779,459.1966   C 285.59788,456.55662 287.11787,455.19663 288.63786,455.19663   C 289.35786,455.19663 289.99785,455.43663 290.47785,455.83662   C 290.95784,456.31662 291.11784,456.79662 291.11784,457.35661   C 291.11784,457.83661 290.95784,458.31661 290.63785,458.6366   C 290.31785,459.0366 289.91785,459.1966 289.43786,459.1966   C 288.95786,459.1966 288.47786,458.9566 287.91787,458.4766   C 287.35787,458.07661 286.87787,457.83661 286.63788,457.83661   C 286.39788,457.83661 286.15788,457.91661 285.91788,458.23661   C 285.27789,458.7166 284.71789,459.5966 284.0779,460.87659   L 284.0779,469.43652   C 284.0779,470.39652 284.1579,471.19651 284.39789,471.67651   C 284.63789,471.9965 284.87789,472.3165 285.35789,472.5565   C 285.75788,472.7965 286.39788,472.8765 287.19787,472.8765   L 287.19787,473.59649   L 277.99794,473.59649   L 277.99794,472.8765   C 278.95793,472.8765 279.59793,472.7965 280.07793,472.4765   C 280.39792,472.2365 280.63792,471.9165 280.71792,471.51651   C 280.79792,471.27651 280.87792,470.63651 280.87792,469.59652   L 280.87792,462.63657   C 280.87792,460.55659 280.79792,459.3566 280.71792,458.9566   C 280.63792,458.5566 280.47792,458.23661 280.23792,458.07661   C 279.99793,457.91661 279.75793,457.75661 279.35793,457.75661   C 278.95793,457.75661 278.55794,457.91661 277.99794,458.07661   L 277.83794,457.35661   L 283.2779,455.19663   z "
     id="path878" />
  <path
     style="fill:#000000;fill-rule:nonzero;fill-opacity:1;stroke:none;"
     d="  M 297.3578,449.83667   L 297.3578,455.67662   L 301.59777,455.67662   L 301.59777,457.11661   L 297.3578,457.11661   L 297.3578,468.71653   C 297.3578,469.83652 297.5178,470.63651 297.83779,471.03651   C 298.23779,471.43651 298.63779,471.59651 299.19778,471.59651   C 299.59778,471.59651 299.99778,471.51651 300.39777,471.27651   C 300.79777,470.95651 301.11777,470.55651 301.35777,470.07652   L 302.07776,470.07652   C 301.67777,471.35651 301.03777,472.3165 300.15778,472.9565   C 299.35778,473.59649 298.47779,473.91649 297.5978,473.91649   C 297.0378,473.91649 296.3978,473.75649 295.83781,473.43649   C 295.27781,473.0365 294.87782,472.6365 294.55782,471.9965   C 294.31782,471.35651 294.15782,470.39652 294.15782,469.11653   L 294.15782,457.11661   L 291.35784,457.11661   L 291.35784,456.47662   C 292.07784,456.15662 292.79783,455.67662 293.51783,454.95663   C 294.23782,454.31663 294.95782,453.51664 295.51781,452.55665   C 295.83781,452.07665 296.23781,451.11666 296.7978,449.83667   z "
     id="path880" />
  <path
     style="fill:#000000;fill-rule:nonzero;fill-opacity:1;stroke:none;"
     d="  M 310.2377,461.19658   L 310.2377,468.95653   C 310.2377,470.55651 310.3977,471.59651 310.7977,471.9965   C 311.27769,472.6365 311.99769,472.8765 313.03768,472.8765   L 314.07767,472.8765   L 314.07767,473.59649   L 302.71776,473.59649   L 302.71776,472.8765   L 303.67775,472.8765   C 304.79774,472.8765 305.59774,472.5565 306.07773,471.75651   C 306.31773,471.35651 306.47773,470.39652 306.47773,468.95653   L 306.47773,451.83665   C 306.47773,450.15667 306.31773,449.11667 305.99773,448.71668   C 305.43774,448.15668 304.71774,447.83668 303.67775,447.83668   L 302.71776,447.83668   L 302.71776,447.11669   L 312.39769,447.11669   C 314.79767,447.11669 316.63765,447.35669 317.99764,447.83668   C 319.35763,448.31668 320.55763,449.19667 321.43762,450.31666   C 322.39761,451.51666 322.87761,452.87665 322.87761,454.47663   C 322.87761,456.63662 322.15761,458.3966 320.71762,459.75659   C 319.27763,461.03658 317.27765,461.75658 314.71767,461.75658   C 314.07767,461.75658 313.35768,461.67658 312.63768,461.59658   C 311.83769,461.51658 311.1177,461.35658 310.2377,461.19658   z  M 310.2377,460.07659   C 310.9577,460.23659 311.51769,460.31659 312.07769,460.39659   C 312.63768,460.47659 313.03768,460.47659 313.43768,460.47659   C 314.79767,460.47659 315.99766,459.99659 316.95765,458.9566   C 317.91765,457.83661 318.39764,456.47662 318.39764,454.87663   C 318.39764,453.67664 318.15764,452.63665 317.67765,451.67665   C 317.27765,450.63666 316.55766,449.91667 315.75766,449.43667   C 314.87767,448.95667 313.91767,448.71668 312.79768,448.71668   C 312.15769,448.71668 311.27769,448.79668 310.2377,449.03667   z "
     id="path882" />
  <path
     style="fill:#000000;fill-rule:nonzero;fill-opacity:1;stroke:none;"
     d="  M 334.31752,455.19663   C 337.0375,455.19663 339.19749,456.23662 340.79748,458.23661   C 342.23746,459.99659 342.87746,462.07658 342.87746,464.31656   C 342.87746,465.91655 342.55746,467.51654 341.75747,469.19652   C 340.95747,470.79651 339.91748,472.0765 338.55749,472.8765   C 337.1975,473.75649 335.75751,474.15649 334.07753,474.15649   C 331.35755,474.15649 329.27756,473.1165 327.67757,470.95651   C 326.31758,469.11653 325.67759,467.11654 325.67759,464.87656   C 325.67759,463.19657 326.07758,461.59658 326.87758,459.91659   C 327.67757,458.31661 328.71757,457.11661 330.07755,456.39662   C 331.43754,455.59663 332.79753,455.19663 334.31752,455.19663   z  M 333.67753,456.47662   C 333.03753,456.47662 332.31754,456.63662 331.59754,457.11661   C 330.87755,457.51661 330.31755,458.23661 329.91756,459.1966   C 329.51756,460.23659 329.27756,461.59658 329.27756,463.19657   C 329.27756,465.83655 329.75756,468.07653 330.79755,469.91652   C 331.83754,471.8365 333.19753,472.7965 334.95752,472.7965   C 336.15751,472.7965 337.1975,472.2365 338.0775,471.19651   C 338.87749,470.15652 339.27749,468.39653 339.27749,465.83655   C 339.27749,462.63657 338.55749,460.15659 337.1975,458.31661   C 336.31751,457.11661 335.11752,456.47662 333.67753,456.47662   z "
     id="path884" />
  <path
     style="fill:#000000;fill-rule:nonzero;fill-opacity:1;stroke:none;"
     d="  M 351.67739,445.8367   L 351.67739,469.59652   C 351.67739,470.71651 351.75739,471.43651 351.91739,471.75651   C 352.07739,472.1565 352.39739,472.3965 352.71739,472.6365   C 353.03738,472.7965 353.67738,472.8765 354.55737,472.8765   L 354.55737,473.59649   L 345.83744,473.59649   L 345.83744,472.8765   C 346.63743,472.8765 347.19743,472.7965 347.51743,472.6365   C 347.83742,472.4765 347.99742,472.2365 348.23742,471.8365   C 348.39742,471.43651 348.47742,470.63651 348.47742,469.59652   L 348.47742,453.27664   C 348.47742,451.27666 348.39742,450.07667 348.31742,449.59667   C 348.23742,449.11667 348.07742,448.79668 347.83742,448.63668   C 347.67742,448.47668 347.43743,448.39668 347.11743,448.39668   C 346.79743,448.39668 346.31743,448.47668 345.83744,448.71668   L 345.51744,447.99668   L 350.7974,445.8367   z "
     id="path886" />
  <path
     style="fill:#000000;fill-rule:nonzero;fill-opacity:1;stroke:none;"
     d="  M 359.67734,462.47657   C 359.67734,465.11655 360.31733,467.19654 361.59732,468.71653   C 362.87731,470.23652 364.3973,470.95651 366.15729,470.95651   C 367.35728,470.95651 368.39727,470.63651 369.19727,469.99652   C 370.07726,469.35652 370.79725,468.23653 371.43725,466.71654   L 371.99724,467.11654   C 371.75725,468.87653 370.95725,470.47651 369.59726,471.9965   C 368.31727,473.43649 366.63728,474.15649 364.7173,474.15649   C 362.55731,474.15649 360.71733,473.35649 359.19734,471.67651   C 357.67735,469.99652 356.87736,467.75654 356.87736,464.87656   C 356.87736,461.83658 357.67735,459.4366 359.19734,457.75661   C 360.79733,455.99662 362.79731,455.19663 365.1173,455.19663   C 367.11728,455.19663 368.79727,455.83662 370.07726,457.19661   C 371.35725,458.4766 371.99724,460.23659 371.99724,462.47657   z  M 359.67734,461.35658   L 367.91727,461.35658   C 367.83728,460.15659 367.75728,459.3566 367.51728,458.8766   C 367.19728,458.15661 366.71728,457.59661 366.07729,457.19661   C 365.43729,456.79662 364.7173,456.55662 364.0773,456.55662   C 362.95731,456.55662 361.99732,456.95662 361.11733,457.83661   C 360.31733,458.6366 359.75734,459.83659 359.67734,461.35658   z "
     id="path888" />
  <path
     style="fill:#000000;fill-rule:nonzero;fill-opacity:1;stroke:none;"
     d="  M 374.71722,463.19657   L 384.87715,463.19657   L 384.87715,466.07655   L 374.71722,466.07655   z "
     id="path890" />
  <path
     style="fill:#000000;fill-rule:nonzero;fill-opacity:1;stroke:none;"
     d="  M 414.87693,447.11669   L 414.87693,447.83668   C 413.91693,447.99668 413.27694,448.31668 412.71694,448.71668   C 412.07695,449.35667 411.43695,450.39666 410.95696,451.67665   L 401.67702,474.23649   L 400.95703,474.23649   L 391.0371,451.35666   C 390.55711,450.23666 390.15711,449.51667 389.99711,449.19667   C 389.67711,448.79668 389.19712,448.47668 388.71712,448.31668   C 388.31712,448.07668 387.67713,447.91668 386.87713,447.83668   L 386.87713,447.11669   L 397.67705,447.11669   L 397.67705,447.83668   C 396.39706,447.99668 395.67707,448.15668 395.27707,448.47668   C 394.87707,448.79668 394.71708,449.11667 394.71708,449.59667   C 394.71708,450.23666 395.03707,451.27666 395.59707,452.63665   L 402.39702,468.15653   L 408.63697,452.87665   C 409.19697,451.35666 409.51697,450.31666 409.51697,449.75667   C 409.51697,449.35667 409.35697,448.95667 408.95697,448.63668   C 408.55697,448.31668 407.91698,448.07668 407.03698,447.91668   C 406.95699,447.91668 406.87699,447.83668 406.71699,447.83668   L 406.71699,447.11669   z "
     id="path892" />
  <path
     style="fill:#000000;fill-rule:nonzero;fill-opacity:1;stroke:none;"
     d="  M 416.87691,460.55659   C 416.87691,457.51661 417.27691,454.87663 418.2369,452.71665   C 419.1169,450.55666 420.31689,448.87667 421.83688,447.83668   C 423.03687,447.03669 424.23686,446.55669 425.43685,446.55669   C 427.51683,446.55669 429.35682,447.59668 430.95681,449.67667   C 432.95679,452.23665 433.99679,455.75662 433.99679,460.07659   C 433.99679,463.19657 433.51679,465.75655 432.6368,467.91653   C 431.7568,470.07652 430.63681,471.67651 429.27682,472.6365   C 427.83683,473.59649 426.55684,474.07649 425.27685,474.07649   C 422.71687,474.07649 420.63688,472.5565 418.9569,469.59652   C 417.51691,467.11654 416.87691,464.07656 416.87691,460.55659   z  M 420.63688,461.03658   C 420.63688,464.63656 421.11688,467.59654 421.99687,469.91652   C 422.71687,471.8365 423.83686,472.8765 425.35685,472.8765   C 425.99684,472.8765 426.79684,472.5565 427.51683,471.9165   C 428.23683,471.27651 428.87682,470.23652 429.27682,468.71653   C 429.83682,466.47654 430.15681,463.35657 430.15681,459.2766   C 430.15681,456.23662 429.83682,453.67664 429.19682,451.67665   C 428.71682,450.15667 428.15683,449.11667 427.35683,448.47668   C 426.87684,448.07668 426.23684,447.83668 425.43685,447.83668   C 424.55686,447.83668 423.75686,448.23668 423.11687,449.03667   C 422.15687,450.15667 421.51688,451.83665 421.19688,454.15664   C 420.79688,456.47662 420.63688,458.7166 420.63688,461.03658   z "
     id="path894" />
  <path
     style="fill:#000000;fill-rule:nonzero;fill-opacity:1;stroke:none;"
     d="  M 1405.7496,460.31659   L 1406.3896,460.47659   L 1404.1496,467.67654   L 1383.5898,467.67654   L 1383.5898,466.95654   L 1384.6297,466.95654   C 1385.7497,466.95654 1386.5497,466.55654 1387.0297,465.83655   C 1387.2697,465.43655 1387.4297,464.47656 1387.4297,462.95657   L 1387.4297,445.8367   C 1387.4297,444.15671 1387.2697,443.19672 1386.8697,442.71672   C 1386.3897,442.15672 1385.5897,441.91673 1384.6297,441.91673   L 1383.5898,441.91673   L 1383.5898,441.19673   L 1395.5897,441.19673   L 1395.5897,441.91673   C 1394.2297,441.83673 1393.1897,441.99673 1392.6297,442.23672   C 1392.0697,442.55672 1391.6697,442.87672 1391.5097,443.27672   C 1391.2697,443.75671 1391.1897,444.71671 1391.1897,446.31669   L 1391.1897,462.95657   C 1391.1897,463.99656 1391.2697,464.79656 1391.5097,465.19655   C 1391.6697,465.43655 1391.9097,465.67655 1392.2297,465.75655   C 1392.5497,465.91655 1393.5097,465.99655 1395.2697,465.99655   L 1397.1897,465.99655   C 1399.1896,465.99655 1400.6296,465.83655 1401.4296,465.51655   C 1402.3096,465.19655 1403.0296,464.71656 1403.6696,463.91656   C 1404.3896,463.19657 1405.0296,461.99658 1405.7496,460.31659   z "
     id="path896" />
  <path
     style="fill:#000000;fill-rule:nonzero;fill-opacity:1;stroke:none;"
     d="  M 1424.2295,449.75667   L 1424.2295,460.55659   C 1424.2295,462.63657 1424.2295,463.91656 1424.3094,464.39656   C 1424.4694,464.87656 1424.5494,465.19655 1424.7894,465.35655   C 1425.0294,465.51655 1425.2694,465.59655 1425.5894,465.59655   C 1425.9894,465.59655 1426.3894,465.51655 1426.9494,465.27655   L 1427.1894,465.99655   L 1421.8295,468.15653   L 1420.9495,468.15653   L 1420.9495,464.39656   C 1419.4295,466.07655 1418.2295,467.11654 1417.4295,467.51654   C 1416.6295,467.99653 1415.8295,468.15653 1414.8695,468.15653   C 1413.9095,468.15653 1413.0295,467.91653 1412.3095,467.35654   C 1411.5095,466.71654 1411.0295,465.99655 1410.7895,465.11655   C 1410.4696,464.15656 1410.3096,462.87657 1410.3096,461.19658   L 1410.3096,453.19664   C 1410.3096,452.39665 1410.2296,451.75665 1410.0696,451.43666   C 1409.8296,451.11666 1409.5896,450.87666 1409.2696,450.71666   C 1408.8696,450.55666 1408.2296,450.47666 1407.2696,450.47666   L 1407.2696,449.75667   L 1413.5895,449.75667   L 1413.5895,461.75658   C 1413.5895,463.35657 1413.8295,464.47656 1414.3895,465.03656   C 1415.0295,465.51655 1415.7495,465.75655 1416.5495,465.75655   C 1417.1095,465.75655 1417.7495,465.59655 1418.3895,465.27655   C 1419.1095,464.87656 1419.9895,464.23656 1420.9495,463.27657   L 1420.9495,453.11664   C 1420.9495,452.07665 1420.7895,451.43666 1420.3895,451.03666   C 1420.0695,450.71666 1419.2695,450.47666 1418.0695,450.47666   L 1418.0695,449.75667   z "
     id="path898" />
  <path
     style="fill:#000000;fill-rule:nonzero;fill-opacity:1;stroke:none;"
     d="  M 1433.7494,453.03664   C 1435.8294,450.47666 1437.8293,449.19667 1439.7493,449.19667   C 1440.7093,449.19667 1441.5093,449.43667 1442.2293,449.99667   C 1442.9493,450.47666 1443.5093,451.27666 1443.9093,452.39665   C 1444.2293,453.11664 1444.3093,454.31663 1444.3093,455.99662   L 1444.3093,463.59657   C 1444.3093,464.71656 1444.4693,465.51655 1444.6293,465.91655   C 1444.7893,466.23655 1445.0293,466.47654 1445.2693,466.63654   C 1445.5893,466.87654 1446.2293,466.95654 1447.1093,466.95654   L 1447.1093,467.67654   L 1438.2293,467.67654   L 1438.2293,466.95654   L 1438.6293,466.95654   C 1439.4293,466.95654 1439.9893,466.79654 1440.3093,466.55654   C 1440.7093,466.31655 1440.9493,465.91655 1441.0293,465.43655   C 1441.1093,465.27655 1441.1093,464.63656 1441.1093,463.59657   L 1441.1093,456.23662   C 1441.1093,454.63663 1440.8693,453.43664 1440.4693,452.71665   C 1440.0693,451.99665 1439.3493,451.59665 1438.3893,451.59665   C 1436.7894,451.59665 1435.2694,452.47665 1433.7494,454.15664   L 1433.7494,463.59657   C 1433.7494,464.79656 1433.8294,465.59655 1433.9094,465.83655   C 1434.1494,466.23655 1434.3894,466.47654 1434.7094,466.71654   C 1435.0294,466.87654 1435.6694,466.95654 1436.6294,466.95654   L 1436.6294,467.67654   L 1427.7494,467.67654   L 1427.7494,466.95654   L 1428.1494,466.95654   C 1429.1094,466.95654 1429.6694,466.71654 1429.9894,466.23655   C 1430.3094,465.75655 1430.4694,464.87656 1430.4694,463.59657   L 1430.4694,456.95662   C 1430.4694,454.79663 1430.4694,453.51664 1430.3094,453.03664   C 1430.2294,452.55665 1430.0694,452.23665 1429.9094,452.07665   C 1429.6694,451.91665 1429.4294,451.83665 1429.1094,451.83665   C 1428.7094,451.83665 1428.3094,451.91665 1427.7494,452.07665   L 1427.5094,451.43666   L 1432.8694,449.19667   L 1433.7494,449.19667   z "
     id="path900" />
  <path
     style="fill:#000000;fill-rule:nonzero;fill-opacity:1;stroke:none;"
     d="  M 1458.6292,465.03656   C 1456.7892,466.47654 1455.6692,467.27654 1455.1892,467.51654   C 1454.4692,467.83653 1453.7492,467.99653 1452.9492,467.99653   C 1451.6692,467.99653 1450.7093,467.59654 1449.9093,466.71654   C 1449.1093,465.91655 1448.7093,464.79656 1448.7093,463.43657   C 1448.7093,462.55657 1448.8693,461.75658 1449.2693,461.11658   C 1449.8293,460.23659 1450.7093,459.4366 1452.0692,458.6366   C 1453.3492,457.83661 1455.5892,456.87662 1458.6292,455.75662   L 1458.6292,455.11663   C 1458.6292,453.27664 1458.3892,452.07665 1457.7492,451.43666   C 1457.1892,450.71666 1456.3892,450.39666 1455.3492,450.39666   C 1454.4692,450.39666 1453.8292,450.63666 1453.3492,451.11666   C 1452.8692,451.51666 1452.6292,451.99665 1452.6292,452.63665   L 1452.6292,453.75664   C 1452.6292,454.31663 1452.5492,454.79663 1452.2292,455.11663   C 1451.9092,455.43663 1451.5092,455.59663 1451.0293,455.59663   C 1450.5493,455.59663 1450.1493,455.43663 1449.8293,455.11663   C 1449.5093,454.79663 1449.3493,454.31663 1449.3493,453.75664   C 1449.3493,452.63665 1449.9093,451.59665 1451.1093,450.63666   C 1452.2292,449.67667 1453.8292,449.19667 1455.9092,449.19667   C 1457.5092,449.19667 1458.7892,449.51667 1459.8292,449.99667   C 1460.5492,450.39666 1461.1892,451.03666 1461.5092,451.91665   C 1461.7492,452.47665 1461.8292,453.59664 1461.8292,455.35663   L 1461.8292,461.43658   C 1461.8292,463.11657 1461.9092,464.15656 1461.9892,464.55656   C 1461.9892,464.95656 1462.1492,465.19655 1462.3092,465.35655   C 1462.4692,465.43655 1462.6292,465.51655 1462.7892,465.51655   C 1463.0292,465.51655 1463.1892,465.51655 1463.3492,465.35655   C 1463.5892,465.19655 1464.1492,464.71656 1464.9491,463.99656   L 1464.9491,465.03656   C 1463.5092,467.03654 1462.0692,467.99653 1460.7892,467.99653   C 1460.1492,467.99653 1459.5892,467.75654 1459.2692,467.35654   C 1458.8692,466.87654 1458.6292,466.15655 1458.6292,465.03656   z  M 1458.6292,463.75656   L 1458.6292,456.95662   C 1456.7092,457.75661 1455.4292,458.31661 1454.8692,458.6366   C 1453.8292,459.1966 1453.1092,459.83659 1452.6292,460.39659   C 1452.1492,461.03658 1451.9892,461.75658 1451.9892,462.47657   C 1451.9892,463.43657 1452.2292,464.23656 1452.7892,464.79656   C 1453.3492,465.43655 1453.9892,465.75655 1454.7092,465.75655   C 1455.7492,465.75655 1457.0292,465.11655 1458.6292,463.75656   z "
     id="path902" />
  <path
     style="fill:#000000;fill-rule:nonzero;fill-opacity:1;stroke:none;"
     d="  M 1471.5091,449.19667   L 1471.5091,453.27664   C 1472.9491,450.55666 1474.5491,449.19667 1476.0691,449.19667   C 1476.7891,449.19667 1477.4291,449.43667 1477.8291,449.91667   C 1478.309,450.31666 1478.549,450.79666 1478.549,451.35666   C 1478.549,451.91665 1478.389,452.31665 1478.0691,452.71665   C 1477.7491,453.03664 1477.3491,453.19664 1476.8691,453.19664   C 1476.3891,453.19664 1475.9091,452.95664 1475.2691,452.55665   C 1474.7091,452.07665 1474.3091,451.83665 1474.0691,451.83665   C 1473.8291,451.83665 1473.5891,451.99665 1473.2691,452.23665   C 1472.7091,452.79665 1472.0691,453.67664 1471.5091,454.87663   L 1471.5091,463.43657   C 1471.5091,464.47656 1471.5891,465.19655 1471.8291,465.67655   C 1471.9891,466.07655 1472.3091,466.31655 1472.7091,466.55654   C 1473.1891,466.79654 1473.8291,466.95654 1474.6291,466.95654   L 1474.6291,467.67654   L 1465.4291,467.67654   L 1465.4291,466.95654   C 1466.3891,466.95654 1467.0291,466.79654 1467.5091,466.47654   C 1467.8291,466.31655 1467.9891,465.99655 1468.1491,465.51655   C 1468.2291,465.27655 1468.2291,464.63656 1468.2291,463.59657   L 1468.2291,456.71662   C 1468.2291,454.63663 1468.2291,453.35664 1468.1491,452.95664   C 1468.0691,452.55665 1467.9091,452.31665 1467.6691,452.07665   C 1467.4291,451.91665 1467.1091,451.83665 1466.7891,451.83665   C 1466.3891,451.83665 1465.9091,451.91665 1465.4291,452.07665   L 1465.2691,451.43666   L 1470.6291,449.19667   z "
     id="path904" />
  <path
     style="fill:#000000;fill-rule:nonzero;fill-opacity:1;stroke:none;"
     d="  M 1501.2689,460.31659   L 1501.9089,460.47659   L 1499.6689,467.67654   L 1479.189,467.67654   L 1479.189,466.95654   L 1480.149,466.95654   C 1481.269,466.95654 1482.069,466.55654 1482.549,465.83655   C 1482.789,465.43655 1482.949,464.47656 1482.949,462.95657   L 1482.949,445.8367   C 1482.949,444.15671 1482.789,443.19672 1482.389,442.71672   C 1481.909,442.15672 1481.189,441.91673 1480.149,441.91673   L 1479.189,441.91673   L 1479.189,441.19673   L 1491.109,441.19673   L 1491.109,441.91673   C 1489.749,441.83673 1488.709,441.99673 1488.149,442.23672   C 1487.589,442.55672 1487.269,442.87672 1487.029,443.27672   C 1486.789,443.75671 1486.709,444.71671 1486.709,446.31669   L 1486.709,462.95657   C 1486.709,463.99656 1486.789,464.79656 1487.029,465.19655   C 1487.189,465.43655 1487.429,465.67655 1487.749,465.75655   C 1488.069,465.91655 1489.109,465.99655 1490.789,465.99655   L 1492.7089,465.99655   C 1494.7889,465.99655 1496.1489,465.83655 1497.0289,465.51655   C 1497.8289,465.19655 1498.5489,464.71656 1499.2689,463.91656   C 1499.9089,463.19657 1500.6289,461.99658 1501.2689,460.31659   z "
     id="path906" />
  <path
     style="fill:#000000;fill-rule:nonzero;fill-opacity:1;stroke:none;"
     d="  M 1514.2288,465.03656   C 1512.3888,466.47654 1511.1888,467.27654 1510.7088,467.51654   C 1510.0688,467.83653 1509.2688,467.99653 1508.4688,467.99653   C 1507.2688,467.99653 1506.2288,467.59654 1505.4288,466.71654   C 1504.6289,465.91655 1504.2289,464.79656 1504.2289,463.43657   C 1504.2289,462.55657 1504.3889,461.75658 1504.7889,461.11658   C 1505.3488,460.23659 1506.3088,459.4366 1507.5888,458.6366   C 1508.9488,457.83661 1511.1088,456.87662 1514.2288,455.75662   L 1514.2288,455.11663   C 1514.2288,453.27664 1513.9088,452.07665 1513.3488,451.43666   C 1512.7888,450.71666 1511.9888,450.39666 1510.8688,450.39666   C 1510.0688,450.39666 1509.4288,450.63666 1508.9488,451.11666   C 1508.3888,451.51666 1508.1488,451.99665 1508.1488,452.63665   L 1508.2288,453.75664   C 1508.2288,454.31663 1508.0688,454.79663 1507.7488,455.11663   C 1507.4288,455.43663 1507.0288,455.59663 1506.5488,455.59663   C 1506.0688,455.59663 1505.6688,455.43663 1505.3488,455.11663   C 1505.0289,454.79663 1504.9489,454.31663 1504.9489,453.75664   C 1504.9489,452.63665 1505.5088,451.59665 1506.6288,450.63666   C 1507.7488,449.67667 1509.3488,449.19667 1511.4288,449.19667   C 1513.0288,449.19667 1514.3088,449.51667 1515.3488,449.99667   C 1516.1488,450.39666 1516.7088,451.03666 1517.0288,451.91665   C 1517.2688,452.47665 1517.4288,453.59664 1517.4288,455.35663   L 1517.4288,461.43658   C 1517.4288,463.11657 1517.4288,464.15656 1517.5088,464.55656   C 1517.5888,464.95656 1517.6688,465.19655 1517.8288,465.35655   C 1517.9888,465.43655 1518.1488,465.51655 1518.3888,465.51655   C 1518.5488,465.51655 1518.7088,465.51655 1518.8687,465.35655   C 1519.1887,465.19655 1519.6687,464.71656 1520.4687,463.99656   L 1520.4687,465.03656   C 1519.0287,467.03654 1517.5888,467.99653 1516.3088,467.99653   C 1515.6688,467.99653 1515.1888,467.75654 1514.7888,467.35654   C 1514.3888,466.87654 1514.2288,466.15655 1514.2288,465.03656   z  M 1514.2288,463.75656   L 1514.2288,456.95662   C 1512.2288,457.75661 1510.9488,458.31661 1510.3888,458.6366   C 1509.3488,459.1966 1508.6288,459.83659 1508.1488,460.39659   C 1507.7488,461.03658 1507.5088,461.75658 1507.5088,462.47657   C 1507.5088,463.43657 1507.8288,464.23656 1508.3888,464.79656   C 1508.9488,465.43655 1509.5888,465.75655 1510.3088,465.75655   C 1511.2688,465.75655 1512.5488,465.11655 1514.2288,463.75656   z "
     id="path908" />
  <path
     style="fill:#000000;fill-rule:nonzero;fill-opacity:1;stroke:none;"
     d="  M 1527.0287,453.03664   C 1529.1087,450.47666 1531.1087,449.19667 1533.0286,449.19667   C 1533.9886,449.19667 1534.7886,449.43667 1535.5086,449.99667   C 1536.2286,450.47666 1536.7886,451.27666 1537.1886,452.39665   C 1537.5086,453.11664 1537.5886,454.31663 1537.5886,455.99662   L 1537.5886,463.59657   C 1537.5886,464.71656 1537.7486,465.51655 1537.9086,465.91655   C 1538.0686,466.23655 1538.3086,466.47654 1538.5486,466.63654   C 1538.9486,466.87654 1539.5086,466.95654 1540.3886,466.95654   L 1540.3886,467.67654   L 1531.5087,467.67654   L 1531.5087,466.95654   L 1531.9087,466.95654   C 1532.7086,466.95654 1533.2686,466.79654 1533.5886,466.55654   C 1533.9886,466.31655 1534.2286,465.91655 1534.3086,465.43655   C 1534.3886,465.27655 1534.3886,464.63656 1534.3886,463.59657   L 1534.3886,456.23662   C 1534.3886,454.63663 1534.2286,453.43664 1533.7486,452.71665   C 1533.3486,451.99665 1532.6286,451.59665 1531.6687,451.59665   C 1530.0687,451.59665 1528.5487,452.47665 1527.0287,454.15664   L 1527.0287,463.59657   C 1527.0287,464.79656 1527.1087,465.59655 1527.1887,465.83655   C 1527.4287,466.23655 1527.6687,466.47654 1527.9887,466.71654   C 1528.3087,466.87654 1528.9487,466.95654 1529.9087,466.95654   L 1529.9087,467.67654   L 1521.0287,467.67654   L 1521.0287,466.95654   L 1521.4287,466.95654   C 1522.3887,466.95654 1522.9487,466.71654 1523.2687,466.23655   C 1523.5887,465.75655 1523.7487,464.87656 1523.7487,463.59657   L 1523.7487,456.95662   C 1523.7487,454.79663 1523.7487,453.51664 1523.5887,453.03664   C 1523.5087,452.55665 1523.3487,452.23665 1523.1887,452.07665   C 1522.9487,451.91665 1522.7087,451.83665 1522.3887,451.83665   C 1521.9887,451.83665 1521.5887,451.91665 1521.0287,452.07665   L 1520.7887,451.43666   L 1526.1487,449.19667   L 1527.0287,449.19667   z "
     id="path910" />
  <path
     style="fill:#000000;fill-rule:nonzero;fill-opacity:1;stroke:none;"
     d="  M 1554.3885,465.59655   C 1553.5885,466.55654 1552.7085,467.19654 1551.8285,467.59654   C 1551.0285,467.99653 1550.1485,468.15653 1549.1885,468.15653   C 1547.1885,468.15653 1545.5086,467.35654 1544.0686,465.75655   C 1542.6286,464.07656 1541.8286,461.99658 1541.8286,459.4366   C 1541.8286,456.87662 1542.7086,454.55663 1544.3086,452.39665   C 1545.9085,450.23666 1547.9885,449.19667 1550.5485,449.19667   C 1552.0685,449.19667 1553.4285,449.67667 1554.3885,450.71666   L 1554.3885,447.43669   C 1554.3885,445.3567 1554.3885,444.07671 1554.2285,443.67671   C 1554.1485,443.19672 1553.9885,442.87672 1553.8285,442.71672   C 1553.5885,442.47672 1553.3485,442.39672 1553.0285,442.39672   C 1552.7085,442.39672 1552.2285,442.55672 1551.6685,442.71672   L 1551.4285,442.07673   L 1556.7885,439.83674   L 1557.6685,439.83674   L 1557.6685,460.55659   C 1557.6685,462.63657 1557.6685,463.91656 1557.7485,464.39656   C 1557.9085,464.87656 1558.0685,465.19655 1558.2285,465.35655   C 1558.4685,465.51655 1558.7085,465.59655 1559.0285,465.59655   C 1559.3484,465.59655 1559.8284,465.51655 1560.3884,465.27655   L 1560.6284,465.99655   L 1555.3485,468.15653   L 1554.3885,468.15653   z  M 1554.3885,464.23656   L 1554.3885,455.03663   C 1554.3085,454.15664 1554.1485,453.35664 1553.7485,452.63665   C 1553.3485,451.91665 1552.7885,451.35666 1552.1485,450.95666   C 1551.5085,450.63666 1550.8685,450.39666 1550.3085,450.39666   C 1549.1085,450.39666 1548.1485,450.95666 1547.1885,451.99665   C 1546.0685,453.27664 1545.4286,455.27663 1545.4286,457.91661   C 1545.4286,460.55659 1545.9885,462.55657 1547.1885,463.91656   C 1548.3085,465.35655 1549.5885,466.07655 1550.9485,466.07655   C 1552.1485,466.07655 1553.3485,465.43655 1554.3885,464.23656   z "
     id="path912" />
  <path
     style="fill:#000000;fill-rule:nonzero;fill-opacity:1;stroke:none;"
     d="  M 1564.7884,456.47662   C 1564.7884,459.1166 1565.4284,461.19658 1566.7084,462.71657   C 1568.0684,464.23656 1569.5884,465.03656 1571.3484,465.03656   C 1572.4684,465.03656 1573.5083,464.71656 1574.3883,464.07656   C 1575.2683,463.43657 1575.9883,462.31658 1576.5483,460.71659   L 1577.1883,461.11658   C 1576.8683,462.87657 1576.0683,464.55656 1574.7883,465.99655   C 1573.4283,467.43654 1571.8284,468.15653 1569.8284,468.15653   C 1567.6684,468.15653 1565.8284,467.35654 1564.3084,465.67655   C 1562.7884,463.99656 1561.9884,461.75658 1561.9884,458.9566   C 1561.9884,455.83662 1562.7884,453.51664 1564.3884,451.75665   C 1565.9084,450.07667 1567.9084,449.19667 1570.3084,449.19667   C 1572.3084,449.19667 1573.9083,449.83667 1575.1883,451.19666   C 1576.5483,452.47665 1577.1883,454.23664 1577.1883,456.47662   z  M 1564.7884,455.35663   L 1573.1083,455.35663   C 1573.0283,454.23664 1572.8683,453.43664 1572.6284,452.95664   C 1572.3084,452.23665 1571.8284,451.59665 1571.1884,451.19666   C 1570.5484,450.79666 1569.9084,450.55666 1569.1884,450.55666   C 1568.1484,450.55666 1567.1084,451.03666 1566.3084,451.83665   C 1565.4284,452.71665 1564.9484,453.83664 1564.7884,455.35663   z "
     id="path914" />
  <path
     style="fill:#000000;fill-rule:nonzero;fill-opacity:1;stroke:none;"
     d="  M 1584.7883,449.19667   L 1584.7883,453.27664   C 1586.2283,450.55666 1587.8282,449.19667 1589.3482,449.19667   C 1590.0682,449.19667 1590.7082,449.43667 1591.1082,449.91667   C 1591.5882,450.31666 1591.8282,450.79666 1591.8282,451.35666   C 1591.8282,451.91665 1591.6682,452.31665 1591.3482,452.71665   C 1591.0282,453.03664 1590.6282,453.19664 1590.1482,453.19664   C 1589.6682,453.19664 1589.1882,452.95664 1588.5482,452.55665   C 1587.9882,452.07665 1587.5882,451.83665 1587.3482,451.83665   C 1587.1082,451.83665 1586.8682,451.99665 1586.5482,452.23665   C 1585.9883,452.79665 1585.3483,453.67664 1584.7883,454.87663   L 1584.7883,463.43657   C 1584.7883,464.47656 1584.8683,465.19655 1585.1083,465.67655   C 1585.2683,466.07655 1585.5883,466.31655 1585.9883,466.55654   C 1586.4682,466.79654 1587.1082,466.95654 1587.9082,466.95654   L 1587.9082,467.67654   L 1578.7083,467.67654   L 1578.7083,466.95654   C 1579.6683,466.95654 1580.3083,466.79654 1580.7883,466.47654   C 1581.1083,466.31655 1581.2683,465.99655 1581.4283,465.51655   C 1581.5083,465.27655 1581.5083,464.63656 1581.5083,463.59657   L 1581.5083,456.71662   C 1581.5083,454.63663 1581.5083,453.35664 1581.4283,452.95664   C 1581.3483,452.55665 1581.1883,452.31665 1580.9483,452.07665   C 1580.7083,451.91665 1580.3883,451.83665 1580.0683,451.83665   C 1579.6683,451.83665 1579.2683,451.91665 1578.7083,452.07665   L 1578.5483,451.43666   L 1583.9083,449.19667   z "
     id="path916" />
  <path
     style="fill:#000000;fill-rule:nonzero;fill-opacity:1;stroke:none;"
     d="  M 1592.4682,457.19661   L 1602.5481,457.19661   L 1602.5481,460.15659   L 1592.4682,460.15659   z "
     id="path918" />
  <path
     style="fill:#000000;fill-rule:nonzero;fill-opacity:1;stroke:none;"
     d="  M 1604.5481,449.75667   L 1612.9481,449.75667   L 1612.9481,450.47666   L 1612.3881,450.47666   C 1611.9081,450.47666 1611.5081,450.63666 1611.2681,450.87666   C 1610.9481,451.11666 1610.8681,451.43666 1610.8681,451.83665   C 1610.8681,452.31665 1610.9481,452.87665 1611.2681,453.43664   L 1615.428,463.35657   L 1619.588,453.11664   C 1619.908,452.39665 1620.068,451.83665 1620.068,451.43666   C 1620.068,451.27666 1619.988,451.11666 1619.908,450.95666   C 1619.748,450.79666 1619.588,450.63666 1619.348,450.55666   C 1619.108,450.47666 1618.708,450.47666 1617.988,450.47666   L 1617.988,449.75667   L 1623.828,449.75667   L 1623.828,450.47666   C 1623.188,450.55666 1622.708,450.63666 1622.468,450.87666   C 1621.988,451.27666 1621.588,451.91665 1621.188,452.87665   L 1614.868,468.15653   L 1614.068,468.15653   L 1607.6681,453.11664   C 1607.3481,452.39665 1607.1081,451.91665 1606.8681,451.59665   C 1606.5481,451.27666 1606.2281,451.03666 1605.8281,450.79666   C 1605.5881,450.71666 1605.1881,450.55666 1604.5481,450.47666   z "
     id="path920" />
  <path
     style="fill:#000000;fill-rule:nonzero;fill-opacity:1;stroke:none;"
     d="  M 1642.5478,462.55657   L 1640.7078,467.67654   L 1625.028,467.67654   L 1625.028,466.95654   C 1629.6679,462.71657 1632.8679,459.2766 1634.7879,456.63662   C 1636.6279,453.99664 1637.5879,451.59665 1637.5879,449.35667   C 1637.5879,447.67668 1637.1079,446.31669 1636.0679,445.1967   C 1635.0279,444.15671 1633.7479,443.59671 1632.3879,443.59671   C 1631.0279,443.59671 1629.9079,443.99671 1628.8679,444.71671   C 1627.8279,445.5167 1627.0279,446.63669 1626.548,448.07668   L 1625.828,448.07668   C 1626.148,445.6767 1627.0279,443.83671 1628.3079,442.55672   C 1629.6679,441.27673 1631.3479,440.63674 1633.4279,440.63674   C 1635.5079,440.63674 1637.3479,441.27673 1638.7879,442.71672   C 1640.2279,444.07671 1640.9478,445.6767 1640.9478,447.59668   C 1640.9478,448.87667 1640.6278,450.23666 1639.9879,451.59665   C 1639.0279,453.67664 1637.4279,455.91662 1635.2679,458.31661   C 1632.0679,461.83658 1630.0679,463.99656 1629.2679,464.71656   L 1636.1479,464.71656   C 1637.5879,464.71656 1638.5479,464.63656 1639.1079,464.55656   C 1639.6679,464.39656 1640.1479,464.23656 1640.6278,463.91656   C 1641.1078,463.59657 1641.5078,463.11657 1641.8278,462.55657   z "
     id="path922" />
  <path
     style="fill:#000000;fill-rule:nonzero;fill-opacity:1;stroke:none;"
     d="  M 898.95334,606.71551   L 888.71342,606.71551   L 886.95343,610.87547   C 886.47343,611.91547 886.23344,612.71546 886.23344,613.19546   C 886.23344,613.59545 886.47343,613.99545 886.87343,614.31545   C 887.19343,614.55545 888.07342,614.79545 889.35341,614.87545   L 889.35341,615.59544   L 881.03347,615.59544   L 881.03347,614.87545   C 882.07347,614.63545 882.79346,614.39545 883.11346,614.07545   C 883.83345,613.51546 884.55345,612.23546 885.35344,610.31548   L 894.63337,588.47564   L 895.35337,588.47564   L 904.5533,610.55548   C 905.27329,612.31546 905.99329,613.43546 906.55328,613.99545   C 907.19328,614.47545 908.07327,614.79545 909.11327,614.87545   L 909.11327,615.59544   L 898.63334,615.59544   L 898.63334,614.87545   C 899.75334,614.79545 900.47333,614.63545 900.79333,614.31545   C 901.19332,614.07545 901.35332,613.67545 901.35332,613.27546   C 901.35332,612.63546 901.11333,611.75547 900.55333,610.55548   z  M 898.47334,605.27552   L 893.91338,594.5556   L 889.35341,605.27552   z "
     id="path924" />
  <path
     style="fill:#000000;fill-rule:nonzero;fill-opacity:1;stroke:none;"
     d="  M 926.07314,608.79549   C 925.51314,611.11547 924.63315,612.95546 923.19316,614.23545   C 921.83317,615.51544 920.23318,616.15544 918.5532,616.15544   C 916.47321,616.15544 914.71322,615.27544 913.19324,613.59545   C 911.67325,611.83547 910.95325,609.59548 910.95325,606.63551   C 910.95325,603.83553 911.75325,601.59554 913.43323,599.83556   C 915.11322,598.07557 917.11321,597.19558 919.51319,597.19558   C 921.27318,597.19558 922.71317,597.67557 923.83316,598.55557   C 924.95315,599.51556 925.51314,600.47555 925.51314,601.43554   C 925.51314,601.99554 925.35315,602.39554 925.03315,602.71554   C 924.71315,602.95553 924.31315,603.11553 923.67316,603.11553   C 922.95316,603.11553 922.39317,602.87553 921.99317,602.39554   C 921.75317,602.07554 921.59317,601.59554 921.51317,600.79555   C 921.43317,600.07555 921.19318,599.43556 920.71318,599.03556   C 920.31318,598.63557 919.67319,598.47557 918.87319,598.47557   C 917.5132,598.47557 916.47321,598.95556 915.67322,599.91556   C 914.63322,601.19555 914.15323,602.87553 914.15323,604.95552   C 914.15323,607.1155 914.63322,609.03549 915.67322,610.63548   C 916.71321,612.23546 918.1532,613.11546 919.91319,613.11546   C 921.19318,613.11546 922.39317,612.63546 923.35316,611.75547   C 924.07316,611.19547 924.79315,610.07548 925.43314,608.55549   z "
     id="path926" />
  <path
     style="fill:#000000;fill-rule:nonzero;fill-opacity:1;stroke:none;"
     d="  M 933.83308,597.19558   L 933.83308,601.19555   C 935.27307,598.47557 936.87306,597.19558 938.39305,597.19558   C 939.11304,597.19558 939.75304,597.35558 940.23304,597.83557   C 940.63303,598.23557 940.87303,598.79556 940.87303,599.35556   C 940.87303,599.83556 940.71303,600.31555 940.39303,600.63555   C 940.07304,600.95555 939.67304,601.11555 939.19304,601.11555   C 938.71305,601.11555 938.23305,600.95555 937.67305,600.47555   C 937.11306,599.99556 936.63306,599.83556 936.39306,599.83556   C 936.15307,599.83556 935.91307,599.91556 935.59307,600.23555   C 935.03307,600.71555 934.39308,601.59554 933.83308,602.79553   L 933.83308,611.43547   C 933.83308,612.39546 933.91308,613.11546 934.15308,613.67545   C 934.31308,613.99545 934.63308,614.31545 935.11307,614.55545   C 935.51307,614.79545 936.15307,614.87545 936.95306,614.87545   L 936.95306,615.59544   L 927.75313,615.59544   L 927.75313,614.87545   C 928.71312,614.87545 929.35312,614.71545 929.83311,614.47545   C 930.15311,614.23545 930.39311,613.91545 930.47311,613.43546   C 930.55311,613.27546 930.55311,612.63546 930.55311,611.59547   L 930.55311,604.63552   C 930.55311,602.55554 930.55311,601.27555 930.47311,600.95555   C 930.39311,600.55555 930.23311,600.23555 929.99311,600.07555   C 929.75311,599.83556 929.51311,599.75556 929.11312,599.75556   C 928.71312,599.75556 928.31312,599.83556 927.75313,600.07555   L 927.59313,599.35556   L 932.95309,597.19558   z "
     id="path928" />
  <path
     style="fill:#000000;fill-rule:nonzero;fill-opacity:1;stroke:none;"
     d="  M 950.71296,597.19558   C 953.35294,597.19558 955.59292,598.23557 957.19291,600.23555   C 958.6329,601.99554 959.27289,603.99553 959.27289,606.31551   C 959.27289,607.9155 958.8729,609.51549 958.1529,611.19547   C 957.35291,612.79546 956.31292,614.07545 954.95293,614.87545   C 953.59294,615.75544 952.15295,616.15544 950.47296,616.15544   C 947.75298,616.15544 945.593,615.03544 944.07301,612.87546   C 942.71302,611.11547 941.99302,609.03549 941.99302,606.79551   C 941.99302,605.19552 942.47302,603.51553 943.27301,601.91554   C 944.07301,600.31555 945.113,599.11556 946.47299,598.31557   C 947.75298,597.59557 949.19297,597.19558 950.71296,597.19558   z  M 950.07296,598.47557   C 949.35297,598.47557 948.71297,598.63557 947.99298,599.03556   C 947.27298,599.43556 946.71299,600.15555 946.31299,601.19555   C 945.91299,602.23554 945.673,603.59553 945.673,605.19552   C 945.673,607.7555 946.15299,609.99548 947.19298,611.91547   C 948.23298,613.83545 949.59297,614.71545 951.27295,614.71545   C 952.55294,614.71545 953.59294,614.23545 954.39293,613.19546   C 955.27292,612.15547 955.67292,610.31548 955.67292,607.8355   C 955.67292,604.63552 954.95293,602.15554 953.59294,600.31555   C 952.71294,599.03556 951.51295,598.47557 950.07296,598.47557   z "
     id="path930" />
  <path
     style="fill:#000000;fill-rule:nonzero;fill-opacity:1;stroke:none;"
     d="  M 966.87284,600.79555   C 968.55283,598.39557 970.47281,597.19558 972.4728,597.19558   C 974.31278,597.19558 975.91277,597.99557 977.27276,599.51556   C 978.63275,601.11555 979.27275,603.27553 979.27275,605.99551   C 979.27275,609.11549 978.23275,611.67547 976.15277,613.67545   C 974.31278,615.27544 972.3128,616.15544 970.07281,616.15544   C 969.03282,616.15544 967.99283,615.91544 966.87284,615.59544   C 965.83285,615.19544 964.71285,614.63545 963.59286,613.83545   L 963.59286,595.35559   C 963.59286,593.27561 963.59286,592.07561 963.43286,591.59562   C 963.35286,591.11562 963.19287,590.79562 963.03287,590.63562   C 962.79287,590.47563 962.55287,590.39563 962.23287,590.39563   C 961.83288,590.39563 961.43288,590.47563 960.87288,590.71562   L 960.55288,589.99563   L 965.99284,587.83565   L 966.87284,587.83565   z  M 966.87284,601.99554   L 966.87284,612.71546   C 967.51283,613.35546 968.15283,613.91545 968.87282,614.23545   C 969.59282,614.55545 970.31281,614.71545 971.11281,614.71545   C 972.2328,614.71545 973.35279,614.07545 974.39278,612.79546   C 975.43277,611.43547 975.91277,609.59548 975.91277,607.0355   C 975.91277,604.79552 975.43277,603.03553 974.39278,601.83554   C 973.35279,600.55555 972.2328,599.91556 970.87281,599.91556   C 970.23281,599.91556 969.51282,600.15555 968.79282,600.47555   C 968.31283,600.71555 967.67283,601.27555 966.87284,601.99554   z "
     id="path932" />
  <path
     style="fill:#000000;fill-rule:nonzero;fill-opacity:1;stroke:none;"
     d="  M 990.71266,597.19558   C 993.35264,597.19558 995.59263,598.23557 997.19261,600.23555   C 998.6326,601.99554 999.2726,603.99553 999.2726,606.31551   C 999.2726,607.9155 998.8726,609.51549 998.15261,611.19547   C 997.35261,612.79546 996.31262,614.07545 994.95263,614.87545   C 993.59264,615.75544 992.15265,616.15544 990.47266,616.15544   C 987.75268,616.15544 985.5927,615.03544 984.07271,612.87546   C 982.71272,611.11547 981.99273,609.03549 981.99273,606.79551   C 981.99273,605.19552 982.47272,603.51553 983.27272,601.91554   C 984.07271,600.31555 985.1127,599.11556 986.47269,598.31557   C 987.75268,597.59557 989.19267,597.19558 990.71266,597.19558   z  M 990.07267,598.47557   C 989.35267,598.47557 988.71268,598.63557 987.99268,599.03556   C 987.27269,599.43556 986.71269,600.15555 986.31269,601.19555   C 985.9127,602.23554 985.6727,603.59553 985.6727,605.19552   C 985.6727,607.7555 986.1527,609.99548 987.19269,611.91547   C 988.23268,613.83545 989.59267,614.71545 991.27266,614.71545   C 992.55265,614.71545 993.59264,614.23545 994.39263,613.19546   C 995.27263,612.15547 995.67262,610.31548 995.67262,607.8355   C 995.67262,604.63552 994.95263,602.15554 993.59264,600.31555   C 992.71265,599.03556 991.51266,598.47557 990.07267,598.47557   z "
     id="path934" />
  <path
     style="fill:#000000;fill-rule:nonzero;fill-opacity:1;stroke:none;"
     d="  M 1007.1125,591.83562   L 1007.1125,597.67557   L 1011.2725,597.67557   L 1011.2725,599.03556   L 1007.1125,599.03556   L 1007.1125,610.63548   C 1007.1125,611.83547 1007.2725,612.63546 1007.5925,613.03546   C 1007.9925,613.43546 1008.3925,613.59545 1008.8725,613.59545   C 1009.3525,613.59545 1009.7525,613.51546 1010.1525,613.19546   C 1010.5525,612.95546 1010.8725,612.55546 1011.1125,611.99547   L 1011.8325,611.99547   C 1011.4325,613.27546 1010.7925,614.23545 1009.9125,614.95544   C 1009.1125,615.59544 1008.2325,615.91544 1007.3525,615.91544   C 1006.7125,615.91544 1006.1525,615.75544 1005.5926,615.35544   C 1005.0326,615.03544 1004.5526,614.55545 1004.3126,613.99545   C 1004.0726,613.35546 1003.9126,612.39546 1003.9126,611.11547   L 1003.9126,599.03556   L 1001.1126,599.03556   L 1001.1126,598.39557   C 1001.7526,598.15557 1002.5526,597.67557 1003.2726,596.95558   C 1003.9926,596.31558 1004.7126,595.43559 1005.2726,594.5556   C 1005.5926,594.0756 1005.9925,593.11561 1006.5525,591.83562   z "
     id="path936" />
  <path
     style="fill:#000000;fill-rule:nonzero;fill-opacity:1;stroke:none;"
     d="  M 1013.4325,605.11552   L 1023.5124,605.11552   L 1023.5124,608.0755   L 1013.4325,608.0755   z "
     id="path938" />
  <path
     style="fill:#000000;fill-rule:nonzero;fill-opacity:1;stroke:none;"
     d="  M 1025.4324,597.67557   L 1033.9123,597.67557   L 1033.9123,598.39557   L 1033.3523,598.39557   C 1032.7923,598.39557 1032.4724,598.55557 1032.1524,598.79556   C 1031.9124,599.03556 1031.7524,599.35556 1031.7524,599.75556   C 1031.7524,600.23555 1031.9124,600.79555 1032.1524,601.43554   L 1036.3123,611.27547   L 1040.5523,601.03555   C 1040.7923,600.31555 1040.9523,599.75556 1040.9523,599.35556   C 1040.9523,599.19556 1040.9523,599.03556 1040.7923,598.95556   C 1040.7123,598.71557 1040.4723,598.63557 1040.2323,598.55557   C 1040.0723,598.47557 1039.5923,598.39557 1038.9523,598.39557   L 1038.9523,597.67557   L 1044.7923,597.67557   L 1044.7923,598.39557   C 1044.0723,598.47557 1043.5923,598.63557 1043.3523,598.79556   C 1042.8723,599.19556 1042.4723,599.83556 1042.1523,600.79555   L 1035.7523,616.15544   L 1034.9523,616.15544   L 1028.6324,601.03555   C 1028.3124,600.31555 1028.0724,599.83556 1027.7524,599.51556   C 1027.5124,599.19556 1027.1924,598.95556 1026.7924,598.71557   C 1026.5524,598.63557 1026.1524,598.55557 1025.4324,598.39557   z "
     id="path940" />
  <path
     style="fill:#000000;fill-rule:nonzero;fill-opacity:1;stroke:none;"
     d="  M 1049.8322,591.67562   L 1056.2322,588.55564   L 1056.9522,588.55564   L 1056.9522,610.95547   C 1056.9522,612.39546 1056.9522,613.35546 1057.1122,613.67545   C 1057.1922,614.07545 1057.5122,614.31545 1057.8322,614.55545   C 1058.2322,614.71545 1059.0322,614.87545 1060.2321,614.87545   L 1060.2321,615.59544   L 1050.3122,615.59544   L 1050.3122,614.87545   C 1051.5122,614.87545 1052.3122,614.71545 1052.7122,614.55545   C 1053.1122,614.39545 1053.3522,614.07545 1053.5122,613.75545   C 1053.5922,613.43546 1053.6722,612.47546 1053.6722,610.95547   L 1053.6722,596.63558   C 1053.6722,594.71559 1053.5922,593.4356 1053.5122,592.87561   C 1053.4322,592.47561 1053.2722,592.15561 1052.9522,591.99561   C 1052.7922,591.83562 1052.4722,591.67562 1052.1522,591.67562   C 1051.6722,591.67562 1050.9522,591.91562 1050.1522,592.31561   z "
     id="path942" />
  <path
     style="fill:#e5d4aa;fill-opacity:1;fill-rule:nonzero;stroke:none;stroke-width:1.12639666"
     d="m 251.18359,236.82876 10.20616,-5.51291 71.44155,132.26118 -10.20616,5.51291 z"
     id="path824-2"
     inkscape:connector-curvature="0" />
  <g
     inkscape:groupmode="layer"
     id="layer1"
     inkscape:label="Layer 1" />
  <g
     inkscape:groupmode="layer"
     id="layer2"
     inkscape:label="Layer 2">
    <path
       style="fill:#aa8800;fill-opacity:1;fill-rule:nonzero;stroke:none;stroke-width:1.12639666"
       d="m 322.62514,218.76723 h 11.59991 v 150.32271 h -11.59991 z"
       id="path824-25"
       inkscape:connector-curvature="0" />
  </g>
</svg>
