<?xml version="1.0" encoding="utf-8" standalone="no"?>
<!DOCTYPE svg PUBLIC "-//W3C//DTD SVG 1.1//EN"
  "http://www.w3.org/Graphics/SVG/1.1/DTD/svg11.dtd">
<!-- Created with matplotlib (http://matplotlib.org/) -->
<svg height="209.185937pt" version="1.1" viewBox="0 0 281.65875 209.185937" width="281.65875pt" xmlns="http://www.w3.org/2000/svg" xmlns:xlink="http://www.w3.org/1999/xlink">
 <defs>
  <style type="text/css">
*{stroke-linecap:butt;stroke-linejoin:round;}
  </style>
 </defs>
 <g id="figure_1">
  <g id="patch_1">
   <path d="M 0 209.185937 
L 281.65875 209.185937 
L 281.65875 0 
L 0 0 
z
" style="fill:none;"/>
  </g>
  <g id="axes_1">
   <g id="patch_2">
    <path d="M 47.41875 173.68125 
L 270.95875 173.68125 
L 270.95875 10.7 
L 47.41875 10.7 
z
" style="fill:#ffffff;"/>
   </g>
   <g id="matplotlib.axis_1">
    <g id="xtick_1">
     <g id="line2d_1">
      <defs>
       <path d="M 0 0 
L 0 3.5 
" id="meddfbe9a8c" style="stroke:#000000;stroke-width:0.8;"/>
      </defs>
      <g>
       <use style="stroke:#000000;stroke-width:0.8;" x="57.579659" xlink:href="#meddfbe9a8c" y="173.68125"/>
      </g>
     </g>
     <g id="text_1">
      <!-- 0 -->
      <defs>
       <path d="M 3.125 29.296875 
Q 3.90625 50 6.4375 56.046875 
Q 8.984375 62.109375 13.671875 66.015625 
Q 18.359375 69.921875 25.1875 69.921875 
Q 32.03125 69.921875 37.109375 64.25 
Q 42.1875 58.59375 43.75 50 
Q 45.3125 41.40625 44.71875 30.265625 
Q 44.140625 19.140625 40.8125 12.109375 
Q 37.5 5.078125 30.859375 2.34375 
Q 24.21875 -0.390625 17.578125 2.921875 
Q 10.9375 6.25 8.203125 11.71875 
Q 5.46875 17.1875 4.296875 23.234375 
Q 3.125 29.296875 3.90625 50 
z
M 12.890625 52.734375 
Q 10.546875 31.25 12.5 22.84375 
Q 14.453125 14.453125 18.9375 10.9375 
Q 23.4375 7.421875 28.125 9.5625 
Q 32.8125 11.71875 34.953125 18.15625 
Q 37.109375 24.609375 37.109375 32.21875 
Q 37.109375 39.84375 36.515625 46.09375 
Q 35.9375 52.34375 33 57.421875 
Q 30.078125 62.5 25.1875 62.6875 
Q 20.3125 62.890625 16.59375 57.8125 
Q 12.890625 52.734375 10.546875 31.25 
z
" id="SimHei-30"/>
      </defs>
      <g transform="translate(55.079659 187.55625)scale(0.1 -0.1)">
       <use xlink:href="#SimHei-30"/>
      </g>
     </g>
    </g>
    <g id="xtick_2">
     <g id="line2d_2">
      <g>
       <use style="stroke:#000000;stroke-width:0.8;" x="108.639504" xlink:href="#meddfbe9a8c" y="173.68125"/>
      </g>
     </g>
     <g id="text_2">
      <!-- 50 -->
      <defs>
       <path d="M 8.59375 20.703125 
Q 11.328125 10.15625 17.96875 8.984375 
Q 24.609375 7.8125 28.703125 10.34375 
Q 32.8125 12.890625 34.5625 16.984375 
Q 36.328125 21.09375 36.125 26.171875 
Q 35.9375 31.25 33.390625 34.765625 
Q 30.859375 38.28125 26.953125 39.453125 
Q 23.046875 40.625 18.15625 39.453125 
Q 13.28125 38.28125 10.15625 33.984375 
L 3.515625 34.765625 
Q 4.296875 37.109375 10.9375 68.359375 
L 41.796875 68.359375 
L 41.796875 61.328125 
L 16.796875 61.328125 
Q 14.84375 50.78125 12.890625 44.53125 
Q 18.75 47.265625 23.828125 47.0625 
Q 28.90625 46.875 33.59375 44.71875 
Q 38.28125 42.578125 40.421875 38.859375 
Q 42.578125 35.15625 43.546875 31.4375 
Q 44.53125 27.734375 44.328125 23.4375 
Q 44.140625 19.140625 42.578125 14.640625 
Q 41.015625 10.15625 37.890625 7.21875 
Q 34.765625 4.296875 30.265625 2.53125 
Q 25.78125 0.78125 19.921875 1.171875 
Q 14.0625 1.5625 8.78125 5.46875 
Q 3.515625 9.375 1.5625 18.75 
z
" id="SimHei-35"/>
      </defs>
      <g transform="translate(103.639504 187.55625)scale(0.1 -0.1)">
       <use xlink:href="#SimHei-35"/>
       <use x="50" xlink:href="#SimHei-30"/>
      </g>
     </g>
    </g>
    <g id="xtick_3">
     <g id="line2d_3">
      <g>
       <use style="stroke:#000000;stroke-width:0.8;" x="159.699348" xlink:href="#meddfbe9a8c" y="173.68125"/>
      </g>
     </g>
     <g id="text_3">
      <!-- 100 -->
      <defs>
       <path d="M 21.875 56.25 
Q 16.796875 51.171875 8.984375 46.484375 
L 8.984375 53.90625 
Q 18.75 60.546875 25 69.53125 
L 29.6875 69.53125 
L 29.6875 2.34375 
L 21.875 2.34375 
z
" id="SimHei-31"/>
      </defs>
      <g transform="translate(152.199348 187.55625)scale(0.1 -0.1)">
       <use xlink:href="#SimHei-31"/>
       <use x="50" xlink:href="#SimHei-30"/>
       <use x="100" xlink:href="#SimHei-30"/>
      </g>
     </g>
    </g>
    <g id="xtick_4">
     <g id="line2d_4">
      <g>
       <use style="stroke:#000000;stroke-width:0.8;" x="210.759193" xlink:href="#meddfbe9a8c" y="173.68125"/>
      </g>
     </g>
     <g id="text_4">
      <!-- 150 -->
      <g transform="translate(203.259193 187.55625)scale(0.1 -0.1)">
       <use xlink:href="#SimHei-31"/>
       <use x="50" xlink:href="#SimHei-35"/>
       <use x="100" xlink:href="#SimHei-30"/>
      </g>
     </g>
    </g>
    <g id="xtick_5">
     <g id="line2d_5">
      <g>
       <use style="stroke:#000000;stroke-width:0.8;" x="261.819038" xlink:href="#meddfbe9a8c" y="173.68125"/>
      </g>
     </g>
     <g id="text_5">
      <!-- 200 -->
      <defs>
       <path d="M 4.6875 3.90625 
Q 5.078125 9.765625 10.15625 14.453125 
Q 15.234375 19.140625 23.046875 29.09375 
Q 30.859375 39.0625 33.203125 44.53125 
Q 35.546875 50 34.953125 53.90625 
Q 34.375 57.8125 31.25 60.34375 
Q 28.125 62.890625 24.015625 62.5 
Q 19.921875 62.109375 16.203125 59.375 
Q 12.5 56.640625 10.546875 51.171875 
L 3.125 52.34375 
Q 6.25 61.328125 11.125 65.421875 
Q 16.015625 69.53125 22.65625 69.921875 
Q 26.5625 70.3125 29.6875 69.71875 
Q 32.8125 69.140625 36.125 66.984375 
Q 39.453125 64.84375 41.59375 60.546875 
Q 43.75 56.25 43.15625 50.1875 
Q 42.578125 44.140625 37.109375 35.734375 
Q 31.640625 27.34375 16.015625 9.375 
L 44.140625 9.375 
L 44.140625 2.34375 
L 4.6875 2.34375 
z
" id="SimHei-32"/>
      </defs>
      <g transform="translate(254.319038 187.55625)scale(0.1 -0.1)">
       <use xlink:href="#SimHei-32"/>
       <use x="50" xlink:href="#SimHei-30"/>
       <use x="100" xlink:href="#SimHei-30"/>
      </g>
     </g>
    </g>
    <g id="text_6">
     <!-- 训练回合数 -->
     <defs>
      <path d="M 25.78125 51.5625 
Q 25.390625 42.578125 25.390625 34.765625 
L 25.390625 10.546875 
Q 30.46875 17.578125 32.03125 19.921875 
Q 33.984375 17.578125 36.71875 14.0625 
Q 31.640625 7.8125 28.125 3.3125 
Q 24.609375 -1.171875 20.703125 -6.640625 
Q 17.96875 -3.125 14.84375 -0.78125 
Q 17.96875 3.515625 17.96875 9.765625 
L 17.96875 44.921875 
L 15.234375 44.921875 
Q 9.375 44.921875 4.6875 44.53125 
L 4.6875 51.953125 
Q 9.375 51.5625 15.234375 51.5625 
z
M 53.515625 71.875 
Q 52.734375 67.96875 52.921875 52.53125 
Q 53.125 37.109375 52.140625 29.484375 
Q 51.171875 21.875 48.234375 13.078125 
Q 45.3125 4.296875 38.28125 -5.859375 
Q 34.765625 -3.125 30.859375 -1.953125 
Q 39.84375 7.8125 43.15625 21.28125 
Q 46.484375 34.765625 46.09375 52.140625 
Q 45.703125 69.53125 45.3125 73.046875 
Q 49.21875 72.265625 53.515625 71.875 
z
M 91.796875 73.4375 
Q 91.40625 70.3125 91.40625 62.109375 
L 91.40625 9.765625 
Q 91.40625 1.953125 91.796875 -6.25 
L 84.375 -6.25 
Q 84.765625 1.953125 84.765625 9.375 
L 84.765625 62.109375 
Q 84.765625 70.3125 84.375 73.4375 
L 91.796875 73.4375 
z
M 71.875 2.734375 
L 64.453125 2.734375 
Q 64.84375 11.328125 64.84375 17.96875 
L 64.84375 56.25 
Q 64.84375 63.28125 64.453125 67.96875 
L 71.875 67.96875 
z
M 15.625 80.46875 
Q 25.78125 71.875 32.8125 64.0625 
Q 29.296875 61.328125 27.34375 58.59375 
Q 16.40625 71.09375 10.9375 75 
Q 13.28125 77.34375 15.625 80.46875 
z
" id="SimHei-8bad"/>
      <path d="M 51.5625 59.765625 
Q 46.09375 59.765625 37.5 59.375 
L 37.5 66.40625 
Q 46.09375 66.015625 51.953125 66.015625 
L 56.640625 66.015625 
Q 60.546875 77.34375 60.9375 80.859375 
Q 65.625 78.515625 69.53125 76.953125 
Q 67.96875 75.390625 66.59375 72.0625 
Q 65.234375 68.75 64.0625 66.015625 
L 78.515625 66.015625 
Q 84.765625 66.015625 92.1875 66.40625 
L 92.1875 59.375 
Q 86.71875 59.765625 78.515625 59.765625 
L 62.109375 59.765625 
Q 60.15625 55.078125 57.8125 49.21875 
L 73.046875 49.21875 
Q 72.65625 44.921875 72.65625 38.671875 
L 72.65625 30.859375 
L 77.734375 30.859375 
Q 83.59375 30.859375 90.625 31.25 
L 90.625 24.21875 
Q 83.59375 24.609375 77.734375 24.609375 
L 72.65625 24.609375 
L 72.65625 1.953125 
Q 72.65625 -4.6875 69.71875 -6.640625 
Q 66.796875 -8.59375 57.03125 -9.765625 
Q 56.640625 -5.859375 53.90625 -1.5625 
Q 63.671875 -1.953125 64.640625 -0.390625 
Q 65.625 1.171875 65.625 5.078125 
L 65.625 24.609375 
L 53.515625 24.609375 
Q 50.78125 24.609375 48.4375 24.40625 
Q 46.09375 24.21875 42.96875 23.046875 
Q 41.40625 26.953125 39.84375 30.46875 
Q 43.75 31.640625 48.828125 43.359375 
Q 46.09375 43.359375 38.28125 42.96875 
L 38.28125 49.609375 
Q 47.265625 49.21875 50.78125 49.21875 
Q 53.125 55.078125 54.6875 59.765625 
z
M 25.78125 46.09375 
Q 29.296875 51.5625 32.8125 60.9375 
Q 36.328125 58.203125 40.234375 56.25 
Q 36.328125 51.171875 31.640625 42.96875 
Q 26.953125 34.765625 16.796875 21.09375 
Q 20.3125 21.875 37.5 24.609375 
Q 36.71875 20.3125 37.109375 17.96875 
Q 28.515625 17.1875 10.15625 12.890625 
Q 8.203125 16.796875 6.25 19.921875 
Q 9.765625 21.875 13.859375 27.140625 
Q 17.96875 32.421875 22.65625 40.234375 
Q 20.3125 40.625 15.8125 40.03125 
Q 11.328125 39.453125 7.03125 38.28125 
Q 5.46875 41.796875 3.90625 45.703125 
Q 7.8125 48.046875 12.6875 58.203125 
Q 17.578125 68.359375 20.703125 78.125 
Q 25 75.390625 28.90625 74.21875 
Q 25 68.359375 21.671875 61.90625 
Q 18.359375 55.46875 12.5 45.703125 
Q 21.484375 45.703125 25.78125 46.09375 
z
M 37.890625 10.9375 
Q 37.5 6.640625 37.890625 3.90625 
Q 31.25 2.34375 22.84375 -0.390625 
Q 14.453125 -3.125 7.421875 -6.640625 
Q 6.25 -2.34375 4.6875 1.953125 
Q 14.84375 4.296875 18.546875 5.265625 
Q 22.265625 6.25 37.890625 10.9375 
z
M 58.203125 13.671875 
Q 57.03125 12.5 51.359375 6.25 
Q 45.703125 0 38.671875 -7.421875 
Q 35.9375 -3.90625 33.59375 -1.953125 
Q 37.890625 1.5625 42.96875 7.21875 
Q 48.046875 12.890625 51.953125 19.140625 
Q 54.296875 16.40625 58.203125 13.671875 
z
M 82.421875 19.140625 
Q 92.578125 5.859375 96.875 -1.5625 
Q 92.96875 -3.125 89.84375 -5.859375 
Q 85.546875 2.734375 76.5625 14.84375 
Q 79.296875 16.40625 82.421875 19.140625 
z
M 65.625 30.859375 
L 65.625 43.359375 
L 55.859375 43.359375 
Q 51.953125 35.15625 49.609375 30.859375 
z
" id="SimHei-7ec3"/>
      <path d="M 88.28125 75.78125 
Q 87.890625 64.453125 87.890625 53.90625 
L 87.890625 14.84375 
Q 87.890625 4.6875 88.28125 -5.859375 
L 80.46875 -5.859375 
L 80.46875 1.5625 
L 18.359375 1.5625 
L 18.359375 -5.859375 
L 10.9375 -5.859375 
Q 11.328125 3.90625 11.328125 14.84375 
L 11.328125 53.90625 
Q 11.328125 64.0625 10.9375 75.78125 
L 88.28125 75.78125 
z
M 80.46875 7.8125 
L 80.46875 69.140625 
L 18.75 69.140625 
L 18.75 7.8125 
z
M 67.578125 54.6875 
Q 67.1875 48.828125 67.1875 42.96875 
L 67.1875 33.984375 
Q 67.1875 28.90625 67.578125 21.875 
L 31.640625 21.875 
Q 32.03125 28.90625 32.03125 33.984375 
L 32.03125 43.75 
Q 32.03125 49.21875 31.640625 54.6875 
L 67.578125 54.6875 
z
M 59.765625 28.515625 
L 59.765625 48.4375 
L 39.0625 48.4375 
L 39.0625 28.515625 
z
" id="SimHei-56de"/>
      <path d="M 78.90625 28.125 
Q 78.515625 24.21875 78.515625 10.15625 
Q 78.515625 -3.90625 78.90625 -8.203125 
L 70.703125 -8.203125 
L 70.703125 -0.78125 
L 27.34375 -0.78125 
L 27.34375 -9.375 
L 19.53125 -9.375 
Q 19.921875 -4.6875 19.921875 8.59375 
Q 19.921875 22.265625 19.53125 28.125 
L 78.90625 28.125 
z
M 52.734375 75 
Q 64.0625 61.328125 71.09375 56.25 
Q 78.125 51.171875 83.984375 48.4375 
Q 89.84375 45.703125 95.3125 44.140625 
Q 91.40625 39.84375 90.234375 35.9375 
Q 82.421875 39.453125 76.171875 43.359375 
Q 69.921875 47.265625 63.46875 53.3125 
Q 57.03125 59.375 48.828125 69.921875 
Q 41.40625 59.375 34.171875 52.53125 
Q 26.953125 45.703125 21.875 41.796875 
Q 16.796875 37.890625 10.546875 33.984375 
Q 9.765625 35.546875 4.296875 40.234375 
Q 12.5 44.140625 19.921875 49.609375 
Q 27.34375 55.078125 34.765625 63.46875 
Q 42.1875 71.875 46.875 81.640625 
Q 51.171875 78.90625 54.6875 77.34375 
z
M 70.703125 5.46875 
L 70.703125 21.875 
L 27.34375 21.875 
L 27.34375 5.46875 
z
M 61.328125 44.140625 
Q 67.578125 44.140625 72.265625 44.53125 
L 72.265625 37.109375 
Q 67.1875 37.5 61.71875 37.5 
L 39.84375 37.5 
Q 31.640625 37.5 26.5625 37.109375 
L 26.5625 44.53125 
Q 33.984375 44.140625 39.84375 44.140625 
z
" id="SimHei-5408"/>
      <path d="M 70.703125 76.953125 
Q 69.921875 75 68.75 71.671875 
Q 67.578125 68.359375 65.234375 59.765625 
L 83.203125 59.765625 
Q 87.109375 59.765625 92.578125 60.15625 
L 92.578125 53.125 
Q 88.28125 53.515625 85.9375 53.515625 
Q 85.9375 47.265625 83.78125 33.78125 
Q 81.640625 20.3125 76.171875 10.546875 
Q 80.078125 5.859375 84.953125 2.140625 
Q 89.84375 -1.5625 94.140625 -3.125 
Q 89.453125 -6.640625 87.890625 -9.765625 
Q 83.203125 -7.03125 79.296875 -3.515625 
Q 75.390625 0 71.484375 5.078125 
Q 67.1875 0.390625 62.296875 -2.921875 
Q 57.421875 -6.25 50 -10.15625 
Q 48.046875 -6.640625 44.53125 -4.6875 
Q 50.390625 -2.34375 57.03125 1.953125 
Q 63.671875 6.25 67.1875 10.546875 
Q 64.453125 16.015625 61.90625 22.265625 
Q 59.375 28.515625 57.421875 38.671875 
Q 56.25 35.546875 53.515625 30.46875 
Q 50.78125 32.03125 46.875 33.59375 
Q 53.125 44.53125 57.03125 57.421875 
Q 60.9375 70.3125 62.109375 79.6875 
Q 66.796875 77.734375 70.703125 76.953125 
z
M 32.8125 35.15625 
Q 31.25 33.59375 29.296875 30.078125 
L 50.78125 30.078125 
Q 48.4375 20.3125 42.578125 10.546875 
Q 48.828125 8.203125 52.34375 6.25 
Q 50.390625 3.515625 48.828125 0.390625 
Q 45.3125 2.734375 38.28125 5.078125 
Q 30.46875 -3.515625 11.328125 -10.15625 
Q 9.375 -5.859375 6.25 -4.296875 
Q 24.609375 0 31.25 7.421875 
Q 20.3125 10.15625 13.28125 12.109375 
Q 15.625 15.625 19.53125 23.828125 
Q 15.625 23.828125 6.640625 23.4375 
L 6.640625 30.46875 
Q 14.0625 30.078125 21.875 30.078125 
Q 23.4375 33.59375 24.21875 37.890625 
Q 28.515625 36.328125 32.8125 35.15625 
z
M 27.734375 61.71875 
Q 27.734375 71.09375 27.34375 79.6875 
L 35.15625 79.6875 
Q 34.765625 71.484375 34.765625 61.71875 
Q 48.046875 61.71875 53.515625 62.109375 
L 53.515625 55.078125 
Q 48.046875 55.46875 34.765625 55.46875 
Q 34.765625 44.140625 35.15625 37.890625 
L 27.34375 37.890625 
Q 27.734375 43.359375 27.734375 51.5625 
Q 25.78125 48.4375 20.3125 43.546875 
Q 14.84375 38.671875 10.15625 35.9375 
Q 8.203125 39.453125 4.296875 41.015625 
Q 7.8125 42.1875 13.671875 46.484375 
Q 19.53125 50.78125 22.65625 55.46875 
Q 14.84375 55.46875 7.8125 55.078125 
L 7.8125 62.109375 
Q 14.453125 61.71875 27.734375 61.71875 
z
M 62.109375 49.609375 
Q 65.625 26.5625 71.875 17.578125 
Q 75.78125 26.5625 77.140625 35.734375 
Q 78.515625 44.921875 78.90625 53.515625 
L 63.671875 53.515625 
L 62.109375 49.609375 
z
M 22.65625 15.625 
Q 27.34375 14.453125 35.546875 12.5 
Q 38.671875 16.40625 41.40625 23.828125 
L 26.953125 23.828125 
Q 25 19.921875 22.65625 15.625 
z
M 51.953125 75.390625 
Q 50 72.265625 48.828125 69.53125 
Q 47.65625 66.796875 45.703125 62.890625 
Q 42.578125 64.453125 39.453125 65.234375 
Q 42.578125 70.3125 45.3125 78.125 
Q 49.21875 76.171875 51.953125 75.390625 
z
M 40.234375 52.734375 
Q 45.3125 47.65625 50 42.578125 
Q 47.65625 40.625 44.921875 37.890625 
Q 39.453125 44.53125 35.9375 48.4375 
Q 38.28125 50.390625 40.234375 52.734375 
z
M 14.453125 78.125 
Q 19.921875 72.65625 23.4375 67.1875 
L 17.578125 63.671875 
Q 14.84375 69.140625 9.375 73.828125 
Q 12.890625 76.171875 14.453125 78.125 
z
" id="SimHei-6570"/>
     </defs>
     <g transform="translate(134.18875 200.735937)scale(0.1 -0.1)">
      <use xlink:href="#SimHei-8bad"/>
      <use x="100" xlink:href="#SimHei-7ec3"/>
      <use x="200" xlink:href="#SimHei-56de"/>
      <use x="300" xlink:href="#SimHei-5408"/>
      <use x="400" xlink:href="#SimHei-6570"/>
     </g>
    </g>
   </g>
   <g id="matplotlib.axis_2">
    <g id="ytick_1">
     <g id="line2d_6">
      <defs>
       <path d="M 0 0 
L -3.5 0 
" id="m55d716358f" style="stroke:#000000;stroke-width:0.8;"/>
      </defs>
      <g>
       <use style="stroke:#000000;stroke-width:0.8;" x="47.41875" xlink:href="#m55d716358f" y="148.919744"/>
      </g>
     </g>
     <g id="text_7">
      <!-- -200 -->
      <defs>
       <path d="M 46.484375 33.203125 
L 1.953125 33.203125 
L 1.953125 39.453125 
L 46.484375 39.453125 
z
" id="SimHei-2d"/>
      </defs>
      <g transform="translate(20.41875 152.357244)scale(0.1 -0.1)">
       <use xlink:href="#SimHei-2d"/>
       <use x="50" xlink:href="#SimHei-32"/>
       <use x="100" xlink:href="#SimHei-30"/>
       <use x="150" xlink:href="#SimHei-30"/>
      </g>
     </g>
    </g>
    <g id="ytick_2">
     <g id="line2d_7">
      <g>
       <use style="stroke:#000000;stroke-width:0.8;" x="47.41875" xlink:href="#m55d716358f" y="118.993201"/>
      </g>
     </g>
     <g id="text_8">
      <!-- -100 -->
      <g transform="translate(20.41875 122.430701)scale(0.1 -0.1)">
       <use xlink:href="#SimHei-2d"/>
       <use x="50" xlink:href="#SimHei-31"/>
       <use x="100" xlink:href="#SimHei-30"/>
       <use x="150" xlink:href="#SimHei-30"/>
      </g>
     </g>
    </g>
    <g id="ytick_3">
     <g id="line2d_8">
      <g>
       <use style="stroke:#000000;stroke-width:0.8;" x="47.41875" xlink:href="#m55d716358f" y="89.066658"/>
      </g>
     </g>
     <g id="text_9">
      <!-- 0 -->
      <g transform="translate(35.41875 92.504158)scale(0.1 -0.1)">
       <use xlink:href="#SimHei-30"/>
      </g>
     </g>
    </g>
    <g id="ytick_4">
     <g id="line2d_9">
      <g>
       <use style="stroke:#000000;stroke-width:0.8;" x="47.41875" xlink:href="#m55d716358f" y="59.140115"/>
      </g>
     </g>
     <g id="text_10">
      <!-- 100 -->
      <g transform="translate(25.41875 62.577615)scale(0.1 -0.1)">
       <use xlink:href="#SimHei-31"/>
       <use x="50" xlink:href="#SimHei-30"/>
       <use x="100" xlink:href="#SimHei-30"/>
      </g>
     </g>
    </g>
    <g id="ytick_5">
     <g id="line2d_10">
      <g>
       <use style="stroke:#000000;stroke-width:0.8;" x="47.41875" xlink:href="#m55d716358f" y="29.213572"/>
      </g>
     </g>
     <g id="text_11">
      <!-- 200 -->
      <g transform="translate(25.41875 32.651072)scale(0.1 -0.1)">
       <use xlink:href="#SimHei-32"/>
       <use x="50" xlink:href="#SimHei-30"/>
       <use x="100" xlink:href="#SimHei-30"/>
      </g>
     </g>
    </g>
    <g id="text_12">
     <!-- 平均奖赏值 -->
     <defs>
      <path d="M 70.703125 75.390625 
Q 76.5625 75.390625 85.15625 75.78125 
L 85.15625 68.359375 
Q 76.953125 68.75 70.703125 68.75 
L 54.296875 68.75 
L 54.296875 31.640625 
L 78.125 31.640625 
Q 86.71875 31.640625 94.140625 32.03125 
L 94.140625 24.609375 
Q 86.71875 25 78.125 25 
L 54.296875 25 
L 54.296875 7.03125 
Q 54.296875 -1.5625 54.6875 -9.375 
L 45.703125 -9.375 
Q 46.09375 -1.5625 46.09375 7.03125 
L 46.09375 25 
L 17.578125 25 
Q 12.109375 25 5.859375 24.609375 
L 5.859375 32.03125 
Q 12.109375 31.640625 18.359375 31.640625 
L 46.09375 31.640625 
L 46.09375 68.75 
L 27.734375 68.75 
Q 21.875 68.75 13.671875 68.359375 
L 13.671875 75.78125 
Q 21.875 75.390625 27.34375 75.390625 
z
M 61.328125 40.625 
Q 70.3125 51.5625 76.5625 64.453125 
Q 80.46875 61.71875 84.375 59.765625 
Q 74.609375 44.53125 67.96875 35.9375 
Q 64.84375 38.671875 61.328125 40.625 
z
M 30.859375 36.71875 
Q 25 48.4375 16.40625 58.203125 
Q 19.53125 60.546875 22.65625 63.28125 
Q 32.421875 51.5625 38.28125 42.578125 
Q 33.59375 39.0625 30.859375 36.71875 
z
" id="SimHei-5e73"/>
      <path d="M 90.234375 4.296875 
Q 90.234375 -5.078125 83.78125 -7.03125 
Q 77.34375 -8.984375 69.140625 -9.375 
Q 68.359375 -4.296875 66.40625 0.390625 
Q 77.34375 -0.390625 80.078125 0.96875 
Q 82.8125 2.34375 82.8125 7.8125 
L 83.984375 57.8125 
L 55.46875 57.8125 
Q 53.515625 52.734375 50.96875 47.453125 
Q 48.4375 42.1875 45.703125 37.5 
Q 41.796875 39.84375 38.671875 41.015625 
Q 49.21875 56.640625 54.6875 81.25 
Q 59.375 79.6875 63.671875 78.515625 
Q 62.109375 76.171875 60.546875 72.65625 
Q 58.984375 69.140625 57.421875 64.453125 
L 92.1875 64.453125 
L 90.234375 4.296875 
z
M 19.53125 56.640625 
L 19.53125 68.359375 
Q 19.53125 74.609375 19.140625 79.6875 
L 27.734375 79.6875 
Q 27.34375 73.828125 27.34375 68.359375 
L 27.34375 56.640625 
L 29.6875 56.640625 
Q 34.375 56.640625 39.453125 57.03125 
L 39.453125 49.21875 
Q 34.375 49.609375 29.6875 49.609375 
L 27.34375 49.609375 
L 27.34375 17.1875 
L 39.0625 21.484375 
Q 38.671875 17.578125 39.453125 14.0625 
Q 19.140625 7.421875 15.03125 5.65625 
Q 10.9375 3.90625 7.421875 2.34375 
Q 5.859375 7.421875 3.90625 11.71875 
Q 8.984375 12.5 12.5 13.28125 
Q 16.015625 14.0625 19.53125 15.234375 
L 19.53125 49.609375 
L 17.578125 49.609375 
Q 13.28125 49.609375 6.25 49.21875 
L 6.25 57.03125 
Q 13.28125 56.640625 17.1875 56.640625 
z
M 77.34375 25.390625 
Q 73.046875 22.265625 64.640625 16.40625 
Q 56.25 10.546875 49.609375 4.6875 
Q 46.875 8.984375 44.53125 12.109375 
Q 52.34375 16.40625 58.78125 20.703125 
Q 65.234375 25 74.609375 32.421875 
Q 75.390625 28.90625 77.34375 25.390625 
z
M 58.984375 49.21875 
Q 64.453125 43.75 69.921875 35.9375 
Q 66.40625 33.203125 64.0625 30.859375 
Q 60.9375 36.328125 53.90625 44.140625 
Q 56.25 46.875 58.984375 49.21875 
z
" id="SimHei-5747"/>
      <path d="M 79.296875 24.609375 
Q 88.28125 24.609375 94.921875 25 
L 94.921875 17.578125 
Q 88.671875 18.75 79.296875 18.359375 
L 55.46875 18.359375 
Q 62.109375 9.375 73.625 4.6875 
Q 85.15625 0 96.09375 -0.78125 
Q 93.75 -3.515625 91.40625 -8.59375 
Q 83.59375 -7.03125 77.734375 -5.078125 
Q 71.875 -3.125 64.640625 1.359375 
Q 57.421875 5.859375 50.78125 13.671875 
Q 47.265625 8.59375 43.75 5.46875 
Q 40.234375 2.34375 35.15625 -0.78125 
Q 30.078125 -3.90625 24.40625 -5.859375 
Q 18.75 -7.8125 10.9375 -9.765625 
Q 9.375 -5.859375 6.25 -1.953125 
Q 13.671875 -1.171875 19.71875 0.578125 
Q 25.78125 2.34375 30.65625 4.875 
Q 35.546875 7.421875 39.0625 10.734375 
Q 42.578125 14.0625 44.53125 18.359375 
L 20.703125 18.359375 
Q 12.890625 18.359375 5.46875 17.96875 
L 5.46875 25 
Q 12.890625 24.609375 20.703125 24.609375 
L 46.09375 24.609375 
Q 46.484375 27.34375 46.484375 30.46875 
Q 54.296875 29.296875 55.46875 29.296875 
Q 54.296875 26.953125 53.90625 24.609375 
z
M 67.578125 78.125 
Q 64.453125 75 61.328125 70.3125 
L 92.1875 70.3125 
Q 88.671875 61.71875 85.34375 56.046875 
Q 82.03125 50.390625 77.921875 45.890625 
Q 73.828125 41.40625 66.984375 37.5 
Q 60.15625 33.59375 47.65625 30.859375 
Q 45.703125 34.375 42.96875 37.890625 
Q 54.6875 38.28125 64.0625 43.75 
L 53.515625 50.78125 
Q 55.859375 53.515625 57.8125 56.25 
Q 61.71875 53.90625 64.0625 52.140625 
Q 66.40625 50.390625 69.921875 48.046875 
Q 76.5625 53.90625 80.859375 64.0625 
L 57.421875 64.0625 
Q 55.46875 61.71875 52.734375 58.59375 
Q 50 55.46875 45.3125 50 
Q 42.1875 52.734375 38.671875 54.296875 
Q 44.53125 59.375 49.796875 66.40625 
Q 55.078125 73.4375 58.59375 81.640625 
Q 63.671875 79.296875 67.578125 78.125 
z
M 38.28125 80.859375 
Q 37.890625 76.171875 37.890625 69.921875 
L 37.890625 44.921875 
Q 37.890625 39.0625 38.28125 30.859375 
L 30.078125 30.859375 
Q 30.46875 39.0625 30.46875 44.921875 
L 30.46875 47.65625 
Q 19.140625 40.234375 11.71875 35.546875 
Q 8.984375 39.84375 6.25 42.1875 
Q 12.890625 44.140625 30.46875 55.078125 
L 30.46875 69.921875 
Q 30.46875 75.78125 30.078125 80.859375 
L 38.28125 80.859375 
z
M 15.625 73.4375 
Q 23.046875 67.578125 28.125 62.890625 
L 22.265625 57.03125 
Q 17.1875 62.5 10.546875 67.96875 
Q 13.28125 70.3125 15.625 73.4375 
z
" id="SimHei-5956"/>
      <path d="M 76.953125 34.375 
L 23.4375 34.375 
Q 23.828125 39.453125 23.828125 44.140625 
Q 23.828125 48.828125 23.4375 53.125 
L 76.953125 53.125 
z
M 82.421875 76.171875 
Q 78.515625 73.4375 73.046875 65.234375 
L 91.015625 65.234375 
Q 90.625 61.328125 90.625 57.421875 
Q 90.625 53.90625 91.015625 49.21875 
L 83.203125 49.21875 
L 83.203125 59.375 
L 17.1875 59.375 
L 17.1875 47.65625 
L 9.375 47.65625 
Q 9.765625 52.34375 9.765625 56.640625 
Q 9.765625 61.328125 9.375 65.234375 
L 28.90625 65.234375 
Q 23.828125 71.875 19.921875 76.5625 
L 26.171875 80.46875 
Q 31.25 75.390625 35.546875 68.75 
Q 32.421875 66.796875 29.6875 65.234375 
L 46.484375 65.234375 
Q 46.484375 73.046875 46.09375 80.859375 
L 54.296875 80.859375 
Q 53.90625 73.828125 53.90625 65.234375 
L 65.234375 65.234375 
Q 71.875 75 73.046875 79.6875 
Q 77.734375 77.34375 82.421875 76.171875 
z
M 81.25 28.90625 
Q 80.859375 24.21875 80.859375 18.75 
Q 80.859375 13.28125 81.25 8.59375 
L 73.4375 8.59375 
L 73.4375 23.046875 
L 26.953125 23.046875 
L 26.953125 7.03125 
L 19.140625 7.03125 
Q 19.53125 12.5 19.53125 17.96875 
Q 19.53125 23.4375 19.140625 28.90625 
L 81.25 28.90625 
z
M 54.296875 17.1875 
Q 50 5.078125 45.3125 1.171875 
Q 40.625 -2.734375 33.390625 -5.65625 
Q 26.171875 -8.59375 12.890625 -10.546875 
Q 12.109375 -7.03125 7.8125 -2.734375 
Q 18.359375 -2.34375 25.390625 -0.578125 
Q 32.421875 1.171875 38.28125 5.46875 
Q 44.140625 9.765625 45.3125 19.53125 
L 54.296875 17.1875 
z
M 69.140625 39.84375 
L 69.140625 47.265625 
L 31.25 47.265625 
L 31.25 39.84375 
z
M 61.328125 10.15625 
Q 78.515625 3.515625 90.234375 -3.90625 
Q 86.71875 -6.640625 84.375 -10.15625 
Q 76.5625 -3.90625 56.640625 3.90625 
Q 59.765625 7.8125 61.328125 10.15625 
z
" id="SimHei-8d4f"/>
      <path d="M 57.421875 69.53125 
L 57.421875 79.6875 
Q 62.109375 79.296875 67.96875 78.90625 
Q 66.015625 76.171875 65.625 69.53125 
L 80.078125 69.53125 
Q 86.71875 69.53125 91.796875 69.921875 
L 91.796875 62.890625 
Q 86.328125 63.28125 80.078125 63.28125 
L 65.234375 63.28125 
L 64.453125 54.6875 
L 84.375 54.6875 
Q 83.984375 50 83.984375 42.1875 
L 83.984375 2.34375 
Q 91.796875 2.34375 95.3125 2.734375 
L 95.3125 -4.296875 
Q 90.234375 -3.90625 81.25 -3.90625 
L 44.53125 -3.90625 
Q 35.546875 -3.90625 29.6875 -4.296875 
L 29.6875 2.734375 
Q 33.203125 2.34375 40.625 2.34375 
L 40.625 42.1875 
Q 40.625 49.609375 40.234375 54.6875 
L 56.25 54.6875 
L 57.03125 63.28125 
L 50 63.28125 
Q 40.234375 63.28125 34.765625 62.890625 
L 34.765625 69.921875 
Q 39.84375 69.53125 50 69.53125 
z
M 34.765625 76.5625 
Q 31.640625 73.046875 25.78125 58.59375 
L 25.78125 7.03125 
Q 25.78125 -1.171875 26.171875 -8.59375 
L 17.96875 -8.59375 
Q 18.359375 -1.953125 18.359375 5.859375 
L 18.359375 46.09375 
Q 13.671875 38.28125 9.765625 33.59375 
Q 6.640625 37.890625 3.90625 40.234375 
Q 7.8125 44.140625 14.640625 55.265625 
Q 21.484375 66.40625 25.390625 80.46875 
Q 30.859375 77.734375 34.765625 76.5625 
z
M 76.953125 41.40625 
L 76.953125 49.21875 
L 48.046875 49.21875 
L 48.046875 41.40625 
z
M 76.953125 2.34375 
L 76.953125 9.765625 
L 48.046875 9.765625 
L 48.046875 2.34375 
z
M 76.953125 15.625 
L 76.953125 22.65625 
L 48.046875 22.65625 
L 48.046875 15.625 
z
M 76.953125 28.515625 
L 76.953125 35.546875 
L 48.046875 35.546875 
L 48.046875 28.515625 
z
" id="SimHei-503c"/>
     </defs>
     <g transform="translate(15.16875 117.190625)rotate(-90)scale(0.1 -0.1)">
      <use xlink:href="#SimHei-5e73"/>
      <use x="100" xlink:href="#SimHei-5747"/>
      <use x="200" xlink:href="#SimHei-5956"/>
      <use x="300" xlink:href="#SimHei-8d4f"/>
      <use x="400" xlink:href="#SimHei-503c"/>
     </g>
    </g>
   </g>
   <g id="line2d_11">
    <path clip-path="url(#p51df22a43f)" d="M 57.579659 89.022877 
L 59.622053 114.759425 
L 60.64325 122.632878 
L 61.664447 119.326112 
L 62.685644 124.475425 
L 63.70684 124.55838 
L 64.728037 127.858584 
L 65.749234 125.048178 
L 66.770431 127.060426 
L 67.791628 127.193611 
L 68.812825 128.008707 
L 69.834022 128.033549 
L 70.855219 127.622123 
L 71.876416 127.459993 
L 72.897612 128.804541 
L 73.918809 127.888308 
L 74.940006 127.847443 
L 75.961203 126.812644 
L 76.9824 126.512286 
L 78.003597 125.645258 
L 79.024794 124.940975 
L 80.045991 124.609559 
L 81.067188 122.858482 
L 82.088385 121.85506 
L 83.109581 122.32021 
L 84.130778 122.105515 
L 85.151975 121.243957 
L 86.173172 119.321756 
L 87.194369 119.723068 
L 88.215566 122.122664 
L 89.236763 121.547714 
L 90.25796 121.299933 
L 91.279157 120.777812 
L 92.300353 121.268705 
L 94.342747 120.190661 
L 95.363944 120.685235 
L 96.385141 120.100818 
L 97.406338 119.925778 
L 98.427535 118.470814 
L 100.469929 117.401239 
L 101.491126 114.522046 
L 102.512322 114.448603 
L 103.533519 111.572417 
L 104.554716 111.473935 
L 105.575913 111.090324 
L 106.59711 110.238898 
L 107.618307 110.132424 
L 108.639504 109.351834 
L 109.660701 109.191668 
L 110.681898 108.096119 
L 111.703094 105.879518 
L 112.724291 107.313189 
L 113.745488 107.939515 
L 114.766685 107.104921 
L 115.787882 106.785414 
L 116.809079 107.552218 
L 117.830276 109.627923 
L 118.851473 107.139422 
L 119.87267 101.961785 
L 120.893866 100.558494 
L 121.915063 98.179892 
L 122.93626 97.676503 
L 123.957457 93.27454 
L 124.978654 91.449459 
L 125.999851 90.803425 
L 127.021048 87.268241 
L 128.042245 85.89099 
L 129.063442 85.517784 
L 130.084639 85.747609 
L 131.105835 85.000938 
L 132.127032 84.441619 
L 133.148229 85.898623 
L 134.169426 85.031406 
L 135.190623 86.595165 
L 136.21182 84.569993 
L 137.233017 84.542377 
L 138.254214 82.246549 
L 139.275411 82.356408 
L 140.296607 82.210884 
L 141.317804 79.35076 
L 142.339001 77.669162 
L 143.360198 79.220504 
L 144.381395 78.24794 
L 145.402592 76.12518 
L 146.423789 75.561864 
L 148.466183 70.713283 
L 149.48738 69.23513 
L 150.508576 71.31912 
L 151.529773 71.373782 
L 152.55097 73.323412 
L 153.572167 74.661378 
L 154.593364 73.792249 
L 155.614561 73.23121 
L 156.635758 74.551464 
L 157.656955 71.587198 
L 158.678152 71.631562 
L 159.699348 69.675713 
L 161.741742 69.126509 
L 162.762939 67.413673 
L 163.784136 66.771092 
L 164.805333 65.063522 
L 165.82653 64.770621 
L 166.847727 63.559555 
L 167.868924 63.963437 
L 168.89012 63.536033 
L 169.911317 65.778311 
L 170.932514 63.918487 
L 172.974908 63.772677 
L 173.996105 65.888891 
L 176.038499 65.609464 
L 177.059696 65.333949 
L 178.080893 65.706814 
L 179.102089 65.336915 
L 180.123286 64.102291 
L 181.144483 62.199562 
L 182.16568 61.579854 
L 183.186877 61.813528 
L 184.208074 59.638588 
L 186.250468 61.269213 
L 187.271665 61.051976 
L 188.292861 58.848491 
L 189.314058 61.02065 
L 190.335255 63.586563 
L 192.377649 62.265314 
L 193.398846 59.115756 
L 194.420043 59.343454 
L 195.44124 57.635609 
L 196.462437 57.247709 
L 197.483634 55.220827 
L 198.50483 54.018027 
L 200.547224 48.860768 
L 201.568421 48.880692 
L 202.589618 49.525661 
L 203.610815 47.234814 
L 204.632012 47.135356 
L 205.653209 45.736436 
L 206.674406 43.3878 
L 207.695602 41.659323 
L 208.716799 40.631326 
L 209.737996 37.417934 
L 210.759193 40.127744 
L 211.78039 40.83761 
L 212.801587 42.952813 
L 213.822784 41.574706 
L 214.843981 41.471521 
L 215.865178 41.17025 
L 216.886374 42.473439 
L 217.907571 39.70958 
L 218.928768 40.268589 
L 219.949965 40.368377 
L 220.971162 37.792943 
L 221.992359 34.723691 
L 223.013556 34.887897 
L 224.034753 33.674597 
L 225.05595 33.821249 
L 226.077147 32.79006 
L 227.098343 31.984331 
L 228.11954 34.17314 
L 229.140737 33.639778 
L 230.161934 33.838819 
L 231.183131 33.555017 
L 232.204328 33.500581 
L 233.225525 34.313435 
L 234.246722 32.358581 
L 235.267919 33.929225 
L 236.289115 33.597829 
L 237.310312 34.287496 
L 238.331509 33.804576 
L 239.352706 32.83702 
L 240.373903 32.748429 
L 241.3951 32.94742 
L 242.416297 29.627203 
L 243.437494 29.151358 
L 244.458691 26.409396 
L 245.479888 24.835682 
L 246.501084 23.819407 
L 247.522281 23.563629 
L 248.543478 19.066385 
L 249.564675 18.411328 
L 250.585872 19.265467 
L 254.67066 18.699805 
L 255.691856 19.407247 
L 257.73425 19.335763 
L 258.755447 20.771428 
L 259.776644 18.108239 
L 260.797841 20.669412 
L 260.797841 20.669412 
" style="fill:none;stroke:#ff6347;stroke-linecap:square;stroke-width:1.5;"/>
   </g>
   <g id="line2d_12">
    <path clip-path="url(#p51df22a43f)" d="M 57.579659 118.162506 
L 58.600856 117.013553 
L 59.622053 128.22807 
L 60.64325 155.82899 
L 61.664447 146.384466 
L 62.685644 144.520638 
L 63.70684 153.665295 
L 64.728037 154.452023 
L 65.749234 156.610566 
L 66.770431 152.613099 
L 67.791628 149.47428 
L 68.812825 148.467392 
L 70.855219 143.875072 
L 71.876416 142.050036 
L 72.897612 140.525139 
L 73.918809 140.47012 
L 74.940006 139.935931 
L 78.003597 133.967117 
L 79.024794 133.471015 
L 80.045991 131.633482 
L 81.067188 130.683829 
L 82.088385 128.628183 
L 83.109581 126.214912 
L 85.151975 123.349952 
L 86.173172 124.14726 
L 88.215566 121.759475 
L 89.236763 121.215207 
L 90.25796 122.415933 
L 91.279157 123.147088 
L 92.300353 120.53577 
L 93.32155 122.441839 
L 94.342747 121.367687 
L 96.385141 116.881575 
L 97.406338 115.744187 
L 98.427535 112.611463 
L 99.448732 112.530643 
L 100.469929 111.235151 
L 101.491126 112.097732 
L 102.512322 111.998179 
L 103.533519 112.423334 
L 104.554716 112.363137 
L 105.575913 111.327055 
L 106.59711 110.897855 
L 107.618307 110.886852 
L 109.660701 111.445069 
L 110.681898 110.105855 
L 111.703094 110.421984 
L 112.724291 108.456845 
L 113.745488 106.22493 
L 114.766685 105.63666 
L 115.787882 106.373258 
L 116.809079 106.698783 
L 117.830276 105.47019 
L 118.851473 103.715231 
L 119.87267 104.613711 
L 120.893866 103.983244 
L 123.957457 93.925435 
L 124.978654 92.180655 
L 127.021048 90.21057 
L 128.042245 89.549803 
L 129.063442 86.548622 
L 130.084639 89.180802 
L 131.105835 89.012143 
L 132.127032 88.279399 
L 133.148229 86.309425 
L 134.169426 86.638126 
L 135.190623 85.805765 
L 136.21182 84.606393 
L 138.254214 82.733103 
L 139.275411 82.558791 
L 140.296607 80.400976 
L 141.317804 80.165065 
L 142.339001 77.947846 
L 143.360198 78.584041 
L 144.381395 77.335375 
L 145.402592 79.776415 
L 146.423789 78.797994 
L 147.444986 77.070129 
L 149.48738 77.222093 
L 150.508576 77.561899 
L 151.529773 78.26601 
L 152.55097 78.742565 
L 153.572167 80.093005 
L 154.593364 78.4332 
L 155.614561 79.760808 
L 156.635758 79.176159 
L 157.656955 80.016975 
L 158.678152 79.410822 
L 159.699348 79.789532 
L 160.720545 80.572266 
L 161.741742 80.201783 
L 162.762939 80.211837 
L 164.805333 81.064377 
L 165.82653 80.846278 
L 166.847727 81.60981 
L 167.868924 79.616764 
L 168.89012 78.430425 
L 169.911317 78.819505 
L 170.932514 78.393025 
L 171.953711 79.748086 
L 172.974908 79.636471 
L 173.996105 82.471534 
L 175.017302 81.642908 
L 176.038499 84.206881 
L 177.059696 84.101685 
L 178.080893 86.616509 
L 179.102089 88.771597 
L 180.123286 88.095272 
L 181.144483 88.170338 
L 182.16568 86.846743 
L 183.186877 83.068083 
L 184.208074 80.427551 
L 186.250468 80.172257 
L 187.271665 77.867453 
L 189.314058 72.301633 
L 190.335255 72.046853 
L 191.356452 70.19725 
L 192.377649 68.767713 
L 193.398846 66.288061 
L 194.420043 63.267688 
L 195.44124 60.90051 
L 196.462437 60.142975 
L 197.483634 56.851985 
L 198.50483 53.088887 
L 199.526027 53.314247 
L 200.547224 52.177614 
L 201.568421 49.454577 
L 204.632012 42.387018 
L 206.674406 36.94221 
L 207.695602 34.749562 
L 208.716799 33.687472 
L 209.737996 30.813871 
L 210.759193 27.036409 
L 211.78039 24.734692 
L 212.801587 21.669722 
L 213.822784 21.270491 
L 214.843981 21.165058 
L 215.865178 21.316507 
L 216.886374 19.63596 
L 217.907571 19.630072 
L 218.928768 21.222779 
L 219.949965 21.523116 
L 220.971162 22.749164 
L 221.992359 20.411785 
L 223.013556 20.072607 
L 225.05595 19.654999 
L 226.077147 20.738222 
L 227.098343 20.914887 
L 228.11954 19.252592 
L 229.140737 20.035596 
L 230.161934 22.558104 
L 231.183131 22.526921 
L 232.204328 24.675164 
L 233.225525 27.211303 
L 235.267919 27.537436 
L 236.289115 27.653085 
L 237.310312 27.411578 
L 238.331509 27.582167 
L 239.352706 28.293612 
L 240.373903 27.041791 
L 241.3951 27.528594 
L 243.437494 28.000296 
L 244.458691 30.329237 
L 245.479888 31.26333 
L 246.501084 31.092219 
L 247.522281 31.686678 
L 248.543478 33.346388 
L 249.564675 35.669359 
L 250.585872 34.278287 
L 251.607069 34.516102 
L 252.628266 33.818339 
L 253.649463 34.420851 
L 254.67066 35.187249 
L 255.691856 35.49684 
L 256.713053 35.975092 
L 257.73425 35.259093 
L 260.797841 34.519642 
L 260.797841 34.519642 
" style="fill:none;stroke:#008000;stroke-dasharray:5.55,2.4;stroke-dashoffset:0;stroke-width:1.5;"/>
   </g>
   <g id="line2d_13">
    <path clip-path="url(#p51df22a43f)" d="M 57.579659 126.350765 
L 58.600856 161.878732 
L 59.622053 166.273011 
L 60.64325 153.102051 
L 61.664447 146.67577 
L 62.685644 142.733541 
L 63.70684 148.442907 
L 64.728037 150.016715 
L 65.749234 145.728012 
L 66.770431 138.551827 
L 67.791628 140.497805 
L 68.812825 138.121781 
L 69.834022 135.021512 
L 70.855219 132.310628 
L 71.876416 131.876526 
L 72.897612 131.115157 
L 73.918809 131.605504 
L 74.940006 132.934564 
L 75.961203 132.920924 
L 76.9824 131.482376 
L 78.003597 131.131109 
L 79.024794 129.115991 
L 80.045991 128.86023 
L 81.067188 128.281078 
L 82.088385 128.861014 
L 84.130778 131.101195 
L 86.173172 129.353435 
L 87.194369 129.317047 
L 88.215566 128.992171 
L 89.236763 128.28965 
L 90.25796 130.281859 
L 91.279157 133.351539 
L 92.300353 133.457237 
L 93.32155 135.215576 
L 94.342747 135.569694 
L 95.363944 132.852501 
L 96.385141 131.654967 
L 97.406338 131.22834 
L 98.427535 132.34895 
L 99.448732 131.352686 
L 100.469929 131.523201 
L 101.491126 130.016291 
L 102.512322 131.141415 
L 103.533519 131.175324 
L 104.554716 130.947203 
L 105.575913 131.071323 
L 106.59711 130.28099 
L 107.618307 129.889832 
L 108.639504 129.727311 
L 109.660701 129.017837 
L 110.681898 129.895071 
L 111.703094 129.533411 
L 112.724291 129.950521 
L 113.745488 129.26164 
L 114.766685 127.65761 
L 115.787882 126.427728 
L 116.809079 126.746452 
L 117.830276 126.62177 
L 118.851473 124.881297 
L 120.893866 122.629171 
L 121.915063 118.076802 
L 122.93626 110.776742 
L 123.957457 110.610596 
L 124.978654 107.278772 
L 125.999851 105.547537 
L 127.021048 103.302631 
L 128.042245 100.699694 
L 129.063442 100.856257 
L 130.084639 100.628504 
L 131.105835 97.229813 
L 132.127032 95.449805 
L 133.148229 95.596747 
L 134.169426 94.872448 
L 135.190623 91.810267 
L 136.21182 91.271817 
L 138.254214 88.832704 
L 139.275411 87.920767 
L 140.296607 88.343229 
L 141.317804 88.524515 
L 142.339001 88.163404 
L 143.360198 88.018241 
L 144.381395 87.126554 
L 146.423789 81.703232 
L 147.444986 81.280495 
L 149.48738 80.119545 
L 150.508576 80.658247 
L 151.529773 79.199527 
L 152.55097 78.599379 
L 153.572167 75.993203 
L 154.593364 75.993867 
L 156.635758 74.676997 
L 157.656955 72.989139 
L 158.678152 72.003434 
L 159.699348 71.871631 
L 160.720545 71.078959 
L 161.741742 69.083167 
L 162.762939 68.905744 
L 163.784136 67.288944 
L 164.805333 68.392699 
L 165.82653 65.353873 
L 166.847727 64.414653 
L 167.868924 62.056582 
L 168.89012 60.253222 
L 169.911317 57.755899 
L 170.932514 54.954417 
L 171.953711 54.013423 
L 172.974908 52.903477 
L 173.996105 49.995196 
L 175.017302 47.761008 
L 176.038499 47.358132 
L 177.059696 49.27934 
L 178.080893 51.706876 
L 179.102089 49.609748 
L 180.123286 49.439643 
L 181.144483 50.465595 
L 182.16568 48.841744 
L 183.186877 49.228738 
L 184.208074 48.304793 
L 185.229271 50.366691 
L 186.250468 52.744907 
L 187.271665 52.74306 
L 188.292861 54.112887 
L 189.314058 56.161183 
L 190.335255 59.622402 
L 191.356452 62.499042 
L 192.377649 62.876296 
L 193.398846 64.797325 
L 195.44124 70.06378 
L 196.462437 70.39893 
L 197.483634 74.651044 
L 199.526027 79.914004 
L 200.547224 79.381597 
L 201.568421 81.607945 
L 202.589618 82.624474 
L 203.610815 81.385661 
L 204.632012 81.942929 
L 205.653209 84.601048 
L 206.674406 84.485757 
L 207.695602 81.927724 
L 208.716799 79.892257 
L 209.737996 79.879616 
L 210.759193 79.508625 
L 212.801587 73.50651 
L 213.822784 72.753701 
L 214.843981 72.691937 
L 215.865178 74.496259 
L 216.886374 71.798729 
L 217.907571 68.354773 
L 218.928768 65.903333 
L 220.971162 65.137804 
L 221.992359 64.190318 
L 223.013556 61.787868 
L 225.05595 57.508979 
L 227.098343 52.279843 
L 228.11954 49.297667 
L 229.140737 45.658978 
L 230.161934 43.598388 
L 231.183131 40.7586 
L 232.204328 40.293812 
L 233.225525 40.329803 
L 234.246722 39.596024 
L 235.267919 40.277189 
L 237.310312 40.833791 
L 238.331509 40.864878 
L 239.352706 44.976006 
L 240.373903 45.286124 
L 241.3951 45.784137 
L 242.416297 47.885235 
L 243.437494 51.688539 
L 244.458691 52.589842 
L 245.479888 54.929461 
L 246.501084 53.693986 
L 247.522281 51.558272 
L 248.543478 51.948406 
L 249.564675 52.181882 
L 251.607069 52.855737 
L 252.628266 53.039705 
L 253.649463 51.376445 
L 254.67066 50.909506 
L 255.691856 51.054024 
L 256.713053 50.398064 
L 257.73425 50.308748 
L 258.755447 53.226667 
L 259.776644 55.792041 
L 260.797841 55.49313 
L 260.797841 55.49313 
" style="fill:none;stroke:#a9a9a9;stroke-dasharray:5.55,2.4;stroke-dashoffset:0;stroke-width:1.5;"/>
   </g>
   <g id="patch_3">
    <path d="M 47.41875 173.68125 
L 47.41875 10.7 
" style="fill:none;stroke:#000000;stroke-linecap:square;stroke-linejoin:miter;stroke-width:0.8;"/>
   </g>
   <g id="patch_4">
    <path d="M 270.95875 173.68125 
L 270.95875 10.7 
" style="fill:none;stroke:#000000;stroke-linecap:square;stroke-linejoin:miter;stroke-width:0.8;"/>
   </g>
   <g id="patch_5">
    <path d="M 47.41875 173.68125 
L 270.95875 173.68125 
" style="fill:none;stroke:#000000;stroke-linecap:square;stroke-linejoin:miter;stroke-width:0.8;"/>
   </g>
   <g id="patch_6">
    <path d="M 47.41875 10.7 
L 270.95875 10.7 
" style="fill:none;stroke:#000000;stroke-linecap:square;stroke-linejoin:miter;stroke-width:0.8;"/>
   </g>
   <g id="legend_1">
    <g id="patch_7">
     <path d="M 54.41875 58.45 
L 122.41875 58.45 
Q 124.41875 58.45 124.41875 56.45 
L 124.41875 17.7 
Q 124.41875 15.7 122.41875 15.7 
L 54.41875 15.7 
Q 52.41875 15.7 52.41875 17.7 
L 52.41875 56.45 
Q 52.41875 58.45 54.41875 58.45 
z
" style="fill:none;opacity:0.8;"/>
    </g>
    <g id="line2d_14">
     <path d="M 56.41875 23.2 
L 76.41875 23.2 
" style="fill:none;stroke:#ff6347;stroke-linecap:square;stroke-width:1.5;"/>
    </g>
    <g id="line2d_15"/>
    <g id="text_13">
     <!-- $\lambda$ = 0.8 -->
     <defs>
      <path d="M 36.71875 67.4375 
L 48.828125 0 
L 39.3125 0 
L 31.84375 40.4375 
L 5.125 0 
L -4.390625 0 
L 29.734375 52.4375 
L 28.03125 62.109375 
Q 26.953125 68.265625 21.734375 68.265625 
L 17.046875 68.265625 
L 18.5 75.984375 
L 24.21875 75.875 
Q 35.203125 75.734375 36.71875 67.4375 
z
" id="DejaVuSans-Oblique-3bb"/>
      <path id="SimHei-20"/>
      <path d="M 46.484375 45.3125 
L 1.953125 45.3125 
L 1.953125 51.5625 
L 46.484375 51.5625 
z
M 46.484375 21.484375 
L 1.953125 21.484375 
L 1.953125 27.734375 
L 46.484375 27.734375 
z
" id="SimHei-3d"/>
      <path d="M 16.796875 1.953125 
L 7.8125 1.953125 
L 7.8125 10.546875 
L 16.796875 10.546875 
z
" id="SimHei-2e"/>
      <path d="M 2.734375 16.796875 
Q 2.734375 26.171875 5.078125 30.65625 
Q 7.421875 35.15625 12.890625 37.890625 
Q 8.203125 40.625 6.640625 43.9375 
Q 5.078125 47.265625 4.875 51.5625 
Q 4.6875 55.859375 6.046875 58.984375 
Q 7.421875 62.109375 10.15625 64.84375 
Q 12.890625 67.578125 16.203125 68.546875 
Q 19.53125 69.53125 23.4375 69.53125 
Q 27.34375 69.53125 30.46875 68.75 
Q 33.59375 67.96875 37.109375 65.421875 
Q 40.625 62.890625 42.1875 58.203125 
Q 43.75 53.515625 41.984375 47.265625 
Q 40.234375 41.015625 32.8125 37.5 
Q 39.453125 35.546875 42.1875 31.4375 
Q 44.921875 27.34375 44.921875 21.484375 
Q 44.921875 15.625 43.15625 12.109375 
Q 41.40625 8.59375 39.25 6.25 
Q 37.109375 3.90625 33.390625 2.53125 
Q 29.6875 1.171875 24.015625 1.171875 
Q 18.359375 1.171875 14.25 2.53125 
Q 10.15625 3.90625 7.421875 6.640625 
Q 4.6875 9.375 3.703125 13.078125 
Q 2.734375 16.796875 2.734375 26.171875 
z
M 10.9375 26.5625 
Q 10.546875 17.1875 12.296875 13.671875 
Q 14.0625 10.15625 18.75 9.171875 
Q 23.4375 8.203125 28.515625 9.375 
Q 33.59375 10.546875 35.546875 14.84375 
Q 37.5 19.140625 36.90625 23.4375 
Q 36.328125 27.734375 32.03125 30.65625 
Q 27.734375 33.59375 22.65625 33.203125 
Q 17.578125 32.8125 14.25 29.6875 
Q 10.9375 26.5625 10.546875 17.1875 
z
M 12.109375 56.25 
Q 12.109375 48.4375 14.84375 44.921875 
Q 17.578125 41.40625 23.4375 41.40625 
Q 29.296875 41.40625 32.21875 44.921875 
Q 35.15625 48.4375 34.953125 53.3125 
Q 34.765625 58.203125 31.4375 60.546875 
Q 28.125 62.890625 22.453125 62.5 
Q 16.796875 62.109375 14.453125 59.171875 
Q 12.109375 56.25 12.109375 48.4375 
z
" id="SimHei-38"/>
     </defs>
     <g transform="translate(84.41875 26.7)scale(0.1 -0.1)">
      <use transform="translate(0 0.015625)" xlink:href="#DejaVuSans-Oblique-3bb"/>
      <use transform="translate(59.179688 0.015625)" xlink:href="#SimHei-20"/>
      <use transform="translate(109.179688 0.015625)" xlink:href="#SimHei-3d"/>
      <use transform="translate(159.179688 0.015625)" xlink:href="#SimHei-20"/>
      <use transform="translate(209.179688 0.015625)" xlink:href="#SimHei-30"/>
      <use transform="translate(259.179688 0.015625)" xlink:href="#SimHei-2e"/>
      <use transform="translate(309.179688 0.015625)" xlink:href="#SimHei-38"/>
     </g>
    </g>
    <g id="line2d_16">
     <path d="M 56.41875 36.45 
L 76.41875 36.45 
" style="fill:none;stroke:#008000;stroke-dasharray:5.55,2.4;stroke-dashoffset:0;stroke-width:1.5;"/>
    </g>
    <g id="line2d_17"/>
    <g id="text_14">
     <!-- $\lambda$ = 0.5 -->
     <g transform="translate(84.41875 39.95)scale(0.1 -0.1)">
      <use transform="translate(0 0.015625)" xlink:href="#DejaVuSans-Oblique-3bb"/>
      <use transform="translate(59.179688 0.015625)" xlink:href="#SimHei-20"/>
      <use transform="translate(109.179688 0.015625)" xlink:href="#SimHei-3d"/>
      <use transform="translate(159.179688 0.015625)" xlink:href="#SimHei-20"/>
      <use transform="translate(209.179688 0.015625)" xlink:href="#SimHei-30"/>
      <use transform="translate(259.179688 0.015625)" xlink:href="#SimHei-2e"/>
      <use transform="translate(309.179688 0.015625)" xlink:href="#SimHei-35"/>
     </g>
    </g>
    <g id="line2d_18">
     <path d="M 56.41875 49.7 
L 76.41875 49.7 
" style="fill:none;stroke:#a9a9a9;stroke-dasharray:5.55,2.4;stroke-dashoffset:0;stroke-width:1.5;"/>
    </g>
    <g id="line2d_19"/>
    <g id="text_15">
     <!-- $\lambda$ = 0.3 -->
     <defs>
      <path d="M 3.90625 19.140625 
L 10.9375 20.3125 
Q 12.5 15.234375 16.015625 11.90625 
Q 19.53125 8.59375 24.796875 8.78125 
Q 30.078125 8.984375 33.203125 13.078125 
Q 36.328125 17.1875 35.9375 22.453125 
Q 35.546875 27.734375 31.828125 30.65625 
Q 28.125 33.59375 19.921875 34.765625 
L 19.921875 39.84375 
Q 28.125 40.625 31.828125 44.140625 
Q 35.546875 47.65625 35.15625 53.3125 
Q 34.765625 58.984375 30.078125 61.515625 
Q 25.390625 64.0625 20.109375 62.109375 
Q 14.84375 60.15625 11.71875 51.171875 
L 4.6875 52.34375 
Q 7.03125 59.375 11.125 64.0625 
Q 15.234375 68.75 22.265625 69.53125 
Q 29.296875 70.3125 34.5625 67.765625 
Q 39.84375 65.234375 41.984375 59.953125 
Q 44.140625 54.6875 42.578125 48.4375 
Q 41.015625 42.1875 33.59375 37.5 
Q 39.0625 35.15625 41.984375 30.46875 
Q 44.921875 25.78125 43.9375 18.15625 
Q 42.96875 10.546875 37.109375 5.859375 
Q 31.25 1.171875 23.828125 1.359375 
Q 16.40625 1.5625 10.9375 6.046875 
Q 5.46875 10.546875 3.90625 19.140625 
z
" id="SimHei-33"/>
     </defs>
     <g transform="translate(84.41875 53.2)scale(0.1 -0.1)">
      <use transform="translate(0 0.015625)" xlink:href="#DejaVuSans-Oblique-3bb"/>
      <use transform="translate(59.179688 0.015625)" xlink:href="#SimHei-20"/>
      <use transform="translate(109.179688 0.015625)" xlink:href="#SimHei-3d"/>
      <use transform="translate(159.179688 0.015625)" xlink:href="#SimHei-20"/>
      <use transform="translate(209.179688 0.015625)" xlink:href="#SimHei-30"/>
      <use transform="translate(259.179688 0.015625)" xlink:href="#SimHei-2e"/>
      <use transform="translate(309.179688 0.015625)" xlink:href="#SimHei-33"/>
     </g>
    </g>
   </g>
  </g>
 </g>
 <defs>
  <clipPath id="p51df22a43f">
   <rect height="162.98125" width="223.54" x="47.41875" y="10.7"/>
  </clipPath>
 </defs>
</svg>
