<?xml version="1.0" encoding="utf-8" standalone="no"?>
<!DOCTYPE svg PUBLIC "-//W3C//DTD SVG 1.1//EN"
  "http://www.w3.org/Graphics/SVG/1.1/DTD/svg11.dtd">
<!-- Created with matplotlib (http://matplotlib.org/) -->
<svg height="173.185937pt" version="1.1" viewBox="0 0 281.65875 173.185937" width="281.65875pt" xmlns="http://www.w3.org/2000/svg" xmlns:xlink="http://www.w3.org/1999/xlink">
 <defs>
  <style type="text/css">
*{stroke-linecap:butt;stroke-linejoin:round;}
  </style>
 </defs>
 <g id="figure_1">
  <g id="patch_1">
   <path d="M 0 173.185937 
L 281.65875 173.185937 
L 281.65875 -0 
L 0 -0 
z
" style="fill:none;"/>
  </g>
  <g id="axes_1">
   <g id="patch_2">
    <path d="M 47.41875 137.68125 
L 270.95875 137.68125 
L 270.95875 10.7 
L 47.41875 10.7 
z
" style="fill:#ffffff;"/>
   </g>
   <g id="matplotlib.axis_1">
    <g id="xtick_1">
     <g id="line2d_1">
      <defs>
       <path d="M 0 0 
L 0 3.5 
" id="mde32faff08" style="stroke:#000000;stroke-width:0.8;"/>
      </defs>
      <g>
       <use style="stroke:#000000;stroke-width:0.8;" x="57.579659" xlink:href="#mde32faff08" y="137.68125"/>
      </g>
     </g>
     <g id="text_1">
      <!-- 0 -->
      <defs>
       <path d="M 3.125 29.296875 
Q 3.90625 50 6.4375 56.046875 
Q 8.984375 62.109375 13.671875 66.015625 
Q 18.359375 69.921875 25.1875 69.921875 
Q 32.03125 69.921875 37.109375 64.25 
Q 42.1875 58.59375 43.75 50 
Q 45.3125 41.40625 44.71875 30.265625 
Q 44.140625 19.140625 40.8125 12.109375 
Q 37.5 5.078125 30.859375 2.34375 
Q 24.21875 -0.390625 17.578125 2.921875 
Q 10.9375 6.25 8.203125 11.71875 
Q 5.46875 17.1875 4.296875 23.234375 
Q 3.125 29.296875 3.90625 50 
z
M 12.890625 52.734375 
Q 10.546875 31.25 12.5 22.84375 
Q 14.453125 14.453125 18.9375 10.9375 
Q 23.4375 7.421875 28.125 9.5625 
Q 32.8125 11.71875 34.953125 18.15625 
Q 37.109375 24.609375 37.109375 32.21875 
Q 37.109375 39.84375 36.515625 46.09375 
Q 35.9375 52.34375 33 57.421875 
Q 30.078125 62.5 25.1875 62.6875 
Q 20.3125 62.890625 16.59375 57.8125 
Q 12.890625 52.734375 10.546875 31.25 
z
" id="SimHei-30"/>
      </defs>
      <g transform="translate(55.079659 151.55625)scale(0.1 -0.1)">
       <use xlink:href="#SimHei-30"/>
      </g>
     </g>
    </g>
    <g id="xtick_2">
     <g id="line2d_2">
      <g>
       <use style="stroke:#000000;stroke-width:0.8;" x="91.562633" xlink:href="#mde32faff08" y="137.68125"/>
      </g>
     </g>
     <g id="text_2">
      <!-- 50 -->
      <defs>
       <path d="M 8.59375 20.703125 
Q 11.328125 10.15625 17.96875 8.984375 
Q 24.609375 7.8125 28.703125 10.34375 
Q 32.8125 12.890625 34.5625 16.984375 
Q 36.328125 21.09375 36.125 26.171875 
Q 35.9375 31.25 33.390625 34.765625 
Q 30.859375 38.28125 26.953125 39.453125 
Q 23.046875 40.625 18.15625 39.453125 
Q 13.28125 38.28125 10.15625 33.984375 
L 3.515625 34.765625 
Q 4.296875 37.109375 10.9375 68.359375 
L 41.796875 68.359375 
L 41.796875 61.328125 
L 16.796875 61.328125 
Q 14.84375 50.78125 12.890625 44.53125 
Q 18.75 47.265625 23.828125 47.0625 
Q 28.90625 46.875 33.59375 44.71875 
Q 38.28125 42.578125 40.421875 38.859375 
Q 42.578125 35.15625 43.546875 31.4375 
Q 44.53125 27.734375 44.328125 23.4375 
Q 44.140625 19.140625 42.578125 14.640625 
Q 41.015625 10.15625 37.890625 7.21875 
Q 34.765625 4.296875 30.265625 2.53125 
Q 25.78125 0.78125 19.921875 1.171875 
Q 14.0625 1.5625 8.78125 5.46875 
Q 3.515625 9.375 1.5625 18.75 
z
" id="SimHei-35"/>
      </defs>
      <g transform="translate(86.562633 151.55625)scale(0.1 -0.1)">
       <use xlink:href="#SimHei-35"/>
       <use x="50" xlink:href="#SimHei-30"/>
      </g>
     </g>
    </g>
    <g id="xtick_3">
     <g id="line2d_3">
      <g>
       <use style="stroke:#000000;stroke-width:0.8;" x="125.545606" xlink:href="#mde32faff08" y="137.68125"/>
      </g>
     </g>
     <g id="text_3">
      <!-- 100 -->
      <defs>
       <path d="M 21.875 56.25 
Q 16.796875 51.171875 8.984375 46.484375 
L 8.984375 53.90625 
Q 18.75 60.546875 25 69.53125 
L 29.6875 69.53125 
L 29.6875 2.34375 
L 21.875 2.34375 
z
" id="SimHei-31"/>
      </defs>
      <g transform="translate(118.045606 151.55625)scale(0.1 -0.1)">
       <use xlink:href="#SimHei-31"/>
       <use x="50" xlink:href="#SimHei-30"/>
       <use x="100" xlink:href="#SimHei-30"/>
      </g>
     </g>
    </g>
    <g id="xtick_4">
     <g id="line2d_4">
      <g>
       <use style="stroke:#000000;stroke-width:0.8;" x="159.52858" xlink:href="#mde32faff08" y="137.68125"/>
      </g>
     </g>
     <g id="text_4">
      <!-- 150 -->
      <g transform="translate(152.02858 151.55625)scale(0.1 -0.1)">
       <use xlink:href="#SimHei-31"/>
       <use x="50" xlink:href="#SimHei-35"/>
       <use x="100" xlink:href="#SimHei-30"/>
      </g>
     </g>
    </g>
    <g id="xtick_5">
     <g id="line2d_5">
      <g>
       <use style="stroke:#000000;stroke-width:0.8;" x="193.511553" xlink:href="#mde32faff08" y="137.68125"/>
      </g>
     </g>
     <g id="text_5">
      <!-- 200 -->
      <defs>
       <path d="M 4.6875 3.90625 
Q 5.078125 9.765625 10.15625 14.453125 
Q 15.234375 19.140625 23.046875 29.09375 
Q 30.859375 39.0625 33.203125 44.53125 
Q 35.546875 50 34.953125 53.90625 
Q 34.375 57.8125 31.25 60.34375 
Q 28.125 62.890625 24.015625 62.5 
Q 19.921875 62.109375 16.203125 59.375 
Q 12.5 56.640625 10.546875 51.171875 
L 3.125 52.34375 
Q 6.25 61.328125 11.125 65.421875 
Q 16.015625 69.53125 22.65625 69.921875 
Q 26.5625 70.3125 29.6875 69.71875 
Q 32.8125 69.140625 36.125 66.984375 
Q 39.453125 64.84375 41.59375 60.546875 
Q 43.75 56.25 43.15625 50.1875 
Q 42.578125 44.140625 37.109375 35.734375 
Q 31.640625 27.34375 16.015625 9.375 
L 44.140625 9.375 
L 44.140625 2.34375 
L 4.6875 2.34375 
z
" id="SimHei-32"/>
      </defs>
      <g transform="translate(186.011553 151.55625)scale(0.1 -0.1)">
       <use xlink:href="#SimHei-32"/>
       <use x="50" xlink:href="#SimHei-30"/>
       <use x="100" xlink:href="#SimHei-30"/>
      </g>
     </g>
    </g>
    <g id="xtick_6">
     <g id="line2d_6">
      <g>
       <use style="stroke:#000000;stroke-width:0.8;" x="227.494527" xlink:href="#mde32faff08" y="137.68125"/>
      </g>
     </g>
     <g id="text_6">
      <!-- 250 -->
      <g transform="translate(219.994527 151.55625)scale(0.1 -0.1)">
       <use xlink:href="#SimHei-32"/>
       <use x="50" xlink:href="#SimHei-35"/>
       <use x="100" xlink:href="#SimHei-30"/>
      </g>
     </g>
    </g>
    <g id="xtick_7">
     <g id="line2d_7">
      <g>
       <use style="stroke:#000000;stroke-width:0.8;" x="261.4775" xlink:href="#mde32faff08" y="137.68125"/>
      </g>
     </g>
     <g id="text_7">
      <!-- 300 -->
      <defs>
       <path d="M 3.90625 19.140625 
L 10.9375 20.3125 
Q 12.5 15.234375 16.015625 11.90625 
Q 19.53125 8.59375 24.796875 8.78125 
Q 30.078125 8.984375 33.203125 13.078125 
Q 36.328125 17.1875 35.9375 22.453125 
Q 35.546875 27.734375 31.828125 30.65625 
Q 28.125 33.59375 19.921875 34.765625 
L 19.921875 39.84375 
Q 28.125 40.625 31.828125 44.140625 
Q 35.546875 47.65625 35.15625 53.3125 
Q 34.765625 58.984375 30.078125 61.515625 
Q 25.390625 64.0625 20.109375 62.109375 
Q 14.84375 60.15625 11.71875 51.171875 
L 4.6875 52.34375 
Q 7.03125 59.375 11.125 64.0625 
Q 15.234375 68.75 22.265625 69.53125 
Q 29.296875 70.3125 34.5625 67.765625 
Q 39.84375 65.234375 41.984375 59.953125 
Q 44.140625 54.6875 42.578125 48.4375 
Q 41.015625 42.1875 33.59375 37.5 
Q 39.0625 35.15625 41.984375 30.46875 
Q 44.921875 25.78125 43.9375 18.15625 
Q 42.96875 10.546875 37.109375 5.859375 
Q 31.25 1.171875 23.828125 1.359375 
Q 16.40625 1.5625 10.9375 6.046875 
Q 5.46875 10.546875 3.90625 19.140625 
z
" id="SimHei-33"/>
      </defs>
      <g transform="translate(253.9775 151.55625)scale(0.1 -0.1)">
       <use xlink:href="#SimHei-33"/>
       <use x="50" xlink:href="#SimHei-30"/>
       <use x="100" xlink:href="#SimHei-30"/>
      </g>
     </g>
    </g>
    <g id="text_8">
     <!-- 训练回合数 -->
     <defs>
      <path d="M 25.78125 51.5625 
Q 25.390625 42.578125 25.390625 34.765625 
L 25.390625 10.546875 
Q 30.46875 17.578125 32.03125 19.921875 
Q 33.984375 17.578125 36.71875 14.0625 
Q 31.640625 7.8125 28.125 3.3125 
Q 24.609375 -1.171875 20.703125 -6.640625 
Q 17.96875 -3.125 14.84375 -0.78125 
Q 17.96875 3.515625 17.96875 9.765625 
L 17.96875 44.921875 
L 15.234375 44.921875 
Q 9.375 44.921875 4.6875 44.53125 
L 4.6875 51.953125 
Q 9.375 51.5625 15.234375 51.5625 
z
M 53.515625 71.875 
Q 52.734375 67.96875 52.921875 52.53125 
Q 53.125 37.109375 52.140625 29.484375 
Q 51.171875 21.875 48.234375 13.078125 
Q 45.3125 4.296875 38.28125 -5.859375 
Q 34.765625 -3.125 30.859375 -1.953125 
Q 39.84375 7.8125 43.15625 21.28125 
Q 46.484375 34.765625 46.09375 52.140625 
Q 45.703125 69.53125 45.3125 73.046875 
Q 49.21875 72.265625 53.515625 71.875 
z
M 91.796875 73.4375 
Q 91.40625 70.3125 91.40625 62.109375 
L 91.40625 9.765625 
Q 91.40625 1.953125 91.796875 -6.25 
L 84.375 -6.25 
Q 84.765625 1.953125 84.765625 9.375 
L 84.765625 62.109375 
Q 84.765625 70.3125 84.375 73.4375 
L 91.796875 73.4375 
z
M 71.875 2.734375 
L 64.453125 2.734375 
Q 64.84375 11.328125 64.84375 17.96875 
L 64.84375 56.25 
Q 64.84375 63.28125 64.453125 67.96875 
L 71.875 67.96875 
z
M 15.625 80.46875 
Q 25.78125 71.875 32.8125 64.0625 
Q 29.296875 61.328125 27.34375 58.59375 
Q 16.40625 71.09375 10.9375 75 
Q 13.28125 77.34375 15.625 80.46875 
z
" id="SimHei-8bad"/>
      <path d="M 51.5625 59.765625 
Q 46.09375 59.765625 37.5 59.375 
L 37.5 66.40625 
Q 46.09375 66.015625 51.953125 66.015625 
L 56.640625 66.015625 
Q 60.546875 77.34375 60.9375 80.859375 
Q 65.625 78.515625 69.53125 76.953125 
Q 67.96875 75.390625 66.59375 72.0625 
Q 65.234375 68.75 64.0625 66.015625 
L 78.515625 66.015625 
Q 84.765625 66.015625 92.1875 66.40625 
L 92.1875 59.375 
Q 86.71875 59.765625 78.515625 59.765625 
L 62.109375 59.765625 
Q 60.15625 55.078125 57.8125 49.21875 
L 73.046875 49.21875 
Q 72.65625 44.921875 72.65625 38.671875 
L 72.65625 30.859375 
L 77.734375 30.859375 
Q 83.59375 30.859375 90.625 31.25 
L 90.625 24.21875 
Q 83.59375 24.609375 77.734375 24.609375 
L 72.65625 24.609375 
L 72.65625 1.953125 
Q 72.65625 -4.6875 69.71875 -6.640625 
Q 66.796875 -8.59375 57.03125 -9.765625 
Q 56.640625 -5.859375 53.90625 -1.5625 
Q 63.671875 -1.953125 64.640625 -0.390625 
Q 65.625 1.171875 65.625 5.078125 
L 65.625 24.609375 
L 53.515625 24.609375 
Q 50.78125 24.609375 48.4375 24.40625 
Q 46.09375 24.21875 42.96875 23.046875 
Q 41.40625 26.953125 39.84375 30.46875 
Q 43.75 31.640625 48.828125 43.359375 
Q 46.09375 43.359375 38.28125 42.96875 
L 38.28125 49.609375 
Q 47.265625 49.21875 50.78125 49.21875 
Q 53.125 55.078125 54.6875 59.765625 
z
M 25.78125 46.09375 
Q 29.296875 51.5625 32.8125 60.9375 
Q 36.328125 58.203125 40.234375 56.25 
Q 36.328125 51.171875 31.640625 42.96875 
Q 26.953125 34.765625 16.796875 21.09375 
Q 20.3125 21.875 37.5 24.609375 
Q 36.71875 20.3125 37.109375 17.96875 
Q 28.515625 17.1875 10.15625 12.890625 
Q 8.203125 16.796875 6.25 19.921875 
Q 9.765625 21.875 13.859375 27.140625 
Q 17.96875 32.421875 22.65625 40.234375 
Q 20.3125 40.625 15.8125 40.03125 
Q 11.328125 39.453125 7.03125 38.28125 
Q 5.46875 41.796875 3.90625 45.703125 
Q 7.8125 48.046875 12.6875 58.203125 
Q 17.578125 68.359375 20.703125 78.125 
Q 25 75.390625 28.90625 74.21875 
Q 25 68.359375 21.671875 61.90625 
Q 18.359375 55.46875 12.5 45.703125 
Q 21.484375 45.703125 25.78125 46.09375 
z
M 37.890625 10.9375 
Q 37.5 6.640625 37.890625 3.90625 
Q 31.25 2.34375 22.84375 -0.390625 
Q 14.453125 -3.125 7.421875 -6.640625 
Q 6.25 -2.34375 4.6875 1.953125 
Q 14.84375 4.296875 18.546875 5.265625 
Q 22.265625 6.25 37.890625 10.9375 
z
M 58.203125 13.671875 
Q 57.03125 12.5 51.359375 6.25 
Q 45.703125 0 38.671875 -7.421875 
Q 35.9375 -3.90625 33.59375 -1.953125 
Q 37.890625 1.5625 42.96875 7.21875 
Q 48.046875 12.890625 51.953125 19.140625 
Q 54.296875 16.40625 58.203125 13.671875 
z
M 82.421875 19.140625 
Q 92.578125 5.859375 96.875 -1.5625 
Q 92.96875 -3.125 89.84375 -5.859375 
Q 85.546875 2.734375 76.5625 14.84375 
Q 79.296875 16.40625 82.421875 19.140625 
z
M 65.625 30.859375 
L 65.625 43.359375 
L 55.859375 43.359375 
Q 51.953125 35.15625 49.609375 30.859375 
z
" id="SimHei-7ec3"/>
      <path d="M 88.28125 75.78125 
Q 87.890625 64.453125 87.890625 53.90625 
L 87.890625 14.84375 
Q 87.890625 4.6875 88.28125 -5.859375 
L 80.46875 -5.859375 
L 80.46875 1.5625 
L 18.359375 1.5625 
L 18.359375 -5.859375 
L 10.9375 -5.859375 
Q 11.328125 3.90625 11.328125 14.84375 
L 11.328125 53.90625 
Q 11.328125 64.0625 10.9375 75.78125 
L 88.28125 75.78125 
z
M 80.46875 7.8125 
L 80.46875 69.140625 
L 18.75 69.140625 
L 18.75 7.8125 
z
M 67.578125 54.6875 
Q 67.1875 48.828125 67.1875 42.96875 
L 67.1875 33.984375 
Q 67.1875 28.90625 67.578125 21.875 
L 31.640625 21.875 
Q 32.03125 28.90625 32.03125 33.984375 
L 32.03125 43.75 
Q 32.03125 49.21875 31.640625 54.6875 
L 67.578125 54.6875 
z
M 59.765625 28.515625 
L 59.765625 48.4375 
L 39.0625 48.4375 
L 39.0625 28.515625 
z
" id="SimHei-56de"/>
      <path d="M 78.90625 28.125 
Q 78.515625 24.21875 78.515625 10.15625 
Q 78.515625 -3.90625 78.90625 -8.203125 
L 70.703125 -8.203125 
L 70.703125 -0.78125 
L 27.34375 -0.78125 
L 27.34375 -9.375 
L 19.53125 -9.375 
Q 19.921875 -4.6875 19.921875 8.59375 
Q 19.921875 22.265625 19.53125 28.125 
L 78.90625 28.125 
z
M 52.734375 75 
Q 64.0625 61.328125 71.09375 56.25 
Q 78.125 51.171875 83.984375 48.4375 
Q 89.84375 45.703125 95.3125 44.140625 
Q 91.40625 39.84375 90.234375 35.9375 
Q 82.421875 39.453125 76.171875 43.359375 
Q 69.921875 47.265625 63.46875 53.3125 
Q 57.03125 59.375 48.828125 69.921875 
Q 41.40625 59.375 34.171875 52.53125 
Q 26.953125 45.703125 21.875 41.796875 
Q 16.796875 37.890625 10.546875 33.984375 
Q 9.765625 35.546875 4.296875 40.234375 
Q 12.5 44.140625 19.921875 49.609375 
Q 27.34375 55.078125 34.765625 63.46875 
Q 42.1875 71.875 46.875 81.640625 
Q 51.171875 78.90625 54.6875 77.34375 
z
M 70.703125 5.46875 
L 70.703125 21.875 
L 27.34375 21.875 
L 27.34375 5.46875 
z
M 61.328125 44.140625 
Q 67.578125 44.140625 72.265625 44.53125 
L 72.265625 37.109375 
Q 67.1875 37.5 61.71875 37.5 
L 39.84375 37.5 
Q 31.640625 37.5 26.5625 37.109375 
L 26.5625 44.53125 
Q 33.984375 44.140625 39.84375 44.140625 
z
" id="SimHei-5408"/>
      <path d="M 70.703125 76.953125 
Q 69.921875 75 68.75 71.671875 
Q 67.578125 68.359375 65.234375 59.765625 
L 83.203125 59.765625 
Q 87.109375 59.765625 92.578125 60.15625 
L 92.578125 53.125 
Q 88.28125 53.515625 85.9375 53.515625 
Q 85.9375 47.265625 83.78125 33.78125 
Q 81.640625 20.3125 76.171875 10.546875 
Q 80.078125 5.859375 84.953125 2.140625 
Q 89.84375 -1.5625 94.140625 -3.125 
Q 89.453125 -6.640625 87.890625 -9.765625 
Q 83.203125 -7.03125 79.296875 -3.515625 
Q 75.390625 0 71.484375 5.078125 
Q 67.1875 0.390625 62.296875 -2.921875 
Q 57.421875 -6.25 50 -10.15625 
Q 48.046875 -6.640625 44.53125 -4.6875 
Q 50.390625 -2.34375 57.03125 1.953125 
Q 63.671875 6.25 67.1875 10.546875 
Q 64.453125 16.015625 61.90625 22.265625 
Q 59.375 28.515625 57.421875 38.671875 
Q 56.25 35.546875 53.515625 30.46875 
Q 50.78125 32.03125 46.875 33.59375 
Q 53.125 44.53125 57.03125 57.421875 
Q 60.9375 70.3125 62.109375 79.6875 
Q 66.796875 77.734375 70.703125 76.953125 
z
M 32.8125 35.15625 
Q 31.25 33.59375 29.296875 30.078125 
L 50.78125 30.078125 
Q 48.4375 20.3125 42.578125 10.546875 
Q 48.828125 8.203125 52.34375 6.25 
Q 50.390625 3.515625 48.828125 0.390625 
Q 45.3125 2.734375 38.28125 5.078125 
Q 30.46875 -3.515625 11.328125 -10.15625 
Q 9.375 -5.859375 6.25 -4.296875 
Q 24.609375 0 31.25 7.421875 
Q 20.3125 10.15625 13.28125 12.109375 
Q 15.625 15.625 19.53125 23.828125 
Q 15.625 23.828125 6.640625 23.4375 
L 6.640625 30.46875 
Q 14.0625 30.078125 21.875 30.078125 
Q 23.4375 33.59375 24.21875 37.890625 
Q 28.515625 36.328125 32.8125 35.15625 
z
M 27.734375 61.71875 
Q 27.734375 71.09375 27.34375 79.6875 
L 35.15625 79.6875 
Q 34.765625 71.484375 34.765625 61.71875 
Q 48.046875 61.71875 53.515625 62.109375 
L 53.515625 55.078125 
Q 48.046875 55.46875 34.765625 55.46875 
Q 34.765625 44.140625 35.15625 37.890625 
L 27.34375 37.890625 
Q 27.734375 43.359375 27.734375 51.5625 
Q 25.78125 48.4375 20.3125 43.546875 
Q 14.84375 38.671875 10.15625 35.9375 
Q 8.203125 39.453125 4.296875 41.015625 
Q 7.8125 42.1875 13.671875 46.484375 
Q 19.53125 50.78125 22.65625 55.46875 
Q 14.84375 55.46875 7.8125 55.078125 
L 7.8125 62.109375 
Q 14.453125 61.71875 27.734375 61.71875 
z
M 62.109375 49.609375 
Q 65.625 26.5625 71.875 17.578125 
Q 75.78125 26.5625 77.140625 35.734375 
Q 78.515625 44.921875 78.90625 53.515625 
L 63.671875 53.515625 
L 62.109375 49.609375 
z
M 22.65625 15.625 
Q 27.34375 14.453125 35.546875 12.5 
Q 38.671875 16.40625 41.40625 23.828125 
L 26.953125 23.828125 
Q 25 19.921875 22.65625 15.625 
z
M 51.953125 75.390625 
Q 50 72.265625 48.828125 69.53125 
Q 47.65625 66.796875 45.703125 62.890625 
Q 42.578125 64.453125 39.453125 65.234375 
Q 42.578125 70.3125 45.3125 78.125 
Q 49.21875 76.171875 51.953125 75.390625 
z
M 40.234375 52.734375 
Q 45.3125 47.65625 50 42.578125 
Q 47.65625 40.625 44.921875 37.890625 
Q 39.453125 44.53125 35.9375 48.4375 
Q 38.28125 50.390625 40.234375 52.734375 
z
M 14.453125 78.125 
Q 19.921875 72.65625 23.4375 67.1875 
L 17.578125 63.671875 
Q 14.84375 69.140625 9.375 73.828125 
Q 12.890625 76.171875 14.453125 78.125 
z
" id="SimHei-6570"/>
     </defs>
     <g transform="translate(134.18875 164.735937)scale(0.1 -0.1)">
      <use xlink:href="#SimHei-8bad"/>
      <use x="100" xlink:href="#SimHei-7ec3"/>
      <use x="200" xlink:href="#SimHei-56de"/>
      <use x="300" xlink:href="#SimHei-5408"/>
      <use x="400" xlink:href="#SimHei-6570"/>
     </g>
    </g>
   </g>
   <g id="matplotlib.axis_2">
    <g id="ytick_1">
     <g id="line2d_8">
      <defs>
       <path d="M 0 0 
L -3.5 0 
" id="m1e55856fa2" style="stroke:#000000;stroke-width:0.8;"/>
      </defs>
      <g>
       <use style="stroke:#000000;stroke-width:0.8;" x="47.41875" xlink:href="#m1e55856fa2" y="131.909375"/>
      </g>
     </g>
     <g id="text_9">
      <!-- -500 -->
      <defs>
       <path d="M 46.484375 33.203125 
L 1.953125 33.203125 
L 1.953125 39.453125 
L 46.484375 39.453125 
z
" id="SimHei-2d"/>
      </defs>
      <g transform="translate(20.41875 135.346875)scale(0.1 -0.1)">
       <use xlink:href="#SimHei-2d"/>
       <use x="50" xlink:href="#SimHei-35"/>
       <use x="100" xlink:href="#SimHei-30"/>
       <use x="150" xlink:href="#SimHei-30"/>
      </g>
     </g>
    </g>
    <g id="ytick_2">
     <g id="line2d_9">
      <g>
       <use style="stroke:#000000;stroke-width:0.8;" x="47.41875" xlink:href="#m1e55856fa2" y="104.337432"/>
      </g>
     </g>
     <g id="text_10">
      <!-- -400 -->
      <defs>
       <path d="M 31.25 17.1875 
L 1.171875 17.1875 
L 1.171875 23.828125 
L 32.8125 69.53125 
L 38.671875 69.53125 
L 38.671875 23.828125 
L 48.046875 23.828125 
L 48.046875 17.1875 
L 38.671875 17.1875 
L 38.671875 2.34375 
L 31.25 2.34375 
z
M 31.25 23.828125 
L 31.25 54.6875 
L 9.375 23.828125 
z
" id="SimHei-34"/>
      </defs>
      <g transform="translate(20.41875 107.774932)scale(0.1 -0.1)">
       <use xlink:href="#SimHei-2d"/>
       <use x="50" xlink:href="#SimHei-34"/>
       <use x="100" xlink:href="#SimHei-30"/>
       <use x="150" xlink:href="#SimHei-30"/>
      </g>
     </g>
    </g>
    <g id="ytick_3">
     <g id="line2d_10">
      <g>
       <use style="stroke:#000000;stroke-width:0.8;" x="47.41875" xlink:href="#m1e55856fa2" y="76.765489"/>
      </g>
     </g>
     <g id="text_11">
      <!-- -300 -->
      <g transform="translate(20.41875 80.202989)scale(0.1 -0.1)">
       <use xlink:href="#SimHei-2d"/>
       <use x="50" xlink:href="#SimHei-33"/>
       <use x="100" xlink:href="#SimHei-30"/>
       <use x="150" xlink:href="#SimHei-30"/>
      </g>
     </g>
    </g>
    <g id="ytick_4">
     <g id="line2d_11">
      <g>
       <use style="stroke:#000000;stroke-width:0.8;" x="47.41875" xlink:href="#m1e55856fa2" y="49.193546"/>
      </g>
     </g>
     <g id="text_12">
      <!-- -200 -->
      <g transform="translate(20.41875 52.631046)scale(0.1 -0.1)">
       <use xlink:href="#SimHei-2d"/>
       <use x="50" xlink:href="#SimHei-32"/>
       <use x="100" xlink:href="#SimHei-30"/>
       <use x="150" xlink:href="#SimHei-30"/>
      </g>
     </g>
    </g>
    <g id="ytick_5">
     <g id="line2d_12">
      <g>
       <use style="stroke:#000000;stroke-width:0.8;" x="47.41875" xlink:href="#m1e55856fa2" y="21.621602"/>
      </g>
     </g>
     <g id="text_13">
      <!-- -100 -->
      <g transform="translate(20.41875 25.059102)scale(0.1 -0.1)">
       <use xlink:href="#SimHei-2d"/>
       <use x="50" xlink:href="#SimHei-31"/>
       <use x="100" xlink:href="#SimHei-30"/>
       <use x="150" xlink:href="#SimHei-30"/>
      </g>
     </g>
    </g>
    <g id="text_14">
     <!-- 平均奖赏值 -->
     <defs>
      <path d="M 70.703125 75.390625 
Q 76.5625 75.390625 85.15625 75.78125 
L 85.15625 68.359375 
Q 76.953125 68.75 70.703125 68.75 
L 54.296875 68.75 
L 54.296875 31.640625 
L 78.125 31.640625 
Q 86.71875 31.640625 94.140625 32.03125 
L 94.140625 24.609375 
Q 86.71875 25 78.125 25 
L 54.296875 25 
L 54.296875 7.03125 
Q 54.296875 -1.5625 54.6875 -9.375 
L 45.703125 -9.375 
Q 46.09375 -1.5625 46.09375 7.03125 
L 46.09375 25 
L 17.578125 25 
Q 12.109375 25 5.859375 24.609375 
L 5.859375 32.03125 
Q 12.109375 31.640625 18.359375 31.640625 
L 46.09375 31.640625 
L 46.09375 68.75 
L 27.734375 68.75 
Q 21.875 68.75 13.671875 68.359375 
L 13.671875 75.78125 
Q 21.875 75.390625 27.34375 75.390625 
z
M 61.328125 40.625 
Q 70.3125 51.5625 76.5625 64.453125 
Q 80.46875 61.71875 84.375 59.765625 
Q 74.609375 44.53125 67.96875 35.9375 
Q 64.84375 38.671875 61.328125 40.625 
z
M 30.859375 36.71875 
Q 25 48.4375 16.40625 58.203125 
Q 19.53125 60.546875 22.65625 63.28125 
Q 32.421875 51.5625 38.28125 42.578125 
Q 33.59375 39.0625 30.859375 36.71875 
z
" id="SimHei-5e73"/>
      <path d="M 90.234375 4.296875 
Q 90.234375 -5.078125 83.78125 -7.03125 
Q 77.34375 -8.984375 69.140625 -9.375 
Q 68.359375 -4.296875 66.40625 0.390625 
Q 77.34375 -0.390625 80.078125 0.96875 
Q 82.8125 2.34375 82.8125 7.8125 
L 83.984375 57.8125 
L 55.46875 57.8125 
Q 53.515625 52.734375 50.96875 47.453125 
Q 48.4375 42.1875 45.703125 37.5 
Q 41.796875 39.84375 38.671875 41.015625 
Q 49.21875 56.640625 54.6875 81.25 
Q 59.375 79.6875 63.671875 78.515625 
Q 62.109375 76.171875 60.546875 72.65625 
Q 58.984375 69.140625 57.421875 64.453125 
L 92.1875 64.453125 
L 90.234375 4.296875 
z
M 19.53125 56.640625 
L 19.53125 68.359375 
Q 19.53125 74.609375 19.140625 79.6875 
L 27.734375 79.6875 
Q 27.34375 73.828125 27.34375 68.359375 
L 27.34375 56.640625 
L 29.6875 56.640625 
Q 34.375 56.640625 39.453125 57.03125 
L 39.453125 49.21875 
Q 34.375 49.609375 29.6875 49.609375 
L 27.34375 49.609375 
L 27.34375 17.1875 
L 39.0625 21.484375 
Q 38.671875 17.578125 39.453125 14.0625 
Q 19.140625 7.421875 15.03125 5.65625 
Q 10.9375 3.90625 7.421875 2.34375 
Q 5.859375 7.421875 3.90625 11.71875 
Q 8.984375 12.5 12.5 13.28125 
Q 16.015625 14.0625 19.53125 15.234375 
L 19.53125 49.609375 
L 17.578125 49.609375 
Q 13.28125 49.609375 6.25 49.21875 
L 6.25 57.03125 
Q 13.28125 56.640625 17.1875 56.640625 
z
M 77.34375 25.390625 
Q 73.046875 22.265625 64.640625 16.40625 
Q 56.25 10.546875 49.609375 4.6875 
Q 46.875 8.984375 44.53125 12.109375 
Q 52.34375 16.40625 58.78125 20.703125 
Q 65.234375 25 74.609375 32.421875 
Q 75.390625 28.90625 77.34375 25.390625 
z
M 58.984375 49.21875 
Q 64.453125 43.75 69.921875 35.9375 
Q 66.40625 33.203125 64.0625 30.859375 
Q 60.9375 36.328125 53.90625 44.140625 
Q 56.25 46.875 58.984375 49.21875 
z
" id="SimHei-5747"/>
      <path d="M 79.296875 24.609375 
Q 88.28125 24.609375 94.921875 25 
L 94.921875 17.578125 
Q 88.671875 18.75 79.296875 18.359375 
L 55.46875 18.359375 
Q 62.109375 9.375 73.625 4.6875 
Q 85.15625 0 96.09375 -0.78125 
Q 93.75 -3.515625 91.40625 -8.59375 
Q 83.59375 -7.03125 77.734375 -5.078125 
Q 71.875 -3.125 64.640625 1.359375 
Q 57.421875 5.859375 50.78125 13.671875 
Q 47.265625 8.59375 43.75 5.46875 
Q 40.234375 2.34375 35.15625 -0.78125 
Q 30.078125 -3.90625 24.40625 -5.859375 
Q 18.75 -7.8125 10.9375 -9.765625 
Q 9.375 -5.859375 6.25 -1.953125 
Q 13.671875 -1.171875 19.71875 0.578125 
Q 25.78125 2.34375 30.65625 4.875 
Q 35.546875 7.421875 39.0625 10.734375 
Q 42.578125 14.0625 44.53125 18.359375 
L 20.703125 18.359375 
Q 12.890625 18.359375 5.46875 17.96875 
L 5.46875 25 
Q 12.890625 24.609375 20.703125 24.609375 
L 46.09375 24.609375 
Q 46.484375 27.34375 46.484375 30.46875 
Q 54.296875 29.296875 55.46875 29.296875 
Q 54.296875 26.953125 53.90625 24.609375 
z
M 67.578125 78.125 
Q 64.453125 75 61.328125 70.3125 
L 92.1875 70.3125 
Q 88.671875 61.71875 85.34375 56.046875 
Q 82.03125 50.390625 77.921875 45.890625 
Q 73.828125 41.40625 66.984375 37.5 
Q 60.15625 33.59375 47.65625 30.859375 
Q 45.703125 34.375 42.96875 37.890625 
Q 54.6875 38.28125 64.0625 43.75 
L 53.515625 50.78125 
Q 55.859375 53.515625 57.8125 56.25 
Q 61.71875 53.90625 64.0625 52.140625 
Q 66.40625 50.390625 69.921875 48.046875 
Q 76.5625 53.90625 80.859375 64.0625 
L 57.421875 64.0625 
Q 55.46875 61.71875 52.734375 58.59375 
Q 50 55.46875 45.3125 50 
Q 42.1875 52.734375 38.671875 54.296875 
Q 44.53125 59.375 49.796875 66.40625 
Q 55.078125 73.4375 58.59375 81.640625 
Q 63.671875 79.296875 67.578125 78.125 
z
M 38.28125 80.859375 
Q 37.890625 76.171875 37.890625 69.921875 
L 37.890625 44.921875 
Q 37.890625 39.0625 38.28125 30.859375 
L 30.078125 30.859375 
Q 30.46875 39.0625 30.46875 44.921875 
L 30.46875 47.65625 
Q 19.140625 40.234375 11.71875 35.546875 
Q 8.984375 39.84375 6.25 42.1875 
Q 12.890625 44.140625 30.46875 55.078125 
L 30.46875 69.921875 
Q 30.46875 75.78125 30.078125 80.859375 
L 38.28125 80.859375 
z
M 15.625 73.4375 
Q 23.046875 67.578125 28.125 62.890625 
L 22.265625 57.03125 
Q 17.1875 62.5 10.546875 67.96875 
Q 13.28125 70.3125 15.625 73.4375 
z
" id="SimHei-5956"/>
      <path d="M 76.953125 34.375 
L 23.4375 34.375 
Q 23.828125 39.453125 23.828125 44.140625 
Q 23.828125 48.828125 23.4375 53.125 
L 76.953125 53.125 
z
M 82.421875 76.171875 
Q 78.515625 73.4375 73.046875 65.234375 
L 91.015625 65.234375 
Q 90.625 61.328125 90.625 57.421875 
Q 90.625 53.90625 91.015625 49.21875 
L 83.203125 49.21875 
L 83.203125 59.375 
L 17.1875 59.375 
L 17.1875 47.65625 
L 9.375 47.65625 
Q 9.765625 52.34375 9.765625 56.640625 
Q 9.765625 61.328125 9.375 65.234375 
L 28.90625 65.234375 
Q 23.828125 71.875 19.921875 76.5625 
L 26.171875 80.46875 
Q 31.25 75.390625 35.546875 68.75 
Q 32.421875 66.796875 29.6875 65.234375 
L 46.484375 65.234375 
Q 46.484375 73.046875 46.09375 80.859375 
L 54.296875 80.859375 
Q 53.90625 73.828125 53.90625 65.234375 
L 65.234375 65.234375 
Q 71.875 75 73.046875 79.6875 
Q 77.734375 77.34375 82.421875 76.171875 
z
M 81.25 28.90625 
Q 80.859375 24.21875 80.859375 18.75 
Q 80.859375 13.28125 81.25 8.59375 
L 73.4375 8.59375 
L 73.4375 23.046875 
L 26.953125 23.046875 
L 26.953125 7.03125 
L 19.140625 7.03125 
Q 19.53125 12.5 19.53125 17.96875 
Q 19.53125 23.4375 19.140625 28.90625 
L 81.25 28.90625 
z
M 54.296875 17.1875 
Q 50 5.078125 45.3125 1.171875 
Q 40.625 -2.734375 33.390625 -5.65625 
Q 26.171875 -8.59375 12.890625 -10.546875 
Q 12.109375 -7.03125 7.8125 -2.734375 
Q 18.359375 -2.34375 25.390625 -0.578125 
Q 32.421875 1.171875 38.28125 5.46875 
Q 44.140625 9.765625 45.3125 19.53125 
L 54.296875 17.1875 
z
M 69.140625 39.84375 
L 69.140625 47.265625 
L 31.25 47.265625 
L 31.25 39.84375 
z
M 61.328125 10.15625 
Q 78.515625 3.515625 90.234375 -3.90625 
Q 86.71875 -6.640625 84.375 -10.15625 
Q 76.5625 -3.90625 56.640625 3.90625 
Q 59.765625 7.8125 61.328125 10.15625 
z
" id="SimHei-8d4f"/>
      <path d="M 57.421875 69.53125 
L 57.421875 79.6875 
Q 62.109375 79.296875 67.96875 78.90625 
Q 66.015625 76.171875 65.625 69.53125 
L 80.078125 69.53125 
Q 86.71875 69.53125 91.796875 69.921875 
L 91.796875 62.890625 
Q 86.328125 63.28125 80.078125 63.28125 
L 65.234375 63.28125 
L 64.453125 54.6875 
L 84.375 54.6875 
Q 83.984375 50 83.984375 42.1875 
L 83.984375 2.34375 
Q 91.796875 2.34375 95.3125 2.734375 
L 95.3125 -4.296875 
Q 90.234375 -3.90625 81.25 -3.90625 
L 44.53125 -3.90625 
Q 35.546875 -3.90625 29.6875 -4.296875 
L 29.6875 2.734375 
Q 33.203125 2.34375 40.625 2.34375 
L 40.625 42.1875 
Q 40.625 49.609375 40.234375 54.6875 
L 56.25 54.6875 
L 57.03125 63.28125 
L 50 63.28125 
Q 40.234375 63.28125 34.765625 62.890625 
L 34.765625 69.921875 
Q 39.84375 69.53125 50 69.53125 
z
M 34.765625 76.5625 
Q 31.640625 73.046875 25.78125 58.59375 
L 25.78125 7.03125 
Q 25.78125 -1.171875 26.171875 -8.59375 
L 17.96875 -8.59375 
Q 18.359375 -1.953125 18.359375 5.859375 
L 18.359375 46.09375 
Q 13.671875 38.28125 9.765625 33.59375 
Q 6.640625 37.890625 3.90625 40.234375 
Q 7.8125 44.140625 14.640625 55.265625 
Q 21.484375 66.40625 25.390625 80.46875 
Q 30.859375 77.734375 34.765625 76.5625 
z
M 76.953125 41.40625 
L 76.953125 49.21875 
L 48.046875 49.21875 
L 48.046875 41.40625 
z
M 76.953125 2.34375 
L 76.953125 9.765625 
L 48.046875 9.765625 
L 48.046875 2.34375 
z
M 76.953125 15.625 
L 76.953125 22.65625 
L 48.046875 22.65625 
L 48.046875 15.625 
z
M 76.953125 28.515625 
L 76.953125 35.546875 
L 48.046875 35.546875 
L 48.046875 28.515625 
z
" id="SimHei-503c"/>
     </defs>
     <g transform="translate(15.16875 99.190625)rotate(-90)scale(0.1 -0.1)">
      <use xlink:href="#SimHei-5e73"/>
      <use x="100" xlink:href="#SimHei-5747"/>
      <use x="200" xlink:href="#SimHei-5956"/>
      <use x="300" xlink:href="#SimHei-8d4f"/>
      <use x="400" xlink:href="#SimHei-503c"/>
     </g>
    </g>
   </g>
   <g id="line2d_13">
    <path clip-path="url(#pbb6eecafe3)" d="M 57.579659 131.909375 
L 58.259319 131.909375 
L 58.938978 120.512972 
L 59.618638 116.262297 
L 60.298297 113.877324 
L 61.657616 94.844806 
L 62.337275 93.412049 
L 63.016935 87.886172 
L 63.696594 85.478223 
L 64.376254 84.460567 
L 65.055913 88.414635 
L 65.735573 89.533419 
L 66.415232 87.774572 
L 67.094892 87.463403 
L 68.454211 83.074598 
L 69.13387 82.815998 
L 69.81353 85.39986 
L 70.493189 83.713618 
L 71.172849 81.216388 
L 71.852508 80.638093 
L 72.532167 79.870329 
L 73.211827 78.373852 
L 73.891486 77.515446 
L 74.571146 76.415537 
L 75.250805 77.153538 
L 75.930465 76.558699 
L 76.610124 75.662611 
L 77.289784 75.193888 
L 77.969443 75.929436 
L 78.649103 75.929436 
L 79.328762 73.616951 
L 80.008422 73.047723 
L 80.688081 72.096047 
L 81.367741 69.872503 
L 82.72706 69.009768 
L 83.406719 67.551123 
L 84.086378 66.830695 
L 84.766038 65.43431 
L 85.445697 63.771099 
L 86.125357 59.946603 
L 86.805016 57.545176 
L 87.484676 56.050955 
L 88.164335 54.254331 
L 89.523654 52.937993 
L 90.203314 51.283677 
L 90.882973 47.850525 
L 91.562633 47.041155 
L 92.242292 46.872166 
L 92.921952 47.672642 
L 94.281271 45.724817 
L 95.640589 43.679157 
L 96.320249 41.339989 
L 96.999908 39.996968 
L 97.679568 39.365482 
L 98.359227 38.013567 
L 99.038887 36.003484 
L 99.718546 32.419131 
L 101.757525 28.203292 
L 103.116844 27.616277 
L 103.796503 27.429499 
L 104.476163 26.886954 
L 105.155822 27.09152 
L 106.515141 27.171568 
L 107.1948 27.491758 
L 108.554119 27.242721 
L 110.593098 26.806907 
L 111.272757 26.993684 
L 112.632076 26.379986 
L 113.311736 26.28215 
L 113.991395 23.85404 
L 115.350714 24.55668 
L 116.030374 24.485527 
L 116.710033 24.787929 
L 117.389693 24.538892 
L 118.069352 24.796823 
L 119.428671 24.716775 
L 120.10833 24.209807 
L 120.78799 23.987453 
L 121.467649 23.898511 
L 122.826968 22.680009 
L 123.506628 22.893469 
L 124.186287 22.110782 
L 126.225266 21.666073 
L 127.584585 21.763909 
L 128.264244 21.772803 
L 128.943904 21.505978 
L 130.303222 21.772803 
L 130.982882 21.639391 
L 131.662541 21.248047 
L 132.342201 21.194682 
L 133.02186 21.425931 
L 135.060839 21.372566 
L 135.740498 20.545407 
L 137.779477 19.629307 
L 138.459136 20.723291 
L 139.138796 21.283624 
L 141.177774 20.972328 
L 141.857433 21.523767 
L 143.896412 21.692756 
L 144.576071 21.21247 
L 145.255731 21.479296 
L 146.61505 21.852851 
L 147.294709 21.550449 
L 147.974369 21.452613 
L 148.654028 21.070164 
L 149.333688 20.927857 
L 150.693007 20.927857 
L 151.372666 20.616561 
L 152.731985 20.616561 
L 153.411644 20.038439 
L 154.091304 19.807191 
L 154.770963 19.789402 
L 155.450623 21.168 
L 156.130282 21.025693 
L 156.809942 21.159105 
L 157.489601 21.096846 
L 158.169261 21.194682 
L 158.84892 21.168 
L 159.52858 19.949498 
L 160.208239 18.988927 
L 160.887899 18.882196 
L 161.567558 19.06008 
L 162.247218 18.971138 
L 162.926877 18.339652 
L 163.606537 18.375228 
L 164.965856 18.268498 
L 166.325174 18.170662 
L 167.004834 17.974991 
L 167.684493 18.055038 
L 168.364153 19.967286 
L 169.043812 19.860556 
L 171.082791 20.154064 
L 171.76245 22.208618 
L 172.44211 21.986264 
L 174.481088 22.350925 
L 175.160748 22.911258 
L 175.840407 23.142506 
L 176.520067 21.861745 
L 177.199726 22.012946 
L 177.879385 25.677346 
L 179.238704 25.321579 
L 181.277683 25.25932 
L 181.957342 25.15259 
L 182.637002 25.632875 
L 183.316661 25.846336 
L 184.67598 26.540081 
L 185.35564 26.824695 
L 186.035299 26.886954 
L 186.714959 26.806907 
L 188.074278 26.833589 
L 188.753937 26.531187 
L 189.433596 24.885765 
L 190.113256 24.876871 
L 190.792915 25.036966 
L 191.472575 25.072542 
L 192.152234 24.823506 
L 192.831894 22.72448 
L 193.511553 23.0002 
L 194.191213 22.902364 
L 194.870872 22.920152 
L 195.550532 23.204766 
L 196.909851 22.502126 
L 197.58951 22.40429 
L 198.26917 22.110782 
L 198.948829 18.410805 
L 199.628489 18.535324 
L 200.308148 18.899985 
L 200.987807 18.793255 
L 201.667467 19.122339 
L 202.347126 19.309117 
L 203.026786 19.157916 
L 203.706445 18.375228 
L 204.386105 18.259604 
L 205.745424 17.71706 
L 206.425083 17.734848 
L 207.104743 18.046144 
L 207.784402 18.03725 
L 208.464062 18.312969 
L 209.143721 18.410805 
L 211.1827 18.268498 
L 211.862359 18.312969 
L 212.542018 18.170662 
L 213.221678 18.419699 
L 213.901337 18.393017 
L 215.260656 18.126192 
L 215.940316 18.081721 
L 216.619975 17.503599 
L 217.299635 17.450234 
L 217.979294 17.690377 
L 218.658954 17.681483 
L 219.338613 17.859366 
L 220.018273 18.25071 
L 220.697932 18.126192 
L 221.377592 17.734848 
L 222.057251 18.117297 
L 224.096229 17.841578 
L 225.455548 18.135086 
L 226.135208 18.224028 
L 226.814867 18.019461 
L 227.494527 18.028356 
L 228.174186 19.97618 
L 228.853846 19.967286 
L 229.533505 19.558154 
L 230.892824 19.638201 
L 231.572484 23.258131 
L 232.931803 23.035776 
L 233.611462 23.142506 
L 234.970781 23.009094 
L 235.65044 23.133612 
L 237.009759 23.186977 
L 237.689419 23.355967 
L 238.369078 23.142506 
L 239.048738 24.111972 
L 239.728397 24.174231 
L 240.408057 24.396585 
L 241.087716 24.476633 
L 241.767376 24.814611 
L 242.447035 24.921341 
L 243.126695 24.601151 
L 243.806354 24.55668 
L 244.486014 25.081437 
L 245.845333 25.357156 
L 247.204651 25.374944 
L 248.56397 25.766288 
L 249.24363 23.267025 
L 249.923289 23.471591 
L 251.282608 23.516062 
L 251.962268 23.80957 
L 252.641927 20.180746 
L 254.001246 20.216323 
L 256.719884 20.251899 
L 257.399544 20.394206 
L 259.438522 20.500936 
L 260.118181 19.291329 
L 260.797841 19.202387 
L 260.797841 19.202387 
" style="fill:none;stroke:#ff6347;stroke-linecap:square;stroke-width:1.5;"/>
   </g>
   <g id="line2d_14">
    <path clip-path="url(#pbb6eecafe3)" d="M 57.579659 131.909375 
L 58.259319 119.77772 
L 58.938978 123.821605 
L 59.618638 125.843548 
L 60.298297 127.056713 
L 60.977956 115.779788 
L 61.657616 118.084015 
L 62.337275 119.812185 
L 63.016935 118.644207 
L 63.696594 118.592126 
L 64.376254 115.441405 
L 65.055913 112.907711 
L 67.094892 100.330309 
L 69.81353 85.196699 
L 70.493189 83.300039 
L 71.172849 80.546784 
L 71.852508 82.580662 
L 73.211827 78.695525 
L 73.891486 76.986064 
L 74.571146 76.99879 
L 76.610124 71.688448 
L 77.969443 68.449435 
L 78.649103 64.776141 
L 79.328762 61.912216 
L 81.367741 51.079111 
L 82.0474 49.922868 
L 82.72706 46.827695 
L 83.406719 44.497421 
L 85.445697 41.882534 
L 86.125357 40.503936 
L 86.805016 39.65899 
L 88.164335 39.44553 
L 88.843995 39.934709 
L 89.523654 40.859703 
L 90.203314 41.295518 
L 90.882973 41.179894 
L 91.562633 40.57509 
L 92.242292 40.486148 
L 92.921952 37.462128 
L 93.601611 37.559964 
L 94.281271 37.977991 
L 94.96093 39.890238 
L 95.640589 40.761867 
L 96.320249 41.144317 
L 96.999908 41.224365 
L 97.679568 40.744079 
L 99.038887 40.797444 
L 99.718546 41.153211 
L 100.398206 42.149359 
L 102.437184 42.967623 
L 103.796503 42.905364 
L 104.476163 41.695756 
L 105.155822 40.023651 
L 105.835482 37.809001 
L 106.515141 36.759489 
L 107.1948 36.154685 
L 107.87446 36.439298 
L 109.233779 36.501558 
L 109.913438 35.576563 
L 110.593098 34.971759 
L 111.272757 34.660463 
L 112.632076 36.332568 
L 113.311736 36.385933 
L 114.671055 35.834494 
L 115.350714 35.674399 
L 116.710033 31.405195 
L 117.389693 31.058322 
L 118.069352 31.867692 
L 118.749011 33.522009 
L 119.428671 33.175136 
L 120.10833 33.068406 
L 120.78799 33.0773 
L 121.467649 32.321295 
L 122.147309 32.072258 
L 122.826968 31.645338 
L 123.506628 31.600867 
L 124.186287 31.440772 
L 124.865947 30.889333 
L 125.545606 30.738132 
L 126.225266 30.284529 
L 126.904925 30.364577 
L 127.584585 29.982127 
L 128.264244 29.964339 
L 128.943904 29.510736 
L 129.623563 28.701366 
L 130.303222 27.696324 
L 130.982882 27.616277 
L 131.662541 27.313875 
L 132.342201 27.90089 
L 133.02186 26.780224 
L 133.70152 26.548976 
L 134.381179 26.744647 
L 135.060839 26.815801 
L 135.740498 26.486716 
L 136.420158 25.677346 
L 137.099817 25.677346 
L 137.779477 25.125907 
L 138.459136 24.956918 
L 139.138796 24.289855 
L 139.818455 22.61775 
L 140.498115 22.840104 
L 141.177774 24.049712 
L 141.857433 23.569427 
L 144.576071 23.471591 
L 145.255731 23.836252 
L 145.93539 23.578321 
L 146.61505 23.578321 
L 147.294709 23.942982 
L 147.974369 23.782887 
L 149.333688 25.588405 
L 150.693007 26.45114 
L 151.372666 27.465076 
L 152.731985 27.109309 
L 153.411644 26.086478 
L 154.091304 26.28215 
L 154.770963 25.47278 
L 155.450623 25.170378 
L 156.809942 24.823506 
L 157.489601 24.903553 
L 158.84892 24.263172 
L 159.52858 24.094183 
L 160.208239 23.773993 
L 160.887899 23.738416 
L 161.567558 23.507168 
L 162.247218 22.484337 
L 162.926877 24.423268 
L 164.286196 24.040818 
L 166.325174 23.702839 
L 167.004834 23.818464 
L 168.364153 23.587215 
L 169.043812 23.649474 
L 171.082791 21.10574 
L 171.76245 21.016799 
L 172.44211 20.260794 
L 174.481088 20.527619 
L 175.160748 20.527619 
L 176.520067 19.97618 
L 177.879385 20.225217 
L 178.559045 20.136275 
L 179.918364 20.287476 
L 181.277683 20.100698 
L 183.316661 20.314159 
L 183.996321 19.451424 
L 185.35564 19.65599 
L 186.035299 20.091804 
L 186.714959 20.216323 
L 187.394618 20.127381 
L 188.753937 20.509831 
L 189.433596 20.216323 
L 190.113256 20.171852 
L 190.792915 20.89228 
L 191.472575 20.865598 
L 192.152234 21.603814 
L 193.511553 21.150211 
L 196.230191 20.732185 
L 198.26917 20.838915 
L 200.987807 20.243005 
L 201.667467 20.243005 
L 202.347126 20.394206 
L 203.706445 20.127381 
L 204.386105 19.833873 
L 205.065764 18.864408 
L 206.425083 18.855514 
L 207.104743 18.446382 
L 207.784402 18.410805 
L 209.143721 17.957202 
L 209.823381 18.188451 
L 211.1827 18.055038 
L 211.862359 17.112256 
L 212.542018 17.361293 
L 213.221678 16.551923 
L 213.901337 16.471875 
L 214.580997 16.543028 
L 215.260656 17.33461 
L 215.940316 17.476917 
L 216.619975 17.361293 
L 217.299635 21.132423 
L 218.658954 21.10574 
L 220.018273 21.079058 
L 221.377592 21.417036 
L 222.057251 22.875681 
L 222.736911 23.071353 
L 223.41657 22.982411 
L 224.096229 23.04467 
L 225.455548 23.409332 
L 226.135208 23.560533 
L 226.814867 23.347072 
L 227.494527 23.293707 
L 228.853846 23.613898 
L 230.213165 23.605004 
L 230.892824 23.204766 
L 231.572484 23.400437 
L 232.252143 23.347072 
L 232.931803 23.587215 
L 233.611462 23.347072 
L 234.970781 23.489379 
L 235.65044 23.258131 
L 236.3301 22.857893 
L 237.689419 22.875681 
L 238.369078 19.237963 
L 239.048738 19.015609 
L 241.087716 19.051186 
L 241.767376 19.237963 
L 242.447035 19.140128 
L 243.126695 17.957202 
L 243.806354 17.957202 
L 244.486014 18.14398 
L 245.845333 17.93052 
L 246.524992 18.126192 
L 247.204651 17.868261 
L 247.884311 17.966096 
L 248.56397 17.939414 
L 249.24363 17.734848 
L 249.923289 18.188451 
L 251.282608 18.286287 
L 253.321587 18.419699 
L 254.001246 18.188451 
L 256.719884 18.152874 
L 257.399544 17.645906 
L 258.758862 17.592541 
L 260.797841 18.055038 
L 260.797841 18.055038 
" style="fill:none;stroke:#008000;stroke-dasharray:5.55,2.4;stroke-dashoffset:0;stroke-width:1.5;"/>
   </g>
   <g id="line2d_15">
    <path clip-path="url(#pbb6eecafe3)" d="M 57.579659 131.909375 
L 59.618638 131.909375 
L 60.298297 127.994159 
L 60.977956 125.705688 
L 61.657616 120.683655 
L 62.337275 116.744806 
L 63.016935 118.429758 
L 63.696594 119.77772 
L 65.055913 112.999617 
L 65.735573 114.454214 
L 66.415232 111.131946 
L 67.774551 113.711893 
L 68.454211 112.414389 
L 69.81353 108.879547 
L 70.493189 110.017252 
L 71.172849 108.394446 
L 71.852508 108.009513 
L 72.532167 109.048638 
L 73.211827 109.587589 
L 73.891486 108.010015 
L 74.571146 105.790261 
L 75.930465 103.00807 
L 77.289784 98.464608 
L 77.969443 99.543471 
L 78.649103 96.270415 
L 79.328762 93.566586 
L 81.367741 84.014242 
L 83.406719 77.752742 
L 84.766038 71.135476 
L 86.125357 67.746795 
L 86.805016 66.012431 
L 87.484676 68.07588 
L 88.164335 66.359304 
L 88.843995 62.659327 
L 89.523654 63.139612 
L 90.203314 61.316306 
L 90.882973 60.026651 
L 91.562633 59.911027 
L 92.242292 59.252858 
L 92.921952 56.85143 
L 93.601611 53.46275 
L 94.281271 50.972381 
L 94.96093 49.344747 
L 95.640589 48.597636 
L 96.320249 47.210145 
L 96.999908 46.56087 
L 97.679568 47.005578 
L 98.359227 46.836589 
L 99.038887 43.21666 
L 100.398206 43.101036 
L 101.077865 42.887575 
L 101.757525 42.887575 
L 102.437184 43.10993 
L 103.116844 42.51402 
L 103.796503 42.247195 
L 104.476163 42.789739 
L 105.155822 43.723628 
L 105.835482 43.599109 
L 106.515141 43.252237 
L 107.1948 43.53685 
L 107.87446 43.590215 
L 108.554119 39.836873 
L 109.233779 37.906837 
L 109.913438 38.387123 
L 110.593098 36.234732 
L 111.272757 37.293139 
L 111.952417 36.750594 
L 112.632076 33.450855 
L 113.311736 32.1612 
L 113.991395 32.081152 
L 114.671055 31.716491 
L 115.350714 30.86265 
L 116.030374 30.942698 
L 117.389693 30.586931 
L 118.069352 29.555207 
L 118.749011 28.81699 
L 119.428671 28.523482 
L 120.10833 28.585742 
L 120.78799 28.345599 
L 121.467649 27.554017 
L 122.147309 27.518441 
L 123.506628 26.584552 
L 124.186287 25.997537 
L 124.865947 25.846336 
L 125.545606 25.36605 
L 126.225266 24.387691 
L 126.904925 25.383839 
L 127.584585 25.410521 
L 128.264244 28.639107 
L 128.943904 26.860272 
L 129.623563 27.420605 
L 130.303222 27.30498 
L 131.662541 26.308833 
L 132.342201 25.036966 
L 133.02186 25.677346 
L 133.70152 25.437204 
L 134.381179 25.508357 
L 135.060839 25.294897 
L 135.740498 25.410521 
L 137.779477 25.04586 
L 139.818455 24.494421 
L 141.177774 24.076395 
L 141.857433 24.405479 
L 144.576071 24.707881 
L 145.93539 24.690093 
L 146.61505 24.885765 
L 147.294709 24.716775 
L 147.974369 23.347072 
L 148.654028 23.329284 
L 149.333688 19.718249 
L 150.013347 19.415847 
L 150.693007 18.793255 
L 152.731985 18.67763 
L 153.411644 18.864408 
L 154.091304 17.992779 
L 155.450623 17.903837 
L 156.130282 18.179557 
L 156.809942 18.14398 
L 157.489601 18.277393 
L 158.84892 18.126192 
L 160.208239 18.197345 
L 160.887899 18.553112 
L 162.247218 18.473064 
L 162.926877 17.886049 
L 163.606537 17.743742 
L 164.286196 17.725954 
L 164.965856 17.82379 
L 166.325174 17.663694 
L 167.004834 17.725954 
L 167.684493 17.361293 
L 168.364153 17.245668 
L 169.043812 17.432446 
L 169.723472 17.468023 
L 170.403131 17.307927 
L 171.082791 17.33461 
L 171.76245 17.521388 
L 172.44211 17.912731 
L 173.121769 17.983885 
L 174.481088 17.6548 
L 175.160748 17.806001 
L 175.840407 17.752636 
L 176.520067 17.921626 
L 177.199726 17.850472 
L 178.559045 18.135086 
L 179.238704 18.766572 
L 179.918364 18.95335 
L 180.598023 19.371376 
L 181.277683 19.558154 
L 181.957342 19.184598 
L 182.637002 19.193493 
L 183.316661 19.406953 
L 184.67598 19.495895 
L 185.35564 19.184598 
L 186.035299 19.095657 
L 186.714959 19.300223 
L 187.394618 19.282434 
L 188.074278 19.575942 
L 189.433596 19.860556 
L 190.113256 19.495895 
L 190.792915 19.575942 
L 192.152234 19.415847 
L 192.831894 19.451424 
L 194.191213 18.882196 
L 194.870872 18.95335 
L 195.550532 19.246858 
L 196.909851 19.264646 
L 197.58951 19.042292 
L 198.948829 19.389164 
L 199.628489 19.326905 
L 200.308148 18.828831 
L 202.347126 18.126192 
L 203.026786 18.722101 
L 203.706445 18.926667 
L 205.065764 18.615371 
L 207.784402 18.286287 
L 208.464062 18.161768 
L 209.143721 17.859366 
L 210.50304 17.637012 
L 211.862359 18.001673 
L 215.260656 17.850472 
L 215.940316 18.028356 
L 216.619975 17.601435 
L 217.299635 17.752636 
L 217.979294 17.752636 
L 218.658954 18.03725 
L 219.338613 17.681483 
L 220.018273 17.512493 
L 222.057251 17.779319 
L 222.736911 17.619224 
L 223.41657 17.699271 
L 224.096229 17.245668 
L 225.455548 17.210092 
L 226.135208 17.370187 
L 226.814867 17.22788 
L 228.853846 17.316822 
L 229.533505 17.530282 
L 230.213165 17.396869 
L 231.572484 17.432446 
L 232.252143 17.503599 
L 232.931803 17.01442 
L 233.611462 18.46417 
L 235.65044 18.553112 
L 236.3301 18.597583 
L 237.009759 18.35744 
L 237.689419 18.401911 
L 238.369078 18.286287 
L 239.048738 18.339652 
L 239.728397 18.072827 
L 240.408057 17.939414 
L 241.087716 17.592541 
L 241.767376 17.637012 
L 243.806354 17.396869 
L 244.486014 17.423552 
L 245.165673 17.645906 
L 245.845333 17.601435 
L 246.524992 17.76153 
L 249.24363 17.912731 
L 249.923289 18.170662 
L 250.602949 18.055038 
L 251.282608 18.312969 
L 252.641927 18.419699 
L 253.321587 18.197345 
L 254.001246 18.179557 
L 254.680906 16.889901 
L 255.360565 16.809854 
L 260.118181 17.601435 
L 260.797841 17.601435 
L 260.797841 17.601435 
" style="fill:none;stroke:#a9a9a9;stroke-dasharray:5.55,2.4;stroke-dashoffset:0;stroke-width:1.5;"/>
   </g>
   <g id="patch_3">
    <path d="M 47.41875 137.68125 
L 47.41875 10.7 
" style="fill:none;stroke:#000000;stroke-linecap:square;stroke-linejoin:miter;stroke-width:0.8;"/>
   </g>
   <g id="patch_4">
    <path d="M 270.95875 137.68125 
L 270.95875 10.7 
" style="fill:none;stroke:#000000;stroke-linecap:square;stroke-linejoin:miter;stroke-width:0.8;"/>
   </g>
   <g id="patch_5">
    <path d="M 47.41875 137.68125 
L 270.95875 137.68125 
" style="fill:none;stroke:#000000;stroke-linecap:square;stroke-linejoin:miter;stroke-width:0.8;"/>
   </g>
   <g id="patch_6">
    <path d="M 47.41875 10.7 
L 270.95875 10.7 
" style="fill:none;stroke:#000000;stroke-linecap:square;stroke-linejoin:miter;stroke-width:0.8;"/>
   </g>
   <g id="legend_1">
    <g id="patch_7">
     <path d="M 195.95875 132.68125 
L 263.95875 132.68125 
Q 265.95875 132.68125 265.95875 130.68125 
L 265.95875 91.93125 
Q 265.95875 89.93125 263.95875 89.93125 
L 195.95875 89.93125 
Q 193.95875 89.93125 193.95875 91.93125 
L 193.95875 130.68125 
Q 193.95875 132.68125 195.95875 132.68125 
z
" style="fill:none;opacity:0.8;"/>
    </g>
    <g id="line2d_16">
     <path d="M 197.95875 97.43125 
L 217.95875 97.43125 
" style="fill:none;stroke:#ff6347;stroke-linecap:square;stroke-width:1.5;"/>
    </g>
    <g id="line2d_17"/>
    <g id="text_15">
     <!-- $\lambda$ = 0.8 -->
     <defs>
      <path d="M 36.71875 67.4375 
L 48.828125 0 
L 39.3125 0 
L 31.84375 40.4375 
L 5.125 0 
L -4.390625 0 
L 29.734375 52.4375 
L 28.03125 62.109375 
Q 26.953125 68.265625 21.734375 68.265625 
L 17.046875 68.265625 
L 18.5 75.984375 
L 24.21875 75.875 
Q 35.203125 75.734375 36.71875 67.4375 
z
" id="DejaVuSans-Oblique-3bb"/>
      <path id="SimHei-20"/>
      <path d="M 46.484375 45.3125 
L 1.953125 45.3125 
L 1.953125 51.5625 
L 46.484375 51.5625 
z
M 46.484375 21.484375 
L 1.953125 21.484375 
L 1.953125 27.734375 
L 46.484375 27.734375 
z
" id="SimHei-3d"/>
      <path d="M 16.796875 1.953125 
L 7.8125 1.953125 
L 7.8125 10.546875 
L 16.796875 10.546875 
z
" id="SimHei-2e"/>
      <path d="M 2.734375 16.796875 
Q 2.734375 26.171875 5.078125 30.65625 
Q 7.421875 35.15625 12.890625 37.890625 
Q 8.203125 40.625 6.640625 43.9375 
Q 5.078125 47.265625 4.875 51.5625 
Q 4.6875 55.859375 6.046875 58.984375 
Q 7.421875 62.109375 10.15625 64.84375 
Q 12.890625 67.578125 16.203125 68.546875 
Q 19.53125 69.53125 23.4375 69.53125 
Q 27.34375 69.53125 30.46875 68.75 
Q 33.59375 67.96875 37.109375 65.421875 
Q 40.625 62.890625 42.1875 58.203125 
Q 43.75 53.515625 41.984375 47.265625 
Q 40.234375 41.015625 32.8125 37.5 
Q 39.453125 35.546875 42.1875 31.4375 
Q 44.921875 27.34375 44.921875 21.484375 
Q 44.921875 15.625 43.15625 12.109375 
Q 41.40625 8.59375 39.25 6.25 
Q 37.109375 3.90625 33.390625 2.53125 
Q 29.6875 1.171875 24.015625 1.171875 
Q 18.359375 1.171875 14.25 2.53125 
Q 10.15625 3.90625 7.421875 6.640625 
Q 4.6875 9.375 3.703125 13.078125 
Q 2.734375 16.796875 2.734375 26.171875 
z
M 10.9375 26.5625 
Q 10.546875 17.1875 12.296875 13.671875 
Q 14.0625 10.15625 18.75 9.171875 
Q 23.4375 8.203125 28.515625 9.375 
Q 33.59375 10.546875 35.546875 14.84375 
Q 37.5 19.140625 36.90625 23.4375 
Q 36.328125 27.734375 32.03125 30.65625 
Q 27.734375 33.59375 22.65625 33.203125 
Q 17.578125 32.8125 14.25 29.6875 
Q 10.9375 26.5625 10.546875 17.1875 
z
M 12.109375 56.25 
Q 12.109375 48.4375 14.84375 44.921875 
Q 17.578125 41.40625 23.4375 41.40625 
Q 29.296875 41.40625 32.21875 44.921875 
Q 35.15625 48.4375 34.953125 53.3125 
Q 34.765625 58.203125 31.4375 60.546875 
Q 28.125 62.890625 22.453125 62.5 
Q 16.796875 62.109375 14.453125 59.171875 
Q 12.109375 56.25 12.109375 48.4375 
z
" id="SimHei-38"/>
     </defs>
     <g transform="translate(225.95875 100.93125)scale(0.1 -0.1)">
      <use transform="translate(0 0.015625)" xlink:href="#DejaVuSans-Oblique-3bb"/>
      <use transform="translate(59.179688 0.015625)" xlink:href="#SimHei-20"/>
      <use transform="translate(109.179688 0.015625)" xlink:href="#SimHei-3d"/>
      <use transform="translate(159.179688 0.015625)" xlink:href="#SimHei-20"/>
      <use transform="translate(209.179688 0.015625)" xlink:href="#SimHei-30"/>
      <use transform="translate(259.179688 0.015625)" xlink:href="#SimHei-2e"/>
      <use transform="translate(309.179688 0.015625)" xlink:href="#SimHei-38"/>
     </g>
    </g>
    <g id="line2d_18">
     <path d="M 197.95875 110.68125 
L 217.95875 110.68125 
" style="fill:none;stroke:#008000;stroke-dasharray:5.55,2.4;stroke-dashoffset:0;stroke-width:1.5;"/>
    </g>
    <g id="line2d_19"/>
    <g id="text_16">
     <!-- $\lambda$ = 0.5 -->
     <g transform="translate(225.95875 114.18125)scale(0.1 -0.1)">
      <use transform="translate(0 0.015625)" xlink:href="#DejaVuSans-Oblique-3bb"/>
      <use transform="translate(59.179688 0.015625)" xlink:href="#SimHei-20"/>
      <use transform="translate(109.179688 0.015625)" xlink:href="#SimHei-3d"/>
      <use transform="translate(159.179688 0.015625)" xlink:href="#SimHei-20"/>
      <use transform="translate(209.179688 0.015625)" xlink:href="#SimHei-30"/>
      <use transform="translate(259.179688 0.015625)" xlink:href="#SimHei-2e"/>
      <use transform="translate(309.179688 0.015625)" xlink:href="#SimHei-35"/>
     </g>
    </g>
    <g id="line2d_20">
     <path d="M 197.95875 123.93125 
L 217.95875 123.93125 
" style="fill:none;stroke:#a9a9a9;stroke-dasharray:5.55,2.4;stroke-dashoffset:0;stroke-width:1.5;"/>
    </g>
    <g id="line2d_21"/>
    <g id="text_17">
     <!-- $\lambda$ = 0.3 -->
     <g transform="translate(225.95875 127.43125)scale(0.1 -0.1)">
      <use transform="translate(0 0.015625)" xlink:href="#DejaVuSans-Oblique-3bb"/>
      <use transform="translate(59.179688 0.015625)" xlink:href="#SimHei-20"/>
      <use transform="translate(109.179688 0.015625)" xlink:href="#SimHei-3d"/>
      <use transform="translate(159.179688 0.015625)" xlink:href="#SimHei-20"/>
      <use transform="translate(209.179688 0.015625)" xlink:href="#SimHei-30"/>
      <use transform="translate(259.179688 0.015625)" xlink:href="#SimHei-2e"/>
      <use transform="translate(309.179688 0.015625)" xlink:href="#SimHei-33"/>
     </g>
    </g>
   </g>
  </g>
 </g>
 <defs>
  <clipPath id="pbb6eecafe3">
   <rect height="126.98125" width="223.54" x="47.41875" y="10.7"/>
  </clipPath>
 </defs>
</svg>
