<?xml version="1.0" encoding="utf-8" standalone="no"?>
<!DOCTYPE svg PUBLIC "-//W3C//DTD SVG 1.1//EN"
  "http://www.w3.org/Graphics/SVG/1.1/DTD/svg11.dtd">
<!-- Created with matplotlib (http://matplotlib.org/) -->
<svg height="209.185937pt" version="1.1" viewBox="0 0 281.60875 209.185937" width="281.60875pt" xmlns="http://www.w3.org/2000/svg" xmlns:xlink="http://www.w3.org/1999/xlink">
 <defs>
  <style type="text/css">
*{stroke-linecap:butt;stroke-linejoin:round;}
  </style>
 </defs>
 <g id="figure_1">
  <g id="patch_1">
   <path d="M 0 209.185937 
L 281.60875 209.185937 
L 281.60875 0 
L 0 0 
z
" style="fill:none;"/>
  </g>
  <g id="axes_1">
   <g id="patch_2">
    <path d="M 42.41875 173.68125 
L 270.90875 173.68125 
L 270.90875 10.7 
L 42.41875 10.7 
z
" style="fill:#ffffff;"/>
   </g>
   <g id="matplotlib.axis_1">
    <g id="xtick_1">
     <g id="line2d_1">
      <defs>
       <path d="M 0 0 
L 0 3.5 
" id="m497b492d9c" style="stroke:#000000;stroke-width:0.8;"/>
      </defs>
      <g>
       <use style="stroke:#000000;stroke-width:0.8;" x="52.804659" xlink:href="#m497b492d9c" y="173.68125"/>
      </g>
     </g>
     <g id="text_1">
      <!-- 0 -->
      <defs>
       <path d="M 3.125 29.296875 
Q 3.90625 50 6.4375 56.046875 
Q 8.984375 62.109375 13.671875 66.015625 
Q 18.359375 69.921875 25.1875 69.921875 
Q 32.03125 69.921875 37.109375 64.25 
Q 42.1875 58.59375 43.75 50 
Q 45.3125 41.40625 44.71875 30.265625 
Q 44.140625 19.140625 40.8125 12.109375 
Q 37.5 5.078125 30.859375 2.34375 
Q 24.21875 -0.390625 17.578125 2.921875 
Q 10.9375 6.25 8.203125 11.71875 
Q 5.46875 17.1875 4.296875 23.234375 
Q 3.125 29.296875 3.90625 50 
z
M 12.890625 52.734375 
Q 10.546875 31.25 12.5 22.84375 
Q 14.453125 14.453125 18.9375 10.9375 
Q 23.4375 7.421875 28.125 9.5625 
Q 32.8125 11.71875 34.953125 18.15625 
Q 37.109375 24.609375 37.109375 32.21875 
Q 37.109375 39.84375 36.515625 46.09375 
Q 35.9375 52.34375 33 57.421875 
Q 30.078125 62.5 25.1875 62.6875 
Q 20.3125 62.890625 16.59375 57.8125 
Q 12.890625 52.734375 10.546875 31.25 
z
" id="SimHei-30"/>
      </defs>
      <g transform="translate(50.304659 187.55625)scale(0.1 -0.1)">
       <use xlink:href="#SimHei-30"/>
      </g>
     </g>
    </g>
    <g id="xtick_2">
     <g id="line2d_2">
      <g>
       <use style="stroke:#000000;stroke-width:0.8;" x="87.540141" xlink:href="#m497b492d9c" y="173.68125"/>
      </g>
     </g>
     <g id="text_2">
      <!-- 50 -->
      <defs>
       <path d="M 8.59375 20.703125 
Q 11.328125 10.15625 17.96875 8.984375 
Q 24.609375 7.8125 28.703125 10.34375 
Q 32.8125 12.890625 34.5625 16.984375 
Q 36.328125 21.09375 36.125 26.171875 
Q 35.9375 31.25 33.390625 34.765625 
Q 30.859375 38.28125 26.953125 39.453125 
Q 23.046875 40.625 18.15625 39.453125 
Q 13.28125 38.28125 10.15625 33.984375 
L 3.515625 34.765625 
Q 4.296875 37.109375 10.9375 68.359375 
L 41.796875 68.359375 
L 41.796875 61.328125 
L 16.796875 61.328125 
Q 14.84375 50.78125 12.890625 44.53125 
Q 18.75 47.265625 23.828125 47.0625 
Q 28.90625 46.875 33.59375 44.71875 
Q 38.28125 42.578125 40.421875 38.859375 
Q 42.578125 35.15625 43.546875 31.4375 
Q 44.53125 27.734375 44.328125 23.4375 
Q 44.140625 19.140625 42.578125 14.640625 
Q 41.015625 10.15625 37.890625 7.21875 
Q 34.765625 4.296875 30.265625 2.53125 
Q 25.78125 0.78125 19.921875 1.171875 
Q 14.0625 1.5625 8.78125 5.46875 
Q 3.515625 9.375 1.5625 18.75 
z
" id="SimHei-35"/>
      </defs>
      <g transform="translate(82.540141 187.55625)scale(0.1 -0.1)">
       <use xlink:href="#SimHei-35"/>
       <use x="50" xlink:href="#SimHei-30"/>
      </g>
     </g>
    </g>
    <g id="xtick_3">
     <g id="line2d_3">
      <g>
       <use style="stroke:#000000;stroke-width:0.8;" x="122.275623" xlink:href="#m497b492d9c" y="173.68125"/>
      </g>
     </g>
     <g id="text_3">
      <!-- 100 -->
      <defs>
       <path d="M 21.875 56.25 
Q 16.796875 51.171875 8.984375 46.484375 
L 8.984375 53.90625 
Q 18.75 60.546875 25 69.53125 
L 29.6875 69.53125 
L 29.6875 2.34375 
L 21.875 2.34375 
z
" id="SimHei-31"/>
      </defs>
      <g transform="translate(114.775623 187.55625)scale(0.1 -0.1)">
       <use xlink:href="#SimHei-31"/>
       <use x="50" xlink:href="#SimHei-30"/>
       <use x="100" xlink:href="#SimHei-30"/>
      </g>
     </g>
    </g>
    <g id="xtick_4">
     <g id="line2d_4">
      <g>
       <use style="stroke:#000000;stroke-width:0.8;" x="157.011105" xlink:href="#m497b492d9c" y="173.68125"/>
      </g>
     </g>
     <g id="text_4">
      <!-- 150 -->
      <g transform="translate(149.511105 187.55625)scale(0.1 -0.1)">
       <use xlink:href="#SimHei-31"/>
       <use x="50" xlink:href="#SimHei-35"/>
       <use x="100" xlink:href="#SimHei-30"/>
      </g>
     </g>
    </g>
    <g id="xtick_5">
     <g id="line2d_5">
      <g>
       <use style="stroke:#000000;stroke-width:0.8;" x="191.746587" xlink:href="#m497b492d9c" y="173.68125"/>
      </g>
     </g>
     <g id="text_5">
      <!-- 200 -->
      <defs>
       <path d="M 4.6875 3.90625 
Q 5.078125 9.765625 10.15625 14.453125 
Q 15.234375 19.140625 23.046875 29.09375 
Q 30.859375 39.0625 33.203125 44.53125 
Q 35.546875 50 34.953125 53.90625 
Q 34.375 57.8125 31.25 60.34375 
Q 28.125 62.890625 24.015625 62.5 
Q 19.921875 62.109375 16.203125 59.375 
Q 12.5 56.640625 10.546875 51.171875 
L 3.125 52.34375 
Q 6.25 61.328125 11.125 65.421875 
Q 16.015625 69.53125 22.65625 69.921875 
Q 26.5625 70.3125 29.6875 69.71875 
Q 32.8125 69.140625 36.125 66.984375 
Q 39.453125 64.84375 41.59375 60.546875 
Q 43.75 56.25 43.15625 50.1875 
Q 42.578125 44.140625 37.109375 35.734375 
Q 31.640625 27.34375 16.015625 9.375 
L 44.140625 9.375 
L 44.140625 2.34375 
L 4.6875 2.34375 
z
" id="SimHei-32"/>
      </defs>
      <g transform="translate(184.246587 187.55625)scale(0.1 -0.1)">
       <use xlink:href="#SimHei-32"/>
       <use x="50" xlink:href="#SimHei-30"/>
       <use x="100" xlink:href="#SimHei-30"/>
      </g>
     </g>
    </g>
    <g id="xtick_6">
     <g id="line2d_6">
      <g>
       <use style="stroke:#000000;stroke-width:0.8;" x="226.482069" xlink:href="#m497b492d9c" y="173.68125"/>
      </g>
     </g>
     <g id="text_6">
      <!-- 250 -->
      <g transform="translate(218.982069 187.55625)scale(0.1 -0.1)">
       <use xlink:href="#SimHei-32"/>
       <use x="50" xlink:href="#SimHei-35"/>
       <use x="100" xlink:href="#SimHei-30"/>
      </g>
     </g>
    </g>
    <g id="xtick_7">
     <g id="line2d_7">
      <g>
       <use style="stroke:#000000;stroke-width:0.8;" x="261.217551" xlink:href="#m497b492d9c" y="173.68125"/>
      </g>
     </g>
     <g id="text_7">
      <!-- 300 -->
      <defs>
       <path d="M 3.90625 19.140625 
L 10.9375 20.3125 
Q 12.5 15.234375 16.015625 11.90625 
Q 19.53125 8.59375 24.796875 8.78125 
Q 30.078125 8.984375 33.203125 13.078125 
Q 36.328125 17.1875 35.9375 22.453125 
Q 35.546875 27.734375 31.828125 30.65625 
Q 28.125 33.59375 19.921875 34.765625 
L 19.921875 39.84375 
Q 28.125 40.625 31.828125 44.140625 
Q 35.546875 47.65625 35.15625 53.3125 
Q 34.765625 58.984375 30.078125 61.515625 
Q 25.390625 64.0625 20.109375 62.109375 
Q 14.84375 60.15625 11.71875 51.171875 
L 4.6875 52.34375 
Q 7.03125 59.375 11.125 64.0625 
Q 15.234375 68.75 22.265625 69.53125 
Q 29.296875 70.3125 34.5625 67.765625 
Q 39.84375 65.234375 41.984375 59.953125 
Q 44.140625 54.6875 42.578125 48.4375 
Q 41.015625 42.1875 33.59375 37.5 
Q 39.0625 35.15625 41.984375 30.46875 
Q 44.921875 25.78125 43.9375 18.15625 
Q 42.96875 10.546875 37.109375 5.859375 
Q 31.25 1.171875 23.828125 1.359375 
Q 16.40625 1.5625 10.9375 6.046875 
Q 5.46875 10.546875 3.90625 19.140625 
z
" id="SimHei-33"/>
      </defs>
      <g transform="translate(253.717551 187.55625)scale(0.1 -0.1)">
       <use xlink:href="#SimHei-33"/>
       <use x="50" xlink:href="#SimHei-30"/>
       <use x="100" xlink:href="#SimHei-30"/>
      </g>
     </g>
    </g>
    <g id="text_8">
     <!-- 训练回合数 -->
     <defs>
      <path d="M 25.78125 51.5625 
Q 25.390625 42.578125 25.390625 34.765625 
L 25.390625 10.546875 
Q 30.46875 17.578125 32.03125 19.921875 
Q 33.984375 17.578125 36.71875 14.0625 
Q 31.640625 7.8125 28.125 3.3125 
Q 24.609375 -1.171875 20.703125 -6.640625 
Q 17.96875 -3.125 14.84375 -0.78125 
Q 17.96875 3.515625 17.96875 9.765625 
L 17.96875 44.921875 
L 15.234375 44.921875 
Q 9.375 44.921875 4.6875 44.53125 
L 4.6875 51.953125 
Q 9.375 51.5625 15.234375 51.5625 
z
M 53.515625 71.875 
Q 52.734375 67.96875 52.921875 52.53125 
Q 53.125 37.109375 52.140625 29.484375 
Q 51.171875 21.875 48.234375 13.078125 
Q 45.3125 4.296875 38.28125 -5.859375 
Q 34.765625 -3.125 30.859375 -1.953125 
Q 39.84375 7.8125 43.15625 21.28125 
Q 46.484375 34.765625 46.09375 52.140625 
Q 45.703125 69.53125 45.3125 73.046875 
Q 49.21875 72.265625 53.515625 71.875 
z
M 91.796875 73.4375 
Q 91.40625 70.3125 91.40625 62.109375 
L 91.40625 9.765625 
Q 91.40625 1.953125 91.796875 -6.25 
L 84.375 -6.25 
Q 84.765625 1.953125 84.765625 9.375 
L 84.765625 62.109375 
Q 84.765625 70.3125 84.375 73.4375 
L 91.796875 73.4375 
z
M 71.875 2.734375 
L 64.453125 2.734375 
Q 64.84375 11.328125 64.84375 17.96875 
L 64.84375 56.25 
Q 64.84375 63.28125 64.453125 67.96875 
L 71.875 67.96875 
z
M 15.625 80.46875 
Q 25.78125 71.875 32.8125 64.0625 
Q 29.296875 61.328125 27.34375 58.59375 
Q 16.40625 71.09375 10.9375 75 
Q 13.28125 77.34375 15.625 80.46875 
z
" id="SimHei-8bad"/>
      <path d="M 51.5625 59.765625 
Q 46.09375 59.765625 37.5 59.375 
L 37.5 66.40625 
Q 46.09375 66.015625 51.953125 66.015625 
L 56.640625 66.015625 
Q 60.546875 77.34375 60.9375 80.859375 
Q 65.625 78.515625 69.53125 76.953125 
Q 67.96875 75.390625 66.59375 72.0625 
Q 65.234375 68.75 64.0625 66.015625 
L 78.515625 66.015625 
Q 84.765625 66.015625 92.1875 66.40625 
L 92.1875 59.375 
Q 86.71875 59.765625 78.515625 59.765625 
L 62.109375 59.765625 
Q 60.15625 55.078125 57.8125 49.21875 
L 73.046875 49.21875 
Q 72.65625 44.921875 72.65625 38.671875 
L 72.65625 30.859375 
L 77.734375 30.859375 
Q 83.59375 30.859375 90.625 31.25 
L 90.625 24.21875 
Q 83.59375 24.609375 77.734375 24.609375 
L 72.65625 24.609375 
L 72.65625 1.953125 
Q 72.65625 -4.6875 69.71875 -6.640625 
Q 66.796875 -8.59375 57.03125 -9.765625 
Q 56.640625 -5.859375 53.90625 -1.5625 
Q 63.671875 -1.953125 64.640625 -0.390625 
Q 65.625 1.171875 65.625 5.078125 
L 65.625 24.609375 
L 53.515625 24.609375 
Q 50.78125 24.609375 48.4375 24.40625 
Q 46.09375 24.21875 42.96875 23.046875 
Q 41.40625 26.953125 39.84375 30.46875 
Q 43.75 31.640625 48.828125 43.359375 
Q 46.09375 43.359375 38.28125 42.96875 
L 38.28125 49.609375 
Q 47.265625 49.21875 50.78125 49.21875 
Q 53.125 55.078125 54.6875 59.765625 
z
M 25.78125 46.09375 
Q 29.296875 51.5625 32.8125 60.9375 
Q 36.328125 58.203125 40.234375 56.25 
Q 36.328125 51.171875 31.640625 42.96875 
Q 26.953125 34.765625 16.796875 21.09375 
Q 20.3125 21.875 37.5 24.609375 
Q 36.71875 20.3125 37.109375 17.96875 
Q 28.515625 17.1875 10.15625 12.890625 
Q 8.203125 16.796875 6.25 19.921875 
Q 9.765625 21.875 13.859375 27.140625 
Q 17.96875 32.421875 22.65625 40.234375 
Q 20.3125 40.625 15.8125 40.03125 
Q 11.328125 39.453125 7.03125 38.28125 
Q 5.46875 41.796875 3.90625 45.703125 
Q 7.8125 48.046875 12.6875 58.203125 
Q 17.578125 68.359375 20.703125 78.125 
Q 25 75.390625 28.90625 74.21875 
Q 25 68.359375 21.671875 61.90625 
Q 18.359375 55.46875 12.5 45.703125 
Q 21.484375 45.703125 25.78125 46.09375 
z
M 37.890625 10.9375 
Q 37.5 6.640625 37.890625 3.90625 
Q 31.25 2.34375 22.84375 -0.390625 
Q 14.453125 -3.125 7.421875 -6.640625 
Q 6.25 -2.34375 4.6875 1.953125 
Q 14.84375 4.296875 18.546875 5.265625 
Q 22.265625 6.25 37.890625 10.9375 
z
M 58.203125 13.671875 
Q 57.03125 12.5 51.359375 6.25 
Q 45.703125 0 38.671875 -7.421875 
Q 35.9375 -3.90625 33.59375 -1.953125 
Q 37.890625 1.5625 42.96875 7.21875 
Q 48.046875 12.890625 51.953125 19.140625 
Q 54.296875 16.40625 58.203125 13.671875 
z
M 82.421875 19.140625 
Q 92.578125 5.859375 96.875 -1.5625 
Q 92.96875 -3.125 89.84375 -5.859375 
Q 85.546875 2.734375 76.5625 14.84375 
Q 79.296875 16.40625 82.421875 19.140625 
z
M 65.625 30.859375 
L 65.625 43.359375 
L 55.859375 43.359375 
Q 51.953125 35.15625 49.609375 30.859375 
z
" id="SimHei-7ec3"/>
      <path d="M 88.28125 75.78125 
Q 87.890625 64.453125 87.890625 53.90625 
L 87.890625 14.84375 
Q 87.890625 4.6875 88.28125 -5.859375 
L 80.46875 -5.859375 
L 80.46875 1.5625 
L 18.359375 1.5625 
L 18.359375 -5.859375 
L 10.9375 -5.859375 
Q 11.328125 3.90625 11.328125 14.84375 
L 11.328125 53.90625 
Q 11.328125 64.0625 10.9375 75.78125 
L 88.28125 75.78125 
z
M 80.46875 7.8125 
L 80.46875 69.140625 
L 18.75 69.140625 
L 18.75 7.8125 
z
M 67.578125 54.6875 
Q 67.1875 48.828125 67.1875 42.96875 
L 67.1875 33.984375 
Q 67.1875 28.90625 67.578125 21.875 
L 31.640625 21.875 
Q 32.03125 28.90625 32.03125 33.984375 
L 32.03125 43.75 
Q 32.03125 49.21875 31.640625 54.6875 
L 67.578125 54.6875 
z
M 59.765625 28.515625 
L 59.765625 48.4375 
L 39.0625 48.4375 
L 39.0625 28.515625 
z
" id="SimHei-56de"/>
      <path d="M 78.90625 28.125 
Q 78.515625 24.21875 78.515625 10.15625 
Q 78.515625 -3.90625 78.90625 -8.203125 
L 70.703125 -8.203125 
L 70.703125 -0.78125 
L 27.34375 -0.78125 
L 27.34375 -9.375 
L 19.53125 -9.375 
Q 19.921875 -4.6875 19.921875 8.59375 
Q 19.921875 22.265625 19.53125 28.125 
L 78.90625 28.125 
z
M 52.734375 75 
Q 64.0625 61.328125 71.09375 56.25 
Q 78.125 51.171875 83.984375 48.4375 
Q 89.84375 45.703125 95.3125 44.140625 
Q 91.40625 39.84375 90.234375 35.9375 
Q 82.421875 39.453125 76.171875 43.359375 
Q 69.921875 47.265625 63.46875 53.3125 
Q 57.03125 59.375 48.828125 69.921875 
Q 41.40625 59.375 34.171875 52.53125 
Q 26.953125 45.703125 21.875 41.796875 
Q 16.796875 37.890625 10.546875 33.984375 
Q 9.765625 35.546875 4.296875 40.234375 
Q 12.5 44.140625 19.921875 49.609375 
Q 27.34375 55.078125 34.765625 63.46875 
Q 42.1875 71.875 46.875 81.640625 
Q 51.171875 78.90625 54.6875 77.34375 
z
M 70.703125 5.46875 
L 70.703125 21.875 
L 27.34375 21.875 
L 27.34375 5.46875 
z
M 61.328125 44.140625 
Q 67.578125 44.140625 72.265625 44.53125 
L 72.265625 37.109375 
Q 67.1875 37.5 61.71875 37.5 
L 39.84375 37.5 
Q 31.640625 37.5 26.5625 37.109375 
L 26.5625 44.53125 
Q 33.984375 44.140625 39.84375 44.140625 
z
" id="SimHei-5408"/>
      <path d="M 70.703125 76.953125 
Q 69.921875 75 68.75 71.671875 
Q 67.578125 68.359375 65.234375 59.765625 
L 83.203125 59.765625 
Q 87.109375 59.765625 92.578125 60.15625 
L 92.578125 53.125 
Q 88.28125 53.515625 85.9375 53.515625 
Q 85.9375 47.265625 83.78125 33.78125 
Q 81.640625 20.3125 76.171875 10.546875 
Q 80.078125 5.859375 84.953125 2.140625 
Q 89.84375 -1.5625 94.140625 -3.125 
Q 89.453125 -6.640625 87.890625 -9.765625 
Q 83.203125 -7.03125 79.296875 -3.515625 
Q 75.390625 0 71.484375 5.078125 
Q 67.1875 0.390625 62.296875 -2.921875 
Q 57.421875 -6.25 50 -10.15625 
Q 48.046875 -6.640625 44.53125 -4.6875 
Q 50.390625 -2.34375 57.03125 1.953125 
Q 63.671875 6.25 67.1875 10.546875 
Q 64.453125 16.015625 61.90625 22.265625 
Q 59.375 28.515625 57.421875 38.671875 
Q 56.25 35.546875 53.515625 30.46875 
Q 50.78125 32.03125 46.875 33.59375 
Q 53.125 44.53125 57.03125 57.421875 
Q 60.9375 70.3125 62.109375 79.6875 
Q 66.796875 77.734375 70.703125 76.953125 
z
M 32.8125 35.15625 
Q 31.25 33.59375 29.296875 30.078125 
L 50.78125 30.078125 
Q 48.4375 20.3125 42.578125 10.546875 
Q 48.828125 8.203125 52.34375 6.25 
Q 50.390625 3.515625 48.828125 0.390625 
Q 45.3125 2.734375 38.28125 5.078125 
Q 30.46875 -3.515625 11.328125 -10.15625 
Q 9.375 -5.859375 6.25 -4.296875 
Q 24.609375 0 31.25 7.421875 
Q 20.3125 10.15625 13.28125 12.109375 
Q 15.625 15.625 19.53125 23.828125 
Q 15.625 23.828125 6.640625 23.4375 
L 6.640625 30.46875 
Q 14.0625 30.078125 21.875 30.078125 
Q 23.4375 33.59375 24.21875 37.890625 
Q 28.515625 36.328125 32.8125 35.15625 
z
M 27.734375 61.71875 
Q 27.734375 71.09375 27.34375 79.6875 
L 35.15625 79.6875 
Q 34.765625 71.484375 34.765625 61.71875 
Q 48.046875 61.71875 53.515625 62.109375 
L 53.515625 55.078125 
Q 48.046875 55.46875 34.765625 55.46875 
Q 34.765625 44.140625 35.15625 37.890625 
L 27.34375 37.890625 
Q 27.734375 43.359375 27.734375 51.5625 
Q 25.78125 48.4375 20.3125 43.546875 
Q 14.84375 38.671875 10.15625 35.9375 
Q 8.203125 39.453125 4.296875 41.015625 
Q 7.8125 42.1875 13.671875 46.484375 
Q 19.53125 50.78125 22.65625 55.46875 
Q 14.84375 55.46875 7.8125 55.078125 
L 7.8125 62.109375 
Q 14.453125 61.71875 27.734375 61.71875 
z
M 62.109375 49.609375 
Q 65.625 26.5625 71.875 17.578125 
Q 75.78125 26.5625 77.140625 35.734375 
Q 78.515625 44.921875 78.90625 53.515625 
L 63.671875 53.515625 
L 62.109375 49.609375 
z
M 22.65625 15.625 
Q 27.34375 14.453125 35.546875 12.5 
Q 38.671875 16.40625 41.40625 23.828125 
L 26.953125 23.828125 
Q 25 19.921875 22.65625 15.625 
z
M 51.953125 75.390625 
Q 50 72.265625 48.828125 69.53125 
Q 47.65625 66.796875 45.703125 62.890625 
Q 42.578125 64.453125 39.453125 65.234375 
Q 42.578125 70.3125 45.3125 78.125 
Q 49.21875 76.171875 51.953125 75.390625 
z
M 40.234375 52.734375 
Q 45.3125 47.65625 50 42.578125 
Q 47.65625 40.625 44.921875 37.890625 
Q 39.453125 44.53125 35.9375 48.4375 
Q 38.28125 50.390625 40.234375 52.734375 
z
M 14.453125 78.125 
Q 19.921875 72.65625 23.4375 67.1875 
L 17.578125 63.671875 
Q 14.84375 69.140625 9.375 73.828125 
Q 12.890625 76.171875 14.453125 78.125 
z
" id="SimHei-6570"/>
     </defs>
     <g transform="translate(131.66375 200.735937)scale(0.1 -0.1)">
      <use xlink:href="#SimHei-8bad"/>
      <use x="100" xlink:href="#SimHei-7ec3"/>
      <use x="200" xlink:href="#SimHei-56de"/>
      <use x="300" xlink:href="#SimHei-5408"/>
      <use x="400" xlink:href="#SimHei-6570"/>
     </g>
    </g>
   </g>
   <g id="matplotlib.axis_2">
    <g id="ytick_1">
     <g id="line2d_8">
      <defs>
       <path d="M 0 0 
L -3.5 0 
" id="m0ebc0b6a33" style="stroke:#000000;stroke-width:0.8;"/>
      </defs>
      <g>
       <use style="stroke:#000000;stroke-width:0.8;" x="42.41875" xlink:href="#m0ebc0b6a33" y="135.619102"/>
      </g>
     </g>
     <g id="text_9">
      <!-- 50 -->
      <g transform="translate(25.41875 139.056602)scale(0.1 -0.1)">
       <use xlink:href="#SimHei-35"/>
       <use x="50" xlink:href="#SimHei-30"/>
      </g>
     </g>
    </g>
    <g id="ytick_2">
     <g id="line2d_9">
      <g>
       <use style="stroke:#000000;stroke-width:0.8;" x="42.41875" xlink:href="#m0ebc0b6a33" y="96.448814"/>
      </g>
     </g>
     <g id="text_10">
      <!-- 100 -->
      <g transform="translate(20.41875 99.886314)scale(0.1 -0.1)">
       <use xlink:href="#SimHei-31"/>
       <use x="50" xlink:href="#SimHei-30"/>
       <use x="100" xlink:href="#SimHei-30"/>
      </g>
     </g>
    </g>
    <g id="ytick_3">
     <g id="line2d_10">
      <g>
       <use style="stroke:#000000;stroke-width:0.8;" x="42.41875" xlink:href="#m0ebc0b6a33" y="57.278526"/>
      </g>
     </g>
     <g id="text_11">
      <!-- 150 -->
      <g transform="translate(20.41875 60.716026)scale(0.1 -0.1)">
       <use xlink:href="#SimHei-31"/>
       <use x="50" xlink:href="#SimHei-35"/>
       <use x="100" xlink:href="#SimHei-30"/>
      </g>
     </g>
    </g>
    <g id="ytick_4">
     <g id="line2d_11">
      <g>
       <use style="stroke:#000000;stroke-width:0.8;" x="42.41875" xlink:href="#m0ebc0b6a33" y="18.108239"/>
      </g>
     </g>
     <g id="text_12">
      <!-- 200 -->
      <g transform="translate(20.41875 21.545739)scale(0.1 -0.1)">
       <use xlink:href="#SimHei-32"/>
       <use x="50" xlink:href="#SimHei-30"/>
       <use x="100" xlink:href="#SimHei-30"/>
      </g>
     </g>
    </g>
    <g id="text_13">
     <!-- 平均奖赏值 -->
     <defs>
      <path d="M 70.703125 75.390625 
Q 76.5625 75.390625 85.15625 75.78125 
L 85.15625 68.359375 
Q 76.953125 68.75 70.703125 68.75 
L 54.296875 68.75 
L 54.296875 31.640625 
L 78.125 31.640625 
Q 86.71875 31.640625 94.140625 32.03125 
L 94.140625 24.609375 
Q 86.71875 25 78.125 25 
L 54.296875 25 
L 54.296875 7.03125 
Q 54.296875 -1.5625 54.6875 -9.375 
L 45.703125 -9.375 
Q 46.09375 -1.5625 46.09375 7.03125 
L 46.09375 25 
L 17.578125 25 
Q 12.109375 25 5.859375 24.609375 
L 5.859375 32.03125 
Q 12.109375 31.640625 18.359375 31.640625 
L 46.09375 31.640625 
L 46.09375 68.75 
L 27.734375 68.75 
Q 21.875 68.75 13.671875 68.359375 
L 13.671875 75.78125 
Q 21.875 75.390625 27.34375 75.390625 
z
M 61.328125 40.625 
Q 70.3125 51.5625 76.5625 64.453125 
Q 80.46875 61.71875 84.375 59.765625 
Q 74.609375 44.53125 67.96875 35.9375 
Q 64.84375 38.671875 61.328125 40.625 
z
M 30.859375 36.71875 
Q 25 48.4375 16.40625 58.203125 
Q 19.53125 60.546875 22.65625 63.28125 
Q 32.421875 51.5625 38.28125 42.578125 
Q 33.59375 39.0625 30.859375 36.71875 
z
" id="SimHei-5e73"/>
      <path d="M 90.234375 4.296875 
Q 90.234375 -5.078125 83.78125 -7.03125 
Q 77.34375 -8.984375 69.140625 -9.375 
Q 68.359375 -4.296875 66.40625 0.390625 
Q 77.34375 -0.390625 80.078125 0.96875 
Q 82.8125 2.34375 82.8125 7.8125 
L 83.984375 57.8125 
L 55.46875 57.8125 
Q 53.515625 52.734375 50.96875 47.453125 
Q 48.4375 42.1875 45.703125 37.5 
Q 41.796875 39.84375 38.671875 41.015625 
Q 49.21875 56.640625 54.6875 81.25 
Q 59.375 79.6875 63.671875 78.515625 
Q 62.109375 76.171875 60.546875 72.65625 
Q 58.984375 69.140625 57.421875 64.453125 
L 92.1875 64.453125 
L 90.234375 4.296875 
z
M 19.53125 56.640625 
L 19.53125 68.359375 
Q 19.53125 74.609375 19.140625 79.6875 
L 27.734375 79.6875 
Q 27.34375 73.828125 27.34375 68.359375 
L 27.34375 56.640625 
L 29.6875 56.640625 
Q 34.375 56.640625 39.453125 57.03125 
L 39.453125 49.21875 
Q 34.375 49.609375 29.6875 49.609375 
L 27.34375 49.609375 
L 27.34375 17.1875 
L 39.0625 21.484375 
Q 38.671875 17.578125 39.453125 14.0625 
Q 19.140625 7.421875 15.03125 5.65625 
Q 10.9375 3.90625 7.421875 2.34375 
Q 5.859375 7.421875 3.90625 11.71875 
Q 8.984375 12.5 12.5 13.28125 
Q 16.015625 14.0625 19.53125 15.234375 
L 19.53125 49.609375 
L 17.578125 49.609375 
Q 13.28125 49.609375 6.25 49.21875 
L 6.25 57.03125 
Q 13.28125 56.640625 17.1875 56.640625 
z
M 77.34375 25.390625 
Q 73.046875 22.265625 64.640625 16.40625 
Q 56.25 10.546875 49.609375 4.6875 
Q 46.875 8.984375 44.53125 12.109375 
Q 52.34375 16.40625 58.78125 20.703125 
Q 65.234375 25 74.609375 32.421875 
Q 75.390625 28.90625 77.34375 25.390625 
z
M 58.984375 49.21875 
Q 64.453125 43.75 69.921875 35.9375 
Q 66.40625 33.203125 64.0625 30.859375 
Q 60.9375 36.328125 53.90625 44.140625 
Q 56.25 46.875 58.984375 49.21875 
z
" id="SimHei-5747"/>
      <path d="M 79.296875 24.609375 
Q 88.28125 24.609375 94.921875 25 
L 94.921875 17.578125 
Q 88.671875 18.75 79.296875 18.359375 
L 55.46875 18.359375 
Q 62.109375 9.375 73.625 4.6875 
Q 85.15625 0 96.09375 -0.78125 
Q 93.75 -3.515625 91.40625 -8.59375 
Q 83.59375 -7.03125 77.734375 -5.078125 
Q 71.875 -3.125 64.640625 1.359375 
Q 57.421875 5.859375 50.78125 13.671875 
Q 47.265625 8.59375 43.75 5.46875 
Q 40.234375 2.34375 35.15625 -0.78125 
Q 30.078125 -3.90625 24.40625 -5.859375 
Q 18.75 -7.8125 10.9375 -9.765625 
Q 9.375 -5.859375 6.25 -1.953125 
Q 13.671875 -1.171875 19.71875 0.578125 
Q 25.78125 2.34375 30.65625 4.875 
Q 35.546875 7.421875 39.0625 10.734375 
Q 42.578125 14.0625 44.53125 18.359375 
L 20.703125 18.359375 
Q 12.890625 18.359375 5.46875 17.96875 
L 5.46875 25 
Q 12.890625 24.609375 20.703125 24.609375 
L 46.09375 24.609375 
Q 46.484375 27.34375 46.484375 30.46875 
Q 54.296875 29.296875 55.46875 29.296875 
Q 54.296875 26.953125 53.90625 24.609375 
z
M 67.578125 78.125 
Q 64.453125 75 61.328125 70.3125 
L 92.1875 70.3125 
Q 88.671875 61.71875 85.34375 56.046875 
Q 82.03125 50.390625 77.921875 45.890625 
Q 73.828125 41.40625 66.984375 37.5 
Q 60.15625 33.59375 47.65625 30.859375 
Q 45.703125 34.375 42.96875 37.890625 
Q 54.6875 38.28125 64.0625 43.75 
L 53.515625 50.78125 
Q 55.859375 53.515625 57.8125 56.25 
Q 61.71875 53.90625 64.0625 52.140625 
Q 66.40625 50.390625 69.921875 48.046875 
Q 76.5625 53.90625 80.859375 64.0625 
L 57.421875 64.0625 
Q 55.46875 61.71875 52.734375 58.59375 
Q 50 55.46875 45.3125 50 
Q 42.1875 52.734375 38.671875 54.296875 
Q 44.53125 59.375 49.796875 66.40625 
Q 55.078125 73.4375 58.59375 81.640625 
Q 63.671875 79.296875 67.578125 78.125 
z
M 38.28125 80.859375 
Q 37.890625 76.171875 37.890625 69.921875 
L 37.890625 44.921875 
Q 37.890625 39.0625 38.28125 30.859375 
L 30.078125 30.859375 
Q 30.46875 39.0625 30.46875 44.921875 
L 30.46875 47.65625 
Q 19.140625 40.234375 11.71875 35.546875 
Q 8.984375 39.84375 6.25 42.1875 
Q 12.890625 44.140625 30.46875 55.078125 
L 30.46875 69.921875 
Q 30.46875 75.78125 30.078125 80.859375 
L 38.28125 80.859375 
z
M 15.625 73.4375 
Q 23.046875 67.578125 28.125 62.890625 
L 22.265625 57.03125 
Q 17.1875 62.5 10.546875 67.96875 
Q 13.28125 70.3125 15.625 73.4375 
z
" id="SimHei-5956"/>
      <path d="M 76.953125 34.375 
L 23.4375 34.375 
Q 23.828125 39.453125 23.828125 44.140625 
Q 23.828125 48.828125 23.4375 53.125 
L 76.953125 53.125 
z
M 82.421875 76.171875 
Q 78.515625 73.4375 73.046875 65.234375 
L 91.015625 65.234375 
Q 90.625 61.328125 90.625 57.421875 
Q 90.625 53.90625 91.015625 49.21875 
L 83.203125 49.21875 
L 83.203125 59.375 
L 17.1875 59.375 
L 17.1875 47.65625 
L 9.375 47.65625 
Q 9.765625 52.34375 9.765625 56.640625 
Q 9.765625 61.328125 9.375 65.234375 
L 28.90625 65.234375 
Q 23.828125 71.875 19.921875 76.5625 
L 26.171875 80.46875 
Q 31.25 75.390625 35.546875 68.75 
Q 32.421875 66.796875 29.6875 65.234375 
L 46.484375 65.234375 
Q 46.484375 73.046875 46.09375 80.859375 
L 54.296875 80.859375 
Q 53.90625 73.828125 53.90625 65.234375 
L 65.234375 65.234375 
Q 71.875 75 73.046875 79.6875 
Q 77.734375 77.34375 82.421875 76.171875 
z
M 81.25 28.90625 
Q 80.859375 24.21875 80.859375 18.75 
Q 80.859375 13.28125 81.25 8.59375 
L 73.4375 8.59375 
L 73.4375 23.046875 
L 26.953125 23.046875 
L 26.953125 7.03125 
L 19.140625 7.03125 
Q 19.53125 12.5 19.53125 17.96875 
Q 19.53125 23.4375 19.140625 28.90625 
L 81.25 28.90625 
z
M 54.296875 17.1875 
Q 50 5.078125 45.3125 1.171875 
Q 40.625 -2.734375 33.390625 -5.65625 
Q 26.171875 -8.59375 12.890625 -10.546875 
Q 12.109375 -7.03125 7.8125 -2.734375 
Q 18.359375 -2.34375 25.390625 -0.578125 
Q 32.421875 1.171875 38.28125 5.46875 
Q 44.140625 9.765625 45.3125 19.53125 
L 54.296875 17.1875 
z
M 69.140625 39.84375 
L 69.140625 47.265625 
L 31.25 47.265625 
L 31.25 39.84375 
z
M 61.328125 10.15625 
Q 78.515625 3.515625 90.234375 -3.90625 
Q 86.71875 -6.640625 84.375 -10.15625 
Q 76.5625 -3.90625 56.640625 3.90625 
Q 59.765625 7.8125 61.328125 10.15625 
z
" id="SimHei-8d4f"/>
      <path d="M 57.421875 69.53125 
L 57.421875 79.6875 
Q 62.109375 79.296875 67.96875 78.90625 
Q 66.015625 76.171875 65.625 69.53125 
L 80.078125 69.53125 
Q 86.71875 69.53125 91.796875 69.921875 
L 91.796875 62.890625 
Q 86.328125 63.28125 80.078125 63.28125 
L 65.234375 63.28125 
L 64.453125 54.6875 
L 84.375 54.6875 
Q 83.984375 50 83.984375 42.1875 
L 83.984375 2.34375 
Q 91.796875 2.34375 95.3125 2.734375 
L 95.3125 -4.296875 
Q 90.234375 -3.90625 81.25 -3.90625 
L 44.53125 -3.90625 
Q 35.546875 -3.90625 29.6875 -4.296875 
L 29.6875 2.734375 
Q 33.203125 2.34375 40.625 2.34375 
L 40.625 42.1875 
Q 40.625 49.609375 40.234375 54.6875 
L 56.25 54.6875 
L 57.03125 63.28125 
L 50 63.28125 
Q 40.234375 63.28125 34.765625 62.890625 
L 34.765625 69.921875 
Q 39.84375 69.53125 50 69.53125 
z
M 34.765625 76.5625 
Q 31.640625 73.046875 25.78125 58.59375 
L 25.78125 7.03125 
Q 25.78125 -1.171875 26.171875 -8.59375 
L 17.96875 -8.59375 
Q 18.359375 -1.953125 18.359375 5.859375 
L 18.359375 46.09375 
Q 13.671875 38.28125 9.765625 33.59375 
Q 6.640625 37.890625 3.90625 40.234375 
Q 7.8125 44.140625 14.640625 55.265625 
Q 21.484375 66.40625 25.390625 80.46875 
Q 30.859375 77.734375 34.765625 76.5625 
z
M 76.953125 41.40625 
L 76.953125 49.21875 
L 48.046875 49.21875 
L 48.046875 41.40625 
z
M 76.953125 2.34375 
L 76.953125 9.765625 
L 48.046875 9.765625 
L 48.046875 2.34375 
z
M 76.953125 15.625 
L 76.953125 22.65625 
L 48.046875 22.65625 
L 48.046875 15.625 
z
M 76.953125 28.515625 
L 76.953125 35.546875 
L 48.046875 35.546875 
L 48.046875 28.515625 
z
" id="SimHei-503c"/>
     </defs>
     <g transform="translate(15.16875 117.190625)rotate(-90)scale(0.1 -0.1)">
      <use xlink:href="#SimHei-5e73"/>
      <use x="100" xlink:href="#SimHei-5747"/>
      <use x="200" xlink:href="#SimHei-5956"/>
      <use x="300" xlink:href="#SimHei-8d4f"/>
      <use x="400" xlink:href="#SimHei-503c"/>
     </g>
    </g>
   </g>
   <g id="line2d_12">
    <path clip-path="url(#pf15e48fd21)" d="M 52.804659 159.121275 
L 53.499369 159.512978 
L 54.194078 155.726517 
L 54.888788 156.183503 
L 55.583498 156.301014 
L 56.278207 155.465381 
L 56.972917 157.106803 
L 57.667627 158.435795 
L 58.362336 159.20832 
L 59.057046 159.748 
L 59.751755 160.047118 
L 60.446465 160.100532 
L 61.141175 160.447039 
L 61.835884 159.736808 
L 62.530594 160.009135 
L 63.225304 159.708829 
L 63.920013 159.259523 
L 64.614723 159.512978 
L 65.309433 159.080043 
L 66.698852 159.046665 
L 67.393561 157.625682 
L 68.088271 157.826952 
L 68.782981 157.228044 
L 69.47769 157.397782 
L 70.86711 156.567952 
L 71.561819 156.854994 
L 72.256529 156.338834 
L 72.951239 156.588263 
L 73.645948 156.644702 
L 74.340658 155.684398 
L 75.035368 155.103162 
L 75.730077 155.532771 
L 77.119496 155.760212 
L 77.814206 155.5075 
L 79.203625 151.059777 
L 79.898335 150.807065 
L 80.593045 147.193291 
L 81.287754 147.142748 
L 81.982464 145.626479 
L 82.677174 145.323225 
L 83.371883 145.272683 
L 84.066593 143.503702 
L 84.761302 141.254569 
L 85.456012 139.586673 
L 86.150722 136.88266 
L 86.845431 134.886239 
L 87.540141 134.91151 
L 88.234851 132.561293 
L 88.92956 130.817583 
L 89.62427 127.785045 
L 90.31898 127.835587 
L 91.013689 125.081031 
L 91.708399 123.615304 
L 92.403108 121.467256 
L 93.097818 120.860749 
L 93.792528 119.445564 
L 94.487237 118.636887 
L 95.181947 114.239706 
L 95.876657 111.055541 
L 96.571366 111.788405 
L 98.655495 104.308143 
L 99.350205 105.015735 
L 100.044914 107.037428 
L 100.739624 107.31541 
L 101.434334 107.441766 
L 102.129043 109.690899 
L 102.823753 109.362374 
L 103.518463 108.503155 
L 104.213172 105.672785 
L 104.907882 101.452503 
L 105.602592 100.694368 
L 106.297301 98.521049 
L 106.992011 98.344151 
L 107.686721 98.445235 
L 108.38143 98.167253 
L 109.07614 93.770072 
L 109.770849 92.076905 
L 110.465559 92.708684 
L 111.160269 93.037209 
L 111.854978 90.560636 
L 112.549688 91.09133 
L 113.244398 90.939703 
L 113.939107 91.419855 
L 114.633817 89.170722 
L 115.328527 88.286232 
L 116.023236 86.289811 
L 116.717946 87.755538 
L 117.412655 88.791655 
L 118.107365 86.087641 
L 118.802075 84.495559 
L 119.496784 83.383628 
L 120.191494 82.701307 
L 120.886204 79.340243 
L 121.580913 75.32213 
L 122.275623 74.867249 
L 122.970333 70.242628 
L 123.665042 69.332867 
L 124.359752 66.628853 
L 125.054461 66.275057 
L 125.749171 66.805751 
L 126.443881 68.574732 
L 127.13859 68.600003 
L 127.8333 73.300438 
L 128.52801 73.072997 
L 129.917429 78.253584 
L 131.306848 81.538834 
L 132.001558 80.654343 
L 134.085687 88.741113 
L 134.780396 90.990245 
L 135.475106 90.990245 
L 136.169816 89.499247 
L 136.864525 89.751959 
L 137.559235 88.235689 
L 138.253945 88.918011 
L 139.643364 89.751959 
L 140.338074 90.838618 
L 141.032783 94.553478 
L 142.422202 96.928966 
L 143.116912 97.939812 
L 143.811622 96.777339 
L 144.506331 97.333305 
L 145.201041 96.297187 
L 145.895751 96.726797 
L 146.59046 97.00478 
L 147.97988 97.308034 
L 148.674589 95.109443 
L 149.369299 91.242957 
L 150.064008 90.00467 
L 151.453428 81.109224 
L 152.148137 79.416057 
L 152.842847 77.268009 
L 153.537557 77.015297 
L 155.621686 63.545773 
L 157.011105 58.744253 
L 157.705814 60.614319 
L 158.400524 58.946423 
L 159.095234 58.567355 
L 159.789943 56.292952 
L 160.484653 54.473428 
L 161.179363 51.996855 
L 161.874072 50.278417 
L 162.568782 45.679067 
L 163.958201 40.473209 
L 164.652911 38.780042 
L 165.34762 37.617569 
L 166.04233 37.061604 
L 166.73704 35.646419 
L 169.515878 27.281667 
L 170.210588 27.281667 
L 170.905298 26.447719 
L 171.600007 25.436873 
L 172.294717 25.032535 
L 173.684136 25.032535 
L 174.378846 25.512687 
L 175.073555 24.223858 
L 175.768265 23.870062 
L 176.462975 23.693164 
L 177.157684 23.642621 
L 177.852394 21.216591 
L 178.547104 21.216591 
L 179.241813 18.967458 
L 179.936523 18.689475 
L 195.220135 18.689475 
L 195.914845 18.108239 
L 210.503747 18.108239 
L 213.282586 37.263773 
L 229.955617 37.263773 
L 230.650326 41.964208 
L 232.039746 41.964208 
L 233.429165 32.436983 
L 234.123875 29.227546 
L 234.818584 24.400756 
L 251.491616 24.400756 
L 252.186325 19.700321 
L 254.965164 19.700321 
L 255.659873 18.108239 
L 256.354583 18.108239 
L 257.049293 18.689475 
L 257.744002 19.573966 
L 258.438712 20.786981 
L 259.133422 22.454877 
L 260.522841 26.599346 
L 260.522841 26.599346 
" style="fill:none;stroke:#ff6347;stroke-linecap:square;stroke-width:1.5;"/>
   </g>
   <g id="line2d_13">
    <path clip-path="url(#pf15e48fd21)" d="M 52.804659 166.171927 
L 53.499369 159.904681 
L 54.194078 161.471492 
L 54.888788 161.079789 
L 55.583498 161.784855 
L 56.972917 162.142983 
L 58.362336 162.080808 
L 59.057046 161.628173 
L 59.751755 161.400274 
L 60.446465 161.797911 
L 64.614723 159.730591 
L 66.698852 160.315036 
L 68.088271 160.449659 
L 69.47769 159.967353 
L 70.1724 157.885904 
L 70.86711 157.844614 
L 71.561819 158.142018 
L 72.256529 157.527449 
L 72.951239 157.60669 
L 73.645948 157.554463 
L 74.340658 155.861296 
L 75.035368 156.038194 
L 75.730077 155.760212 
L 76.424787 155.684398 
L 77.119496 154.218671 
L 77.814206 153.687977 
L 79.203625 153.713248 
L 79.898335 151.79264 
L 80.593045 151.843183 
L 81.287754 151.33776 
L 81.982464 147.016392 
L 82.677174 144.792531 
L 83.371883 144.565091 
L 84.066593 144.716717 
L 84.761302 144.211294 
L 85.456012 143.402617 
L 86.150722 143.326804 
L 86.845431 143.099364 
L 87.540141 139.889927 
L 88.234851 139.106521 
L 88.92956 135.315848 
L 89.62427 135.189493 
L 90.31898 134.582985 
L 91.013689 132.662377 
L 91.708399 134.507171 
L 92.403108 133.445783 
L 93.792528 129.88255 
L 95.181947 124.954675 
L 95.876657 124.019643 
L 96.571366 121.290358 
L 98.655495 114.770401 
L 99.350205 112.672895 
L 100.044914 111.308253 
L 101.434334 109.362374 
L 102.823753 102.463349 
L 103.518463 104.68721 
L 104.213172 105.091549 
L 105.602592 100.669097 
L 106.297301 99.354997 
L 106.992011 98.31888 
L 107.686721 96.777339 
L 108.38143 94.679834 
L 109.07614 95.665409 
L 109.770849 94.098597 
L 110.465559 95.614866 
L 111.160269 92.986666 
L 111.854978 93.466818 
L 112.549688 92.329616 
L 113.939107 86.49198 
L 114.633817 85.228422 
L 115.328527 85.455863 
L 116.023236 85.152609 
L 116.717946 85.658032 
L 117.412655 86.643607 
L 118.107365 86.441438 
L 118.802075 84.52083 
L 119.496784 82.246426 
L 120.191494 81.185038 
L 120.886204 79.69404 
L 121.580913 77.849245 
L 122.275623 74.159657 
L 122.970333 74.109115 
L 123.665042 75.296859 
L 124.359752 79.390786 
L 125.749171 83.43417 
L 126.443881 86.138184 
L 127.13859 85.961286 
L 129.917429 94.629291 
L 131.306848 99.354997 
L 132.001558 101.730485 
L 132.696267 104.586126 
L 133.390977 105.066278 
L 136.169816 118.662158 
L 136.864525 120.936562 
L 137.559235 123.842745 
L 138.253945 126.218233 
L 138.948654 127.810316 
L 139.643364 130.868125 
L 142.422202 148.659017 
L 143.116912 149.391881 
L 143.811622 151.363031 
L 144.506331 150.124744 
L 145.201041 149.189712 
L 145.895751 149.012814 
L 146.59046 149.088627 
L 147.97988 141.48201 
L 148.674589 140.698604 
L 152.148137 125.384285 
L 154.232266 113.734283 
L 159.095234 91.622024 
L 163.263492 67.058463 
L 163.958201 63.849026 
L 165.34762 69.105426 
L 166.04233 73.452065 
L 166.73704 73.906945 
L 167.431749 74.058572 
L 168.126459 74.083844 
L 168.821169 77.823974 
L 169.515878 78.632651 
L 170.210588 81.867359 
L 170.905298 81.993715 
L 172.294717 87.730266 
L 172.989426 88.109334 
L 173.684136 91.394584 
L 174.378846 91.495668 
L 175.073555 91.040788 
L 175.768265 90.206839 
L 176.462975 89.575061 
L 177.157684 89.246536 
L 177.852394 88.134605 
L 178.547104 87.755538 
L 179.241813 87.704995 
L 180.631233 87.250114 
L 181.325942 88.311503 
L 182.020652 88.816926 
L 182.715361 90.00467 
L 183.410071 90.838618 
L 184.104781 91.369313 
L 184.79949 91.495668 
L 185.4942 91.141872 
L 186.18891 87.351199 
L 187.578329 77.899788 
L 188.273039 76.130807 
L 190.357167 62.332757 
L 191.051877 60.993386 
L 191.746587 57.051086 
L 192.441296 55.8128 
L 193.136006 52.704448 
L 193.830716 52.75499 
L 194.525425 55.484275 
L 195.220135 55.459003 
L 196.609554 63.394146 
L 197.304264 68.09458 
L 199.388393 79.03699 
L 200.083102 80.022565 
L 200.777812 80.57853 
L 201.472522 80.376361 
L 202.167231 81.159767 
L 202.861941 80.755428 
L 203.556651 80.174192 
L 204.25136 79.441328 
L 206.335489 76.40879 
L 207.030199 76.383519 
L 207.724908 75.499028 
L 209.114328 76.40879 
L 210.503747 78.784278 
L 211.198457 78.784278 
L 211.893166 78.506295 
L 212.587876 78.455753 
L 213.282586 79.92148 
L 213.977295 81.968443 
L 214.672005 82.77712 
L 215.366714 80.654343 
L 216.061424 79.011718 
L 216.756134 77.874517 
L 220.924392 78.405211 
L 222.313811 83.737424 
L 225.092649 97.131136 
L 226.482069 106.00131 
L 227.871488 115.62962 
L 228.566198 119.293937 
L 229.955617 128.467366 
L 231.345036 136.351966 
L 232.039746 139.940469 
L 234.123875 153.96596 
L 235.513294 158.641123 
L 236.902713 163.139388 
L 237.597423 164.807284 
L 238.292132 165.969758 
L 242.46039 165.919215 
L 244.544519 165.995029 
L 245.933939 166.273011 
L 246.628648 164.327133 
L 248.018067 164.226048 
L 248.712777 164.200777 
L 249.407487 161.875831 
L 250.102196 159.02019 
L 250.796906 154.269213 
L 252.186325 147.420731 
L 255.659873 126.243504 
L 257.049293 117.272245 
L 257.744002 113.734283 
L 259.828131 100.593284 
L 260.522841 95.842307 
L 260.522841 95.842307 
" style="fill:none;stroke:#008000;stroke-dasharray:5.55,2.4;stroke-dashoffset:0;stroke-width:1.5;"/>
   </g>
   <g id="line2d_14">
    <path clip-path="url(#pf15e48fd21)" d="M 52.804659 147.370189 
L 53.499369 157.554463 
L 54.194078 160.949222 
L 54.888788 162.450749 
L 55.583498 161.001449 
L 56.278207 161.993763 
L 56.972917 161.359577 
L 58.362336 162.428988 
L 60.446465 163.430007 
L 61.141175 163.399876 
L 62.530594 163.821709 
L 63.225304 163.772747 
L 63.920013 163.406965 
L 64.614723 163.604097 
L 65.309433 163.409391 
L 66.698852 163.635184 
L 68.782981 162.385466 
L 69.47769 162.505588 
L 70.1724 162.495946 
L 72.256529 161.903716 
L 74.340658 162.406525 
L 75.035368 162.406525 
L 75.730077 161.976915 
L 77.814206 161.496763 
L 78.508916 161.800017 
L 79.203625 161.345136 
L 79.898335 161.218781 
L 84.066593 161.294594 
L 84.761302 161.218781 
L 85.456012 161.471492 
L 86.150722 161.345136 
L 87.540141 160.915527 
L 88.234851 160.966069 
L 90.31898 162.128542 
L 91.013689 162.027458 
L 91.708399 162.103271 
L 93.792528 162.836134 
L 95.181947 162.861406 
L 95.876657 163.291015 
L 96.571366 163.265744 
L 97.266076 163.543727 
L 97.960786 163.61954 
L 98.655495 163.948065 
L 99.350205 164.124963 
L 100.044914 163.973336 
L 100.739624 164.200777 
L 102.129043 164.099692 
L 102.823753 163.821709 
L 104.907882 163.341558 
L 105.602592 163.164659 
L 106.297301 163.164659 
L 106.992011 162.937219 
L 109.07614 163.063575 
L 110.465559 162.254898 
L 111.160269 161.901102 
L 111.854978 161.395679 
L 112.549688 160.612273 
L 113.939107 157.984073 
L 114.633817 155.406415 
L 115.328527 153.890146 
L 116.717946 149.947846 
L 117.412655 148.406306 
L 118.107365 146.485698 
L 118.802075 144.893616 
L 119.496784 141.911619 
L 120.191494 140.445893 
L 120.886204 138.373658 
L 122.275623 130.716498 
L 122.970333 128.467366 
L 123.665042 126.774199 
L 124.359752 125.636997 
L 126.443881 120.88602 
L 127.8333 118.283091 
L 129.222719 115.528535 
L 129.917429 114.618774 
L 132.001558 109.94361 
L 134.085687 104.080703 
L 134.780396 102.994043 
L 135.475106 101.553587 
L 136.169816 101.856841 
L 136.864525 101.048164 
L 137.559235 100.542741 
L 138.948654 98.11671 
L 139.643364 97.560745 
L 140.338074 96.499357 
L 141.032783 97.308034 
L 141.727493 96.373001 
L 142.422202 96.019205 
L 143.811622 98.799032 
L 144.506331 98.748489 
L 145.201041 98.11671 
L 145.895751 96.878424 
L 147.28517 95.387426 
L 147.97988 95.109443 
L 148.674589 93.795343 
L 149.369299 92.936124 
L 150.064008 92.380159 
L 150.758718 91.419855 
L 152.148137 89.195993 
L 152.842847 88.437859 
L 154.232266 87.679724 
L 154.926976 87.907164 
L 155.621686 88.260961 
L 156.316395 88.185147 
L 157.011105 88.336774 
L 157.705814 87.982978 
L 158.400524 87.856622 
L 159.095234 87.907164 
L 159.789943 88.640028 
L 160.484653 89.044366 
L 161.179363 89.019095 
L 161.874072 89.372891 
L 162.568782 89.044366 
L 163.263492 89.322349 
L 163.958201 89.423434 
L 165.34762 89.878314 
L 167.431749 90.080484 
L 168.126459 90.00467 
L 168.821169 90.105755 
L 169.515878 89.827772 
L 170.210588 90.282653 
L 170.905298 90.181568 
L 171.600007 89.928857 
L 172.294717 89.928857 
L 172.989426 89.650874 
L 173.684136 89.903586 
L 174.378846 89.473976 
L 175.073555 88.46313 
L 177.157684 87.704995 
L 177.852394 87.174301 
L 178.547104 87.14903 
L 179.241813 87.275386 
L 180.631233 87.275386 
L 181.325942 86.769963 
L 182.715361 86.694149 
L 184.79949 86.744691 
L 185.4942 86.668878 
L 186.18891 86.92159 
L 186.883619 86.871047 
L 188.273039 85.683303 
L 188.967748 83.964865 
L 189.662458 83.181459 
L 190.357167 82.221155 
L 191.051877 81.715732 
L 191.746587 80.679615 
L 192.441296 80.376361 
L 193.136006 79.845667 
L 193.830716 78.961176 
L 194.525425 78.37994 
L 195.914845 75.119961 
L 196.609554 75.75174 
L 197.304264 76.20662 
L 198.693683 79.087532 
L 200.083102 83.939593 
L 200.777812 85.60749 
L 202.167231 89.751959 
L 202.861941 92.481243 
L 203.556651 94.250224 
L 204.25136 96.600441 
L 204.94607 98.31888 
L 206.335489 102.817145 
L 208.419618 108.604239 
L 209.809037 114.54296 
L 210.503747 118.712701 
L 213.282586 131.323006 
L 215.366714 139.965741 
L 216.061424 142.012704 
L 216.756134 144.413464 
L 217.450843 147.319646 
L 218.145553 147.521815 
L 218.840263 149.644592 
L 219.534972 150.2511 
L 220.229682 151.236675 
L 220.924392 151.666285 
L 221.619101 151.539929 
L 222.313811 152.323335 
L 223.00852 151.691556 
L 223.70323 150.731252 
L 224.39794 150.68071 
L 225.092649 151.211404 
L 225.787359 151.186133 
L 226.482069 150.807065 
L 227.176778 150.933421 
L 227.871488 150.807065 
L 228.566198 151.388302 
L 229.260907 151.388302 
L 229.955617 151.767369 
L 230.650326 151.691556 
L 231.345036 149.568779 
L 232.039746 148.001967 
L 233.429165 145.399039 
L 234.818584 145.272683 
L 236.208004 145.196869 
L 236.902713 145.247412 
L 237.597423 146.510969 
L 238.986842 149.846762 
L 239.681552 152.22225 
L 241.070971 150.377456 
L 242.46039 147.092206 
L 243.1551 144.868344 
L 243.84981 141.734721 
L 244.544519 140.799689 
L 245.239229 139.611944 
L 245.933939 137.741879 
L 247.323358 133.572139 
L 248.018067 132.814004 
L 249.407487 129.857279 
L 250.102196 129.604568 
L 252.186325 125.182116 
L 253.575745 125.94025 
L 254.270454 127.102724 
L 254.965164 126.976368 
L 256.354583 124.221812 
L 257.049293 122.85717 
L 257.744002 122.831899 
L 258.438712 121.846324 
L 259.828131 121.719968 
L 260.522841 120.178427 
L 260.522841 120.178427 
" style="fill:none;stroke:#a9a9a9;stroke-dasharray:5.55,2.4;stroke-dashoffset:0;stroke-width:1.5;"/>
   </g>
   <g id="patch_3">
    <path d="M 42.41875 173.68125 
L 42.41875 10.7 
" style="fill:none;stroke:#000000;stroke-linecap:square;stroke-linejoin:miter;stroke-width:0.8;"/>
   </g>
   <g id="patch_4">
    <path d="M 270.90875 173.68125 
L 270.90875 10.7 
" style="fill:none;stroke:#000000;stroke-linecap:square;stroke-linejoin:miter;stroke-width:0.8;"/>
   </g>
   <g id="patch_5">
    <path d="M 42.41875 173.68125 
L 270.90875 173.68125 
" style="fill:none;stroke:#000000;stroke-linecap:square;stroke-linejoin:miter;stroke-width:0.8;"/>
   </g>
   <g id="patch_6">
    <path d="M 42.41875 10.7 
L 270.90875 10.7 
" style="fill:none;stroke:#000000;stroke-linecap:square;stroke-linejoin:miter;stroke-width:0.8;"/>
   </g>
   <g id="legend_1">
    <g id="patch_7">
     <path d="M 49.41875 58.45 
L 117.41875 58.45 
Q 119.41875 58.45 119.41875 56.45 
L 119.41875 17.7 
Q 119.41875 15.7 117.41875 15.7 
L 49.41875 15.7 
Q 47.41875 15.7 47.41875 17.7 
L 47.41875 56.45 
Q 47.41875 58.45 49.41875 58.45 
z
" style="fill:none;opacity:0.8;"/>
    </g>
    <g id="line2d_15">
     <path d="M 51.41875 23.2 
L 71.41875 23.2 
" style="fill:none;stroke:#ff6347;stroke-linecap:square;stroke-width:1.5;"/>
    </g>
    <g id="line2d_16"/>
    <g id="text_14">
     <!-- $\lambda$ = 0.8 -->
     <defs>
      <path d="M 36.71875 67.4375 
L 48.828125 0 
L 39.3125 0 
L 31.84375 40.4375 
L 5.125 0 
L -4.390625 0 
L 29.734375 52.4375 
L 28.03125 62.109375 
Q 26.953125 68.265625 21.734375 68.265625 
L 17.046875 68.265625 
L 18.5 75.984375 
L 24.21875 75.875 
Q 35.203125 75.734375 36.71875 67.4375 
z
" id="DejaVuSans-Oblique-3bb"/>
      <path id="SimHei-20"/>
      <path d="M 46.484375 45.3125 
L 1.953125 45.3125 
L 1.953125 51.5625 
L 46.484375 51.5625 
z
M 46.484375 21.484375 
L 1.953125 21.484375 
L 1.953125 27.734375 
L 46.484375 27.734375 
z
" id="SimHei-3d"/>
      <path d="M 16.796875 1.953125 
L 7.8125 1.953125 
L 7.8125 10.546875 
L 16.796875 10.546875 
z
" id="SimHei-2e"/>
      <path d="M 2.734375 16.796875 
Q 2.734375 26.171875 5.078125 30.65625 
Q 7.421875 35.15625 12.890625 37.890625 
Q 8.203125 40.625 6.640625 43.9375 
Q 5.078125 47.265625 4.875 51.5625 
Q 4.6875 55.859375 6.046875 58.984375 
Q 7.421875 62.109375 10.15625 64.84375 
Q 12.890625 67.578125 16.203125 68.546875 
Q 19.53125 69.53125 23.4375 69.53125 
Q 27.34375 69.53125 30.46875 68.75 
Q 33.59375 67.96875 37.109375 65.421875 
Q 40.625 62.890625 42.1875 58.203125 
Q 43.75 53.515625 41.984375 47.265625 
Q 40.234375 41.015625 32.8125 37.5 
Q 39.453125 35.546875 42.1875 31.4375 
Q 44.921875 27.34375 44.921875 21.484375 
Q 44.921875 15.625 43.15625 12.109375 
Q 41.40625 8.59375 39.25 6.25 
Q 37.109375 3.90625 33.390625 2.53125 
Q 29.6875 1.171875 24.015625 1.171875 
Q 18.359375 1.171875 14.25 2.53125 
Q 10.15625 3.90625 7.421875 6.640625 
Q 4.6875 9.375 3.703125 13.078125 
Q 2.734375 16.796875 2.734375 26.171875 
z
M 10.9375 26.5625 
Q 10.546875 17.1875 12.296875 13.671875 
Q 14.0625 10.15625 18.75 9.171875 
Q 23.4375 8.203125 28.515625 9.375 
Q 33.59375 10.546875 35.546875 14.84375 
Q 37.5 19.140625 36.90625 23.4375 
Q 36.328125 27.734375 32.03125 30.65625 
Q 27.734375 33.59375 22.65625 33.203125 
Q 17.578125 32.8125 14.25 29.6875 
Q 10.9375 26.5625 10.546875 17.1875 
z
M 12.109375 56.25 
Q 12.109375 48.4375 14.84375 44.921875 
Q 17.578125 41.40625 23.4375 41.40625 
Q 29.296875 41.40625 32.21875 44.921875 
Q 35.15625 48.4375 34.953125 53.3125 
Q 34.765625 58.203125 31.4375 60.546875 
Q 28.125 62.890625 22.453125 62.5 
Q 16.796875 62.109375 14.453125 59.171875 
Q 12.109375 56.25 12.109375 48.4375 
z
" id="SimHei-38"/>
     </defs>
     <g transform="translate(79.41875 26.7)scale(0.1 -0.1)">
      <use transform="translate(0 0.015625)" xlink:href="#DejaVuSans-Oblique-3bb"/>
      <use transform="translate(59.179688 0.015625)" xlink:href="#SimHei-20"/>
      <use transform="translate(109.179688 0.015625)" xlink:href="#SimHei-3d"/>
      <use transform="translate(159.179688 0.015625)" xlink:href="#SimHei-20"/>
      <use transform="translate(209.179688 0.015625)" xlink:href="#SimHei-30"/>
      <use transform="translate(259.179688 0.015625)" xlink:href="#SimHei-2e"/>
      <use transform="translate(309.179688 0.015625)" xlink:href="#SimHei-38"/>
     </g>
    </g>
    <g id="line2d_17">
     <path d="M 51.41875 36.45 
L 71.41875 36.45 
" style="fill:none;stroke:#008000;stroke-dasharray:5.55,2.4;stroke-dashoffset:0;stroke-width:1.5;"/>
    </g>
    <g id="line2d_18"/>
    <g id="text_15">
     <!-- $\lambda$ = 0.5 -->
     <g transform="translate(79.41875 39.95)scale(0.1 -0.1)">
      <use transform="translate(0 0.015625)" xlink:href="#DejaVuSans-Oblique-3bb"/>
      <use transform="translate(59.179688 0.015625)" xlink:href="#SimHei-20"/>
      <use transform="translate(109.179688 0.015625)" xlink:href="#SimHei-3d"/>
      <use transform="translate(159.179688 0.015625)" xlink:href="#SimHei-20"/>
      <use transform="translate(209.179688 0.015625)" xlink:href="#SimHei-30"/>
      <use transform="translate(259.179688 0.015625)" xlink:href="#SimHei-2e"/>
      <use transform="translate(309.179688 0.015625)" xlink:href="#SimHei-35"/>
     </g>
    </g>
    <g id="line2d_19">
     <path d="M 51.41875 49.7 
L 71.41875 49.7 
" style="fill:none;stroke:#a9a9a9;stroke-dasharray:5.55,2.4;stroke-dashoffset:0;stroke-width:1.5;"/>
    </g>
    <g id="line2d_20"/>
    <g id="text_16">
     <!-- $\lambda$ = 0.3 -->
     <g transform="translate(79.41875 53.2)scale(0.1 -0.1)">
      <use transform="translate(0 0.015625)" xlink:href="#DejaVuSans-Oblique-3bb"/>
      <use transform="translate(59.179688 0.015625)" xlink:href="#SimHei-20"/>
      <use transform="translate(109.179688 0.015625)" xlink:href="#SimHei-3d"/>
      <use transform="translate(159.179688 0.015625)" xlink:href="#SimHei-20"/>
      <use transform="translate(209.179688 0.015625)" xlink:href="#SimHei-30"/>
      <use transform="translate(259.179688 0.015625)" xlink:href="#SimHei-2e"/>
      <use transform="translate(309.179688 0.015625)" xlink:href="#SimHei-33"/>
     </g>
    </g>
   </g>
  </g>
 </g>
 <defs>
  <clipPath id="pf15e48fd21">
   <rect height="162.98125" width="228.49" x="42.41875" y="10.7"/>
  </clipPath>
 </defs>
</svg>
