<?xml version="1.0" encoding="utf-8" standalone="no"?>
<!DOCTYPE svg PUBLIC "-//W3C//DTD SVG 1.1//EN"
  "http://www.w3.org/Graphics/SVG/1.1/DTD/svg11.dtd">
<!-- Created with matplotlib (http://matplotlib.org/) -->
<svg height="173.185937pt" version="1.1" viewBox="0 0 281.65875 173.185937" width="281.65875pt" xmlns="http://www.w3.org/2000/svg" xmlns:xlink="http://www.w3.org/1999/xlink">
 <defs>
  <style type="text/css">
*{stroke-linecap:butt;stroke-linejoin:round;}
  </style>
 </defs>
 <g id="figure_1">
  <g id="patch_1">
   <path d="M 0 173.185937 
L 281.65875 173.185937 
L 281.65875 -0 
L 0 -0 
z
" style="fill:none;"/>
  </g>
  <g id="axes_1">
   <g id="patch_2">
    <path d="M 47.41875 137.68125 
L 270.95875 137.68125 
L 270.95875 10.7 
L 47.41875 10.7 
z
" style="fill:#ffffff;"/>
   </g>
   <g id="matplotlib.axis_1">
    <g id="xtick_1">
     <g id="line2d_1">
      <defs>
       <path d="M 0 0 
L 0 3.5 
" id="m8ebe4b2c9d" style="stroke:#000000;stroke-width:0.8;"/>
      </defs>
      <g>
       <use style="stroke:#000000;stroke-width:0.8;" x="57.579659" xlink:href="#m8ebe4b2c9d" y="137.68125"/>
      </g>
     </g>
     <g id="text_1">
      <!-- 0 -->
      <defs>
       <path d="M 3.125 29.296875 
Q 3.90625 50 6.4375 56.046875 
Q 8.984375 62.109375 13.671875 66.015625 
Q 18.359375 69.921875 25.1875 69.921875 
Q 32.03125 69.921875 37.109375 64.25 
Q 42.1875 58.59375 43.75 50 
Q 45.3125 41.40625 44.71875 30.265625 
Q 44.140625 19.140625 40.8125 12.109375 
Q 37.5 5.078125 30.859375 2.34375 
Q 24.21875 -0.390625 17.578125 2.921875 
Q 10.9375 6.25 8.203125 11.71875 
Q 5.46875 17.1875 4.296875 23.234375 
Q 3.125 29.296875 3.90625 50 
z
M 12.890625 52.734375 
Q 10.546875 31.25 12.5 22.84375 
Q 14.453125 14.453125 18.9375 10.9375 
Q 23.4375 7.421875 28.125 9.5625 
Q 32.8125 11.71875 34.953125 18.15625 
Q 37.109375 24.609375 37.109375 32.21875 
Q 37.109375 39.84375 36.515625 46.09375 
Q 35.9375 52.34375 33 57.421875 
Q 30.078125 62.5 25.1875 62.6875 
Q 20.3125 62.890625 16.59375 57.8125 
Q 12.890625 52.734375 10.546875 31.25 
z
" id="SimHei-30"/>
      </defs>
      <g transform="translate(55.079659 151.55625)scale(0.1 -0.1)">
       <use xlink:href="#SimHei-30"/>
      </g>
     </g>
    </g>
    <g id="xtick_2">
     <g id="line2d_2">
      <g>
       <use style="stroke:#000000;stroke-width:0.8;" x="108.639504" xlink:href="#m8ebe4b2c9d" y="137.68125"/>
      </g>
     </g>
     <g id="text_2">
      <!-- 50 -->
      <defs>
       <path d="M 8.59375 20.703125 
Q 11.328125 10.15625 17.96875 8.984375 
Q 24.609375 7.8125 28.703125 10.34375 
Q 32.8125 12.890625 34.5625 16.984375 
Q 36.328125 21.09375 36.125 26.171875 
Q 35.9375 31.25 33.390625 34.765625 
Q 30.859375 38.28125 26.953125 39.453125 
Q 23.046875 40.625 18.15625 39.453125 
Q 13.28125 38.28125 10.15625 33.984375 
L 3.515625 34.765625 
Q 4.296875 37.109375 10.9375 68.359375 
L 41.796875 68.359375 
L 41.796875 61.328125 
L 16.796875 61.328125 
Q 14.84375 50.78125 12.890625 44.53125 
Q 18.75 47.265625 23.828125 47.0625 
Q 28.90625 46.875 33.59375 44.71875 
Q 38.28125 42.578125 40.421875 38.859375 
Q 42.578125 35.15625 43.546875 31.4375 
Q 44.53125 27.734375 44.328125 23.4375 
Q 44.140625 19.140625 42.578125 14.640625 
Q 41.015625 10.15625 37.890625 7.21875 
Q 34.765625 4.296875 30.265625 2.53125 
Q 25.78125 0.78125 19.921875 1.171875 
Q 14.0625 1.5625 8.78125 5.46875 
Q 3.515625 9.375 1.5625 18.75 
z
" id="SimHei-35"/>
      </defs>
      <g transform="translate(103.639504 151.55625)scale(0.1 -0.1)">
       <use xlink:href="#SimHei-35"/>
       <use x="50" xlink:href="#SimHei-30"/>
      </g>
     </g>
    </g>
    <g id="xtick_3">
     <g id="line2d_3">
      <g>
       <use style="stroke:#000000;stroke-width:0.8;" x="159.699348" xlink:href="#m8ebe4b2c9d" y="137.68125"/>
      </g>
     </g>
     <g id="text_3">
      <!-- 100 -->
      <defs>
       <path d="M 21.875 56.25 
Q 16.796875 51.171875 8.984375 46.484375 
L 8.984375 53.90625 
Q 18.75 60.546875 25 69.53125 
L 29.6875 69.53125 
L 29.6875 2.34375 
L 21.875 2.34375 
z
" id="SimHei-31"/>
      </defs>
      <g transform="translate(152.199348 151.55625)scale(0.1 -0.1)">
       <use xlink:href="#SimHei-31"/>
       <use x="50" xlink:href="#SimHei-30"/>
       <use x="100" xlink:href="#SimHei-30"/>
      </g>
     </g>
    </g>
    <g id="xtick_4">
     <g id="line2d_4">
      <g>
       <use style="stroke:#000000;stroke-width:0.8;" x="210.759193" xlink:href="#m8ebe4b2c9d" y="137.68125"/>
      </g>
     </g>
     <g id="text_4">
      <!-- 150 -->
      <g transform="translate(203.259193 151.55625)scale(0.1 -0.1)">
       <use xlink:href="#SimHei-31"/>
       <use x="50" xlink:href="#SimHei-35"/>
       <use x="100" xlink:href="#SimHei-30"/>
      </g>
     </g>
    </g>
    <g id="xtick_5">
     <g id="line2d_5">
      <g>
       <use style="stroke:#000000;stroke-width:0.8;" x="261.819038" xlink:href="#m8ebe4b2c9d" y="137.68125"/>
      </g>
     </g>
     <g id="text_5">
      <!-- 200 -->
      <defs>
       <path d="M 4.6875 3.90625 
Q 5.078125 9.765625 10.15625 14.453125 
Q 15.234375 19.140625 23.046875 29.09375 
Q 30.859375 39.0625 33.203125 44.53125 
Q 35.546875 50 34.953125 53.90625 
Q 34.375 57.8125 31.25 60.34375 
Q 28.125 62.890625 24.015625 62.5 
Q 19.921875 62.109375 16.203125 59.375 
Q 12.5 56.640625 10.546875 51.171875 
L 3.125 52.34375 
Q 6.25 61.328125 11.125 65.421875 
Q 16.015625 69.53125 22.65625 69.921875 
Q 26.5625 70.3125 29.6875 69.71875 
Q 32.8125 69.140625 36.125 66.984375 
Q 39.453125 64.84375 41.59375 60.546875 
Q 43.75 56.25 43.15625 50.1875 
Q 42.578125 44.140625 37.109375 35.734375 
Q 31.640625 27.34375 16.015625 9.375 
L 44.140625 9.375 
L 44.140625 2.34375 
L 4.6875 2.34375 
z
" id="SimHei-32"/>
      </defs>
      <g transform="translate(254.319038 151.55625)scale(0.1 -0.1)">
       <use xlink:href="#SimHei-32"/>
       <use x="50" xlink:href="#SimHei-30"/>
       <use x="100" xlink:href="#SimHei-30"/>
      </g>
     </g>
    </g>
    <g id="text_6">
     <!-- 训练回合数 -->
     <defs>
      <path d="M 25.78125 51.5625 
Q 25.390625 42.578125 25.390625 34.765625 
L 25.390625 10.546875 
Q 30.46875 17.578125 32.03125 19.921875 
Q 33.984375 17.578125 36.71875 14.0625 
Q 31.640625 7.8125 28.125 3.3125 
Q 24.609375 -1.171875 20.703125 -6.640625 
Q 17.96875 -3.125 14.84375 -0.78125 
Q 17.96875 3.515625 17.96875 9.765625 
L 17.96875 44.921875 
L 15.234375 44.921875 
Q 9.375 44.921875 4.6875 44.53125 
L 4.6875 51.953125 
Q 9.375 51.5625 15.234375 51.5625 
z
M 53.515625 71.875 
Q 52.734375 67.96875 52.921875 52.53125 
Q 53.125 37.109375 52.140625 29.484375 
Q 51.171875 21.875 48.234375 13.078125 
Q 45.3125 4.296875 38.28125 -5.859375 
Q 34.765625 -3.125 30.859375 -1.953125 
Q 39.84375 7.8125 43.15625 21.28125 
Q 46.484375 34.765625 46.09375 52.140625 
Q 45.703125 69.53125 45.3125 73.046875 
Q 49.21875 72.265625 53.515625 71.875 
z
M 91.796875 73.4375 
Q 91.40625 70.3125 91.40625 62.109375 
L 91.40625 9.765625 
Q 91.40625 1.953125 91.796875 -6.25 
L 84.375 -6.25 
Q 84.765625 1.953125 84.765625 9.375 
L 84.765625 62.109375 
Q 84.765625 70.3125 84.375 73.4375 
L 91.796875 73.4375 
z
M 71.875 2.734375 
L 64.453125 2.734375 
Q 64.84375 11.328125 64.84375 17.96875 
L 64.84375 56.25 
Q 64.84375 63.28125 64.453125 67.96875 
L 71.875 67.96875 
z
M 15.625 80.46875 
Q 25.78125 71.875 32.8125 64.0625 
Q 29.296875 61.328125 27.34375 58.59375 
Q 16.40625 71.09375 10.9375 75 
Q 13.28125 77.34375 15.625 80.46875 
z
" id="SimHei-8bad"/>
      <path d="M 51.5625 59.765625 
Q 46.09375 59.765625 37.5 59.375 
L 37.5 66.40625 
Q 46.09375 66.015625 51.953125 66.015625 
L 56.640625 66.015625 
Q 60.546875 77.34375 60.9375 80.859375 
Q 65.625 78.515625 69.53125 76.953125 
Q 67.96875 75.390625 66.59375 72.0625 
Q 65.234375 68.75 64.0625 66.015625 
L 78.515625 66.015625 
Q 84.765625 66.015625 92.1875 66.40625 
L 92.1875 59.375 
Q 86.71875 59.765625 78.515625 59.765625 
L 62.109375 59.765625 
Q 60.15625 55.078125 57.8125 49.21875 
L 73.046875 49.21875 
Q 72.65625 44.921875 72.65625 38.671875 
L 72.65625 30.859375 
L 77.734375 30.859375 
Q 83.59375 30.859375 90.625 31.25 
L 90.625 24.21875 
Q 83.59375 24.609375 77.734375 24.609375 
L 72.65625 24.609375 
L 72.65625 1.953125 
Q 72.65625 -4.6875 69.71875 -6.640625 
Q 66.796875 -8.59375 57.03125 -9.765625 
Q 56.640625 -5.859375 53.90625 -1.5625 
Q 63.671875 -1.953125 64.640625 -0.390625 
Q 65.625 1.171875 65.625 5.078125 
L 65.625 24.609375 
L 53.515625 24.609375 
Q 50.78125 24.609375 48.4375 24.40625 
Q 46.09375 24.21875 42.96875 23.046875 
Q 41.40625 26.953125 39.84375 30.46875 
Q 43.75 31.640625 48.828125 43.359375 
Q 46.09375 43.359375 38.28125 42.96875 
L 38.28125 49.609375 
Q 47.265625 49.21875 50.78125 49.21875 
Q 53.125 55.078125 54.6875 59.765625 
z
M 25.78125 46.09375 
Q 29.296875 51.5625 32.8125 60.9375 
Q 36.328125 58.203125 40.234375 56.25 
Q 36.328125 51.171875 31.640625 42.96875 
Q 26.953125 34.765625 16.796875 21.09375 
Q 20.3125 21.875 37.5 24.609375 
Q 36.71875 20.3125 37.109375 17.96875 
Q 28.515625 17.1875 10.15625 12.890625 
Q 8.203125 16.796875 6.25 19.921875 
Q 9.765625 21.875 13.859375 27.140625 
Q 17.96875 32.421875 22.65625 40.234375 
Q 20.3125 40.625 15.8125 40.03125 
Q 11.328125 39.453125 7.03125 38.28125 
Q 5.46875 41.796875 3.90625 45.703125 
Q 7.8125 48.046875 12.6875 58.203125 
Q 17.578125 68.359375 20.703125 78.125 
Q 25 75.390625 28.90625 74.21875 
Q 25 68.359375 21.671875 61.90625 
Q 18.359375 55.46875 12.5 45.703125 
Q 21.484375 45.703125 25.78125 46.09375 
z
M 37.890625 10.9375 
Q 37.5 6.640625 37.890625 3.90625 
Q 31.25 2.34375 22.84375 -0.390625 
Q 14.453125 -3.125 7.421875 -6.640625 
Q 6.25 -2.34375 4.6875 1.953125 
Q 14.84375 4.296875 18.546875 5.265625 
Q 22.265625 6.25 37.890625 10.9375 
z
M 58.203125 13.671875 
Q 57.03125 12.5 51.359375 6.25 
Q 45.703125 0 38.671875 -7.421875 
Q 35.9375 -3.90625 33.59375 -1.953125 
Q 37.890625 1.5625 42.96875 7.21875 
Q 48.046875 12.890625 51.953125 19.140625 
Q 54.296875 16.40625 58.203125 13.671875 
z
M 82.421875 19.140625 
Q 92.578125 5.859375 96.875 -1.5625 
Q 92.96875 -3.125 89.84375 -5.859375 
Q 85.546875 2.734375 76.5625 14.84375 
Q 79.296875 16.40625 82.421875 19.140625 
z
M 65.625 30.859375 
L 65.625 43.359375 
L 55.859375 43.359375 
Q 51.953125 35.15625 49.609375 30.859375 
z
" id="SimHei-7ec3"/>
      <path d="M 88.28125 75.78125 
Q 87.890625 64.453125 87.890625 53.90625 
L 87.890625 14.84375 
Q 87.890625 4.6875 88.28125 -5.859375 
L 80.46875 -5.859375 
L 80.46875 1.5625 
L 18.359375 1.5625 
L 18.359375 -5.859375 
L 10.9375 -5.859375 
Q 11.328125 3.90625 11.328125 14.84375 
L 11.328125 53.90625 
Q 11.328125 64.0625 10.9375 75.78125 
L 88.28125 75.78125 
z
M 80.46875 7.8125 
L 80.46875 69.140625 
L 18.75 69.140625 
L 18.75 7.8125 
z
M 67.578125 54.6875 
Q 67.1875 48.828125 67.1875 42.96875 
L 67.1875 33.984375 
Q 67.1875 28.90625 67.578125 21.875 
L 31.640625 21.875 
Q 32.03125 28.90625 32.03125 33.984375 
L 32.03125 43.75 
Q 32.03125 49.21875 31.640625 54.6875 
L 67.578125 54.6875 
z
M 59.765625 28.515625 
L 59.765625 48.4375 
L 39.0625 48.4375 
L 39.0625 28.515625 
z
" id="SimHei-56de"/>
      <path d="M 78.90625 28.125 
Q 78.515625 24.21875 78.515625 10.15625 
Q 78.515625 -3.90625 78.90625 -8.203125 
L 70.703125 -8.203125 
L 70.703125 -0.78125 
L 27.34375 -0.78125 
L 27.34375 -9.375 
L 19.53125 -9.375 
Q 19.921875 -4.6875 19.921875 8.59375 
Q 19.921875 22.265625 19.53125 28.125 
L 78.90625 28.125 
z
M 52.734375 75 
Q 64.0625 61.328125 71.09375 56.25 
Q 78.125 51.171875 83.984375 48.4375 
Q 89.84375 45.703125 95.3125 44.140625 
Q 91.40625 39.84375 90.234375 35.9375 
Q 82.421875 39.453125 76.171875 43.359375 
Q 69.921875 47.265625 63.46875 53.3125 
Q 57.03125 59.375 48.828125 69.921875 
Q 41.40625 59.375 34.171875 52.53125 
Q 26.953125 45.703125 21.875 41.796875 
Q 16.796875 37.890625 10.546875 33.984375 
Q 9.765625 35.546875 4.296875 40.234375 
Q 12.5 44.140625 19.921875 49.609375 
Q 27.34375 55.078125 34.765625 63.46875 
Q 42.1875 71.875 46.875 81.640625 
Q 51.171875 78.90625 54.6875 77.34375 
z
M 70.703125 5.46875 
L 70.703125 21.875 
L 27.34375 21.875 
L 27.34375 5.46875 
z
M 61.328125 44.140625 
Q 67.578125 44.140625 72.265625 44.53125 
L 72.265625 37.109375 
Q 67.1875 37.5 61.71875 37.5 
L 39.84375 37.5 
Q 31.640625 37.5 26.5625 37.109375 
L 26.5625 44.53125 
Q 33.984375 44.140625 39.84375 44.140625 
z
" id="SimHei-5408"/>
      <path d="M 70.703125 76.953125 
Q 69.921875 75 68.75 71.671875 
Q 67.578125 68.359375 65.234375 59.765625 
L 83.203125 59.765625 
Q 87.109375 59.765625 92.578125 60.15625 
L 92.578125 53.125 
Q 88.28125 53.515625 85.9375 53.515625 
Q 85.9375 47.265625 83.78125 33.78125 
Q 81.640625 20.3125 76.171875 10.546875 
Q 80.078125 5.859375 84.953125 2.140625 
Q 89.84375 -1.5625 94.140625 -3.125 
Q 89.453125 -6.640625 87.890625 -9.765625 
Q 83.203125 -7.03125 79.296875 -3.515625 
Q 75.390625 0 71.484375 5.078125 
Q 67.1875 0.390625 62.296875 -2.921875 
Q 57.421875 -6.25 50 -10.15625 
Q 48.046875 -6.640625 44.53125 -4.6875 
Q 50.390625 -2.34375 57.03125 1.953125 
Q 63.671875 6.25 67.1875 10.546875 
Q 64.453125 16.015625 61.90625 22.265625 
Q 59.375 28.515625 57.421875 38.671875 
Q 56.25 35.546875 53.515625 30.46875 
Q 50.78125 32.03125 46.875 33.59375 
Q 53.125 44.53125 57.03125 57.421875 
Q 60.9375 70.3125 62.109375 79.6875 
Q 66.796875 77.734375 70.703125 76.953125 
z
M 32.8125 35.15625 
Q 31.25 33.59375 29.296875 30.078125 
L 50.78125 30.078125 
Q 48.4375 20.3125 42.578125 10.546875 
Q 48.828125 8.203125 52.34375 6.25 
Q 50.390625 3.515625 48.828125 0.390625 
Q 45.3125 2.734375 38.28125 5.078125 
Q 30.46875 -3.515625 11.328125 -10.15625 
Q 9.375 -5.859375 6.25 -4.296875 
Q 24.609375 0 31.25 7.421875 
Q 20.3125 10.15625 13.28125 12.109375 
Q 15.625 15.625 19.53125 23.828125 
Q 15.625 23.828125 6.640625 23.4375 
L 6.640625 30.46875 
Q 14.0625 30.078125 21.875 30.078125 
Q 23.4375 33.59375 24.21875 37.890625 
Q 28.515625 36.328125 32.8125 35.15625 
z
M 27.734375 61.71875 
Q 27.734375 71.09375 27.34375 79.6875 
L 35.15625 79.6875 
Q 34.765625 71.484375 34.765625 61.71875 
Q 48.046875 61.71875 53.515625 62.109375 
L 53.515625 55.078125 
Q 48.046875 55.46875 34.765625 55.46875 
Q 34.765625 44.140625 35.15625 37.890625 
L 27.34375 37.890625 
Q 27.734375 43.359375 27.734375 51.5625 
Q 25.78125 48.4375 20.3125 43.546875 
Q 14.84375 38.671875 10.15625 35.9375 
Q 8.203125 39.453125 4.296875 41.015625 
Q 7.8125 42.1875 13.671875 46.484375 
Q 19.53125 50.78125 22.65625 55.46875 
Q 14.84375 55.46875 7.8125 55.078125 
L 7.8125 62.109375 
Q 14.453125 61.71875 27.734375 61.71875 
z
M 62.109375 49.609375 
Q 65.625 26.5625 71.875 17.578125 
Q 75.78125 26.5625 77.140625 35.734375 
Q 78.515625 44.921875 78.90625 53.515625 
L 63.671875 53.515625 
L 62.109375 49.609375 
z
M 22.65625 15.625 
Q 27.34375 14.453125 35.546875 12.5 
Q 38.671875 16.40625 41.40625 23.828125 
L 26.953125 23.828125 
Q 25 19.921875 22.65625 15.625 
z
M 51.953125 75.390625 
Q 50 72.265625 48.828125 69.53125 
Q 47.65625 66.796875 45.703125 62.890625 
Q 42.578125 64.453125 39.453125 65.234375 
Q 42.578125 70.3125 45.3125 78.125 
Q 49.21875 76.171875 51.953125 75.390625 
z
M 40.234375 52.734375 
Q 45.3125 47.65625 50 42.578125 
Q 47.65625 40.625 44.921875 37.890625 
Q 39.453125 44.53125 35.9375 48.4375 
Q 38.28125 50.390625 40.234375 52.734375 
z
M 14.453125 78.125 
Q 19.921875 72.65625 23.4375 67.1875 
L 17.578125 63.671875 
Q 14.84375 69.140625 9.375 73.828125 
Q 12.890625 76.171875 14.453125 78.125 
z
" id="SimHei-6570"/>
     </defs>
     <g transform="translate(134.18875 164.735937)scale(0.1 -0.1)">
      <use xlink:href="#SimHei-8bad"/>
      <use x="100" xlink:href="#SimHei-7ec3"/>
      <use x="200" xlink:href="#SimHei-56de"/>
      <use x="300" xlink:href="#SimHei-5408"/>
      <use x="400" xlink:href="#SimHei-6570"/>
     </g>
    </g>
   </g>
   <g id="matplotlib.axis_2">
    <g id="ytick_1">
     <g id="line2d_6">
      <defs>
       <path d="M 0 0 
L -3.5 0 
" id="m2fa42c1aef" style="stroke:#000000;stroke-width:0.8;"/>
      </defs>
      <g>
       <use style="stroke:#000000;stroke-width:0.8;" x="47.41875" xlink:href="#m2fa42c1aef" y="118.389172"/>
      </g>
     </g>
     <g id="text_7">
      <!-- -200 -->
      <defs>
       <path d="M 46.484375 33.203125 
L 1.953125 33.203125 
L 1.953125 39.453125 
L 46.484375 39.453125 
z
" id="SimHei-2d"/>
      </defs>
      <g transform="translate(20.41875 121.826672)scale(0.1 -0.1)">
       <use xlink:href="#SimHei-2d"/>
       <use x="50" xlink:href="#SimHei-32"/>
       <use x="100" xlink:href="#SimHei-30"/>
       <use x="150" xlink:href="#SimHei-30"/>
      </g>
     </g>
    </g>
    <g id="ytick_2">
     <g id="line2d_7">
      <g>
       <use style="stroke:#000000;stroke-width:0.8;" x="47.41875" xlink:href="#m2fa42c1aef" y="95.072933"/>
      </g>
     </g>
     <g id="text_8">
      <!-- -100 -->
      <g transform="translate(20.41875 98.510433)scale(0.1 -0.1)">
       <use xlink:href="#SimHei-2d"/>
       <use x="50" xlink:href="#SimHei-31"/>
       <use x="100" xlink:href="#SimHei-30"/>
       <use x="150" xlink:href="#SimHei-30"/>
      </g>
     </g>
    </g>
    <g id="ytick_3">
     <g id="line2d_8">
      <g>
       <use style="stroke:#000000;stroke-width:0.8;" x="47.41875" xlink:href="#m2fa42c1aef" y="71.756694"/>
      </g>
     </g>
     <g id="text_9">
      <!-- 0 -->
      <g transform="translate(35.41875 75.194194)scale(0.1 -0.1)">
       <use xlink:href="#SimHei-30"/>
      </g>
     </g>
    </g>
    <g id="ytick_4">
     <g id="line2d_9">
      <g>
       <use style="stroke:#000000;stroke-width:0.8;" x="47.41875" xlink:href="#m2fa42c1aef" y="48.440454"/>
      </g>
     </g>
     <g id="text_10">
      <!-- 100 -->
      <g transform="translate(25.41875 51.877954)scale(0.1 -0.1)">
       <use xlink:href="#SimHei-31"/>
       <use x="50" xlink:href="#SimHei-30"/>
       <use x="100" xlink:href="#SimHei-30"/>
      </g>
     </g>
    </g>
    <g id="ytick_5">
     <g id="line2d_10">
      <g>
       <use style="stroke:#000000;stroke-width:0.8;" x="47.41875" xlink:href="#m2fa42c1aef" y="25.124215"/>
      </g>
     </g>
     <g id="text_11">
      <!-- 200 -->
      <g transform="translate(25.41875 28.561715)scale(0.1 -0.1)">
       <use xlink:href="#SimHei-32"/>
       <use x="50" xlink:href="#SimHei-30"/>
       <use x="100" xlink:href="#SimHei-30"/>
      </g>
     </g>
    </g>
    <g id="text_12">
     <!-- 平均奖赏值 -->
     <defs>
      <path d="M 70.703125 75.390625 
Q 76.5625 75.390625 85.15625 75.78125 
L 85.15625 68.359375 
Q 76.953125 68.75 70.703125 68.75 
L 54.296875 68.75 
L 54.296875 31.640625 
L 78.125 31.640625 
Q 86.71875 31.640625 94.140625 32.03125 
L 94.140625 24.609375 
Q 86.71875 25 78.125 25 
L 54.296875 25 
L 54.296875 7.03125 
Q 54.296875 -1.5625 54.6875 -9.375 
L 45.703125 -9.375 
Q 46.09375 -1.5625 46.09375 7.03125 
L 46.09375 25 
L 17.578125 25 
Q 12.109375 25 5.859375 24.609375 
L 5.859375 32.03125 
Q 12.109375 31.640625 18.359375 31.640625 
L 46.09375 31.640625 
L 46.09375 68.75 
L 27.734375 68.75 
Q 21.875 68.75 13.671875 68.359375 
L 13.671875 75.78125 
Q 21.875 75.390625 27.34375 75.390625 
z
M 61.328125 40.625 
Q 70.3125 51.5625 76.5625 64.453125 
Q 80.46875 61.71875 84.375 59.765625 
Q 74.609375 44.53125 67.96875 35.9375 
Q 64.84375 38.671875 61.328125 40.625 
z
M 30.859375 36.71875 
Q 25 48.4375 16.40625 58.203125 
Q 19.53125 60.546875 22.65625 63.28125 
Q 32.421875 51.5625 38.28125 42.578125 
Q 33.59375 39.0625 30.859375 36.71875 
z
" id="SimHei-5e73"/>
      <path d="M 90.234375 4.296875 
Q 90.234375 -5.078125 83.78125 -7.03125 
Q 77.34375 -8.984375 69.140625 -9.375 
Q 68.359375 -4.296875 66.40625 0.390625 
Q 77.34375 -0.390625 80.078125 0.96875 
Q 82.8125 2.34375 82.8125 7.8125 
L 83.984375 57.8125 
L 55.46875 57.8125 
Q 53.515625 52.734375 50.96875 47.453125 
Q 48.4375 42.1875 45.703125 37.5 
Q 41.796875 39.84375 38.671875 41.015625 
Q 49.21875 56.640625 54.6875 81.25 
Q 59.375 79.6875 63.671875 78.515625 
Q 62.109375 76.171875 60.546875 72.65625 
Q 58.984375 69.140625 57.421875 64.453125 
L 92.1875 64.453125 
L 90.234375 4.296875 
z
M 19.53125 56.640625 
L 19.53125 68.359375 
Q 19.53125 74.609375 19.140625 79.6875 
L 27.734375 79.6875 
Q 27.34375 73.828125 27.34375 68.359375 
L 27.34375 56.640625 
L 29.6875 56.640625 
Q 34.375 56.640625 39.453125 57.03125 
L 39.453125 49.21875 
Q 34.375 49.609375 29.6875 49.609375 
L 27.34375 49.609375 
L 27.34375 17.1875 
L 39.0625 21.484375 
Q 38.671875 17.578125 39.453125 14.0625 
Q 19.140625 7.421875 15.03125 5.65625 
Q 10.9375 3.90625 7.421875 2.34375 
Q 5.859375 7.421875 3.90625 11.71875 
Q 8.984375 12.5 12.5 13.28125 
Q 16.015625 14.0625 19.53125 15.234375 
L 19.53125 49.609375 
L 17.578125 49.609375 
Q 13.28125 49.609375 6.25 49.21875 
L 6.25 57.03125 
Q 13.28125 56.640625 17.1875 56.640625 
z
M 77.34375 25.390625 
Q 73.046875 22.265625 64.640625 16.40625 
Q 56.25 10.546875 49.609375 4.6875 
Q 46.875 8.984375 44.53125 12.109375 
Q 52.34375 16.40625 58.78125 20.703125 
Q 65.234375 25 74.609375 32.421875 
Q 75.390625 28.90625 77.34375 25.390625 
z
M 58.984375 49.21875 
Q 64.453125 43.75 69.921875 35.9375 
Q 66.40625 33.203125 64.0625 30.859375 
Q 60.9375 36.328125 53.90625 44.140625 
Q 56.25 46.875 58.984375 49.21875 
z
" id="SimHei-5747"/>
      <path d="M 79.296875 24.609375 
Q 88.28125 24.609375 94.921875 25 
L 94.921875 17.578125 
Q 88.671875 18.75 79.296875 18.359375 
L 55.46875 18.359375 
Q 62.109375 9.375 73.625 4.6875 
Q 85.15625 0 96.09375 -0.78125 
Q 93.75 -3.515625 91.40625 -8.59375 
Q 83.59375 -7.03125 77.734375 -5.078125 
Q 71.875 -3.125 64.640625 1.359375 
Q 57.421875 5.859375 50.78125 13.671875 
Q 47.265625 8.59375 43.75 5.46875 
Q 40.234375 2.34375 35.15625 -0.78125 
Q 30.078125 -3.90625 24.40625 -5.859375 
Q 18.75 -7.8125 10.9375 -9.765625 
Q 9.375 -5.859375 6.25 -1.953125 
Q 13.671875 -1.171875 19.71875 0.578125 
Q 25.78125 2.34375 30.65625 4.875 
Q 35.546875 7.421875 39.0625 10.734375 
Q 42.578125 14.0625 44.53125 18.359375 
L 20.703125 18.359375 
Q 12.890625 18.359375 5.46875 17.96875 
L 5.46875 25 
Q 12.890625 24.609375 20.703125 24.609375 
L 46.09375 24.609375 
Q 46.484375 27.34375 46.484375 30.46875 
Q 54.296875 29.296875 55.46875 29.296875 
Q 54.296875 26.953125 53.90625 24.609375 
z
M 67.578125 78.125 
Q 64.453125 75 61.328125 70.3125 
L 92.1875 70.3125 
Q 88.671875 61.71875 85.34375 56.046875 
Q 82.03125 50.390625 77.921875 45.890625 
Q 73.828125 41.40625 66.984375 37.5 
Q 60.15625 33.59375 47.65625 30.859375 
Q 45.703125 34.375 42.96875 37.890625 
Q 54.6875 38.28125 64.0625 43.75 
L 53.515625 50.78125 
Q 55.859375 53.515625 57.8125 56.25 
Q 61.71875 53.90625 64.0625 52.140625 
Q 66.40625 50.390625 69.921875 48.046875 
Q 76.5625 53.90625 80.859375 64.0625 
L 57.421875 64.0625 
Q 55.46875 61.71875 52.734375 58.59375 
Q 50 55.46875 45.3125 50 
Q 42.1875 52.734375 38.671875 54.296875 
Q 44.53125 59.375 49.796875 66.40625 
Q 55.078125 73.4375 58.59375 81.640625 
Q 63.671875 79.296875 67.578125 78.125 
z
M 38.28125 80.859375 
Q 37.890625 76.171875 37.890625 69.921875 
L 37.890625 44.921875 
Q 37.890625 39.0625 38.28125 30.859375 
L 30.078125 30.859375 
Q 30.46875 39.0625 30.46875 44.921875 
L 30.46875 47.65625 
Q 19.140625 40.234375 11.71875 35.546875 
Q 8.984375 39.84375 6.25 42.1875 
Q 12.890625 44.140625 30.46875 55.078125 
L 30.46875 69.921875 
Q 30.46875 75.78125 30.078125 80.859375 
L 38.28125 80.859375 
z
M 15.625 73.4375 
Q 23.046875 67.578125 28.125 62.890625 
L 22.265625 57.03125 
Q 17.1875 62.5 10.546875 67.96875 
Q 13.28125 70.3125 15.625 73.4375 
z
" id="SimHei-5956"/>
      <path d="M 76.953125 34.375 
L 23.4375 34.375 
Q 23.828125 39.453125 23.828125 44.140625 
Q 23.828125 48.828125 23.4375 53.125 
L 76.953125 53.125 
z
M 82.421875 76.171875 
Q 78.515625 73.4375 73.046875 65.234375 
L 91.015625 65.234375 
Q 90.625 61.328125 90.625 57.421875 
Q 90.625 53.90625 91.015625 49.21875 
L 83.203125 49.21875 
L 83.203125 59.375 
L 17.1875 59.375 
L 17.1875 47.65625 
L 9.375 47.65625 
Q 9.765625 52.34375 9.765625 56.640625 
Q 9.765625 61.328125 9.375 65.234375 
L 28.90625 65.234375 
Q 23.828125 71.875 19.921875 76.5625 
L 26.171875 80.46875 
Q 31.25 75.390625 35.546875 68.75 
Q 32.421875 66.796875 29.6875 65.234375 
L 46.484375 65.234375 
Q 46.484375 73.046875 46.09375 80.859375 
L 54.296875 80.859375 
Q 53.90625 73.828125 53.90625 65.234375 
L 65.234375 65.234375 
Q 71.875 75 73.046875 79.6875 
Q 77.734375 77.34375 82.421875 76.171875 
z
M 81.25 28.90625 
Q 80.859375 24.21875 80.859375 18.75 
Q 80.859375 13.28125 81.25 8.59375 
L 73.4375 8.59375 
L 73.4375 23.046875 
L 26.953125 23.046875 
L 26.953125 7.03125 
L 19.140625 7.03125 
Q 19.53125 12.5 19.53125 17.96875 
Q 19.53125 23.4375 19.140625 28.90625 
L 81.25 28.90625 
z
M 54.296875 17.1875 
Q 50 5.078125 45.3125 1.171875 
Q 40.625 -2.734375 33.390625 -5.65625 
Q 26.171875 -8.59375 12.890625 -10.546875 
Q 12.109375 -7.03125 7.8125 -2.734375 
Q 18.359375 -2.34375 25.390625 -0.578125 
Q 32.421875 1.171875 38.28125 5.46875 
Q 44.140625 9.765625 45.3125 19.53125 
L 54.296875 17.1875 
z
M 69.140625 39.84375 
L 69.140625 47.265625 
L 31.25 47.265625 
L 31.25 39.84375 
z
M 61.328125 10.15625 
Q 78.515625 3.515625 90.234375 -3.90625 
Q 86.71875 -6.640625 84.375 -10.15625 
Q 76.5625 -3.90625 56.640625 3.90625 
Q 59.765625 7.8125 61.328125 10.15625 
z
" id="SimHei-8d4f"/>
      <path d="M 57.421875 69.53125 
L 57.421875 79.6875 
Q 62.109375 79.296875 67.96875 78.90625 
Q 66.015625 76.171875 65.625 69.53125 
L 80.078125 69.53125 
Q 86.71875 69.53125 91.796875 69.921875 
L 91.796875 62.890625 
Q 86.328125 63.28125 80.078125 63.28125 
L 65.234375 63.28125 
L 64.453125 54.6875 
L 84.375 54.6875 
Q 83.984375 50 83.984375 42.1875 
L 83.984375 2.34375 
Q 91.796875 2.34375 95.3125 2.734375 
L 95.3125 -4.296875 
Q 90.234375 -3.90625 81.25 -3.90625 
L 44.53125 -3.90625 
Q 35.546875 -3.90625 29.6875 -4.296875 
L 29.6875 2.734375 
Q 33.203125 2.34375 40.625 2.34375 
L 40.625 42.1875 
Q 40.625 49.609375 40.234375 54.6875 
L 56.25 54.6875 
L 57.03125 63.28125 
L 50 63.28125 
Q 40.234375 63.28125 34.765625 62.890625 
L 34.765625 69.921875 
Q 39.84375 69.53125 50 69.53125 
z
M 34.765625 76.5625 
Q 31.640625 73.046875 25.78125 58.59375 
L 25.78125 7.03125 
Q 25.78125 -1.171875 26.171875 -8.59375 
L 17.96875 -8.59375 
Q 18.359375 -1.953125 18.359375 5.859375 
L 18.359375 46.09375 
Q 13.671875 38.28125 9.765625 33.59375 
Q 6.640625 37.890625 3.90625 40.234375 
Q 7.8125 44.140625 14.640625 55.265625 
Q 21.484375 66.40625 25.390625 80.46875 
Q 30.859375 77.734375 34.765625 76.5625 
z
M 76.953125 41.40625 
L 76.953125 49.21875 
L 48.046875 49.21875 
L 48.046875 41.40625 
z
M 76.953125 2.34375 
L 76.953125 9.765625 
L 48.046875 9.765625 
L 48.046875 2.34375 
z
M 76.953125 15.625 
L 76.953125 22.65625 
L 48.046875 22.65625 
L 48.046875 15.625 
z
M 76.953125 28.515625 
L 76.953125 35.546875 
L 48.046875 35.546875 
L 48.046875 28.515625 
z
" id="SimHei-503c"/>
     </defs>
     <g transform="translate(15.16875 99.190625)rotate(-90)scale(0.1 -0.1)">
      <use xlink:href="#SimHei-5e73"/>
      <use x="100" xlink:href="#SimHei-5747"/>
      <use x="200" xlink:href="#SimHei-5956"/>
      <use x="300" xlink:href="#SimHei-8d4f"/>
      <use x="400" xlink:href="#SimHei-503c"/>
     </g>
    </g>
   </g>
   <g id="line2d_11">
    <path clip-path="url(#p40855e764f)" d="M 57.579659 71.722583 
L 59.622053 91.774332 
L 60.64325 97.908662 
L 61.664447 95.332309 
L 62.685644 99.34422 
L 63.70684 99.408851 
L 64.728037 101.980092 
L 65.749234 99.79046 
L 66.770431 101.358234 
L 67.791628 101.462001 
L 68.812825 102.097055 
L 69.834022 102.116409 
L 70.855219 101.795861 
L 71.876416 101.669543 
L 72.897612 102.717101 
L 73.918809 102.00325 
L 74.940006 101.971412 
L 75.961203 101.165183 
L 76.9824 100.93117 
L 79.024794 99.706937 
L 80.045991 99.448725 
L 81.067188 98.084434 
L 82.088385 97.302652 
L 83.109581 97.665058 
L 84.130778 97.497785 
L 85.151975 96.826532 
L 86.173172 95.328915 
L 87.194369 95.641583 
L 88.215566 97.511146 
L 89.236763 97.063194 
L 90.25796 96.870144 
L 91.279157 96.463351 
L 92.300353 96.845813 
L 94.342747 96.005893 
L 95.363944 96.391223 
L 96.385141 95.935894 
L 97.406338 95.799518 
L 98.427535 94.665932 
L 100.469929 93.83261 
L 101.491126 91.589385 
L 102.512322 91.532165 
L 103.533519 89.291284 
L 104.554716 89.214555 
L 105.575913 88.915677 
L 106.59711 88.252318 
L 107.618307 88.169362 
L 108.639504 87.561192 
L 109.660701 87.436404 
L 110.681898 86.582845 
L 111.703094 84.855856 
L 112.724291 85.972852 
L 113.745488 86.460833 
L 114.766685 85.810587 
L 115.787882 85.561654 
L 116.809079 86.159083 
L 117.830276 87.776297 
L 118.851473 85.837468 
L 119.87267 81.803489 
L 120.893866 80.710163 
L 121.915063 78.856957 
L 122.93626 78.464759 
L 123.957457 75.03512 
L 124.978654 73.613171 
L 125.999851 73.109836 
L 127.021048 70.355518 
L 128.042245 69.28248 
L 129.063442 68.99171 
L 130.084639 69.17077 
L 131.105835 68.589027 
L 132.127032 68.153253 
L 133.148229 69.288427 
L 134.169426 68.612765 
L 135.190623 69.831114 
L 136.21182 68.253271 
L 137.233017 68.231755 
L 138.254214 66.443039 
L 139.275411 66.528632 
L 140.296607 66.415252 
L 141.317804 64.186885 
L 142.339001 62.876726 
L 143.360198 64.0854 
L 144.381395 63.327661 
L 145.402592 61.673785 
L 146.423789 61.234896 
L 148.466183 57.457291 
L 149.48738 56.305638 
L 150.508576 57.929308 
L 151.529773 57.971896 
L 152.55097 59.490884 
L 153.572167 60.533313 
L 154.593364 59.856162 
L 155.614561 59.419047 
L 156.635758 60.447678 
L 157.656955 58.138172 
L 158.678152 58.172737 
L 159.699348 56.648904 
L 161.741742 56.22101 
L 162.762939 54.886513 
L 163.784136 54.385867 
L 164.805333 53.055474 
L 165.82653 52.827269 
L 166.847727 51.883709 
L 167.868924 52.19838 
L 168.89012 51.865382 
L 169.911317 53.612376 
L 170.932514 52.163358 
L 172.974908 52.049755 
L 173.996105 53.698531 
L 176.038499 53.480825 
L 177.059696 53.266167 
L 178.080893 53.556672 
L 179.102089 53.268478 
L 180.123286 52.306563 
L 181.144483 50.824117 
L 182.16568 50.341293 
L 183.186877 50.523352 
L 184.208074 48.828822 
L 186.250468 50.099267 
L 187.271665 49.930015 
L 188.292861 48.213245 
L 189.314058 49.905609 
L 190.335255 51.904751 
L 192.377649 50.875345 
L 193.398846 48.421475 
L 194.420043 48.598878 
L 195.44124 47.268269 
L 196.462437 46.966051 
L 197.483634 45.386875 
L 198.50483 44.449755 
L 200.547224 40.431653 
L 201.568421 40.447176 
L 202.589618 40.949682 
L 203.610815 39.164847 
L 204.632012 39.087358 
L 205.653209 37.997437 
L 206.674406 36.167578 
L 207.695602 34.820895 
L 208.716799 34.019966 
L 209.737996 31.516361 
L 210.759193 33.627618 
L 211.78039 34.180685 
L 212.801587 35.828673 
L 213.822784 34.754968 
L 214.843981 34.674575 
L 215.865178 34.43985 
L 216.886374 35.455185 
L 217.907571 33.301819 
L 218.928768 33.737352 
L 219.949965 33.815098 
L 220.971162 31.808537 
L 221.992359 29.417235 
L 223.013556 29.545171 
L 224.034753 28.599869 
L 225.05595 28.714128 
L 226.077147 27.910713 
L 227.098343 27.282956 
L 228.11954 28.988292 
L 229.140737 28.572741 
L 230.161934 28.727817 
L 231.183131 28.506703 
L 232.204328 28.464291 
L 233.225525 29.097598 
L 234.246722 27.574541 
L 235.267919 28.798254 
L 236.289115 28.540058 
L 237.310312 29.077389 
L 238.331509 28.701138 
L 239.352706 27.9473 
L 240.373903 27.878277 
L 241.3951 28.033314 
L 242.416297 25.446481 
L 243.437494 25.075743 
L 244.458691 22.939437 
L 245.479888 21.713332 
L 246.501084 20.921536 
L 247.522281 20.722255 
L 248.543478 17.218382 
L 249.564675 16.708017 
L 250.585872 17.37349 
L 254.67066 16.932773 
L 255.691856 17.483952 
L 257.73425 17.428258 
L 258.755447 18.546808 
L 259.776644 16.471875 
L 260.797841 18.467325 
L 260.797841 18.467325 
" style="fill:none;stroke:#ff6347;stroke-linecap:square;stroke-width:1.5;"/>
   </g>
   <g id="line2d_12">
    <path clip-path="url(#p40855e764f)" d="M 57.579659 94.425725 
L 58.600856 93.530557 
L 59.622053 102.267964 
L 60.64325 123.772274 
L 61.664447 116.413897 
L 62.685644 114.96176 
L 63.70684 122.086505 
L 64.728037 122.699457 
L 65.749234 124.381212 
L 66.770431 121.266723 
L 67.791628 118.82122 
L 68.812825 118.036737 
L 70.855219 114.458789 
L 71.876416 113.036875 
L 72.897612 111.848804 
L 73.918809 111.805937 
L 74.940006 111.389742 
L 78.003597 106.739345 
L 79.024794 106.352825 
L 80.045991 104.921174 
L 81.067188 104.181285 
L 82.088385 102.579698 
L 83.109581 100.699481 
L 85.151975 98.467346 
L 86.173172 99.088541 
L 88.215566 97.22818 
L 89.236763 96.804133 
L 90.25796 97.739636 
L 91.279157 98.309291 
L 92.300353 96.274773 
L 93.32155 97.759821 
L 94.342747 96.922932 
L 96.385141 93.427732 
L 97.406338 92.541575 
L 98.427535 90.100821 
L 99.448732 90.037852 
L 100.469929 89.028514 
L 101.491126 89.700565 
L 102.512322 89.623001 
L 103.533519 89.954246 
L 104.554716 89.907346 
L 105.575913 89.100118 
L 106.59711 88.765722 
L 107.618307 88.757149 
L 109.660701 89.192065 
L 110.681898 88.148662 
L 111.703094 88.394963 
L 112.724291 86.863892 
L 113.745488 85.124972 
L 114.766685 84.666642 
L 115.787882 85.240537 
L 116.809079 85.494159 
L 117.830276 84.536942 
L 118.851473 83.169626 
L 119.87267 83.869646 
L 120.893866 83.378439 
L 123.957457 75.542243 
L 124.978654 74.182857 
L 127.021048 72.647933 
L 128.042245 72.133119 
L 129.063442 69.794852 
L 130.084639 71.845625 
L 131.105835 71.71422 
L 132.127032 71.143328 
L 133.148229 69.60849 
L 134.169426 69.864586 
L 135.190623 69.21608 
L 136.21182 68.281631 
L 138.254214 66.822121 
L 139.275411 66.686312 
L 140.296607 65.005124 
L 141.317804 64.821322 
L 142.339001 63.093852 
L 143.360198 63.589522 
L 144.381395 62.616667 
L 145.402592 64.518519 
L 146.423789 63.756216 
L 147.444986 62.410009 
L 149.48738 62.528407 
L 150.508576 62.793155 
L 151.529773 63.341739 
L 152.55097 63.71303 
L 153.572167 64.765179 
L 154.593364 63.471999 
L 155.614561 64.50636 
L 156.635758 64.05085 
L 157.656955 64.705943 
L 158.678152 64.23368 
L 159.699348 64.528739 
L 160.720545 65.138579 
L 161.741742 64.84993 
L 162.762939 64.857763 
L 164.805333 65.521991 
L 165.82653 65.352066 
L 166.847727 65.946946 
L 167.868924 64.394133 
L 168.89012 63.469837 
L 169.911317 63.772975 
L 170.932514 63.440698 
L 171.953711 64.496447 
L 172.974908 64.409487 
L 173.996105 66.618328 
L 175.017302 65.972733 
L 176.038499 67.970365 
L 177.059696 67.888405 
L 178.080893 69.847744 
L 179.102089 71.526807 
L 180.123286 70.999871 
L 181.144483 71.058356 
L 182.16568 70.027122 
L 183.186877 67.083109 
L 184.208074 65.025829 
L 186.250468 64.826926 
L 187.271665 63.031217 
L 189.314058 58.694799 
L 190.335255 58.496296 
L 191.356452 57.055242 
L 192.377649 55.941466 
L 193.398846 54.009531 
L 194.420043 51.656311 
L 195.44124 49.812005 
L 196.462437 49.221798 
L 197.483634 46.657736 
L 198.50483 43.725847 
L 199.526027 43.901429 
L 200.547224 43.01586 
L 201.568421 40.894299 
L 204.632012 35.387853 
L 206.674406 31.145718 
L 207.695602 29.437391 
L 208.716799 28.6099 
L 209.737996 26.371033 
L 210.759193 23.427953 
L 211.78039 21.634649 
L 212.801587 19.246683 
L 213.822784 18.935635 
L 214.843981 18.853491 
L 215.865178 18.971487 
L 216.886374 17.662146 
L 217.907571 17.657559 
L 218.928768 18.898463 
L 219.949965 19.13246 
L 220.971162 20.087693 
L 221.992359 18.266604 
L 223.013556 18.002345 
L 225.05595 17.67698 
L 226.077147 18.520937 
L 227.098343 18.658579 
L 228.11954 17.363459 
L 229.140737 17.973509 
L 230.161934 19.938835 
L 231.183131 19.91454 
L 232.204328 21.588269 
L 233.225525 23.564215 
L 236.289115 23.908415 
L 237.310312 23.720252 
L 238.331509 23.853161 
L 239.352706 24.407459 
L 240.373903 23.432145 
L 241.3951 23.811421 
L 243.437494 24.178932 
L 244.458691 25.993447 
L 245.479888 26.721213 
L 246.501084 26.587898 
L 247.522281 27.05105 
L 248.543478 28.344156 
L 249.564675 30.15402 
L 250.585872 29.070214 
L 251.607069 29.255499 
L 252.628266 28.71186 
L 253.649463 29.181287 
L 254.67066 29.7784 
L 255.691856 30.019607 
L 256.713053 30.392221 
L 257.73425 29.834375 
L 260.797841 29.258257 
L 260.797841 29.258257 
" style="fill:none;stroke:#008000;stroke-dasharray:5.55,2.4;stroke-dashoffset:0;stroke-width:1.5;"/>
   </g>
   <g id="line2d_13">
    <path clip-path="url(#p40855e764f)" d="M 57.579659 100.805326 
L 58.600856 128.485723 
L 59.622053 131.909375 
L 60.64325 121.647673 
L 61.664447 116.640857 
L 62.685644 113.569404 
L 63.70684 118.017661 
L 64.728037 119.243839 
L 65.749234 115.902444 
L 66.770431 110.311365 
L 67.791628 111.827507 
L 68.812825 109.97631 
L 69.834022 107.560841 
L 70.855219 105.448749 
L 71.876416 105.110533 
L 72.897612 104.517338 
L 73.918809 104.899376 
L 74.940006 105.934867 
L 75.961203 105.92424 
L 76.9824 104.803445 
L 78.003597 104.529767 
L 79.024794 102.959757 
L 80.045991 102.76049 
L 81.067188 102.309263 
L 82.088385 102.7611 
L 84.130778 104.506461 
L 86.173172 103.144754 
L 87.194369 103.116403 
L 88.215566 102.863287 
L 89.236763 102.315942 
L 90.25796 103.868103 
L 91.279157 106.259739 
L 92.300353 106.34209 
L 93.32155 107.71204 
L 94.342747 107.987939 
L 95.363944 105.870931 
L 96.385141 104.937913 
L 97.406338 104.605522 
L 98.427535 105.478607 
L 99.448732 104.702401 
L 100.469929 104.835252 
L 101.491126 103.661195 
L 102.512322 104.537797 
L 103.533519 104.564216 
L 104.554716 104.386483 
L 105.575913 104.483187 
L 106.59711 103.867426 
L 107.618307 103.562669 
L 108.639504 103.436047 
L 109.660701 102.883284 
L 110.681898 103.566751 
L 111.703094 103.284975 
L 112.724291 103.609953 
L 113.745488 103.073235 
L 114.766685 101.823509 
L 115.787882 100.865289 
L 116.809079 101.113612 
L 117.830276 101.016471 
L 118.851473 99.660441 
L 120.893866 97.905774 
L 121.915063 94.358951 
L 122.93626 88.67136 
L 123.957457 88.541914 
L 124.978654 85.946037 
L 125.999851 84.597205 
L 127.021048 82.848163 
L 128.042245 80.820174 
L 129.063442 80.942155 
L 130.084639 80.764709 
L 131.105835 78.116735 
L 132.127032 76.729903 
L 133.148229 76.844388 
L 134.169426 76.280075 
L 135.190623 73.894282 
L 136.21182 73.474768 
L 138.254214 71.574416 
L 139.275411 70.863911 
L 140.296607 71.193058 
L 141.317804 71.334301 
L 142.339001 71.052954 
L 143.360198 70.939855 
L 144.381395 70.245128 
L 146.423789 66.019733 
L 147.444986 65.690371 
L 149.48738 64.785857 
L 150.508576 65.205568 
L 151.529773 64.069056 
L 152.55097 63.601472 
L 153.572167 61.570959 
L 154.593364 61.571476 
L 156.635758 60.545482 
L 157.656955 59.230446 
L 158.678152 58.462468 
L 159.699348 58.359778 
L 160.720545 57.742195 
L 161.741742 56.187242 
L 162.762939 56.049009 
L 163.784136 54.789334 
L 164.805333 55.649287 
L 165.82653 53.28169 
L 166.847727 52.549929 
L 167.868924 50.712719 
L 168.89012 49.307693 
L 170.932514 45.179311 
L 172.974908 43.581392 
L 173.996105 41.315504 
L 175.017302 39.574813 
L 176.038499 39.260926 
L 177.059696 40.757769 
L 178.080893 42.6491 
L 179.102089 41.015195 
L 180.123286 40.882664 
L 181.144483 41.681999 
L 182.16568 40.416832 
L 183.186877 40.718345 
L 184.208074 39.998484 
L 185.229271 41.604941 
L 186.250468 43.457847 
L 187.271665 43.456408 
L 188.292861 44.523661 
L 189.314058 46.119521 
L 190.335255 48.816211 
L 191.356452 51.057447 
L 192.377649 51.351371 
L 193.398846 52.848075 
L 195.44124 56.951253 
L 196.462437 57.212373 
L 197.483634 60.525262 
L 199.526027 64.625717 
L 200.547224 64.21091 
L 201.568421 65.945493 
L 202.589618 66.737486 
L 203.610815 65.772308 
L 204.632012 66.206484 
L 205.653209 68.277466 
L 206.674406 68.187642 
L 207.695602 66.194638 
L 208.716799 64.608774 
L 209.737996 64.598925 
L 210.759193 64.30988 
L 212.801587 59.633538 
L 213.822784 59.047013 
L 214.843981 58.998891 
L 215.865178 60.404667 
L 216.886374 58.302979 
L 217.907571 55.619738 
L 218.928768 53.709783 
L 220.971162 53.113347 
L 221.992359 52.375147 
L 223.013556 50.50336 
L 225.05595 47.16961 
L 227.098343 43.095508 
L 228.11954 40.772048 
L 229.140737 37.937088 
L 230.161934 36.331651 
L 231.183131 34.119127 
L 232.204328 33.757003 
L 233.225525 33.785045 
L 234.246722 33.213346 
L 235.267919 33.744052 
L 237.310312 34.17771 
L 238.331509 34.20193 
L 239.352706 37.404975 
L 240.373903 37.646592 
L 241.3951 38.034602 
L 242.416297 39.6716 
L 243.437494 42.634814 
L 244.458691 43.337033 
L 245.479888 45.159867 
L 246.501084 44.197289 
L 247.522281 42.533321 
L 248.543478 42.837281 
L 250.585872 43.300961 
L 252.628266 43.687529 
L 253.649463 42.391657 
L 254.67066 42.027857 
L 255.691856 42.140454 
L 256.713053 41.629385 
L 257.73425 41.559797 
L 258.755447 43.833194 
L 259.776644 45.831917 
L 260.797841 45.59903 
L 260.797841 45.59903 
" style="fill:none;stroke:#a9a9a9;stroke-dasharray:5.55,2.4;stroke-dashoffset:0;stroke-width:1.5;"/>
   </g>
   <g id="patch_3">
    <path d="M 47.41875 137.68125 
L 47.41875 10.7 
" style="fill:none;stroke:#000000;stroke-linecap:square;stroke-linejoin:miter;stroke-width:0.8;"/>
   </g>
   <g id="patch_4">
    <path d="M 270.95875 137.68125 
L 270.95875 10.7 
" style="fill:none;stroke:#000000;stroke-linecap:square;stroke-linejoin:miter;stroke-width:0.8;"/>
   </g>
   <g id="patch_5">
    <path d="M 47.41875 137.68125 
L 270.95875 137.68125 
" style="fill:none;stroke:#000000;stroke-linecap:square;stroke-linejoin:miter;stroke-width:0.8;"/>
   </g>
   <g id="patch_6">
    <path d="M 47.41875 10.7 
L 270.95875 10.7 
" style="fill:none;stroke:#000000;stroke-linecap:square;stroke-linejoin:miter;stroke-width:0.8;"/>
   </g>
   <g id="legend_1">
    <g id="patch_7">
     <path d="M 54.41875 58.45 
L 122.41875 58.45 
Q 124.41875 58.45 124.41875 56.45 
L 124.41875 17.7 
Q 124.41875 15.7 122.41875 15.7 
L 54.41875 15.7 
Q 52.41875 15.7 52.41875 17.7 
L 52.41875 56.45 
Q 52.41875 58.45 54.41875 58.45 
z
" style="fill:none;opacity:0.8;"/>
    </g>
    <g id="line2d_14">
     <path d="M 56.41875 23.2 
L 76.41875 23.2 
" style="fill:none;stroke:#ff6347;stroke-linecap:square;stroke-width:1.5;"/>
    </g>
    <g id="line2d_15"/>
    <g id="text_13">
     <!-- $\lambda$ = 0.8 -->
     <defs>
      <path d="M 36.71875 67.4375 
L 48.828125 0 
L 39.3125 0 
L 31.84375 40.4375 
L 5.125 0 
L -4.390625 0 
L 29.734375 52.4375 
L 28.03125 62.109375 
Q 26.953125 68.265625 21.734375 68.265625 
L 17.046875 68.265625 
L 18.5 75.984375 
L 24.21875 75.875 
Q 35.203125 75.734375 36.71875 67.4375 
z
" id="DejaVuSans-Oblique-3bb"/>
      <path id="SimHei-20"/>
      <path d="M 46.484375 45.3125 
L 1.953125 45.3125 
L 1.953125 51.5625 
L 46.484375 51.5625 
z
M 46.484375 21.484375 
L 1.953125 21.484375 
L 1.953125 27.734375 
L 46.484375 27.734375 
z
" id="SimHei-3d"/>
      <path d="M 16.796875 1.953125 
L 7.8125 1.953125 
L 7.8125 10.546875 
L 16.796875 10.546875 
z
" id="SimHei-2e"/>
      <path d="M 2.734375 16.796875 
Q 2.734375 26.171875 5.078125 30.65625 
Q 7.421875 35.15625 12.890625 37.890625 
Q 8.203125 40.625 6.640625 43.9375 
Q 5.078125 47.265625 4.875 51.5625 
Q 4.6875 55.859375 6.046875 58.984375 
Q 7.421875 62.109375 10.15625 64.84375 
Q 12.890625 67.578125 16.203125 68.546875 
Q 19.53125 69.53125 23.4375 69.53125 
Q 27.34375 69.53125 30.46875 68.75 
Q 33.59375 67.96875 37.109375 65.421875 
Q 40.625 62.890625 42.1875 58.203125 
Q 43.75 53.515625 41.984375 47.265625 
Q 40.234375 41.015625 32.8125 37.5 
Q 39.453125 35.546875 42.1875 31.4375 
Q 44.921875 27.34375 44.921875 21.484375 
Q 44.921875 15.625 43.15625 12.109375 
Q 41.40625 8.59375 39.25 6.25 
Q 37.109375 3.90625 33.390625 2.53125 
Q 29.6875 1.171875 24.015625 1.171875 
Q 18.359375 1.171875 14.25 2.53125 
Q 10.15625 3.90625 7.421875 6.640625 
Q 4.6875 9.375 3.703125 13.078125 
Q 2.734375 16.796875 2.734375 26.171875 
z
M 10.9375 26.5625 
Q 10.546875 17.1875 12.296875 13.671875 
Q 14.0625 10.15625 18.75 9.171875 
Q 23.4375 8.203125 28.515625 9.375 
Q 33.59375 10.546875 35.546875 14.84375 
Q 37.5 19.140625 36.90625 23.4375 
Q 36.328125 27.734375 32.03125 30.65625 
Q 27.734375 33.59375 22.65625 33.203125 
Q 17.578125 32.8125 14.25 29.6875 
Q 10.9375 26.5625 10.546875 17.1875 
z
M 12.109375 56.25 
Q 12.109375 48.4375 14.84375 44.921875 
Q 17.578125 41.40625 23.4375 41.40625 
Q 29.296875 41.40625 32.21875 44.921875 
Q 35.15625 48.4375 34.953125 53.3125 
Q 34.765625 58.203125 31.4375 60.546875 
Q 28.125 62.890625 22.453125 62.5 
Q 16.796875 62.109375 14.453125 59.171875 
Q 12.109375 56.25 12.109375 48.4375 
z
" id="SimHei-38"/>
     </defs>
     <g transform="translate(84.41875 26.7)scale(0.1 -0.1)">
      <use transform="translate(0 0.015625)" xlink:href="#DejaVuSans-Oblique-3bb"/>
      <use transform="translate(59.179688 0.015625)" xlink:href="#SimHei-20"/>
      <use transform="translate(109.179688 0.015625)" xlink:href="#SimHei-3d"/>
      <use transform="translate(159.179688 0.015625)" xlink:href="#SimHei-20"/>
      <use transform="translate(209.179688 0.015625)" xlink:href="#SimHei-30"/>
      <use transform="translate(259.179688 0.015625)" xlink:href="#SimHei-2e"/>
      <use transform="translate(309.179688 0.015625)" xlink:href="#SimHei-38"/>
     </g>
    </g>
    <g id="line2d_16">
     <path d="M 56.41875 36.45 
L 76.41875 36.45 
" style="fill:none;stroke:#008000;stroke-dasharray:5.55,2.4;stroke-dashoffset:0;stroke-width:1.5;"/>
    </g>
    <g id="line2d_17"/>
    <g id="text_14">
     <!-- $\lambda$ = 0.5 -->
     <g transform="translate(84.41875 39.95)scale(0.1 -0.1)">
      <use transform="translate(0 0.015625)" xlink:href="#DejaVuSans-Oblique-3bb"/>
      <use transform="translate(59.179688 0.015625)" xlink:href="#SimHei-20"/>
      <use transform="translate(109.179688 0.015625)" xlink:href="#SimHei-3d"/>
      <use transform="translate(159.179688 0.015625)" xlink:href="#SimHei-20"/>
      <use transform="translate(209.179688 0.015625)" xlink:href="#SimHei-30"/>
      <use transform="translate(259.179688 0.015625)" xlink:href="#SimHei-2e"/>
      <use transform="translate(309.179688 0.015625)" xlink:href="#SimHei-35"/>
     </g>
    </g>
    <g id="line2d_18">
     <path d="M 56.41875 49.7 
L 76.41875 49.7 
" style="fill:none;stroke:#a9a9a9;stroke-dasharray:5.55,2.4;stroke-dashoffset:0;stroke-width:1.5;"/>
    </g>
    <g id="line2d_19"/>
    <g id="text_15">
     <!-- $\lambda$ = 0.3 -->
     <defs>
      <path d="M 3.90625 19.140625 
L 10.9375 20.3125 
Q 12.5 15.234375 16.015625 11.90625 
Q 19.53125 8.59375 24.796875 8.78125 
Q 30.078125 8.984375 33.203125 13.078125 
Q 36.328125 17.1875 35.9375 22.453125 
Q 35.546875 27.734375 31.828125 30.65625 
Q 28.125 33.59375 19.921875 34.765625 
L 19.921875 39.84375 
Q 28.125 40.625 31.828125 44.140625 
Q 35.546875 47.65625 35.15625 53.3125 
Q 34.765625 58.984375 30.078125 61.515625 
Q 25.390625 64.0625 20.109375 62.109375 
Q 14.84375 60.15625 11.71875 51.171875 
L 4.6875 52.34375 
Q 7.03125 59.375 11.125 64.0625 
Q 15.234375 68.75 22.265625 69.53125 
Q 29.296875 70.3125 34.5625 67.765625 
Q 39.84375 65.234375 41.984375 59.953125 
Q 44.140625 54.6875 42.578125 48.4375 
Q 41.015625 42.1875 33.59375 37.5 
Q 39.0625 35.15625 41.984375 30.46875 
Q 44.921875 25.78125 43.9375 18.15625 
Q 42.96875 10.546875 37.109375 5.859375 
Q 31.25 1.171875 23.828125 1.359375 
Q 16.40625 1.5625 10.9375 6.046875 
Q 5.46875 10.546875 3.90625 19.140625 
z
" id="SimHei-33"/>
     </defs>
     <g transform="translate(84.41875 53.2)scale(0.1 -0.1)">
      <use transform="translate(0 0.015625)" xlink:href="#DejaVuSans-Oblique-3bb"/>
      <use transform="translate(59.179688 0.015625)" xlink:href="#SimHei-20"/>
      <use transform="translate(109.179688 0.015625)" xlink:href="#SimHei-3d"/>
      <use transform="translate(159.179688 0.015625)" xlink:href="#SimHei-20"/>
      <use transform="translate(209.179688 0.015625)" xlink:href="#SimHei-30"/>
      <use transform="translate(259.179688 0.015625)" xlink:href="#SimHei-2e"/>
      <use transform="translate(309.179688 0.015625)" xlink:href="#SimHei-33"/>
     </g>
    </g>
   </g>
  </g>
 </g>
 <defs>
  <clipPath id="p40855e764f">
   <rect height="126.98125" width="223.54" x="47.41875" y="10.7"/>
  </clipPath>
 </defs>
</svg>
