<?xml version="1.0" encoding="utf-8" standalone="no"?>
<!DOCTYPE svg PUBLIC "-//W3C//DTD SVG 1.1//EN"
  "http://www.w3.org/Graphics/SVG/1.1/DTD/svg11.dtd">
<!-- Created with matplotlib (http://matplotlib.org/) -->
<svg height="173.185937pt" version="1.1" viewBox="0 0 281.60875 173.185937" width="281.60875pt" xmlns="http://www.w3.org/2000/svg" xmlns:xlink="http://www.w3.org/1999/xlink">
 <defs>
  <style type="text/css">
*{stroke-linecap:butt;stroke-linejoin:round;}
  </style>
 </defs>
 <g id="figure_1">
  <g id="patch_1">
   <path d="M 0 173.185937 
L 281.60875 173.185937 
L 281.60875 -0 
L 0 -0 
z
" style="fill:none;"/>
  </g>
  <g id="axes_1">
   <g id="patch_2">
    <path d="M 42.41875 137.68125 
L 270.90875 137.68125 
L 270.90875 10.7 
L 42.41875 10.7 
z
" style="fill:#ffffff;"/>
   </g>
   <g id="matplotlib.axis_1">
    <g id="xtick_1">
     <g id="line2d_1">
      <defs>
       <path d="M 0 0 
L 0 3.5 
" id="m7c76c811a5" style="stroke:#000000;stroke-width:0.8;"/>
      </defs>
      <g>
       <use style="stroke:#000000;stroke-width:0.8;" x="52.804659" xlink:href="#m7c76c811a5" y="137.68125"/>
      </g>
     </g>
     <g id="text_1">
      <!-- 0 -->
      <defs>
       <path d="M 3.125 29.296875 
Q 3.90625 50 6.4375 56.046875 
Q 8.984375 62.109375 13.671875 66.015625 
Q 18.359375 69.921875 25.1875 69.921875 
Q 32.03125 69.921875 37.109375 64.25 
Q 42.1875 58.59375 43.75 50 
Q 45.3125 41.40625 44.71875 30.265625 
Q 44.140625 19.140625 40.8125 12.109375 
Q 37.5 5.078125 30.859375 2.34375 
Q 24.21875 -0.390625 17.578125 2.921875 
Q 10.9375 6.25 8.203125 11.71875 
Q 5.46875 17.1875 4.296875 23.234375 
Q 3.125 29.296875 3.90625 50 
z
M 12.890625 52.734375 
Q 10.546875 31.25 12.5 22.84375 
Q 14.453125 14.453125 18.9375 10.9375 
Q 23.4375 7.421875 28.125 9.5625 
Q 32.8125 11.71875 34.953125 18.15625 
Q 37.109375 24.609375 37.109375 32.21875 
Q 37.109375 39.84375 36.515625 46.09375 
Q 35.9375 52.34375 33 57.421875 
Q 30.078125 62.5 25.1875 62.6875 
Q 20.3125 62.890625 16.59375 57.8125 
Q 12.890625 52.734375 10.546875 31.25 
z
" id="SimHei-30"/>
      </defs>
      <g transform="translate(50.304659 151.55625)scale(0.1 -0.1)">
       <use xlink:href="#SimHei-30"/>
      </g>
     </g>
    </g>
    <g id="xtick_2">
     <g id="line2d_2">
      <g>
       <use style="stroke:#000000;stroke-width:0.8;" x="87.540141" xlink:href="#m7c76c811a5" y="137.68125"/>
      </g>
     </g>
     <g id="text_2">
      <!-- 50 -->
      <defs>
       <path d="M 8.59375 20.703125 
Q 11.328125 10.15625 17.96875 8.984375 
Q 24.609375 7.8125 28.703125 10.34375 
Q 32.8125 12.890625 34.5625 16.984375 
Q 36.328125 21.09375 36.125 26.171875 
Q 35.9375 31.25 33.390625 34.765625 
Q 30.859375 38.28125 26.953125 39.453125 
Q 23.046875 40.625 18.15625 39.453125 
Q 13.28125 38.28125 10.15625 33.984375 
L 3.515625 34.765625 
Q 4.296875 37.109375 10.9375 68.359375 
L 41.796875 68.359375 
L 41.796875 61.328125 
L 16.796875 61.328125 
Q 14.84375 50.78125 12.890625 44.53125 
Q 18.75 47.265625 23.828125 47.0625 
Q 28.90625 46.875 33.59375 44.71875 
Q 38.28125 42.578125 40.421875 38.859375 
Q 42.578125 35.15625 43.546875 31.4375 
Q 44.53125 27.734375 44.328125 23.4375 
Q 44.140625 19.140625 42.578125 14.640625 
Q 41.015625 10.15625 37.890625 7.21875 
Q 34.765625 4.296875 30.265625 2.53125 
Q 25.78125 0.78125 19.921875 1.171875 
Q 14.0625 1.5625 8.78125 5.46875 
Q 3.515625 9.375 1.5625 18.75 
z
" id="SimHei-35"/>
      </defs>
      <g transform="translate(82.540141 151.55625)scale(0.1 -0.1)">
       <use xlink:href="#SimHei-35"/>
       <use x="50" xlink:href="#SimHei-30"/>
      </g>
     </g>
    </g>
    <g id="xtick_3">
     <g id="line2d_3">
      <g>
       <use style="stroke:#000000;stroke-width:0.8;" x="122.275623" xlink:href="#m7c76c811a5" y="137.68125"/>
      </g>
     </g>
     <g id="text_3">
      <!-- 100 -->
      <defs>
       <path d="M 21.875 56.25 
Q 16.796875 51.171875 8.984375 46.484375 
L 8.984375 53.90625 
Q 18.75 60.546875 25 69.53125 
L 29.6875 69.53125 
L 29.6875 2.34375 
L 21.875 2.34375 
z
" id="SimHei-31"/>
      </defs>
      <g transform="translate(114.775623 151.55625)scale(0.1 -0.1)">
       <use xlink:href="#SimHei-31"/>
       <use x="50" xlink:href="#SimHei-30"/>
       <use x="100" xlink:href="#SimHei-30"/>
      </g>
     </g>
    </g>
    <g id="xtick_4">
     <g id="line2d_4">
      <g>
       <use style="stroke:#000000;stroke-width:0.8;" x="157.011105" xlink:href="#m7c76c811a5" y="137.68125"/>
      </g>
     </g>
     <g id="text_4">
      <!-- 150 -->
      <g transform="translate(149.511105 151.55625)scale(0.1 -0.1)">
       <use xlink:href="#SimHei-31"/>
       <use x="50" xlink:href="#SimHei-35"/>
       <use x="100" xlink:href="#SimHei-30"/>
      </g>
     </g>
    </g>
    <g id="xtick_5">
     <g id="line2d_5">
      <g>
       <use style="stroke:#000000;stroke-width:0.8;" x="191.746587" xlink:href="#m7c76c811a5" y="137.68125"/>
      </g>
     </g>
     <g id="text_5">
      <!-- 200 -->
      <defs>
       <path d="M 4.6875 3.90625 
Q 5.078125 9.765625 10.15625 14.453125 
Q 15.234375 19.140625 23.046875 29.09375 
Q 30.859375 39.0625 33.203125 44.53125 
Q 35.546875 50 34.953125 53.90625 
Q 34.375 57.8125 31.25 60.34375 
Q 28.125 62.890625 24.015625 62.5 
Q 19.921875 62.109375 16.203125 59.375 
Q 12.5 56.640625 10.546875 51.171875 
L 3.125 52.34375 
Q 6.25 61.328125 11.125 65.421875 
Q 16.015625 69.53125 22.65625 69.921875 
Q 26.5625 70.3125 29.6875 69.71875 
Q 32.8125 69.140625 36.125 66.984375 
Q 39.453125 64.84375 41.59375 60.546875 
Q 43.75 56.25 43.15625 50.1875 
Q 42.578125 44.140625 37.109375 35.734375 
Q 31.640625 27.34375 16.015625 9.375 
L 44.140625 9.375 
L 44.140625 2.34375 
L 4.6875 2.34375 
z
" id="SimHei-32"/>
      </defs>
      <g transform="translate(184.246587 151.55625)scale(0.1 -0.1)">
       <use xlink:href="#SimHei-32"/>
       <use x="50" xlink:href="#SimHei-30"/>
       <use x="100" xlink:href="#SimHei-30"/>
      </g>
     </g>
    </g>
    <g id="xtick_6">
     <g id="line2d_6">
      <g>
       <use style="stroke:#000000;stroke-width:0.8;" x="226.482069" xlink:href="#m7c76c811a5" y="137.68125"/>
      </g>
     </g>
     <g id="text_6">
      <!-- 250 -->
      <g transform="translate(218.982069 151.55625)scale(0.1 -0.1)">
       <use xlink:href="#SimHei-32"/>
       <use x="50" xlink:href="#SimHei-35"/>
       <use x="100" xlink:href="#SimHei-30"/>
      </g>
     </g>
    </g>
    <g id="xtick_7">
     <g id="line2d_7">
      <g>
       <use style="stroke:#000000;stroke-width:0.8;" x="261.217551" xlink:href="#m7c76c811a5" y="137.68125"/>
      </g>
     </g>
     <g id="text_7">
      <!-- 300 -->
      <defs>
       <path d="M 3.90625 19.140625 
L 10.9375 20.3125 
Q 12.5 15.234375 16.015625 11.90625 
Q 19.53125 8.59375 24.796875 8.78125 
Q 30.078125 8.984375 33.203125 13.078125 
Q 36.328125 17.1875 35.9375 22.453125 
Q 35.546875 27.734375 31.828125 30.65625 
Q 28.125 33.59375 19.921875 34.765625 
L 19.921875 39.84375 
Q 28.125 40.625 31.828125 44.140625 
Q 35.546875 47.65625 35.15625 53.3125 
Q 34.765625 58.984375 30.078125 61.515625 
Q 25.390625 64.0625 20.109375 62.109375 
Q 14.84375 60.15625 11.71875 51.171875 
L 4.6875 52.34375 
Q 7.03125 59.375 11.125 64.0625 
Q 15.234375 68.75 22.265625 69.53125 
Q 29.296875 70.3125 34.5625 67.765625 
Q 39.84375 65.234375 41.984375 59.953125 
Q 44.140625 54.6875 42.578125 48.4375 
Q 41.015625 42.1875 33.59375 37.5 
Q 39.0625 35.15625 41.984375 30.46875 
Q 44.921875 25.78125 43.9375 18.15625 
Q 42.96875 10.546875 37.109375 5.859375 
Q 31.25 1.171875 23.828125 1.359375 
Q 16.40625 1.5625 10.9375 6.046875 
Q 5.46875 10.546875 3.90625 19.140625 
z
" id="SimHei-33"/>
      </defs>
      <g transform="translate(253.717551 151.55625)scale(0.1 -0.1)">
       <use xlink:href="#SimHei-33"/>
       <use x="50" xlink:href="#SimHei-30"/>
       <use x="100" xlink:href="#SimHei-30"/>
      </g>
     </g>
    </g>
    <g id="text_8">
     <!-- 训练回合数 -->
     <defs>
      <path d="M 25.78125 51.5625 
Q 25.390625 42.578125 25.390625 34.765625 
L 25.390625 10.546875 
Q 30.46875 17.578125 32.03125 19.921875 
Q 33.984375 17.578125 36.71875 14.0625 
Q 31.640625 7.8125 28.125 3.3125 
Q 24.609375 -1.171875 20.703125 -6.640625 
Q 17.96875 -3.125 14.84375 -0.78125 
Q 17.96875 3.515625 17.96875 9.765625 
L 17.96875 44.921875 
L 15.234375 44.921875 
Q 9.375 44.921875 4.6875 44.53125 
L 4.6875 51.953125 
Q 9.375 51.5625 15.234375 51.5625 
z
M 53.515625 71.875 
Q 52.734375 67.96875 52.921875 52.53125 
Q 53.125 37.109375 52.140625 29.484375 
Q 51.171875 21.875 48.234375 13.078125 
Q 45.3125 4.296875 38.28125 -5.859375 
Q 34.765625 -3.125 30.859375 -1.953125 
Q 39.84375 7.8125 43.15625 21.28125 
Q 46.484375 34.765625 46.09375 52.140625 
Q 45.703125 69.53125 45.3125 73.046875 
Q 49.21875 72.265625 53.515625 71.875 
z
M 91.796875 73.4375 
Q 91.40625 70.3125 91.40625 62.109375 
L 91.40625 9.765625 
Q 91.40625 1.953125 91.796875 -6.25 
L 84.375 -6.25 
Q 84.765625 1.953125 84.765625 9.375 
L 84.765625 62.109375 
Q 84.765625 70.3125 84.375 73.4375 
L 91.796875 73.4375 
z
M 71.875 2.734375 
L 64.453125 2.734375 
Q 64.84375 11.328125 64.84375 17.96875 
L 64.84375 56.25 
Q 64.84375 63.28125 64.453125 67.96875 
L 71.875 67.96875 
z
M 15.625 80.46875 
Q 25.78125 71.875 32.8125 64.0625 
Q 29.296875 61.328125 27.34375 58.59375 
Q 16.40625 71.09375 10.9375 75 
Q 13.28125 77.34375 15.625 80.46875 
z
" id="SimHei-8bad"/>
      <path d="M 51.5625 59.765625 
Q 46.09375 59.765625 37.5 59.375 
L 37.5 66.40625 
Q 46.09375 66.015625 51.953125 66.015625 
L 56.640625 66.015625 
Q 60.546875 77.34375 60.9375 80.859375 
Q 65.625 78.515625 69.53125 76.953125 
Q 67.96875 75.390625 66.59375 72.0625 
Q 65.234375 68.75 64.0625 66.015625 
L 78.515625 66.015625 
Q 84.765625 66.015625 92.1875 66.40625 
L 92.1875 59.375 
Q 86.71875 59.765625 78.515625 59.765625 
L 62.109375 59.765625 
Q 60.15625 55.078125 57.8125 49.21875 
L 73.046875 49.21875 
Q 72.65625 44.921875 72.65625 38.671875 
L 72.65625 30.859375 
L 77.734375 30.859375 
Q 83.59375 30.859375 90.625 31.25 
L 90.625 24.21875 
Q 83.59375 24.609375 77.734375 24.609375 
L 72.65625 24.609375 
L 72.65625 1.953125 
Q 72.65625 -4.6875 69.71875 -6.640625 
Q 66.796875 -8.59375 57.03125 -9.765625 
Q 56.640625 -5.859375 53.90625 -1.5625 
Q 63.671875 -1.953125 64.640625 -0.390625 
Q 65.625 1.171875 65.625 5.078125 
L 65.625 24.609375 
L 53.515625 24.609375 
Q 50.78125 24.609375 48.4375 24.40625 
Q 46.09375 24.21875 42.96875 23.046875 
Q 41.40625 26.953125 39.84375 30.46875 
Q 43.75 31.640625 48.828125 43.359375 
Q 46.09375 43.359375 38.28125 42.96875 
L 38.28125 49.609375 
Q 47.265625 49.21875 50.78125 49.21875 
Q 53.125 55.078125 54.6875 59.765625 
z
M 25.78125 46.09375 
Q 29.296875 51.5625 32.8125 60.9375 
Q 36.328125 58.203125 40.234375 56.25 
Q 36.328125 51.171875 31.640625 42.96875 
Q 26.953125 34.765625 16.796875 21.09375 
Q 20.3125 21.875 37.5 24.609375 
Q 36.71875 20.3125 37.109375 17.96875 
Q 28.515625 17.1875 10.15625 12.890625 
Q 8.203125 16.796875 6.25 19.921875 
Q 9.765625 21.875 13.859375 27.140625 
Q 17.96875 32.421875 22.65625 40.234375 
Q 20.3125 40.625 15.8125 40.03125 
Q 11.328125 39.453125 7.03125 38.28125 
Q 5.46875 41.796875 3.90625 45.703125 
Q 7.8125 48.046875 12.6875 58.203125 
Q 17.578125 68.359375 20.703125 78.125 
Q 25 75.390625 28.90625 74.21875 
Q 25 68.359375 21.671875 61.90625 
Q 18.359375 55.46875 12.5 45.703125 
Q 21.484375 45.703125 25.78125 46.09375 
z
M 37.890625 10.9375 
Q 37.5 6.640625 37.890625 3.90625 
Q 31.25 2.34375 22.84375 -0.390625 
Q 14.453125 -3.125 7.421875 -6.640625 
Q 6.25 -2.34375 4.6875 1.953125 
Q 14.84375 4.296875 18.546875 5.265625 
Q 22.265625 6.25 37.890625 10.9375 
z
M 58.203125 13.671875 
Q 57.03125 12.5 51.359375 6.25 
Q 45.703125 0 38.671875 -7.421875 
Q 35.9375 -3.90625 33.59375 -1.953125 
Q 37.890625 1.5625 42.96875 7.21875 
Q 48.046875 12.890625 51.953125 19.140625 
Q 54.296875 16.40625 58.203125 13.671875 
z
M 82.421875 19.140625 
Q 92.578125 5.859375 96.875 -1.5625 
Q 92.96875 -3.125 89.84375 -5.859375 
Q 85.546875 2.734375 76.5625 14.84375 
Q 79.296875 16.40625 82.421875 19.140625 
z
M 65.625 30.859375 
L 65.625 43.359375 
L 55.859375 43.359375 
Q 51.953125 35.15625 49.609375 30.859375 
z
" id="SimHei-7ec3"/>
      <path d="M 88.28125 75.78125 
Q 87.890625 64.453125 87.890625 53.90625 
L 87.890625 14.84375 
Q 87.890625 4.6875 88.28125 -5.859375 
L 80.46875 -5.859375 
L 80.46875 1.5625 
L 18.359375 1.5625 
L 18.359375 -5.859375 
L 10.9375 -5.859375 
Q 11.328125 3.90625 11.328125 14.84375 
L 11.328125 53.90625 
Q 11.328125 64.0625 10.9375 75.78125 
L 88.28125 75.78125 
z
M 80.46875 7.8125 
L 80.46875 69.140625 
L 18.75 69.140625 
L 18.75 7.8125 
z
M 67.578125 54.6875 
Q 67.1875 48.828125 67.1875 42.96875 
L 67.1875 33.984375 
Q 67.1875 28.90625 67.578125 21.875 
L 31.640625 21.875 
Q 32.03125 28.90625 32.03125 33.984375 
L 32.03125 43.75 
Q 32.03125 49.21875 31.640625 54.6875 
L 67.578125 54.6875 
z
M 59.765625 28.515625 
L 59.765625 48.4375 
L 39.0625 48.4375 
L 39.0625 28.515625 
z
" id="SimHei-56de"/>
      <path d="M 78.90625 28.125 
Q 78.515625 24.21875 78.515625 10.15625 
Q 78.515625 -3.90625 78.90625 -8.203125 
L 70.703125 -8.203125 
L 70.703125 -0.78125 
L 27.34375 -0.78125 
L 27.34375 -9.375 
L 19.53125 -9.375 
Q 19.921875 -4.6875 19.921875 8.59375 
Q 19.921875 22.265625 19.53125 28.125 
L 78.90625 28.125 
z
M 52.734375 75 
Q 64.0625 61.328125 71.09375 56.25 
Q 78.125 51.171875 83.984375 48.4375 
Q 89.84375 45.703125 95.3125 44.140625 
Q 91.40625 39.84375 90.234375 35.9375 
Q 82.421875 39.453125 76.171875 43.359375 
Q 69.921875 47.265625 63.46875 53.3125 
Q 57.03125 59.375 48.828125 69.921875 
Q 41.40625 59.375 34.171875 52.53125 
Q 26.953125 45.703125 21.875 41.796875 
Q 16.796875 37.890625 10.546875 33.984375 
Q 9.765625 35.546875 4.296875 40.234375 
Q 12.5 44.140625 19.921875 49.609375 
Q 27.34375 55.078125 34.765625 63.46875 
Q 42.1875 71.875 46.875 81.640625 
Q 51.171875 78.90625 54.6875 77.34375 
z
M 70.703125 5.46875 
L 70.703125 21.875 
L 27.34375 21.875 
L 27.34375 5.46875 
z
M 61.328125 44.140625 
Q 67.578125 44.140625 72.265625 44.53125 
L 72.265625 37.109375 
Q 67.1875 37.5 61.71875 37.5 
L 39.84375 37.5 
Q 31.640625 37.5 26.5625 37.109375 
L 26.5625 44.53125 
Q 33.984375 44.140625 39.84375 44.140625 
z
" id="SimHei-5408"/>
      <path d="M 70.703125 76.953125 
Q 69.921875 75 68.75 71.671875 
Q 67.578125 68.359375 65.234375 59.765625 
L 83.203125 59.765625 
Q 87.109375 59.765625 92.578125 60.15625 
L 92.578125 53.125 
Q 88.28125 53.515625 85.9375 53.515625 
Q 85.9375 47.265625 83.78125 33.78125 
Q 81.640625 20.3125 76.171875 10.546875 
Q 80.078125 5.859375 84.953125 2.140625 
Q 89.84375 -1.5625 94.140625 -3.125 
Q 89.453125 -6.640625 87.890625 -9.765625 
Q 83.203125 -7.03125 79.296875 -3.515625 
Q 75.390625 0 71.484375 5.078125 
Q 67.1875 0.390625 62.296875 -2.921875 
Q 57.421875 -6.25 50 -10.15625 
Q 48.046875 -6.640625 44.53125 -4.6875 
Q 50.390625 -2.34375 57.03125 1.953125 
Q 63.671875 6.25 67.1875 10.546875 
Q 64.453125 16.015625 61.90625 22.265625 
Q 59.375 28.515625 57.421875 38.671875 
Q 56.25 35.546875 53.515625 30.46875 
Q 50.78125 32.03125 46.875 33.59375 
Q 53.125 44.53125 57.03125 57.421875 
Q 60.9375 70.3125 62.109375 79.6875 
Q 66.796875 77.734375 70.703125 76.953125 
z
M 32.8125 35.15625 
Q 31.25 33.59375 29.296875 30.078125 
L 50.78125 30.078125 
Q 48.4375 20.3125 42.578125 10.546875 
Q 48.828125 8.203125 52.34375 6.25 
Q 50.390625 3.515625 48.828125 0.390625 
Q 45.3125 2.734375 38.28125 5.078125 
Q 30.46875 -3.515625 11.328125 -10.15625 
Q 9.375 -5.859375 6.25 -4.296875 
Q 24.609375 0 31.25 7.421875 
Q 20.3125 10.15625 13.28125 12.109375 
Q 15.625 15.625 19.53125 23.828125 
Q 15.625 23.828125 6.640625 23.4375 
L 6.640625 30.46875 
Q 14.0625 30.078125 21.875 30.078125 
Q 23.4375 33.59375 24.21875 37.890625 
Q 28.515625 36.328125 32.8125 35.15625 
z
M 27.734375 61.71875 
Q 27.734375 71.09375 27.34375 79.6875 
L 35.15625 79.6875 
Q 34.765625 71.484375 34.765625 61.71875 
Q 48.046875 61.71875 53.515625 62.109375 
L 53.515625 55.078125 
Q 48.046875 55.46875 34.765625 55.46875 
Q 34.765625 44.140625 35.15625 37.890625 
L 27.34375 37.890625 
Q 27.734375 43.359375 27.734375 51.5625 
Q 25.78125 48.4375 20.3125 43.546875 
Q 14.84375 38.671875 10.15625 35.9375 
Q 8.203125 39.453125 4.296875 41.015625 
Q 7.8125 42.1875 13.671875 46.484375 
Q 19.53125 50.78125 22.65625 55.46875 
Q 14.84375 55.46875 7.8125 55.078125 
L 7.8125 62.109375 
Q 14.453125 61.71875 27.734375 61.71875 
z
M 62.109375 49.609375 
Q 65.625 26.5625 71.875 17.578125 
Q 75.78125 26.5625 77.140625 35.734375 
Q 78.515625 44.921875 78.90625 53.515625 
L 63.671875 53.515625 
L 62.109375 49.609375 
z
M 22.65625 15.625 
Q 27.34375 14.453125 35.546875 12.5 
Q 38.671875 16.40625 41.40625 23.828125 
L 26.953125 23.828125 
Q 25 19.921875 22.65625 15.625 
z
M 51.953125 75.390625 
Q 50 72.265625 48.828125 69.53125 
Q 47.65625 66.796875 45.703125 62.890625 
Q 42.578125 64.453125 39.453125 65.234375 
Q 42.578125 70.3125 45.3125 78.125 
Q 49.21875 76.171875 51.953125 75.390625 
z
M 40.234375 52.734375 
Q 45.3125 47.65625 50 42.578125 
Q 47.65625 40.625 44.921875 37.890625 
Q 39.453125 44.53125 35.9375 48.4375 
Q 38.28125 50.390625 40.234375 52.734375 
z
M 14.453125 78.125 
Q 19.921875 72.65625 23.4375 67.1875 
L 17.578125 63.671875 
Q 14.84375 69.140625 9.375 73.828125 
Q 12.890625 76.171875 14.453125 78.125 
z
" id="SimHei-6570"/>
     </defs>
     <g transform="translate(131.66375 164.735937)scale(0.1 -0.1)">
      <use xlink:href="#SimHei-8bad"/>
      <use x="100" xlink:href="#SimHei-7ec3"/>
      <use x="200" xlink:href="#SimHei-56de"/>
      <use x="300" xlink:href="#SimHei-5408"/>
      <use x="400" xlink:href="#SimHei-6570"/>
     </g>
    </g>
   </g>
   <g id="matplotlib.axis_2">
    <g id="ytick_1">
     <g id="line2d_8">
      <defs>
       <path d="M 0 0 
L -3.5 0 
" id="m445d92fa32" style="stroke:#000000;stroke-width:0.8;"/>
      </defs>
      <g>
       <use style="stroke:#000000;stroke-width:0.8;" x="42.41875" xlink:href="#m445d92fa32" y="108.909343"/>
      </g>
     </g>
     <g id="text_9">
      <!-- 50 -->
      <g transform="translate(25.41875 112.346843)scale(0.1 -0.1)">
       <use xlink:href="#SimHei-35"/>
       <use x="50" xlink:href="#SimHei-30"/>
      </g>
     </g>
    </g>
    <g id="ytick_2">
     <g id="line2d_9">
      <g>
       <use style="stroke:#000000;stroke-width:0.8;" x="42.41875" xlink:href="#m445d92fa32" y="78.096853"/>
      </g>
     </g>
     <g id="text_10">
      <!-- 100 -->
      <g transform="translate(20.41875 81.534353)scale(0.1 -0.1)">
       <use xlink:href="#SimHei-31"/>
       <use x="50" xlink:href="#SimHei-30"/>
       <use x="100" xlink:href="#SimHei-30"/>
      </g>
     </g>
    </g>
    <g id="ytick_3">
     <g id="line2d_10">
      <g>
       <use style="stroke:#000000;stroke-width:0.8;" x="42.41875" xlink:href="#m445d92fa32" y="47.284364"/>
      </g>
     </g>
     <g id="text_11">
      <!-- 150 -->
      <g transform="translate(20.41875 50.721864)scale(0.1 -0.1)">
       <use xlink:href="#SimHei-31"/>
       <use x="50" xlink:href="#SimHei-35"/>
       <use x="100" xlink:href="#SimHei-30"/>
      </g>
     </g>
    </g>
    <g id="ytick_4">
     <g id="line2d_11">
      <g>
       <use style="stroke:#000000;stroke-width:0.8;" x="42.41875" xlink:href="#m445d92fa32" y="16.471875"/>
      </g>
     </g>
     <g id="text_12">
      <!-- 200 -->
      <g transform="translate(20.41875 19.909375)scale(0.1 -0.1)">
       <use xlink:href="#SimHei-32"/>
       <use x="50" xlink:href="#SimHei-30"/>
       <use x="100" xlink:href="#SimHei-30"/>
      </g>
     </g>
    </g>
    <g id="text_13">
     <!-- 平均奖赏值 -->
     <defs>
      <path d="M 70.703125 75.390625 
Q 76.5625 75.390625 85.15625 75.78125 
L 85.15625 68.359375 
Q 76.953125 68.75 70.703125 68.75 
L 54.296875 68.75 
L 54.296875 31.640625 
L 78.125 31.640625 
Q 86.71875 31.640625 94.140625 32.03125 
L 94.140625 24.609375 
Q 86.71875 25 78.125 25 
L 54.296875 25 
L 54.296875 7.03125 
Q 54.296875 -1.5625 54.6875 -9.375 
L 45.703125 -9.375 
Q 46.09375 -1.5625 46.09375 7.03125 
L 46.09375 25 
L 17.578125 25 
Q 12.109375 25 5.859375 24.609375 
L 5.859375 32.03125 
Q 12.109375 31.640625 18.359375 31.640625 
L 46.09375 31.640625 
L 46.09375 68.75 
L 27.734375 68.75 
Q 21.875 68.75 13.671875 68.359375 
L 13.671875 75.78125 
Q 21.875 75.390625 27.34375 75.390625 
z
M 61.328125 40.625 
Q 70.3125 51.5625 76.5625 64.453125 
Q 80.46875 61.71875 84.375 59.765625 
Q 74.609375 44.53125 67.96875 35.9375 
Q 64.84375 38.671875 61.328125 40.625 
z
M 30.859375 36.71875 
Q 25 48.4375 16.40625 58.203125 
Q 19.53125 60.546875 22.65625 63.28125 
Q 32.421875 51.5625 38.28125 42.578125 
Q 33.59375 39.0625 30.859375 36.71875 
z
" id="SimHei-5e73"/>
      <path d="M 90.234375 4.296875 
Q 90.234375 -5.078125 83.78125 -7.03125 
Q 77.34375 -8.984375 69.140625 -9.375 
Q 68.359375 -4.296875 66.40625 0.390625 
Q 77.34375 -0.390625 80.078125 0.96875 
Q 82.8125 2.34375 82.8125 7.8125 
L 83.984375 57.8125 
L 55.46875 57.8125 
Q 53.515625 52.734375 50.96875 47.453125 
Q 48.4375 42.1875 45.703125 37.5 
Q 41.796875 39.84375 38.671875 41.015625 
Q 49.21875 56.640625 54.6875 81.25 
Q 59.375 79.6875 63.671875 78.515625 
Q 62.109375 76.171875 60.546875 72.65625 
Q 58.984375 69.140625 57.421875 64.453125 
L 92.1875 64.453125 
L 90.234375 4.296875 
z
M 19.53125 56.640625 
L 19.53125 68.359375 
Q 19.53125 74.609375 19.140625 79.6875 
L 27.734375 79.6875 
Q 27.34375 73.828125 27.34375 68.359375 
L 27.34375 56.640625 
L 29.6875 56.640625 
Q 34.375 56.640625 39.453125 57.03125 
L 39.453125 49.21875 
Q 34.375 49.609375 29.6875 49.609375 
L 27.34375 49.609375 
L 27.34375 17.1875 
L 39.0625 21.484375 
Q 38.671875 17.578125 39.453125 14.0625 
Q 19.140625 7.421875 15.03125 5.65625 
Q 10.9375 3.90625 7.421875 2.34375 
Q 5.859375 7.421875 3.90625 11.71875 
Q 8.984375 12.5 12.5 13.28125 
Q 16.015625 14.0625 19.53125 15.234375 
L 19.53125 49.609375 
L 17.578125 49.609375 
Q 13.28125 49.609375 6.25 49.21875 
L 6.25 57.03125 
Q 13.28125 56.640625 17.1875 56.640625 
z
M 77.34375 25.390625 
Q 73.046875 22.265625 64.640625 16.40625 
Q 56.25 10.546875 49.609375 4.6875 
Q 46.875 8.984375 44.53125 12.109375 
Q 52.34375 16.40625 58.78125 20.703125 
Q 65.234375 25 74.609375 32.421875 
Q 75.390625 28.90625 77.34375 25.390625 
z
M 58.984375 49.21875 
Q 64.453125 43.75 69.921875 35.9375 
Q 66.40625 33.203125 64.0625 30.859375 
Q 60.9375 36.328125 53.90625 44.140625 
Q 56.25 46.875 58.984375 49.21875 
z
" id="SimHei-5747"/>
      <path d="M 79.296875 24.609375 
Q 88.28125 24.609375 94.921875 25 
L 94.921875 17.578125 
Q 88.671875 18.75 79.296875 18.359375 
L 55.46875 18.359375 
Q 62.109375 9.375 73.625 4.6875 
Q 85.15625 0 96.09375 -0.78125 
Q 93.75 -3.515625 91.40625 -8.59375 
Q 83.59375 -7.03125 77.734375 -5.078125 
Q 71.875 -3.125 64.640625 1.359375 
Q 57.421875 5.859375 50.78125 13.671875 
Q 47.265625 8.59375 43.75 5.46875 
Q 40.234375 2.34375 35.15625 -0.78125 
Q 30.078125 -3.90625 24.40625 -5.859375 
Q 18.75 -7.8125 10.9375 -9.765625 
Q 9.375 -5.859375 6.25 -1.953125 
Q 13.671875 -1.171875 19.71875 0.578125 
Q 25.78125 2.34375 30.65625 4.875 
Q 35.546875 7.421875 39.0625 10.734375 
Q 42.578125 14.0625 44.53125 18.359375 
L 20.703125 18.359375 
Q 12.890625 18.359375 5.46875 17.96875 
L 5.46875 25 
Q 12.890625 24.609375 20.703125 24.609375 
L 46.09375 24.609375 
Q 46.484375 27.34375 46.484375 30.46875 
Q 54.296875 29.296875 55.46875 29.296875 
Q 54.296875 26.953125 53.90625 24.609375 
z
M 67.578125 78.125 
Q 64.453125 75 61.328125 70.3125 
L 92.1875 70.3125 
Q 88.671875 61.71875 85.34375 56.046875 
Q 82.03125 50.390625 77.921875 45.890625 
Q 73.828125 41.40625 66.984375 37.5 
Q 60.15625 33.59375 47.65625 30.859375 
Q 45.703125 34.375 42.96875 37.890625 
Q 54.6875 38.28125 64.0625 43.75 
L 53.515625 50.78125 
Q 55.859375 53.515625 57.8125 56.25 
Q 61.71875 53.90625 64.0625 52.140625 
Q 66.40625 50.390625 69.921875 48.046875 
Q 76.5625 53.90625 80.859375 64.0625 
L 57.421875 64.0625 
Q 55.46875 61.71875 52.734375 58.59375 
Q 50 55.46875 45.3125 50 
Q 42.1875 52.734375 38.671875 54.296875 
Q 44.53125 59.375 49.796875 66.40625 
Q 55.078125 73.4375 58.59375 81.640625 
Q 63.671875 79.296875 67.578125 78.125 
z
M 38.28125 80.859375 
Q 37.890625 76.171875 37.890625 69.921875 
L 37.890625 44.921875 
Q 37.890625 39.0625 38.28125 30.859375 
L 30.078125 30.859375 
Q 30.46875 39.0625 30.46875 44.921875 
L 30.46875 47.65625 
Q 19.140625 40.234375 11.71875 35.546875 
Q 8.984375 39.84375 6.25 42.1875 
Q 12.890625 44.140625 30.46875 55.078125 
L 30.46875 69.921875 
Q 30.46875 75.78125 30.078125 80.859375 
L 38.28125 80.859375 
z
M 15.625 73.4375 
Q 23.046875 67.578125 28.125 62.890625 
L 22.265625 57.03125 
Q 17.1875 62.5 10.546875 67.96875 
Q 13.28125 70.3125 15.625 73.4375 
z
" id="SimHei-5956"/>
      <path d="M 76.953125 34.375 
L 23.4375 34.375 
Q 23.828125 39.453125 23.828125 44.140625 
Q 23.828125 48.828125 23.4375 53.125 
L 76.953125 53.125 
z
M 82.421875 76.171875 
Q 78.515625 73.4375 73.046875 65.234375 
L 91.015625 65.234375 
Q 90.625 61.328125 90.625 57.421875 
Q 90.625 53.90625 91.015625 49.21875 
L 83.203125 49.21875 
L 83.203125 59.375 
L 17.1875 59.375 
L 17.1875 47.65625 
L 9.375 47.65625 
Q 9.765625 52.34375 9.765625 56.640625 
Q 9.765625 61.328125 9.375 65.234375 
L 28.90625 65.234375 
Q 23.828125 71.875 19.921875 76.5625 
L 26.171875 80.46875 
Q 31.25 75.390625 35.546875 68.75 
Q 32.421875 66.796875 29.6875 65.234375 
L 46.484375 65.234375 
Q 46.484375 73.046875 46.09375 80.859375 
L 54.296875 80.859375 
Q 53.90625 73.828125 53.90625 65.234375 
L 65.234375 65.234375 
Q 71.875 75 73.046875 79.6875 
Q 77.734375 77.34375 82.421875 76.171875 
z
M 81.25 28.90625 
Q 80.859375 24.21875 80.859375 18.75 
Q 80.859375 13.28125 81.25 8.59375 
L 73.4375 8.59375 
L 73.4375 23.046875 
L 26.953125 23.046875 
L 26.953125 7.03125 
L 19.140625 7.03125 
Q 19.53125 12.5 19.53125 17.96875 
Q 19.53125 23.4375 19.140625 28.90625 
L 81.25 28.90625 
z
M 54.296875 17.1875 
Q 50 5.078125 45.3125 1.171875 
Q 40.625 -2.734375 33.390625 -5.65625 
Q 26.171875 -8.59375 12.890625 -10.546875 
Q 12.109375 -7.03125 7.8125 -2.734375 
Q 18.359375 -2.34375 25.390625 -0.578125 
Q 32.421875 1.171875 38.28125 5.46875 
Q 44.140625 9.765625 45.3125 19.53125 
L 54.296875 17.1875 
z
M 69.140625 39.84375 
L 69.140625 47.265625 
L 31.25 47.265625 
L 31.25 39.84375 
z
M 61.328125 10.15625 
Q 78.515625 3.515625 90.234375 -3.90625 
Q 86.71875 -6.640625 84.375 -10.15625 
Q 76.5625 -3.90625 56.640625 3.90625 
Q 59.765625 7.8125 61.328125 10.15625 
z
" id="SimHei-8d4f"/>
      <path d="M 57.421875 69.53125 
L 57.421875 79.6875 
Q 62.109375 79.296875 67.96875 78.90625 
Q 66.015625 76.171875 65.625 69.53125 
L 80.078125 69.53125 
Q 86.71875 69.53125 91.796875 69.921875 
L 91.796875 62.890625 
Q 86.328125 63.28125 80.078125 63.28125 
L 65.234375 63.28125 
L 64.453125 54.6875 
L 84.375 54.6875 
Q 83.984375 50 83.984375 42.1875 
L 83.984375 2.34375 
Q 91.796875 2.34375 95.3125 2.734375 
L 95.3125 -4.296875 
Q 90.234375 -3.90625 81.25 -3.90625 
L 44.53125 -3.90625 
Q 35.546875 -3.90625 29.6875 -4.296875 
L 29.6875 2.734375 
Q 33.203125 2.34375 40.625 2.34375 
L 40.625 42.1875 
Q 40.625 49.609375 40.234375 54.6875 
L 56.25 54.6875 
L 57.03125 63.28125 
L 50 63.28125 
Q 40.234375 63.28125 34.765625 62.890625 
L 34.765625 69.921875 
Q 39.84375 69.53125 50 69.53125 
z
M 34.765625 76.5625 
Q 31.640625 73.046875 25.78125 58.59375 
L 25.78125 7.03125 
Q 25.78125 -1.171875 26.171875 -8.59375 
L 17.96875 -8.59375 
Q 18.359375 -1.953125 18.359375 5.859375 
L 18.359375 46.09375 
Q 13.671875 38.28125 9.765625 33.59375 
Q 6.640625 37.890625 3.90625 40.234375 
Q 7.8125 44.140625 14.640625 55.265625 
Q 21.484375 66.40625 25.390625 80.46875 
Q 30.859375 77.734375 34.765625 76.5625 
z
M 76.953125 41.40625 
L 76.953125 49.21875 
L 48.046875 49.21875 
L 48.046875 41.40625 
z
M 76.953125 2.34375 
L 76.953125 9.765625 
L 48.046875 9.765625 
L 48.046875 2.34375 
z
M 76.953125 15.625 
L 76.953125 22.65625 
L 48.046875 22.65625 
L 48.046875 15.625 
z
M 76.953125 28.515625 
L 76.953125 35.546875 
L 48.046875 35.546875 
L 48.046875 28.515625 
z
" id="SimHei-503c"/>
     </defs>
     <g transform="translate(15.16875 99.190625)rotate(-90)scale(0.1 -0.1)">
      <use xlink:href="#SimHei-5e73"/>
      <use x="100" xlink:href="#SimHei-5747"/>
      <use x="200" xlink:href="#SimHei-5956"/>
      <use x="300" xlink:href="#SimHei-8d4f"/>
      <use x="400" xlink:href="#SimHei-503c"/>
     </g>
    </g>
   </g>
   <g id="line2d_12">
    <path clip-path="url(#pf2121a7c29)" d="M 52.804659 123.083088 
L 54.194078 126.57517 
L 55.583498 128.259586 
L 56.278207 128.629336 
L 56.972917 129.15755 
L 57.667627 129.322617 
L 58.362336 128.903225 
L 59.057046 128.321211 
L 60.446465 128.988815 
L 61.141175 128.202701 
L 61.835884 128.321211 
L 62.530594 128.629336 
L 63.225304 128.59082 
L 65.309433 129.148283 
L 66.004142 129.153148 
L 66.698852 129.392312 
L 67.393561 129.32962 
L 68.088271 128.548955 
L 69.47769 127.717286 
L 70.86711 127.647901 
L 72.256529 127.736836 
L 72.951239 127.376295 
L 73.645948 127.31732 
L 74.340658 127.635385 
L 75.730077 127.098651 
L 77.119496 126.959498 
L 77.814206 126.561917 
L 78.508916 126.402885 
L 79.898335 126.522159 
L 80.593045 126.740828 
L 81.287754 126.084821 
L 81.982464 124.395103 
L 83.371883 121.969862 
L 84.066593 121.154822 
L 84.761302 117.894662 
L 85.456012 117.636235 
L 86.150722 114.177284 
L 86.845431 113.163454 
L 87.540141 112.765874 
L 88.234851 111.036398 
L 88.92956 110.340633 
L 89.62427 110.857487 
L 90.31898 111.135794 
L 91.013689 111.195431 
L 91.708399 109.684625 
L 92.403108 107.3389 
L 93.097818 106.941319 
L 93.792528 106.941319 
L 94.487237 106.384706 
L 95.876657 101.21616 
L 96.571366 99.188499 
L 97.266076 98.830677 
L 97.960786 98.810798 
L 98.655495 97.001807 
L 99.350205 97.419266 
L 100.739624 94.119348 
L 101.434334 92.548905 
L 102.129043 90.20318 
L 102.823753 88.732132 
L 103.518463 88.036366 
L 104.213172 87.936971 
L 104.907882 87.400237 
L 105.602592 85.869552 
L 106.297301 86.465923 
L 106.992011 85.332819 
L 107.686721 88.274914 
L 108.38143 87.360479 
L 109.770849 84.219593 
L 112.549688 72.411452 
L 113.939107 69.946453 
L 114.633817 67.75976 
L 115.328527 64.320689 
L 116.717946 66.288712 
L 118.107365 66.805567 
L 119.496784 63.366496 
L 120.191494 63.127947 
L 120.886204 61.676779 
L 121.580913 61.378593 
L 122.275623 60.901497 
L 122.970333 60.861739 
L 123.665042 61.020771 
L 124.359752 60.762343 
L 125.054461 60.921376 
L 125.749171 62.67073 
L 126.443881 62.312907 
L 127.13859 63.247222 
L 127.8333 63.843592 
L 128.52801 62.67073 
L 129.222719 63.108068 
L 129.917429 62.67073 
L 130.612139 62.372544 
L 131.306848 63.227343 
L 132.001558 64.4996 
L 132.696267 64.320689 
L 133.390977 63.605044 
L 134.085687 63.605044 
L 134.780396 62.849641 
L 135.475106 62.929157 
L 136.169816 61.935206 
L 136.864525 65.414035 
L 137.559235 62.630972 
L 138.253945 61.796053 
L 138.948654 61.517746 
L 139.643364 60.702706 
L 140.338074 60.305126 
L 141.032783 59.629239 
L 141.727493 58.17807 
L 143.116912 56.011256 
L 143.811622 54.560088 
L 144.506331 53.983596 
L 145.201041 53.208314 
L 145.895751 51.876419 
L 146.59046 51.598113 
L 147.28517 48.874686 
L 147.97988 48.576501 
L 148.674589 47.483154 
L 150.064008 47.224727 
L 151.453428 47.204848 
L 152.148137 49.510815 
L 152.842847 49.749363 
L 153.537557 49.649968 
L 154.232266 48.974081 
L 154.926976 48.974081 
L 155.621686 51.121016 
L 157.011105 58.436497 
L 157.705814 60.325005 
L 158.400524 56.786538 
L 159.789943 57.442546 
L 160.484653 56.249805 
L 161.179363 56.289563 
L 163.263492 60.344884 
L 163.958201 59.092505 
L 164.652911 58.516014 
L 165.34762 58.516014 
L 166.04233 57.084724 
L 166.73704 56.667264 
L 167.431749 57.005208 
L 168.126459 56.269684 
L 168.821169 56.647385 
L 170.210588 56.3492 
L 171.600007 56.110651 
L 172.294717 52.452911 
L 172.989426 51.498718 
L 173.684136 48.039767 
L 175.073555 46.270534 
L 176.462975 46.270534 
L 177.157684 44.123599 
L 178.547104 37.066545 
L 179.241813 36.132231 
L 179.936523 37.424368 
L 180.631233 37.821948 
L 181.325942 37.722553 
L 182.020652 38.756262 
L 182.715361 39.054448 
L 184.104781 35.973199 
L 184.79949 35.515981 
L 185.4942 36.847876 
L 187.578329 36.847876 
L 188.273039 36.728602 
L 188.967748 36.96715 
L 190.357167 36.331021 
L 191.051877 36.271384 
L 191.746587 35.277433 
L 192.441296 34.064812 
L 193.136006 33.09074 
L 194.525425 33.070861 
L 196.609554 33.925659 
L 197.304264 33.925659 
L 197.998973 34.144329 
L 198.693683 37.603279 
L 199.388393 37.603279 
L 200.083102 37.225577 
L 200.777812 36.271384 
L 202.861941 32.037152 
L 203.556651 31.321507 
L 204.94607 29.512516 
L 205.640779 28.657718 
L 206.335489 27.58425 
L 207.030199 26.252355 
L 209.114328 26.252355 
L 209.809037 26.093323 
L 210.503747 25.516832 
L 211.198457 25.278283 
L 212.587876 23.250623 
L 213.282586 23.09159 
L 215.366714 23.09159 
L 216.061424 22.713889 
L 216.756134 22.137397 
L 217.450843 21.163325 
L 218.145553 20.64647 
L 218.840263 20.64647 
L 219.534972 20.427801 
L 220.229682 16.968851 
L 224.39794 16.968851 
L 225.092649 16.471875 
L 245.239229 16.471875 
L 245.933939 20.189253 
L 254.965164 20.189253 
L 256.354583 21.26272 
L 257.049293 21.26272 
L 257.744002 22.117518 
L 258.438712 23.50905 
L 259.133422 25.417436 
L 259.828131 29.174572 
L 260.522841 30.387193 
L 260.522841 30.387193 
" style="fill:none;stroke:#ff6347;stroke-linecap:square;stroke-width:1.5;"/>
   </g>
   <g id="line2d_13">
    <path clip-path="url(#pf2121a7c29)" d="M 52.804659 124.315587 
L 53.499369 117.228715 
L 54.194078 121.028922 
L 54.888788 121.234338 
L 56.972917 125.107908 
L 57.667627 126.164337 
L 58.362336 126.780586 
L 59.057046 126.102712 
L 60.446465 127.140066 
L 61.141175 127.491644 
L 61.835884 126.29639 
L 63.225304 126.934649 
L 63.920013 126.853086 
L 64.614723 126.335517 
L 65.309433 126.65085 
L 66.698852 127.015348 
L 67.393561 126.360416 
L 68.088271 126.700206 
L 69.47769 126.829886 
L 70.1724 127.017606 
L 71.561819 127.176747 
L 72.256529 127.333086 
L 73.645948 127.436594 
L 74.340658 126.840224 
L 75.035368 127.337199 
L 75.730077 126.979377 
L 76.424787 127.198046 
L 77.814206 127.138409 
L 78.508916 126.681191 
L 79.203625 126.383006 
L 79.898335 126.223974 
L 80.593045 126.402885 
L 81.287754 126.184216 
L 83.371883 124.136676 
L 84.066593 122.128895 
L 84.761302 121.353613 
L 85.456012 120.300024 
L 86.150722 120.021718 
L 86.845431 119.882565 
L 87.540141 116.741679 
L 88.92956 116.264582 
L 89.62427 114.217042 
L 90.31898 113.04418 
L 91.013689 112.467688 
L 94.487237 100.977612 
L 95.181947 100.818579 
L 95.876657 101.573982 
L 96.571366 99.725233 
L 97.266076 98.433096 
L 98.655495 94.198864 
L 99.350205 92.946485 
L 100.044914 90.998341 
L 100.739624 89.547172 
L 101.434334 86.485802 
L 102.129043 84.935238 
L 102.823753 84.875601 
L 103.518463 81.83411 
L 104.213172 79.985361 
L 104.907882 80.184151 
L 105.602592 79.428748 
L 107.686721 71.059679 
L 108.38143 68.634437 
L 109.07614 69.171171 
L 109.770849 66.368229 
L 110.465559 64.598995 
L 111.160269 64.320689 
L 111.854978 62.988794 
L 112.549688 59.927424 
L 113.939107 57.243756 
L 114.633817 57.184119 
L 115.328527 55.176337 
L 116.023236 55.951619 
L 116.717946 53.745047 
L 117.412655 52.333637 
L 118.107365 53.108919 
L 118.802075 53.168556 
L 120.191494 54.738999 
L 120.886204 54.858273 
L 121.580913 57.343151 
L 122.275623 57.343151 
L 122.970333 60.563553 
L 123.665042 62.312907 
L 124.359752 62.452061 
L 125.054461 66.209196 
L 125.749171 68.694075 
L 126.443881 69.906695 
L 127.13859 72.550605 
L 129.222719 83.782255 
L 129.917429 83.742497 
L 130.612139 82.688908 
L 131.306848 83.762376 
L 132.001558 84.338867 
L 132.696267 84.358746 
L 133.390977 84.537658 
L 134.085687 84.537658 
L 134.780396 84.756327 
L 135.475106 84.756327 
L 136.169816 85.153907 
L 136.864525 86.605076 
L 137.559235 86.406286 
L 138.253945 85.114149 
L 139.643364 83.941287 
L 140.338074 83.901529 
L 141.032783 83.742497 
L 141.727493 83.325037 
L 142.422202 82.569634 
L 143.116912 80.442578 
L 143.811622 80.064877 
L 145.201041 75.353548 
L 145.895751 73.544557 
L 147.97988 66.527261 
L 148.674589 64.69839 
L 150.064008 60.583432 
L 150.758718 58.873836 
L 151.453428 59.490086 
L 154.232266 67.75976 
L 154.926976 68.535042 
L 157.011105 79.488385 
L 158.400524 83.702739 
L 159.095234 84.438263 
L 159.789943 86.446044 
L 160.484653 86.883383 
L 161.179363 87.161689 
L 161.874072 87.678544 
L 163.263492 87.917092 
L 163.958201 88.612858 
L 165.34762 92.568784 
L 166.73704 97.160839 
L 168.126459 101.41495 
L 169.515878 106.086521 
L 170.905298 107.955149 
L 171.600007 108.472004 
L 172.294717 108.571399 
L 173.684136 107.438295 
L 174.378846 105.688941 
L 175.768265 102.786603 
L 176.462975 102.607692 
L 178.547104 97.598177 
L 179.936523 93.443461 
L 180.631233 95.172936 
L 182.020652 94.556686 
L 182.715361 93.721767 
L 184.104781 92.668179 
L 184.79949 91.236889 
L 185.4942 89.507414 
L 186.18891 86.883383 
L 191.051877 71.516896 
L 192.441296 68.654316 
L 193.136006 67.898913 
L 193.830716 67.481454 
L 194.525425 67.958551 
L 195.220135 67.97843 
L 195.914845 67.302543 
L 196.609554 66.427866 
L 197.998973 65.215245 
L 201.472522 63.704439 
L 202.167231 60.662948 
L 204.94607 56.945571 
L 205.640779 55.514281 
L 206.335489 55.573918 
L 207.030199 56.329321 
L 207.724908 55.53416 
L 208.419618 54.043233 
L 209.114328 54.162507 
L 209.809037 54.043233 
L 211.198457 53.228193 
L 211.893166 51.419202 
L 213.282586 49.252388 
L 213.977295 49.649968 
L 215.366714 46.330171 
L 216.061424 45.177188 
L 216.756134 43.646503 
L 218.145553 40.962834 
L 218.840263 39.392391 
L 219.534972 39.392391 
L 220.229682 39.054448 
L 220.924392 37.881585 
L 222.313811 34.700941 
L 223.00852 34.502151 
L 224.39794 36.589449 
L 225.092649 37.265335 
L 225.787359 38.636988 
L 226.482069 38.974932 
L 227.176778 38.79602 
L 227.871488 38.080376 
L 228.566198 36.529812 
L 229.260907 36.331021 
L 229.955617 36.331021 
L 232.734455 31.102838 
L 234.123875 31.102838 
L 234.818584 30.963684 
L 235.513294 29.512516 
L 236.902713 29.512516 
L 237.597423 28.995661 
L 240.376261 28.995661 
L 241.070971 28.021589 
L 241.765681 26.630057 
L 242.46039 25.974049 
L 243.84981 25.974049 
L 244.544519 25.019856 
L 247.323358 18.042318 
L 248.018067 16.849576 
L 248.712777 16.849576 
L 249.407487 17.962802 
L 250.102196 19.910946 
L 250.796906 20.348285 
L 260.522841 20.24889 
L 260.522841 20.24889 
" style="fill:none;stroke:#008000;stroke-dasharray:5.55,2.4;stroke-dashoffset:0;stroke-width:1.5;"/>
   </g>
   <g id="line2d_14">
    <path clip-path="url(#pf2121a7c29)" d="M 52.804659 129.245586 
L 53.499369 128.321211 
L 54.194078 129.245586 
L 56.278207 130.683502 
L 56.972917 130.213978 
L 59.057046 130.41646 
L 59.751755 128.461268 
L 60.446465 128.68069 
L 61.141175 128.155298 
L 62.530594 128.095253 
L 63.225304 128.359727 
L 63.920013 128.484336 
L 64.614723 128.800516 
L 66.004142 128.999086 
L 66.698852 128.48261 
L 67.393561 128.657347 
L 68.088271 128.656129 
L 68.782981 127.525222 
L 69.47769 127.470786 
L 70.1724 127.704961 
L 70.86711 127.30554 
L 71.561819 127.396836 
L 72.256529 127.184336 
L 72.951239 127.376295 
L 75.730077 127.396836 
L 76.424787 126.422764 
L 77.119496 126.383006 
L 77.814206 124.733047 
L 78.508916 124.335466 
L 79.203625 123.301757 
L 79.898335 122.745144 
L 80.593045 122.62587 
L 81.287754 121.691556 
L 81.982464 121.592161 
L 82.677174 121.095185 
L 83.371883 119.127162 
L 84.066593 118.530791 
L 85.456012 118.530791 
L 86.845431 116.264582 
L 87.540141 115.608574 
L 88.234851 114.535107 
L 89.62427 108.690673 
L 90.31898 107.597327 
L 91.013689 105.649183 
L 91.708399 105.470271 
L 92.403108 104.019102 
L 93.097818 103.979344 
L 93.792528 102.190232 
L 94.487237 102.130595 
L 95.181947 100.40112 
L 95.876657 97.717451 
L 96.571366 97.73733 
L 97.266076 95.153057 
L 97.960786 93.204913 
L 98.655495 89.507414 
L 99.350205 87.658665 
L 100.044914 84.974996 
L 100.739624 85.968947 
L 101.434334 84.577416 
L 102.129043 84.637053 
L 102.823753 86.227375 
L 103.518463 83.325037 
L 104.213172 81.01907 
L 104.907882 80.303425 
L 105.602592 77.301692 
L 106.992011 69.886816 
L 107.686721 68.018188 
L 108.38143 65.7321 
L 109.07614 65.056213 
L 109.770849 62.849641 
L 111.160269 61.338835 
L 111.854978 60.165973 
L 112.549688 62.213512 
L 113.244398 62.173754 
L 113.939107 61.418351 
L 114.633817 57.800369 
L 115.328527 56.885933 
L 116.023236 53.188435 
L 116.717946 52.114967 
L 117.412655 54.778757 
L 118.107365 54.679362 
L 118.802075 55.31549 
L 119.496784 55.73295 
L 120.886204 62.86952 
L 121.580913 65.553189 
L 122.275623 65.672463 
L 122.970333 67.680244 
L 124.359752 67.799518 
L 125.749171 70.42355 
L 126.443881 73.246371 
L 128.52801 84.358746 
L 129.917429 90.759793 
L 130.612139 92.071808 
L 133.390977 106.603376 
L 134.085687 106.643134 
L 134.780396 106.861803 
L 135.475106 109.58523 
L 136.169816 113.342365 
L 136.864525 116.423614 
L 137.559235 120.121113 
L 138.253945 123.102967 
L 139.643364 123.500547 
L 140.338074 125.528208 
L 141.032783 128.052844 
L 142.422202 128.13236 
L 143.116912 128.708852 
L 145.895751 128.808247 
L 146.59046 130.557601 
L 147.28517 130.478085 
L 150.758718 130.57748 
L 151.453428 130.537722 
L 153.537557 124.414982 
L 157.705814 102.011321 
L 159.095234 96.365678 
L 159.789943 93.682009 
L 160.484653 91.535075 
L 161.179363 88.950801 
L 163.263492 80.00524 
L 164.652911 75.552338 
L 166.04233 68.157341 
L 167.431749 65.135729 
L 168.126459 62.491819 
L 171.600007 53.08904 
L 172.294717 51.081258 
L 172.989426 50.981863 
L 173.684136 52.969765 
L 174.378846 53.248072 
L 175.073555 53.784806 
L 177.157684 60.185852 
L 181.325942 74.637903 
L 182.020652 76.089072 
L 182.715361 78.017337 
L 183.410071 79.408869 
L 184.104781 80.243788 
L 184.79949 80.462457 
L 185.4942 79.786571 
L 186.18891 79.945603 
L 186.883619 81.555804 
L 187.578329 82.688908 
L 188.273039 82.231691 
L 188.967748 81.595562 
L 189.662458 82.291328 
L 190.357167 84.179835 
L 191.051877 83.802134 
L 191.746587 84.060561 
L 193.830716 84.020803 
L 194.525425 81.933505 
L 195.220135 78.673345 
L 195.914845 76.586048 
L 196.609554 75.731249 
L 197.998973 71.834961 
L 198.693683 70.582582 
L 199.388393 69.707905 
L 200.083102 67.382059 
L 200.777812 65.712221 
L 201.472522 63.108068 
L 202.167231 60.046698 
L 202.861941 56.329321 
L 203.556651 54.679362 
L 204.25136 51.85654 
L 204.94607 51.021621 
L 205.640779 52.989645 
L 207.030199 58.79432 
L 208.419618 62.849641 
L 209.114328 65.414035 
L 211.198457 71.43738 
L 213.282586 77.122781 
L 214.672005 81.158223 
L 215.366714 83.046731 
L 216.061424 85.273182 
L 220.229682 104.575715 
L 220.924392 106.802166 
L 221.619101 110.499665 
L 222.313811 113.083938 
L 224.39794 123.818612 
L 225.092649 126.124579 
L 225.787359 129.543771 
L 226.482069 131.909375 
L 227.871488 131.730464 
L 231.345036 131.452157 
L 232.039746 131.372641 
L 232.734455 131.054577 
L 234.123875 126.820345 
L 236.902713 116.10555 
L 239.681552 106.285311 
L 242.46039 93.841042 
L 243.84981 88.911043 
L 245.239229 83.344916 
L 245.933939 81.078707 
L 247.323358 75.910161 
L 249.407487 69.012139 
L 250.796906 63.704439 
L 254.270454 51.518597 
L 254.965164 50.484887 
L 255.659873 49.848759 
L 256.354583 50.246339 
L 257.049293 49.848759 
L 257.744002 49.689726 
L 259.133422 48.377711 
L 259.828131 47.085574 
L 260.522841 47.045816 
L 260.522841 47.045816 
" style="fill:none;stroke:#a9a9a9;stroke-dasharray:5.55,2.4;stroke-dashoffset:0;stroke-width:1.5;"/>
   </g>
   <g id="patch_3">
    <path d="M 42.41875 137.68125 
L 42.41875 10.7 
" style="fill:none;stroke:#000000;stroke-linecap:square;stroke-linejoin:miter;stroke-width:0.8;"/>
   </g>
   <g id="patch_4">
    <path d="M 270.90875 137.68125 
L 270.90875 10.7 
" style="fill:none;stroke:#000000;stroke-linecap:square;stroke-linejoin:miter;stroke-width:0.8;"/>
   </g>
   <g id="patch_5">
    <path d="M 42.41875 137.68125 
L 270.90875 137.68125 
" style="fill:none;stroke:#000000;stroke-linecap:square;stroke-linejoin:miter;stroke-width:0.8;"/>
   </g>
   <g id="patch_6">
    <path d="M 42.41875 10.7 
L 270.90875 10.7 
" style="fill:none;stroke:#000000;stroke-linecap:square;stroke-linejoin:miter;stroke-width:0.8;"/>
   </g>
   <g id="legend_1">
    <g id="patch_7">
     <path d="M 49.41875 58.45 
L 117.41875 58.45 
Q 119.41875 58.45 119.41875 56.45 
L 119.41875 17.7 
Q 119.41875 15.7 117.41875 15.7 
L 49.41875 15.7 
Q 47.41875 15.7 47.41875 17.7 
L 47.41875 56.45 
Q 47.41875 58.45 49.41875 58.45 
z
" style="fill:none;opacity:0.8;"/>
    </g>
    <g id="line2d_15">
     <path d="M 51.41875 23.2 
L 71.41875 23.2 
" style="fill:none;stroke:#ff6347;stroke-linecap:square;stroke-width:1.5;"/>
    </g>
    <g id="line2d_16"/>
    <g id="text_14">
     <!-- $\lambda$ = 0.8 -->
     <defs>
      <path d="M 36.71875 67.4375 
L 48.828125 0 
L 39.3125 0 
L 31.84375 40.4375 
L 5.125 0 
L -4.390625 0 
L 29.734375 52.4375 
L 28.03125 62.109375 
Q 26.953125 68.265625 21.734375 68.265625 
L 17.046875 68.265625 
L 18.5 75.984375 
L 24.21875 75.875 
Q 35.203125 75.734375 36.71875 67.4375 
z
" id="DejaVuSans-Oblique-3bb"/>
      <path id="SimHei-20"/>
      <path d="M 46.484375 45.3125 
L 1.953125 45.3125 
L 1.953125 51.5625 
L 46.484375 51.5625 
z
M 46.484375 21.484375 
L 1.953125 21.484375 
L 1.953125 27.734375 
L 46.484375 27.734375 
z
" id="SimHei-3d"/>
      <path d="M 16.796875 1.953125 
L 7.8125 1.953125 
L 7.8125 10.546875 
L 16.796875 10.546875 
z
" id="SimHei-2e"/>
      <path d="M 2.734375 16.796875 
Q 2.734375 26.171875 5.078125 30.65625 
Q 7.421875 35.15625 12.890625 37.890625 
Q 8.203125 40.625 6.640625 43.9375 
Q 5.078125 47.265625 4.875 51.5625 
Q 4.6875 55.859375 6.046875 58.984375 
Q 7.421875 62.109375 10.15625 64.84375 
Q 12.890625 67.578125 16.203125 68.546875 
Q 19.53125 69.53125 23.4375 69.53125 
Q 27.34375 69.53125 30.46875 68.75 
Q 33.59375 67.96875 37.109375 65.421875 
Q 40.625 62.890625 42.1875 58.203125 
Q 43.75 53.515625 41.984375 47.265625 
Q 40.234375 41.015625 32.8125 37.5 
Q 39.453125 35.546875 42.1875 31.4375 
Q 44.921875 27.34375 44.921875 21.484375 
Q 44.921875 15.625 43.15625 12.109375 
Q 41.40625 8.59375 39.25 6.25 
Q 37.109375 3.90625 33.390625 2.53125 
Q 29.6875 1.171875 24.015625 1.171875 
Q 18.359375 1.171875 14.25 2.53125 
Q 10.15625 3.90625 7.421875 6.640625 
Q 4.6875 9.375 3.703125 13.078125 
Q 2.734375 16.796875 2.734375 26.171875 
z
M 10.9375 26.5625 
Q 10.546875 17.1875 12.296875 13.671875 
Q 14.0625 10.15625 18.75 9.171875 
Q 23.4375 8.203125 28.515625 9.375 
Q 33.59375 10.546875 35.546875 14.84375 
Q 37.5 19.140625 36.90625 23.4375 
Q 36.328125 27.734375 32.03125 30.65625 
Q 27.734375 33.59375 22.65625 33.203125 
Q 17.578125 32.8125 14.25 29.6875 
Q 10.9375 26.5625 10.546875 17.1875 
z
M 12.109375 56.25 
Q 12.109375 48.4375 14.84375 44.921875 
Q 17.578125 41.40625 23.4375 41.40625 
Q 29.296875 41.40625 32.21875 44.921875 
Q 35.15625 48.4375 34.953125 53.3125 
Q 34.765625 58.203125 31.4375 60.546875 
Q 28.125 62.890625 22.453125 62.5 
Q 16.796875 62.109375 14.453125 59.171875 
Q 12.109375 56.25 12.109375 48.4375 
z
" id="SimHei-38"/>
     </defs>
     <g transform="translate(79.41875 26.7)scale(0.1 -0.1)">
      <use transform="translate(0 0.015625)" xlink:href="#DejaVuSans-Oblique-3bb"/>
      <use transform="translate(59.179688 0.015625)" xlink:href="#SimHei-20"/>
      <use transform="translate(109.179688 0.015625)" xlink:href="#SimHei-3d"/>
      <use transform="translate(159.179688 0.015625)" xlink:href="#SimHei-20"/>
      <use transform="translate(209.179688 0.015625)" xlink:href="#SimHei-30"/>
      <use transform="translate(259.179688 0.015625)" xlink:href="#SimHei-2e"/>
      <use transform="translate(309.179688 0.015625)" xlink:href="#SimHei-38"/>
     </g>
    </g>
    <g id="line2d_17">
     <path d="M 51.41875 36.45 
L 71.41875 36.45 
" style="fill:none;stroke:#008000;stroke-dasharray:5.55,2.4;stroke-dashoffset:0;stroke-width:1.5;"/>
    </g>
    <g id="line2d_18"/>
    <g id="text_15">
     <!-- $\lambda$ = 0.5 -->
     <g transform="translate(79.41875 39.95)scale(0.1 -0.1)">
      <use transform="translate(0 0.015625)" xlink:href="#DejaVuSans-Oblique-3bb"/>
      <use transform="translate(59.179688 0.015625)" xlink:href="#SimHei-20"/>
      <use transform="translate(109.179688 0.015625)" xlink:href="#SimHei-3d"/>
      <use transform="translate(159.179688 0.015625)" xlink:href="#SimHei-20"/>
      <use transform="translate(209.179688 0.015625)" xlink:href="#SimHei-30"/>
      <use transform="translate(259.179688 0.015625)" xlink:href="#SimHei-2e"/>
      <use transform="translate(309.179688 0.015625)" xlink:href="#SimHei-35"/>
     </g>
    </g>
    <g id="line2d_19">
     <path d="M 51.41875 49.7 
L 71.41875 49.7 
" style="fill:none;stroke:#a9a9a9;stroke-dasharray:5.55,2.4;stroke-dashoffset:0;stroke-width:1.5;"/>
    </g>
    <g id="line2d_20"/>
    <g id="text_16">
     <!-- $\lambda$ = 0.3 -->
     <g transform="translate(79.41875 53.2)scale(0.1 -0.1)">
      <use transform="translate(0 0.015625)" xlink:href="#DejaVuSans-Oblique-3bb"/>
      <use transform="translate(59.179688 0.015625)" xlink:href="#SimHei-20"/>
      <use transform="translate(109.179688 0.015625)" xlink:href="#SimHei-3d"/>
      <use transform="translate(159.179688 0.015625)" xlink:href="#SimHei-20"/>
      <use transform="translate(209.179688 0.015625)" xlink:href="#SimHei-30"/>
      <use transform="translate(259.179688 0.015625)" xlink:href="#SimHei-2e"/>
      <use transform="translate(309.179688 0.015625)" xlink:href="#SimHei-33"/>
     </g>
    </g>
   </g>
  </g>
 </g>
 <defs>
  <clipPath id="pf2121a7c29">
   <rect height="126.98125" width="228.49" x="42.41875" y="10.7"/>
  </clipPath>
 </defs>
</svg>
