<?xml version="1.0" encoding="utf-8" standalone="no"?>
<!DOCTYPE svg PUBLIC "-//W3C//DTD SVG 1.1//EN"
  "http://www.w3.org/Graphics/SVG/1.1/DTD/svg11.dtd">
<!-- Created with matplotlib (http://matplotlib.org/) -->
<svg height="209.185937pt" version="1.1" viewBox="0 0 281.65875 209.185937" width="281.65875pt" xmlns="http://www.w3.org/2000/svg" xmlns:xlink="http://www.w3.org/1999/xlink">
 <defs>
  <style type="text/css">
*{stroke-linecap:butt;stroke-linejoin:round;}
  </style>
 </defs>
 <g id="figure_1">
  <g id="patch_1">
   <path d="M 0 209.185937 
L 281.65875 209.185937 
L 281.65875 0 
L 0 0 
z
" style="fill:none;"/>
  </g>
  <g id="axes_1">
   <g id="patch_2">
    <path d="M 47.41875 173.68125 
L 270.95875 173.68125 
L 270.95875 10.7 
L 47.41875 10.7 
z
" style="fill:#ffffff;"/>
   </g>
   <g id="matplotlib.axis_1">
    <g id="xtick_1">
     <g id="line2d_1">
      <defs>
       <path d="M 0 0 
L 0 3.5 
" id="m9f180a48d7" style="stroke:#000000;stroke-width:0.8;"/>
      </defs>
      <g>
       <use style="stroke:#000000;stroke-width:0.8;" x="57.579659" xlink:href="#m9f180a48d7" y="173.68125"/>
      </g>
     </g>
     <g id="text_1">
      <!-- 0 -->
      <defs>
       <path d="M 3.125 29.296875 
Q 3.90625 50 6.4375 56.046875 
Q 8.984375 62.109375 13.671875 66.015625 
Q 18.359375 69.921875 25.1875 69.921875 
Q 32.03125 69.921875 37.109375 64.25 
Q 42.1875 58.59375 43.75 50 
Q 45.3125 41.40625 44.71875 30.265625 
Q 44.140625 19.140625 40.8125 12.109375 
Q 37.5 5.078125 30.859375 2.34375 
Q 24.21875 -0.390625 17.578125 2.921875 
Q 10.9375 6.25 8.203125 11.71875 
Q 5.46875 17.1875 4.296875 23.234375 
Q 3.125 29.296875 3.90625 50 
z
M 12.890625 52.734375 
Q 10.546875 31.25 12.5 22.84375 
Q 14.453125 14.453125 18.9375 10.9375 
Q 23.4375 7.421875 28.125 9.5625 
Q 32.8125 11.71875 34.953125 18.15625 
Q 37.109375 24.609375 37.109375 32.21875 
Q 37.109375 39.84375 36.515625 46.09375 
Q 35.9375 52.34375 33 57.421875 
Q 30.078125 62.5 25.1875 62.6875 
Q 20.3125 62.890625 16.59375 57.8125 
Q 12.890625 52.734375 10.546875 31.25 
z
" id="SimHei-30"/>
      </defs>
      <g transform="translate(55.079659 187.55625)scale(0.1 -0.1)">
       <use xlink:href="#SimHei-30"/>
      </g>
     </g>
    </g>
    <g id="xtick_2">
     <g id="line2d_2">
      <g>
       <use style="stroke:#000000;stroke-width:0.8;" x="91.562633" xlink:href="#m9f180a48d7" y="173.68125"/>
      </g>
     </g>
     <g id="text_2">
      <!-- 50 -->
      <defs>
       <path d="M 8.59375 20.703125 
Q 11.328125 10.15625 17.96875 8.984375 
Q 24.609375 7.8125 28.703125 10.34375 
Q 32.8125 12.890625 34.5625 16.984375 
Q 36.328125 21.09375 36.125 26.171875 
Q 35.9375 31.25 33.390625 34.765625 
Q 30.859375 38.28125 26.953125 39.453125 
Q 23.046875 40.625 18.15625 39.453125 
Q 13.28125 38.28125 10.15625 33.984375 
L 3.515625 34.765625 
Q 4.296875 37.109375 10.9375 68.359375 
L 41.796875 68.359375 
L 41.796875 61.328125 
L 16.796875 61.328125 
Q 14.84375 50.78125 12.890625 44.53125 
Q 18.75 47.265625 23.828125 47.0625 
Q 28.90625 46.875 33.59375 44.71875 
Q 38.28125 42.578125 40.421875 38.859375 
Q 42.578125 35.15625 43.546875 31.4375 
Q 44.53125 27.734375 44.328125 23.4375 
Q 44.140625 19.140625 42.578125 14.640625 
Q 41.015625 10.15625 37.890625 7.21875 
Q 34.765625 4.296875 30.265625 2.53125 
Q 25.78125 0.78125 19.921875 1.171875 
Q 14.0625 1.5625 8.78125 5.46875 
Q 3.515625 9.375 1.5625 18.75 
z
" id="SimHei-35"/>
      </defs>
      <g transform="translate(86.562633 187.55625)scale(0.1 -0.1)">
       <use xlink:href="#SimHei-35"/>
       <use x="50" xlink:href="#SimHei-30"/>
      </g>
     </g>
    </g>
    <g id="xtick_3">
     <g id="line2d_3">
      <g>
       <use style="stroke:#000000;stroke-width:0.8;" x="125.545606" xlink:href="#m9f180a48d7" y="173.68125"/>
      </g>
     </g>
     <g id="text_3">
      <!-- 100 -->
      <defs>
       <path d="M 21.875 56.25 
Q 16.796875 51.171875 8.984375 46.484375 
L 8.984375 53.90625 
Q 18.75 60.546875 25 69.53125 
L 29.6875 69.53125 
L 29.6875 2.34375 
L 21.875 2.34375 
z
" id="SimHei-31"/>
      </defs>
      <g transform="translate(118.045606 187.55625)scale(0.1 -0.1)">
       <use xlink:href="#SimHei-31"/>
       <use x="50" xlink:href="#SimHei-30"/>
       <use x="100" xlink:href="#SimHei-30"/>
      </g>
     </g>
    </g>
    <g id="xtick_4">
     <g id="line2d_4">
      <g>
       <use style="stroke:#000000;stroke-width:0.8;" x="159.52858" xlink:href="#m9f180a48d7" y="173.68125"/>
      </g>
     </g>
     <g id="text_4">
      <!-- 150 -->
      <g transform="translate(152.02858 187.55625)scale(0.1 -0.1)">
       <use xlink:href="#SimHei-31"/>
       <use x="50" xlink:href="#SimHei-35"/>
       <use x="100" xlink:href="#SimHei-30"/>
      </g>
     </g>
    </g>
    <g id="xtick_5">
     <g id="line2d_5">
      <g>
       <use style="stroke:#000000;stroke-width:0.8;" x="193.511553" xlink:href="#m9f180a48d7" y="173.68125"/>
      </g>
     </g>
     <g id="text_5">
      <!-- 200 -->
      <defs>
       <path d="M 4.6875 3.90625 
Q 5.078125 9.765625 10.15625 14.453125 
Q 15.234375 19.140625 23.046875 29.09375 
Q 30.859375 39.0625 33.203125 44.53125 
Q 35.546875 50 34.953125 53.90625 
Q 34.375 57.8125 31.25 60.34375 
Q 28.125 62.890625 24.015625 62.5 
Q 19.921875 62.109375 16.203125 59.375 
Q 12.5 56.640625 10.546875 51.171875 
L 3.125 52.34375 
Q 6.25 61.328125 11.125 65.421875 
Q 16.015625 69.53125 22.65625 69.921875 
Q 26.5625 70.3125 29.6875 69.71875 
Q 32.8125 69.140625 36.125 66.984375 
Q 39.453125 64.84375 41.59375 60.546875 
Q 43.75 56.25 43.15625 50.1875 
Q 42.578125 44.140625 37.109375 35.734375 
Q 31.640625 27.34375 16.015625 9.375 
L 44.140625 9.375 
L 44.140625 2.34375 
L 4.6875 2.34375 
z
" id="SimHei-32"/>
      </defs>
      <g transform="translate(186.011553 187.55625)scale(0.1 -0.1)">
       <use xlink:href="#SimHei-32"/>
       <use x="50" xlink:href="#SimHei-30"/>
       <use x="100" xlink:href="#SimHei-30"/>
      </g>
     </g>
    </g>
    <g id="xtick_6">
     <g id="line2d_6">
      <g>
       <use style="stroke:#000000;stroke-width:0.8;" x="227.494527" xlink:href="#m9f180a48d7" y="173.68125"/>
      </g>
     </g>
     <g id="text_6">
      <!-- 250 -->
      <g transform="translate(219.994527 187.55625)scale(0.1 -0.1)">
       <use xlink:href="#SimHei-32"/>
       <use x="50" xlink:href="#SimHei-35"/>
       <use x="100" xlink:href="#SimHei-30"/>
      </g>
     </g>
    </g>
    <g id="xtick_7">
     <g id="line2d_7">
      <g>
       <use style="stroke:#000000;stroke-width:0.8;" x="261.4775" xlink:href="#m9f180a48d7" y="173.68125"/>
      </g>
     </g>
     <g id="text_7">
      <!-- 300 -->
      <defs>
       <path d="M 3.90625 19.140625 
L 10.9375 20.3125 
Q 12.5 15.234375 16.015625 11.90625 
Q 19.53125 8.59375 24.796875 8.78125 
Q 30.078125 8.984375 33.203125 13.078125 
Q 36.328125 17.1875 35.9375 22.453125 
Q 35.546875 27.734375 31.828125 30.65625 
Q 28.125 33.59375 19.921875 34.765625 
L 19.921875 39.84375 
Q 28.125 40.625 31.828125 44.140625 
Q 35.546875 47.65625 35.15625 53.3125 
Q 34.765625 58.984375 30.078125 61.515625 
Q 25.390625 64.0625 20.109375 62.109375 
Q 14.84375 60.15625 11.71875 51.171875 
L 4.6875 52.34375 
Q 7.03125 59.375 11.125 64.0625 
Q 15.234375 68.75 22.265625 69.53125 
Q 29.296875 70.3125 34.5625 67.765625 
Q 39.84375 65.234375 41.984375 59.953125 
Q 44.140625 54.6875 42.578125 48.4375 
Q 41.015625 42.1875 33.59375 37.5 
Q 39.0625 35.15625 41.984375 30.46875 
Q 44.921875 25.78125 43.9375 18.15625 
Q 42.96875 10.546875 37.109375 5.859375 
Q 31.25 1.171875 23.828125 1.359375 
Q 16.40625 1.5625 10.9375 6.046875 
Q 5.46875 10.546875 3.90625 19.140625 
z
" id="SimHei-33"/>
      </defs>
      <g transform="translate(253.9775 187.55625)scale(0.1 -0.1)">
       <use xlink:href="#SimHei-33"/>
       <use x="50" xlink:href="#SimHei-30"/>
       <use x="100" xlink:href="#SimHei-30"/>
      </g>
     </g>
    </g>
    <g id="text_8">
     <!-- 训练回合数 -->
     <defs>
      <path d="M 25.78125 51.5625 
Q 25.390625 42.578125 25.390625 34.765625 
L 25.390625 10.546875 
Q 30.46875 17.578125 32.03125 19.921875 
Q 33.984375 17.578125 36.71875 14.0625 
Q 31.640625 7.8125 28.125 3.3125 
Q 24.609375 -1.171875 20.703125 -6.640625 
Q 17.96875 -3.125 14.84375 -0.78125 
Q 17.96875 3.515625 17.96875 9.765625 
L 17.96875 44.921875 
L 15.234375 44.921875 
Q 9.375 44.921875 4.6875 44.53125 
L 4.6875 51.953125 
Q 9.375 51.5625 15.234375 51.5625 
z
M 53.515625 71.875 
Q 52.734375 67.96875 52.921875 52.53125 
Q 53.125 37.109375 52.140625 29.484375 
Q 51.171875 21.875 48.234375 13.078125 
Q 45.3125 4.296875 38.28125 -5.859375 
Q 34.765625 -3.125 30.859375 -1.953125 
Q 39.84375 7.8125 43.15625 21.28125 
Q 46.484375 34.765625 46.09375 52.140625 
Q 45.703125 69.53125 45.3125 73.046875 
Q 49.21875 72.265625 53.515625 71.875 
z
M 91.796875 73.4375 
Q 91.40625 70.3125 91.40625 62.109375 
L 91.40625 9.765625 
Q 91.40625 1.953125 91.796875 -6.25 
L 84.375 -6.25 
Q 84.765625 1.953125 84.765625 9.375 
L 84.765625 62.109375 
Q 84.765625 70.3125 84.375 73.4375 
L 91.796875 73.4375 
z
M 71.875 2.734375 
L 64.453125 2.734375 
Q 64.84375 11.328125 64.84375 17.96875 
L 64.84375 56.25 
Q 64.84375 63.28125 64.453125 67.96875 
L 71.875 67.96875 
z
M 15.625 80.46875 
Q 25.78125 71.875 32.8125 64.0625 
Q 29.296875 61.328125 27.34375 58.59375 
Q 16.40625 71.09375 10.9375 75 
Q 13.28125 77.34375 15.625 80.46875 
z
" id="SimHei-8bad"/>
      <path d="M 51.5625 59.765625 
Q 46.09375 59.765625 37.5 59.375 
L 37.5 66.40625 
Q 46.09375 66.015625 51.953125 66.015625 
L 56.640625 66.015625 
Q 60.546875 77.34375 60.9375 80.859375 
Q 65.625 78.515625 69.53125 76.953125 
Q 67.96875 75.390625 66.59375 72.0625 
Q 65.234375 68.75 64.0625 66.015625 
L 78.515625 66.015625 
Q 84.765625 66.015625 92.1875 66.40625 
L 92.1875 59.375 
Q 86.71875 59.765625 78.515625 59.765625 
L 62.109375 59.765625 
Q 60.15625 55.078125 57.8125 49.21875 
L 73.046875 49.21875 
Q 72.65625 44.921875 72.65625 38.671875 
L 72.65625 30.859375 
L 77.734375 30.859375 
Q 83.59375 30.859375 90.625 31.25 
L 90.625 24.21875 
Q 83.59375 24.609375 77.734375 24.609375 
L 72.65625 24.609375 
L 72.65625 1.953125 
Q 72.65625 -4.6875 69.71875 -6.640625 
Q 66.796875 -8.59375 57.03125 -9.765625 
Q 56.640625 -5.859375 53.90625 -1.5625 
Q 63.671875 -1.953125 64.640625 -0.390625 
Q 65.625 1.171875 65.625 5.078125 
L 65.625 24.609375 
L 53.515625 24.609375 
Q 50.78125 24.609375 48.4375 24.40625 
Q 46.09375 24.21875 42.96875 23.046875 
Q 41.40625 26.953125 39.84375 30.46875 
Q 43.75 31.640625 48.828125 43.359375 
Q 46.09375 43.359375 38.28125 42.96875 
L 38.28125 49.609375 
Q 47.265625 49.21875 50.78125 49.21875 
Q 53.125 55.078125 54.6875 59.765625 
z
M 25.78125 46.09375 
Q 29.296875 51.5625 32.8125 60.9375 
Q 36.328125 58.203125 40.234375 56.25 
Q 36.328125 51.171875 31.640625 42.96875 
Q 26.953125 34.765625 16.796875 21.09375 
Q 20.3125 21.875 37.5 24.609375 
Q 36.71875 20.3125 37.109375 17.96875 
Q 28.515625 17.1875 10.15625 12.890625 
Q 8.203125 16.796875 6.25 19.921875 
Q 9.765625 21.875 13.859375 27.140625 
Q 17.96875 32.421875 22.65625 40.234375 
Q 20.3125 40.625 15.8125 40.03125 
Q 11.328125 39.453125 7.03125 38.28125 
Q 5.46875 41.796875 3.90625 45.703125 
Q 7.8125 48.046875 12.6875 58.203125 
Q 17.578125 68.359375 20.703125 78.125 
Q 25 75.390625 28.90625 74.21875 
Q 25 68.359375 21.671875 61.90625 
Q 18.359375 55.46875 12.5 45.703125 
Q 21.484375 45.703125 25.78125 46.09375 
z
M 37.890625 10.9375 
Q 37.5 6.640625 37.890625 3.90625 
Q 31.25 2.34375 22.84375 -0.390625 
Q 14.453125 -3.125 7.421875 -6.640625 
Q 6.25 -2.34375 4.6875 1.953125 
Q 14.84375 4.296875 18.546875 5.265625 
Q 22.265625 6.25 37.890625 10.9375 
z
M 58.203125 13.671875 
Q 57.03125 12.5 51.359375 6.25 
Q 45.703125 0 38.671875 -7.421875 
Q 35.9375 -3.90625 33.59375 -1.953125 
Q 37.890625 1.5625 42.96875 7.21875 
Q 48.046875 12.890625 51.953125 19.140625 
Q 54.296875 16.40625 58.203125 13.671875 
z
M 82.421875 19.140625 
Q 92.578125 5.859375 96.875 -1.5625 
Q 92.96875 -3.125 89.84375 -5.859375 
Q 85.546875 2.734375 76.5625 14.84375 
Q 79.296875 16.40625 82.421875 19.140625 
z
M 65.625 30.859375 
L 65.625 43.359375 
L 55.859375 43.359375 
Q 51.953125 35.15625 49.609375 30.859375 
z
" id="SimHei-7ec3"/>
      <path d="M 88.28125 75.78125 
Q 87.890625 64.453125 87.890625 53.90625 
L 87.890625 14.84375 
Q 87.890625 4.6875 88.28125 -5.859375 
L 80.46875 -5.859375 
L 80.46875 1.5625 
L 18.359375 1.5625 
L 18.359375 -5.859375 
L 10.9375 -5.859375 
Q 11.328125 3.90625 11.328125 14.84375 
L 11.328125 53.90625 
Q 11.328125 64.0625 10.9375 75.78125 
L 88.28125 75.78125 
z
M 80.46875 7.8125 
L 80.46875 69.140625 
L 18.75 69.140625 
L 18.75 7.8125 
z
M 67.578125 54.6875 
Q 67.1875 48.828125 67.1875 42.96875 
L 67.1875 33.984375 
Q 67.1875 28.90625 67.578125 21.875 
L 31.640625 21.875 
Q 32.03125 28.90625 32.03125 33.984375 
L 32.03125 43.75 
Q 32.03125 49.21875 31.640625 54.6875 
L 67.578125 54.6875 
z
M 59.765625 28.515625 
L 59.765625 48.4375 
L 39.0625 48.4375 
L 39.0625 28.515625 
z
" id="SimHei-56de"/>
      <path d="M 78.90625 28.125 
Q 78.515625 24.21875 78.515625 10.15625 
Q 78.515625 -3.90625 78.90625 -8.203125 
L 70.703125 -8.203125 
L 70.703125 -0.78125 
L 27.34375 -0.78125 
L 27.34375 -9.375 
L 19.53125 -9.375 
Q 19.921875 -4.6875 19.921875 8.59375 
Q 19.921875 22.265625 19.53125 28.125 
L 78.90625 28.125 
z
M 52.734375 75 
Q 64.0625 61.328125 71.09375 56.25 
Q 78.125 51.171875 83.984375 48.4375 
Q 89.84375 45.703125 95.3125 44.140625 
Q 91.40625 39.84375 90.234375 35.9375 
Q 82.421875 39.453125 76.171875 43.359375 
Q 69.921875 47.265625 63.46875 53.3125 
Q 57.03125 59.375 48.828125 69.921875 
Q 41.40625 59.375 34.171875 52.53125 
Q 26.953125 45.703125 21.875 41.796875 
Q 16.796875 37.890625 10.546875 33.984375 
Q 9.765625 35.546875 4.296875 40.234375 
Q 12.5 44.140625 19.921875 49.609375 
Q 27.34375 55.078125 34.765625 63.46875 
Q 42.1875 71.875 46.875 81.640625 
Q 51.171875 78.90625 54.6875 77.34375 
z
M 70.703125 5.46875 
L 70.703125 21.875 
L 27.34375 21.875 
L 27.34375 5.46875 
z
M 61.328125 44.140625 
Q 67.578125 44.140625 72.265625 44.53125 
L 72.265625 37.109375 
Q 67.1875 37.5 61.71875 37.5 
L 39.84375 37.5 
Q 31.640625 37.5 26.5625 37.109375 
L 26.5625 44.53125 
Q 33.984375 44.140625 39.84375 44.140625 
z
" id="SimHei-5408"/>
      <path d="M 70.703125 76.953125 
Q 69.921875 75 68.75 71.671875 
Q 67.578125 68.359375 65.234375 59.765625 
L 83.203125 59.765625 
Q 87.109375 59.765625 92.578125 60.15625 
L 92.578125 53.125 
Q 88.28125 53.515625 85.9375 53.515625 
Q 85.9375 47.265625 83.78125 33.78125 
Q 81.640625 20.3125 76.171875 10.546875 
Q 80.078125 5.859375 84.953125 2.140625 
Q 89.84375 -1.5625 94.140625 -3.125 
Q 89.453125 -6.640625 87.890625 -9.765625 
Q 83.203125 -7.03125 79.296875 -3.515625 
Q 75.390625 0 71.484375 5.078125 
Q 67.1875 0.390625 62.296875 -2.921875 
Q 57.421875 -6.25 50 -10.15625 
Q 48.046875 -6.640625 44.53125 -4.6875 
Q 50.390625 -2.34375 57.03125 1.953125 
Q 63.671875 6.25 67.1875 10.546875 
Q 64.453125 16.015625 61.90625 22.265625 
Q 59.375 28.515625 57.421875 38.671875 
Q 56.25 35.546875 53.515625 30.46875 
Q 50.78125 32.03125 46.875 33.59375 
Q 53.125 44.53125 57.03125 57.421875 
Q 60.9375 70.3125 62.109375 79.6875 
Q 66.796875 77.734375 70.703125 76.953125 
z
M 32.8125 35.15625 
Q 31.25 33.59375 29.296875 30.078125 
L 50.78125 30.078125 
Q 48.4375 20.3125 42.578125 10.546875 
Q 48.828125 8.203125 52.34375 6.25 
Q 50.390625 3.515625 48.828125 0.390625 
Q 45.3125 2.734375 38.28125 5.078125 
Q 30.46875 -3.515625 11.328125 -10.15625 
Q 9.375 -5.859375 6.25 -4.296875 
Q 24.609375 0 31.25 7.421875 
Q 20.3125 10.15625 13.28125 12.109375 
Q 15.625 15.625 19.53125 23.828125 
Q 15.625 23.828125 6.640625 23.4375 
L 6.640625 30.46875 
Q 14.0625 30.078125 21.875 30.078125 
Q 23.4375 33.59375 24.21875 37.890625 
Q 28.515625 36.328125 32.8125 35.15625 
z
M 27.734375 61.71875 
Q 27.734375 71.09375 27.34375 79.6875 
L 35.15625 79.6875 
Q 34.765625 71.484375 34.765625 61.71875 
Q 48.046875 61.71875 53.515625 62.109375 
L 53.515625 55.078125 
Q 48.046875 55.46875 34.765625 55.46875 
Q 34.765625 44.140625 35.15625 37.890625 
L 27.34375 37.890625 
Q 27.734375 43.359375 27.734375 51.5625 
Q 25.78125 48.4375 20.3125 43.546875 
Q 14.84375 38.671875 10.15625 35.9375 
Q 8.203125 39.453125 4.296875 41.015625 
Q 7.8125 42.1875 13.671875 46.484375 
Q 19.53125 50.78125 22.65625 55.46875 
Q 14.84375 55.46875 7.8125 55.078125 
L 7.8125 62.109375 
Q 14.453125 61.71875 27.734375 61.71875 
z
M 62.109375 49.609375 
Q 65.625 26.5625 71.875 17.578125 
Q 75.78125 26.5625 77.140625 35.734375 
Q 78.515625 44.921875 78.90625 53.515625 
L 63.671875 53.515625 
L 62.109375 49.609375 
z
M 22.65625 15.625 
Q 27.34375 14.453125 35.546875 12.5 
Q 38.671875 16.40625 41.40625 23.828125 
L 26.953125 23.828125 
Q 25 19.921875 22.65625 15.625 
z
M 51.953125 75.390625 
Q 50 72.265625 48.828125 69.53125 
Q 47.65625 66.796875 45.703125 62.890625 
Q 42.578125 64.453125 39.453125 65.234375 
Q 42.578125 70.3125 45.3125 78.125 
Q 49.21875 76.171875 51.953125 75.390625 
z
M 40.234375 52.734375 
Q 45.3125 47.65625 50 42.578125 
Q 47.65625 40.625 44.921875 37.890625 
Q 39.453125 44.53125 35.9375 48.4375 
Q 38.28125 50.390625 40.234375 52.734375 
z
M 14.453125 78.125 
Q 19.921875 72.65625 23.4375 67.1875 
L 17.578125 63.671875 
Q 14.84375 69.140625 9.375 73.828125 
Q 12.890625 76.171875 14.453125 78.125 
z
" id="SimHei-6570"/>
     </defs>
     <g transform="translate(134.18875 200.735937)scale(0.1 -0.1)">
      <use xlink:href="#SimHei-8bad"/>
      <use x="100" xlink:href="#SimHei-7ec3"/>
      <use x="200" xlink:href="#SimHei-56de"/>
      <use x="300" xlink:href="#SimHei-5408"/>
      <use x="400" xlink:href="#SimHei-6570"/>
     </g>
    </g>
   </g>
   <g id="matplotlib.axis_2">
    <g id="ytick_1">
     <g id="line2d_8">
      <defs>
       <path d="M 0 0 
L -3.5 0 
" id="m2dfa9de512" style="stroke:#000000;stroke-width:0.8;"/>
      </defs>
      <g>
       <use style="stroke:#000000;stroke-width:0.8;" x="47.41875" xlink:href="#m2dfa9de512" y="166.273011"/>
      </g>
     </g>
     <g id="text_9">
      <!-- -500 -->
      <defs>
       <path d="M 46.484375 33.203125 
L 1.953125 33.203125 
L 1.953125 39.453125 
L 46.484375 39.453125 
z
" id="SimHei-2d"/>
      </defs>
      <g transform="translate(20.41875 169.710511)scale(0.1 -0.1)">
       <use xlink:href="#SimHei-2d"/>
       <use x="50" xlink:href="#SimHei-35"/>
       <use x="100" xlink:href="#SimHei-30"/>
       <use x="150" xlink:href="#SimHei-30"/>
      </g>
     </g>
    </g>
    <g id="ytick_2">
     <g id="line2d_9">
      <g>
       <use style="stroke:#000000;stroke-width:0.8;" x="47.41875" xlink:href="#m2dfa9de512" y="131.192373"/>
      </g>
     </g>
     <g id="text_10">
      <!-- -400 -->
      <defs>
       <path d="M 31.25 17.1875 
L 1.171875 17.1875 
L 1.171875 23.828125 
L 32.8125 69.53125 
L 38.671875 69.53125 
L 38.671875 23.828125 
L 48.046875 23.828125 
L 48.046875 17.1875 
L 38.671875 17.1875 
L 38.671875 2.34375 
L 31.25 2.34375 
z
M 31.25 23.828125 
L 31.25 54.6875 
L 9.375 23.828125 
z
" id="SimHei-34"/>
      </defs>
      <g transform="translate(20.41875 134.629873)scale(0.1 -0.1)">
       <use xlink:href="#SimHei-2d"/>
       <use x="50" xlink:href="#SimHei-34"/>
       <use x="100" xlink:href="#SimHei-30"/>
       <use x="150" xlink:href="#SimHei-30"/>
      </g>
     </g>
    </g>
    <g id="ytick_3">
     <g id="line2d_10">
      <g>
       <use style="stroke:#000000;stroke-width:0.8;" x="47.41875" xlink:href="#m2dfa9de512" y="96.111735"/>
      </g>
     </g>
     <g id="text_11">
      <!-- -300 -->
      <g transform="translate(20.41875 99.549235)scale(0.1 -0.1)">
       <use xlink:href="#SimHei-2d"/>
       <use x="50" xlink:href="#SimHei-33"/>
       <use x="100" xlink:href="#SimHei-30"/>
       <use x="150" xlink:href="#SimHei-30"/>
      </g>
     </g>
    </g>
    <g id="ytick_4">
     <g id="line2d_11">
      <g>
       <use style="stroke:#000000;stroke-width:0.8;" x="47.41875" xlink:href="#m2dfa9de512" y="61.031097"/>
      </g>
     </g>
     <g id="text_12">
      <!-- -200 -->
      <g transform="translate(20.41875 64.468597)scale(0.1 -0.1)">
       <use xlink:href="#SimHei-2d"/>
       <use x="50" xlink:href="#SimHei-32"/>
       <use x="100" xlink:href="#SimHei-30"/>
       <use x="150" xlink:href="#SimHei-30"/>
      </g>
     </g>
    </g>
    <g id="ytick_5">
     <g id="line2d_12">
      <g>
       <use style="stroke:#000000;stroke-width:0.8;" x="47.41875" xlink:href="#m2dfa9de512" y="25.950459"/>
      </g>
     </g>
     <g id="text_13">
      <!-- -100 -->
      <g transform="translate(20.41875 29.387959)scale(0.1 -0.1)">
       <use xlink:href="#SimHei-2d"/>
       <use x="50" xlink:href="#SimHei-31"/>
       <use x="100" xlink:href="#SimHei-30"/>
       <use x="150" xlink:href="#SimHei-30"/>
      </g>
     </g>
    </g>
    <g id="text_14">
     <!-- 平均奖赏值 -->
     <defs>
      <path d="M 70.703125 75.390625 
Q 76.5625 75.390625 85.15625 75.78125 
L 85.15625 68.359375 
Q 76.953125 68.75 70.703125 68.75 
L 54.296875 68.75 
L 54.296875 31.640625 
L 78.125 31.640625 
Q 86.71875 31.640625 94.140625 32.03125 
L 94.140625 24.609375 
Q 86.71875 25 78.125 25 
L 54.296875 25 
L 54.296875 7.03125 
Q 54.296875 -1.5625 54.6875 -9.375 
L 45.703125 -9.375 
Q 46.09375 -1.5625 46.09375 7.03125 
L 46.09375 25 
L 17.578125 25 
Q 12.109375 25 5.859375 24.609375 
L 5.859375 32.03125 
Q 12.109375 31.640625 18.359375 31.640625 
L 46.09375 31.640625 
L 46.09375 68.75 
L 27.734375 68.75 
Q 21.875 68.75 13.671875 68.359375 
L 13.671875 75.78125 
Q 21.875 75.390625 27.34375 75.390625 
z
M 61.328125 40.625 
Q 70.3125 51.5625 76.5625 64.453125 
Q 80.46875 61.71875 84.375 59.765625 
Q 74.609375 44.53125 67.96875 35.9375 
Q 64.84375 38.671875 61.328125 40.625 
z
M 30.859375 36.71875 
Q 25 48.4375 16.40625 58.203125 
Q 19.53125 60.546875 22.65625 63.28125 
Q 32.421875 51.5625 38.28125 42.578125 
Q 33.59375 39.0625 30.859375 36.71875 
z
" id="SimHei-5e73"/>
      <path d="M 90.234375 4.296875 
Q 90.234375 -5.078125 83.78125 -7.03125 
Q 77.34375 -8.984375 69.140625 -9.375 
Q 68.359375 -4.296875 66.40625 0.390625 
Q 77.34375 -0.390625 80.078125 0.96875 
Q 82.8125 2.34375 82.8125 7.8125 
L 83.984375 57.8125 
L 55.46875 57.8125 
Q 53.515625 52.734375 50.96875 47.453125 
Q 48.4375 42.1875 45.703125 37.5 
Q 41.796875 39.84375 38.671875 41.015625 
Q 49.21875 56.640625 54.6875 81.25 
Q 59.375 79.6875 63.671875 78.515625 
Q 62.109375 76.171875 60.546875 72.65625 
Q 58.984375 69.140625 57.421875 64.453125 
L 92.1875 64.453125 
L 90.234375 4.296875 
z
M 19.53125 56.640625 
L 19.53125 68.359375 
Q 19.53125 74.609375 19.140625 79.6875 
L 27.734375 79.6875 
Q 27.34375 73.828125 27.34375 68.359375 
L 27.34375 56.640625 
L 29.6875 56.640625 
Q 34.375 56.640625 39.453125 57.03125 
L 39.453125 49.21875 
Q 34.375 49.609375 29.6875 49.609375 
L 27.34375 49.609375 
L 27.34375 17.1875 
L 39.0625 21.484375 
Q 38.671875 17.578125 39.453125 14.0625 
Q 19.140625 7.421875 15.03125 5.65625 
Q 10.9375 3.90625 7.421875 2.34375 
Q 5.859375 7.421875 3.90625 11.71875 
Q 8.984375 12.5 12.5 13.28125 
Q 16.015625 14.0625 19.53125 15.234375 
L 19.53125 49.609375 
L 17.578125 49.609375 
Q 13.28125 49.609375 6.25 49.21875 
L 6.25 57.03125 
Q 13.28125 56.640625 17.1875 56.640625 
z
M 77.34375 25.390625 
Q 73.046875 22.265625 64.640625 16.40625 
Q 56.25 10.546875 49.609375 4.6875 
Q 46.875 8.984375 44.53125 12.109375 
Q 52.34375 16.40625 58.78125 20.703125 
Q 65.234375 25 74.609375 32.421875 
Q 75.390625 28.90625 77.34375 25.390625 
z
M 58.984375 49.21875 
Q 64.453125 43.75 69.921875 35.9375 
Q 66.40625 33.203125 64.0625 30.859375 
Q 60.9375 36.328125 53.90625 44.140625 
Q 56.25 46.875 58.984375 49.21875 
z
" id="SimHei-5747"/>
      <path d="M 79.296875 24.609375 
Q 88.28125 24.609375 94.921875 25 
L 94.921875 17.578125 
Q 88.671875 18.75 79.296875 18.359375 
L 55.46875 18.359375 
Q 62.109375 9.375 73.625 4.6875 
Q 85.15625 0 96.09375 -0.78125 
Q 93.75 -3.515625 91.40625 -8.59375 
Q 83.59375 -7.03125 77.734375 -5.078125 
Q 71.875 -3.125 64.640625 1.359375 
Q 57.421875 5.859375 50.78125 13.671875 
Q 47.265625 8.59375 43.75 5.46875 
Q 40.234375 2.34375 35.15625 -0.78125 
Q 30.078125 -3.90625 24.40625 -5.859375 
Q 18.75 -7.8125 10.9375 -9.765625 
Q 9.375 -5.859375 6.25 -1.953125 
Q 13.671875 -1.171875 19.71875 0.578125 
Q 25.78125 2.34375 30.65625 4.875 
Q 35.546875 7.421875 39.0625 10.734375 
Q 42.578125 14.0625 44.53125 18.359375 
L 20.703125 18.359375 
Q 12.890625 18.359375 5.46875 17.96875 
L 5.46875 25 
Q 12.890625 24.609375 20.703125 24.609375 
L 46.09375 24.609375 
Q 46.484375 27.34375 46.484375 30.46875 
Q 54.296875 29.296875 55.46875 29.296875 
Q 54.296875 26.953125 53.90625 24.609375 
z
M 67.578125 78.125 
Q 64.453125 75 61.328125 70.3125 
L 92.1875 70.3125 
Q 88.671875 61.71875 85.34375 56.046875 
Q 82.03125 50.390625 77.921875 45.890625 
Q 73.828125 41.40625 66.984375 37.5 
Q 60.15625 33.59375 47.65625 30.859375 
Q 45.703125 34.375 42.96875 37.890625 
Q 54.6875 38.28125 64.0625 43.75 
L 53.515625 50.78125 
Q 55.859375 53.515625 57.8125 56.25 
Q 61.71875 53.90625 64.0625 52.140625 
Q 66.40625 50.390625 69.921875 48.046875 
Q 76.5625 53.90625 80.859375 64.0625 
L 57.421875 64.0625 
Q 55.46875 61.71875 52.734375 58.59375 
Q 50 55.46875 45.3125 50 
Q 42.1875 52.734375 38.671875 54.296875 
Q 44.53125 59.375 49.796875 66.40625 
Q 55.078125 73.4375 58.59375 81.640625 
Q 63.671875 79.296875 67.578125 78.125 
z
M 38.28125 80.859375 
Q 37.890625 76.171875 37.890625 69.921875 
L 37.890625 44.921875 
Q 37.890625 39.0625 38.28125 30.859375 
L 30.078125 30.859375 
Q 30.46875 39.0625 30.46875 44.921875 
L 30.46875 47.65625 
Q 19.140625 40.234375 11.71875 35.546875 
Q 8.984375 39.84375 6.25 42.1875 
Q 12.890625 44.140625 30.46875 55.078125 
L 30.46875 69.921875 
Q 30.46875 75.78125 30.078125 80.859375 
L 38.28125 80.859375 
z
M 15.625 73.4375 
Q 23.046875 67.578125 28.125 62.890625 
L 22.265625 57.03125 
Q 17.1875 62.5 10.546875 67.96875 
Q 13.28125 70.3125 15.625 73.4375 
z
" id="SimHei-5956"/>
      <path d="M 76.953125 34.375 
L 23.4375 34.375 
Q 23.828125 39.453125 23.828125 44.140625 
Q 23.828125 48.828125 23.4375 53.125 
L 76.953125 53.125 
z
M 82.421875 76.171875 
Q 78.515625 73.4375 73.046875 65.234375 
L 91.015625 65.234375 
Q 90.625 61.328125 90.625 57.421875 
Q 90.625 53.90625 91.015625 49.21875 
L 83.203125 49.21875 
L 83.203125 59.375 
L 17.1875 59.375 
L 17.1875 47.65625 
L 9.375 47.65625 
Q 9.765625 52.34375 9.765625 56.640625 
Q 9.765625 61.328125 9.375 65.234375 
L 28.90625 65.234375 
Q 23.828125 71.875 19.921875 76.5625 
L 26.171875 80.46875 
Q 31.25 75.390625 35.546875 68.75 
Q 32.421875 66.796875 29.6875 65.234375 
L 46.484375 65.234375 
Q 46.484375 73.046875 46.09375 80.859375 
L 54.296875 80.859375 
Q 53.90625 73.828125 53.90625 65.234375 
L 65.234375 65.234375 
Q 71.875 75 73.046875 79.6875 
Q 77.734375 77.34375 82.421875 76.171875 
z
M 81.25 28.90625 
Q 80.859375 24.21875 80.859375 18.75 
Q 80.859375 13.28125 81.25 8.59375 
L 73.4375 8.59375 
L 73.4375 23.046875 
L 26.953125 23.046875 
L 26.953125 7.03125 
L 19.140625 7.03125 
Q 19.53125 12.5 19.53125 17.96875 
Q 19.53125 23.4375 19.140625 28.90625 
L 81.25 28.90625 
z
M 54.296875 17.1875 
Q 50 5.078125 45.3125 1.171875 
Q 40.625 -2.734375 33.390625 -5.65625 
Q 26.171875 -8.59375 12.890625 -10.546875 
Q 12.109375 -7.03125 7.8125 -2.734375 
Q 18.359375 -2.34375 25.390625 -0.578125 
Q 32.421875 1.171875 38.28125 5.46875 
Q 44.140625 9.765625 45.3125 19.53125 
L 54.296875 17.1875 
z
M 69.140625 39.84375 
L 69.140625 47.265625 
L 31.25 47.265625 
L 31.25 39.84375 
z
M 61.328125 10.15625 
Q 78.515625 3.515625 90.234375 -3.90625 
Q 86.71875 -6.640625 84.375 -10.15625 
Q 76.5625 -3.90625 56.640625 3.90625 
Q 59.765625 7.8125 61.328125 10.15625 
z
" id="SimHei-8d4f"/>
      <path d="M 57.421875 69.53125 
L 57.421875 79.6875 
Q 62.109375 79.296875 67.96875 78.90625 
Q 66.015625 76.171875 65.625 69.53125 
L 80.078125 69.53125 
Q 86.71875 69.53125 91.796875 69.921875 
L 91.796875 62.890625 
Q 86.328125 63.28125 80.078125 63.28125 
L 65.234375 63.28125 
L 64.453125 54.6875 
L 84.375 54.6875 
Q 83.984375 50 83.984375 42.1875 
L 83.984375 2.34375 
Q 91.796875 2.34375 95.3125 2.734375 
L 95.3125 -4.296875 
Q 90.234375 -3.90625 81.25 -3.90625 
L 44.53125 -3.90625 
Q 35.546875 -3.90625 29.6875 -4.296875 
L 29.6875 2.734375 
Q 33.203125 2.34375 40.625 2.34375 
L 40.625 42.1875 
Q 40.625 49.609375 40.234375 54.6875 
L 56.25 54.6875 
L 57.03125 63.28125 
L 50 63.28125 
Q 40.234375 63.28125 34.765625 62.890625 
L 34.765625 69.921875 
Q 39.84375 69.53125 50 69.53125 
z
M 34.765625 76.5625 
Q 31.640625 73.046875 25.78125 58.59375 
L 25.78125 7.03125 
Q 25.78125 -1.171875 26.171875 -8.59375 
L 17.96875 -8.59375 
Q 18.359375 -1.953125 18.359375 5.859375 
L 18.359375 46.09375 
Q 13.671875 38.28125 9.765625 33.59375 
Q 6.640625 37.890625 3.90625 40.234375 
Q 7.8125 44.140625 14.640625 55.265625 
Q 21.484375 66.40625 25.390625 80.46875 
Q 30.859375 77.734375 34.765625 76.5625 
z
M 76.953125 41.40625 
L 76.953125 49.21875 
L 48.046875 49.21875 
L 48.046875 41.40625 
z
M 76.953125 2.34375 
L 76.953125 9.765625 
L 48.046875 9.765625 
L 48.046875 2.34375 
z
M 76.953125 15.625 
L 76.953125 22.65625 
L 48.046875 22.65625 
L 48.046875 15.625 
z
M 76.953125 28.515625 
L 76.953125 35.546875 
L 48.046875 35.546875 
L 48.046875 28.515625 
z
" id="SimHei-503c"/>
     </defs>
     <g transform="translate(15.16875 117.190625)rotate(-90)scale(0.1 -0.1)">
      <use xlink:href="#SimHei-5e73"/>
      <use x="100" xlink:href="#SimHei-5747"/>
      <use x="200" xlink:href="#SimHei-5956"/>
      <use x="300" xlink:href="#SimHei-8d4f"/>
      <use x="400" xlink:href="#SimHei-503c"/>
     </g>
    </g>
   </g>
   <g id="line2d_13">
    <path clip-path="url(#p06e7f34ff8)" d="M 57.579659 166.273011 
L 58.259319 166.273011 
L 58.938978 156.567368 
L 59.618638 158.993779 
L 60.298297 157.222207 
L 60.977956 146.043177 
L 62.337275 126.894995 
L 63.696594 114.914957 
L 64.376254 112.376395 
L 65.735573 104.558073 
L 67.094892 97.959315 
L 67.774551 96.835273 
L 68.454211 92.995749 
L 69.13387 93.65609 
L 71.172849 85.537428 
L 73.891486 76.901578 
L 75.250805 73.205378 
L 77.289784 69.076257 
L 77.969443 68.035908 
L 80.688081 50.755865 
L 81.367741 47.259117 
L 82.0474 45.414555 
L 82.72706 44.067911 
L 83.406719 43.094706 
L 85.445697 38.375794 
L 86.125357 37.108365 
L 87.484676 35.105374 
L 88.164335 34.041638 
L 88.843995 32.446035 
L 89.523654 32.559198 
L 90.203314 30.375146 
L 90.882973 29.979074 
L 91.562633 30.805166 
L 92.242292 32.61578 
L 92.921952 33.158964 
L 93.601611 35.45618 
L 94.281271 36.169109 
L 94.96093 36.169109 
L 95.640589 36.282272 
L 96.320249 36.519916 
L 96.999908 36.13516 
L 99.718546 35.263802 
L 100.398206 35.501445 
L 101.077865 35.433547 
L 101.757525 35.863568 
L 103.116844 34.65272 
L 103.796503 34.09822 
L 104.476163 33.747413 
L 105.835482 33.656883 
L 106.515141 33.091066 
L 107.1948 33.057117 
L 107.87446 33.158964 
L 109.233779 34.709302 
L 109.913438 34.381128 
L 110.593098 34.301914 
L 111.272757 34.403761 
L 112.632076 33.871893 
L 113.311736 32.389453 
L 113.991395 31.529412 
L 114.671055 29.017185 
L 115.350714 27.998715 
L 116.030374 27.61396 
L 117.389693 27.240521 
L 118.749011 27.998715 
L 119.428671 28.066613 
L 120.78799 27.681858 
L 121.467649 27.229205 
L 122.147309 27.331052 
L 122.826968 30.216717 
L 123.506628 30.307248 
L 124.186287 30.646738 
L 124.865947 30.612789 
L 125.545606 31.042809 
L 127.584585 31.00886 
L 128.264244 30.816483 
L 128.943904 30.499625 
L 130.303222 28.700328 
L 130.982882 28.677695 
L 131.662541 28.406103 
L 132.342201 27.625276 
L 133.02186 27.783705 
L 134.381179 25.984408 
L 135.060839 26.222051 
L 135.740498 27.749756 
L 137.099817 27.95345 
L 137.779477 27.896868 
L 138.459136 29.062451 
L 139.818455 28.485318 
L 140.498115 28.394787 
L 141.177774 27.998715 
L 142.537093 28.41742 
L 143.216752 28.949287 
L 143.896412 25.803346 
L 145.255731 25.825979 
L 145.93539 25.690183 
L 146.61505 25.169632 
L 147.294709 25.248846 
L 147.974369 25.859928 
L 148.654028 26.256 
L 150.693007 26.063622 
L 151.372666 26.369163 
L 152.052326 26.47101 
L 153.411644 26.437061 
L 154.091304 26.154153 
L 155.450623 25.995724 
L 156.130282 25.429907 
L 156.809942 24.162478 
L 157.489601 24.931989 
L 158.169261 24.615131 
L 158.84892 24.535917 
L 159.52858 23.483498 
L 160.208239 23.121375 
L 160.887899 22.906365 
L 162.247218 23.019528 
L 162.926877 22.793201 
L 163.606537 22.702671 
L 164.286196 22.046323 
L 164.965856 21.921843 
L 165.645515 22.035007 
L 166.325174 21.638935 
L 167.004834 21.604986 
L 167.684493 21.910527 
L 168.364153 21.865262 
L 169.043812 22.781885 
L 169.723472 22.521609 
L 170.403131 23.053477 
L 171.082791 22.974263 
L 171.76245 23.822988 
L 172.44211 23.890886 
L 173.121769 23.664559 
L 173.801429 24.479335 
L 174.481088 24.626448 
L 175.160748 24.535917 
L 175.840407 24.671713 
L 177.199726 24.535917 
L 177.879385 24.026682 
L 178.559045 23.132691 
L 179.238704 23.234538 
L 179.918364 23.121375 
L 180.598023 22.668722 
L 181.277683 22.82715 
L 183.316661 22.940314 
L 183.996321 23.098742 
L 185.35564 22.883732 
L 186.714959 23.098742 
L 187.394618 23.325069 
L 188.074278 23.211906 
L 189.433596 23.29112 
L 190.113256 22.001058 
L 190.792915 21.944476 
L 191.472575 21.672884 
L 192.152234 21.650251 
L 192.831894 21.027853 
L 193.511553 20.778894 
L 194.191213 21.061802 
L 194.870872 19.964118 
L 195.550532 19.839638 
L 196.230191 20.054648 
L 196.909851 19.952801 
L 200.308148 20.484669 
L 200.987807 20.394138 
L 201.667467 20.620465 
L 202.347126 20.609149 
L 203.026786 21.050486 
L 204.386105 20.993904 
L 205.745424 21.491823 
L 206.425083 21.627619 
L 207.104743 21.333394 
L 207.784402 20.812843 
L 208.464062 20.858108 
L 209.143721 21.084435 
L 209.823381 20.733628 
L 210.50304 21.842629 
L 211.1827 21.695517 
L 211.862359 21.797364 
L 212.542018 22.385813 
L 213.221678 22.498977 
L 215.260656 21.853945 
L 215.940316 22.046323 
L 216.619975 22.046323 
L 217.299635 22.431079 
L 219.338613 22.453711 
L 220.697932 22.306599 
L 222.057251 22.374497 
L 222.736911 22.102905 
L 223.41657 22.408446 
L 224.096229 21.899211 
L 224.775889 21.6842 
L 225.455548 21.650251 
L 226.135208 22.114221 
L 228.174186 21.752098 
L 229.533505 21.650251 
L 230.213165 21.548404 
L 230.892824 21.899211 
L 231.572484 20.597832 
L 232.931803 20.428087 
L 233.611462 19.545413 
L 234.291122 19.454882 
L 234.970781 19.749107 
L 236.3301 19.715158 
L 237.009759 19.52278 
L 237.689419 19.635944 
L 238.369078 19.024862 
L 239.048738 18.990913 
L 239.728397 18.730637 
L 241.087716 18.775902 
L 242.447035 18.708004 
L 243.806354 19.013545 
L 244.486014 18.730637 
L 245.165673 18.617474 
L 246.524992 18.979596 
L 247.204651 18.108239 
L 249.24363 18.379831 
L 250.602949 19.386984 
L 251.282608 19.454882 
L 251.962268 19.217239 
L 252.641927 19.30777 
L 253.321587 19.273821 
L 254.680906 19.488831 
L 255.360565 19.545413 
L 256.040225 19.353035 
L 258.079203 20.145179 
L 258.758862 20.869424 
L 260.797841 21.039169 
L 260.797841 21.039169 
" style="fill:none;stroke:#ff6347;stroke-linecap:square;stroke-width:1.5;"/>
   </g>
   <g id="line2d_14">
    <path clip-path="url(#p06e7f34ff8)" d="M 57.579659 166.273011 
L 58.259319 150.837531 
L 58.938978 155.982691 
L 59.618638 158.555271 
L 60.298297 160.098819 
L 60.977956 145.750838 
L 61.657616 148.682577 
L 62.337275 150.881381 
L 63.016935 149.395327 
L 63.696594 149.329063 
L 64.376254 145.320303 
L 65.055913 142.096605 
L 67.094892 126.093987 
L 69.81353 106.839025 
L 70.493189 104.425846 
L 71.172849 100.922794 
L 71.852508 103.510561 
L 73.211827 98.56738 
L 73.891486 96.39238 
L 74.571146 96.408571 
L 76.610124 89.652059 
L 77.969443 85.530962 
L 78.649103 80.857316 
L 79.328762 77.213456 
L 81.367741 63.43016 
L 82.0474 61.959036 
L 82.72706 58.020952 
L 83.406719 55.056072 
L 84.766038 52.668325 
L 85.445697 51.72907 
L 86.125357 49.975038 
L 86.805016 48.899986 
L 88.164335 48.628394 
L 88.843995 49.250792 
L 89.523654 50.427691 
L 90.203314 50.982191 
L 90.882973 50.835079 
L 91.562633 50.065568 
L 92.242292 49.952405 
L 92.921952 46.104851 
L 93.601611 46.229331 
L 94.281271 46.761199 
L 94.96093 49.194211 
L 95.640589 50.303211 
L 96.320249 50.789814 
L 96.999908 50.891661 
L 97.679568 50.280579 
L 99.038887 50.348477 
L 99.718546 50.80113 
L 100.398206 52.06856 
L 102.437184 53.109662 
L 103.116844 53.007815 
L 103.796503 53.030448 
L 104.476163 51.491427 
L 105.155822 49.363956 
L 105.835482 46.546188 
L 106.515141 45.210861 
L 107.1948 44.44135 
L 107.87446 44.803473 
L 109.233779 44.882687 
L 109.913438 43.705788 
L 110.593098 42.936277 
L 111.272757 42.540206 
L 112.632076 44.667677 
L 113.311736 44.735575 
L 114.671055 44.033962 
L 115.350714 43.830268 
L 116.710033 38.398427 
L 117.389693 37.95709 
L 118.069352 38.986877 
L 118.749011 41.091715 
L 119.428671 40.650378 
L 120.10833 40.514582 
L 120.78799 40.525898 
L 121.467649 39.56401 
L 122.147309 39.247152 
L 122.826968 38.703968 
L 123.506628 38.647386 
L 124.186287 38.443692 
L 124.865947 37.74208 
L 125.545606 37.549702 
L 126.225266 36.972569 
L 126.904925 37.074416 
L 127.584585 36.587814 
L 128.264244 36.565181 
L 128.943904 35.988048 
L 129.623563 34.958261 
L 130.303222 33.679515 
L 130.982882 33.577668 
L 131.662541 33.192913 
L 132.342201 33.939791 
L 133.02186 32.513933 
L 133.70152 32.219708 
L 134.381179 32.468668 
L 135.060839 32.559198 
L 135.740498 32.140494 
L 136.420158 31.110707 
L 137.099817 31.110707 
L 137.779477 30.409095 
L 138.459136 30.194084 
L 139.138796 29.345359 
L 139.818455 27.217888 
L 140.498115 27.500797 
L 141.177774 29.039818 
L 141.857433 28.428736 
L 143.896412 28.496634 
L 144.576071 28.304256 
L 145.255731 28.768226 
L 145.93539 28.440052 
L 146.61505 28.440052 
L 147.294709 28.904022 
L 147.974369 28.700328 
L 149.333688 30.997544 
L 150.693007 32.095229 
L 151.372666 33.385291 
L 152.731985 32.932637 
L 153.411644 31.631259 
L 154.091304 31.880218 
L 154.770963 30.850432 
L 155.450623 30.465676 
L 156.809942 30.024339 
L 157.489601 30.126186 
L 158.84892 29.31141 
L 159.52858 29.0964 
L 160.208239 28.689012 
L 160.887899 28.643746 
L 161.567558 28.349522 
L 162.247218 27.048143 
L 162.926877 29.515104 
L 163.606537 29.209563 
L 166.325174 28.598481 
L 167.004834 28.745593 
L 168.364153 28.451369 
L 169.043812 28.530583 
L 171.082791 25.294111 
L 171.76245 25.180948 
L 172.44211 24.219059 
L 173.121769 24.354855 
L 173.801429 24.366172 
L 174.481088 24.55855 
L 175.160748 24.55855 
L 176.520067 23.856937 
L 177.879385 24.173794 
L 178.559045 24.060631 
L 179.918364 24.253008 
L 181.277683 24.015365 
L 183.316661 24.286957 
L 183.996321 23.189273 
L 185.35564 23.449549 
L 186.035299 24.004049 
L 186.714959 24.162478 
L 187.394618 24.049314 
L 188.074278 24.354855 
L 188.753937 24.535917 
L 189.433596 24.162478 
L 190.113256 24.105896 
L 190.792915 25.022519 
L 191.472575 24.98857 
L 192.152234 25.927826 
L 193.511553 25.350693 
L 194.191213 25.214897 
L 194.870872 24.943305 
L 195.550532 25.022519 
L 196.230191 24.818825 
L 197.58951 25.033836 
L 198.26917 24.954621 
L 200.987807 24.196427 
L 201.667467 24.196427 
L 202.347126 24.388805 
L 203.706445 24.049314 
L 204.386105 23.675875 
L 205.065764 22.442395 
L 206.425083 22.431079 
L 207.104743 21.910527 
L 207.784402 21.865262 
L 209.143721 21.288129 
L 209.823381 21.582353 
L 211.1827 21.412608 
L 211.862359 20.213077 
L 212.542018 20.529934 
L 213.221678 19.500148 
L 213.901337 19.398301 
L 214.580997 19.488831 
L 215.260656 20.495985 
L 215.940316 20.677047 
L 216.619975 20.529934 
L 217.299635 25.32806 
L 218.658954 25.294111 
L 220.018273 25.260162 
L 221.377592 25.690183 
L 222.057251 27.546062 
L 222.736911 27.795021 
L 223.41657 27.681858 
L 224.096229 27.761072 
L 224.775889 28.066613 
L 226.135208 28.41742 
L 226.814867 28.145828 
L 227.494527 28.07793 
L 228.853846 28.485318 
L 229.533505 28.541899 
L 230.213165 28.474001 
L 230.892824 27.964766 
L 231.572484 28.213726 
L 232.252143 28.145828 
L 232.931803 28.451369 
L 233.611462 28.145828 
L 234.291122 28.304256 
L 234.970781 28.326889 
L 235.65044 28.032664 
L 236.3301 27.523429 
L 237.689419 27.546062 
L 238.369078 22.917681 
L 239.048738 22.634773 
L 241.087716 22.680038 
L 241.767376 22.917681 
L 242.447035 22.793201 
L 243.126695 21.288129 
L 243.806354 21.288129 
L 244.486014 21.525772 
L 245.165673 21.446557 
L 245.845333 21.25418 
L 246.524992 21.503139 
L 247.204651 21.174965 
L 247.884311 21.299445 
L 248.56397 21.265496 
L 249.24363 21.00522 
L 249.923289 21.582353 
L 251.282608 21.706833 
L 253.321587 21.876578 
L 254.001246 21.582353 
L 256.719884 21.537088 
L 257.399544 20.892057 
L 258.758862 20.824159 
L 260.797841 21.412608 
L 260.797841 21.412608 
" style="fill:none;stroke:#008000;stroke-dasharray:5.55,2.4;stroke-dashoffset:0;stroke-width:1.5;"/>
   </g>
   <g id="line2d_15">
    <path clip-path="url(#p06e7f34ff8)" d="M 57.579659 166.273011 
L 59.618638 166.273011 
L 60.298297 161.291561 
L 60.977956 158.379868 
L 61.657616 151.99018 
L 62.337275 146.97866 
L 63.016935 149.122477 
L 63.696594 150.837531 
L 65.055913 142.21354 
L 65.735573 144.064269 
L 66.415232 139.837245 
L 67.774551 143.11979 
L 68.454211 141.468937 
L 69.81353 136.971447 
L 70.493189 138.418985 
L 71.172849 136.354239 
L 71.852508 135.864476 
L 72.532167 137.186587 
L 73.211827 137.872311 
L 73.891486 135.865114 
L 74.571146 133.040853 
L 75.930465 129.500985 
L 77.289784 123.720197 
L 77.969443 125.092869 
L 78.649103 120.928457 
L 79.328762 117.488292 
L 81.367741 105.334548 
L 83.406719 97.367848 
L 84.766038 88.948495 
L 86.125357 84.636971 
L 86.805016 82.430286 
L 87.484676 85.055676 
L 88.164335 82.871623 
L 88.843995 78.164028 
L 89.523654 78.77511 
L 90.203314 76.455261 
L 90.882973 74.814393 
L 91.562633 74.66728 
L 92.242292 73.829872 
L 92.921952 70.774461 
L 93.601611 66.462938 
L 94.281271 63.294364 
L 94.96093 61.223475 
L 95.640589 60.272902 
L 96.320249 58.507554 
L 96.999908 57.681462 
L 97.679568 58.247278 
L 98.359227 58.032268 
L 99.038887 53.42652 
L 100.398206 53.279407 
L 101.077865 53.007815 
L 101.757525 53.007815 
L 102.437184 53.290724 
L 103.116844 52.532529 
L 103.796503 52.193039 
L 104.476163 52.883336 
L 105.155822 54.071551 
L 105.835482 53.913122 
L 106.515141 53.471785 
L 107.1948 53.833908 
L 107.87446 53.901806 
L 108.554119 49.126313 
L 109.233779 46.670668 
L 109.913438 47.28175 
L 110.593098 44.543197 
L 111.272757 45.889841 
L 111.952417 45.199544 
L 112.632076 41.001184 
L 113.311736 39.360316 
L 113.991395 39.258469 
L 114.671055 38.794499 
L 115.350714 37.708131 
L 116.030374 37.809978 
L 117.389693 37.357324 
L 118.069352 36.044629 
L 118.749011 35.105374 
L 119.428671 34.731935 
L 120.10833 34.811149 
L 120.78799 34.505608 
L 121.467649 33.498454 
L 122.147309 33.453189 
L 122.826968 32.932637 
L 124.186287 31.518095 
L 124.865947 31.325718 
L 125.545606 30.714636 
L 126.225266 29.469839 
L 126.904925 30.737268 
L 127.584585 30.771217 
L 128.264244 34.879047 
L 128.943904 32.61578 
L 129.623563 33.328709 
L 130.303222 33.181597 
L 131.662541 31.914167 
L 132.342201 30.295931 
L 133.02186 31.110707 
L 133.70152 30.805166 
L 134.381179 30.895697 
L 135.060839 30.624105 
L 135.740498 30.771217 
L 137.779477 30.307248 
L 139.818455 29.605635 
L 141.177774 29.073767 
L 141.857433 29.492472 
L 144.576071 29.877227 
L 145.93539 29.854594 
L 146.61505 30.103554 
L 147.294709 29.888543 
L 147.974369 28.145828 
L 148.654028 28.123195 
L 149.333688 23.528763 
L 150.013347 23.144008 
L 150.693007 22.351864 
L 151.372666 22.317915 
L 152.052326 22.39713 
L 152.731985 22.204752 
L 153.411644 22.442395 
L 154.091304 21.333394 
L 155.450623 21.220231 
L 156.130282 21.571037 
L 156.809942 21.525772 
L 157.489601 21.695517 
L 158.84892 21.503139 
L 160.208239 21.59367 
L 160.887899 22.046323 
L 162.247218 21.944476 
L 162.926877 21.197598 
L 163.606537 21.016537 
L 164.286196 20.993904 
L 164.965856 21.118384 
L 165.645515 20.948639 
L 166.325174 20.91469 
L 167.004834 20.993904 
L 167.684493 20.529934 
L 168.364153 20.382822 
L 169.043812 20.620465 
L 169.723472 20.66573 
L 170.403131 20.462036 
L 171.082791 20.495985 
L 171.76245 20.733628 
L 172.44211 21.231547 
L 173.121769 21.322078 
L 174.481088 20.903373 
L 175.160748 21.095751 
L 175.840407 21.027853 
L 176.520067 21.242863 
L 177.199726 21.152333 
L 177.879385 21.401292 
L 178.559045 21.514455 
L 179.238704 22.317915 
L 179.918364 22.555558 
L 180.598023 23.087426 
L 181.277683 23.325069 
L 181.957342 22.849783 
L 182.637002 22.861099 
L 183.316661 23.132691 
L 184.67598 23.245855 
L 185.35564 22.849783 
L 186.035299 22.73662 
L 186.714959 22.996895 
L 187.394618 22.974263 
L 188.074278 23.347702 
L 189.433596 23.709824 
L 190.113256 23.245855 
L 190.792915 23.347702 
L 192.152234 23.144008 
L 192.831894 23.189273 
L 193.511553 22.747936 
L 194.191213 22.465028 
L 194.870872 22.555558 
L 195.550532 22.928997 
L 196.230191 22.996895 
L 196.909851 22.95163 
L 197.58951 22.668722 
L 198.948829 23.110059 
L 199.628489 23.030844 
L 200.308148 22.39713 
L 202.347126 21.503139 
L 203.026786 22.261334 
L 203.706445 22.521609 
L 205.065764 22.125538 
L 207.784402 21.706833 
L 208.464062 21.548404 
L 209.143721 21.163649 
L 210.50304 20.880741 
L 211.862359 21.34471 
L 212.542018 21.310761 
L 213.221678 21.412608 
L 213.901337 21.163649 
L 214.580997 21.242863 
L 215.260656 21.152333 
L 215.940316 21.378659 
L 216.619975 20.835475 
L 217.299635 21.027853 
L 217.979294 21.027853 
L 218.658954 21.389976 
L 219.338613 20.937322 
L 220.018273 20.722312 
L 220.697932 20.801526 
L 221.377592 21.00522 
L 222.057251 21.061802 
L 222.736911 20.858108 
L 223.41657 20.959955 
L 224.096229 20.382822 
L 225.455548 20.337557 
L 226.135208 20.541251 
L 226.814867 20.360189 
L 228.853846 20.473353 
L 229.533505 20.744945 
L 230.213165 20.5752 
L 231.572484 20.620465 
L 232.252143 20.710996 
L 232.931803 20.088597 
L 233.611462 21.93316 
L 234.970781 22.102905 
L 235.65044 22.046323 
L 236.3301 22.102905 
L 237.009759 21.797364 
L 237.689419 21.853945 
L 238.369078 21.706833 
L 239.048738 21.774731 
L 239.728397 21.435241 
L 240.408057 21.265496 
L 241.087716 20.824159 
L 241.767376 20.880741 
L 243.806354 20.5752 
L 244.486014 20.609149 
L 245.165673 20.892057 
L 245.845333 20.835475 
L 246.524992 21.039169 
L 249.24363 21.231547 
L 249.923289 21.559721 
L 250.602949 21.412608 
L 251.282608 21.740782 
L 252.641927 21.876578 
L 253.321587 21.59367 
L 254.001246 21.571037 
L 254.680906 19.930169 
L 255.360565 19.828322 
L 258.758862 20.643098 
L 259.438522 20.835475 
L 260.797841 20.835475 
L 260.797841 20.835475 
" style="fill:none;stroke:#a9a9a9;stroke-dasharray:5.55,2.4;stroke-dashoffset:0;stroke-width:1.5;"/>
   </g>
   <g id="patch_3">
    <path d="M 47.41875 173.68125 
L 47.41875 10.7 
" style="fill:none;stroke:#000000;stroke-linecap:square;stroke-linejoin:miter;stroke-width:0.8;"/>
   </g>
   <g id="patch_4">
    <path d="M 270.95875 173.68125 
L 270.95875 10.7 
" style="fill:none;stroke:#000000;stroke-linecap:square;stroke-linejoin:miter;stroke-width:0.8;"/>
   </g>
   <g id="patch_5">
    <path d="M 47.41875 173.68125 
L 270.95875 173.68125 
" style="fill:none;stroke:#000000;stroke-linecap:square;stroke-linejoin:miter;stroke-width:0.8;"/>
   </g>
   <g id="patch_6">
    <path d="M 47.41875 10.7 
L 270.95875 10.7 
" style="fill:none;stroke:#000000;stroke-linecap:square;stroke-linejoin:miter;stroke-width:0.8;"/>
   </g>
   <g id="legend_1">
    <g id="patch_7">
     <path d="M 195.95875 168.68125 
L 263.95875 168.68125 
Q 265.95875 168.68125 265.95875 166.68125 
L 265.95875 127.93125 
Q 265.95875 125.93125 263.95875 125.93125 
L 195.95875 125.93125 
Q 193.95875 125.93125 193.95875 127.93125 
L 193.95875 166.68125 
Q 193.95875 168.68125 195.95875 168.68125 
z
" style="fill:none;opacity:0.8;"/>
    </g>
    <g id="line2d_16">
     <path d="M 197.95875 133.43125 
L 217.95875 133.43125 
" style="fill:none;stroke:#ff6347;stroke-linecap:square;stroke-width:1.5;"/>
    </g>
    <g id="line2d_17"/>
    <g id="text_15">
     <!-- $\lambda$ = 0.8 -->
     <defs>
      <path d="M 36.71875 67.4375 
L 48.828125 0 
L 39.3125 0 
L 31.84375 40.4375 
L 5.125 0 
L -4.390625 0 
L 29.734375 52.4375 
L 28.03125 62.109375 
Q 26.953125 68.265625 21.734375 68.265625 
L 17.046875 68.265625 
L 18.5 75.984375 
L 24.21875 75.875 
Q 35.203125 75.734375 36.71875 67.4375 
z
" id="DejaVuSans-Oblique-3bb"/>
      <path id="SimHei-20"/>
      <path d="M 46.484375 45.3125 
L 1.953125 45.3125 
L 1.953125 51.5625 
L 46.484375 51.5625 
z
M 46.484375 21.484375 
L 1.953125 21.484375 
L 1.953125 27.734375 
L 46.484375 27.734375 
z
" id="SimHei-3d"/>
      <path d="M 16.796875 1.953125 
L 7.8125 1.953125 
L 7.8125 10.546875 
L 16.796875 10.546875 
z
" id="SimHei-2e"/>
      <path d="M 2.734375 16.796875 
Q 2.734375 26.171875 5.078125 30.65625 
Q 7.421875 35.15625 12.890625 37.890625 
Q 8.203125 40.625 6.640625 43.9375 
Q 5.078125 47.265625 4.875 51.5625 
Q 4.6875 55.859375 6.046875 58.984375 
Q 7.421875 62.109375 10.15625 64.84375 
Q 12.890625 67.578125 16.203125 68.546875 
Q 19.53125 69.53125 23.4375 69.53125 
Q 27.34375 69.53125 30.46875 68.75 
Q 33.59375 67.96875 37.109375 65.421875 
Q 40.625 62.890625 42.1875 58.203125 
Q 43.75 53.515625 41.984375 47.265625 
Q 40.234375 41.015625 32.8125 37.5 
Q 39.453125 35.546875 42.1875 31.4375 
Q 44.921875 27.34375 44.921875 21.484375 
Q 44.921875 15.625 43.15625 12.109375 
Q 41.40625 8.59375 39.25 6.25 
Q 37.109375 3.90625 33.390625 2.53125 
Q 29.6875 1.171875 24.015625 1.171875 
Q 18.359375 1.171875 14.25 2.53125 
Q 10.15625 3.90625 7.421875 6.640625 
Q 4.6875 9.375 3.703125 13.078125 
Q 2.734375 16.796875 2.734375 26.171875 
z
M 10.9375 26.5625 
Q 10.546875 17.1875 12.296875 13.671875 
Q 14.0625 10.15625 18.75 9.171875 
Q 23.4375 8.203125 28.515625 9.375 
Q 33.59375 10.546875 35.546875 14.84375 
Q 37.5 19.140625 36.90625 23.4375 
Q 36.328125 27.734375 32.03125 30.65625 
Q 27.734375 33.59375 22.65625 33.203125 
Q 17.578125 32.8125 14.25 29.6875 
Q 10.9375 26.5625 10.546875 17.1875 
z
M 12.109375 56.25 
Q 12.109375 48.4375 14.84375 44.921875 
Q 17.578125 41.40625 23.4375 41.40625 
Q 29.296875 41.40625 32.21875 44.921875 
Q 35.15625 48.4375 34.953125 53.3125 
Q 34.765625 58.203125 31.4375 60.546875 
Q 28.125 62.890625 22.453125 62.5 
Q 16.796875 62.109375 14.453125 59.171875 
Q 12.109375 56.25 12.109375 48.4375 
z
" id="SimHei-38"/>
     </defs>
     <g transform="translate(225.95875 136.93125)scale(0.1 -0.1)">
      <use transform="translate(0 0.015625)" xlink:href="#DejaVuSans-Oblique-3bb"/>
      <use transform="translate(59.179688 0.015625)" xlink:href="#SimHei-20"/>
      <use transform="translate(109.179688 0.015625)" xlink:href="#SimHei-3d"/>
      <use transform="translate(159.179688 0.015625)" xlink:href="#SimHei-20"/>
      <use transform="translate(209.179688 0.015625)" xlink:href="#SimHei-30"/>
      <use transform="translate(259.179688 0.015625)" xlink:href="#SimHei-2e"/>
      <use transform="translate(309.179688 0.015625)" xlink:href="#SimHei-38"/>
     </g>
    </g>
    <g id="line2d_18">
     <path d="M 197.95875 146.68125 
L 217.95875 146.68125 
" style="fill:none;stroke:#008000;stroke-dasharray:5.55,2.4;stroke-dashoffset:0;stroke-width:1.5;"/>
    </g>
    <g id="line2d_19"/>
    <g id="text_16">
     <!-- $\lambda$ = 0.5 -->
     <g transform="translate(225.95875 150.18125)scale(0.1 -0.1)">
      <use transform="translate(0 0.015625)" xlink:href="#DejaVuSans-Oblique-3bb"/>
      <use transform="translate(59.179688 0.015625)" xlink:href="#SimHei-20"/>
      <use transform="translate(109.179688 0.015625)" xlink:href="#SimHei-3d"/>
      <use transform="translate(159.179688 0.015625)" xlink:href="#SimHei-20"/>
      <use transform="translate(209.179688 0.015625)" xlink:href="#SimHei-30"/>
      <use transform="translate(259.179688 0.015625)" xlink:href="#SimHei-2e"/>
      <use transform="translate(309.179688 0.015625)" xlink:href="#SimHei-35"/>
     </g>
    </g>
    <g id="line2d_20">
     <path d="M 197.95875 159.93125 
L 217.95875 159.93125 
" style="fill:none;stroke:#a9a9a9;stroke-dasharray:5.55,2.4;stroke-dashoffset:0;stroke-width:1.5;"/>
    </g>
    <g id="line2d_21"/>
    <g id="text_17">
     <!-- $\lambda$ = 0.3 -->
     <g transform="translate(225.95875 163.43125)scale(0.1 -0.1)">
      <use transform="translate(0 0.015625)" xlink:href="#DejaVuSans-Oblique-3bb"/>
      <use transform="translate(59.179688 0.015625)" xlink:href="#SimHei-20"/>
      <use transform="translate(109.179688 0.015625)" xlink:href="#SimHei-3d"/>
      <use transform="translate(159.179688 0.015625)" xlink:href="#SimHei-20"/>
      <use transform="translate(209.179688 0.015625)" xlink:href="#SimHei-30"/>
      <use transform="translate(259.179688 0.015625)" xlink:href="#SimHei-2e"/>
      <use transform="translate(309.179688 0.015625)" xlink:href="#SimHei-33"/>
     </g>
    </g>
   </g>
  </g>
 </g>
 <defs>
  <clipPath id="p06e7f34ff8">
   <rect height="162.98125" width="223.54" x="47.41875" y="10.7"/>
  </clipPath>
 </defs>
</svg>
