<?xml version="1.0" encoding="utf-8" standalone="no"?>
<!DOCTYPE svg PUBLIC "-//W3C//DTD SVG 1.1//EN"
  "http://www.w3.org/Graphics/SVG/1.1/DTD/svg11.dtd">
<!-- Created with matplotlib (http://matplotlib.org/) -->
<svg height="209.185937pt" version="1.1" viewBox="0 0 353.60875 209.185937" width="353.60875pt" xmlns="http://www.w3.org/2000/svg" xmlns:xlink="http://www.w3.org/1999/xlink">
 <defs>
  <style type="text/css">
*{stroke-linecap:butt;stroke-linejoin:round;}
  </style>
 </defs>
 <g id="figure_1">
  <g id="patch_1">
   <path d="M 0 209.185937 
L 353.60875 209.185937 
L 353.60875 0 
L 0 0 
z
" style="fill:none;"/>
  </g>
  <g id="axes_1">
   <g id="patch_2">
    <path d="M 42.41875 173.68125 
L 342.90875 173.68125 
L 342.90875 10.7 
L 42.41875 10.7 
z
" style="fill:#ffffff;"/>
   </g>
   <g id="matplotlib.axis_1">
    <g id="xtick_1">
     <g id="line2d_1">
      <defs>
       <path d="M 0 0 
L 0 3.5 
" id="m9e0eb2c18e" style="stroke:#000000;stroke-width:0.8;"/>
      </defs>
      <g>
       <use style="stroke:#000000;stroke-width:0.8;" x="56.077386" xlink:href="#m9e0eb2c18e" y="173.68125"/>
      </g>
     </g>
     <g id="text_1">
      <!-- 0 -->
      <defs>
       <path d="M 3.125 29.296875 
Q 3.90625 50 6.4375 56.046875 
Q 8.984375 62.109375 13.671875 66.015625 
Q 18.359375 69.921875 25.1875 69.921875 
Q 32.03125 69.921875 37.109375 64.25 
Q 42.1875 58.59375 43.75 50 
Q 45.3125 41.40625 44.71875 30.265625 
Q 44.140625 19.140625 40.8125 12.109375 
Q 37.5 5.078125 30.859375 2.34375 
Q 24.21875 -0.390625 17.578125 2.921875 
Q 10.9375 6.25 8.203125 11.71875 
Q 5.46875 17.1875 4.296875 23.234375 
Q 3.125 29.296875 3.90625 50 
z
M 12.890625 52.734375 
Q 10.546875 31.25 12.5 22.84375 
Q 14.453125 14.453125 18.9375 10.9375 
Q 23.4375 7.421875 28.125 9.5625 
Q 32.8125 11.71875 34.953125 18.15625 
Q 37.109375 24.609375 37.109375 32.21875 
Q 37.109375 39.84375 36.515625 46.09375 
Q 35.9375 52.34375 33 57.421875 
Q 30.078125 62.5 25.1875 62.6875 
Q 20.3125 62.890625 16.59375 57.8125 
Q 12.890625 52.734375 10.546875 31.25 
z
" id="SimHei-30"/>
      </defs>
      <g transform="translate(53.577386 187.55625)scale(0.1 -0.1)">
       <use xlink:href="#SimHei-30"/>
      </g>
     </g>
    </g>
    <g id="xtick_2">
     <g id="line2d_2">
      <g>
       <use style="stroke:#000000;stroke-width:0.8;" x="101.758444" xlink:href="#m9e0eb2c18e" y="173.68125"/>
      </g>
     </g>
     <g id="text_2">
      <!-- 50 -->
      <defs>
       <path d="M 8.59375 20.703125 
Q 11.328125 10.15625 17.96875 8.984375 
Q 24.609375 7.8125 28.703125 10.34375 
Q 32.8125 12.890625 34.5625 16.984375 
Q 36.328125 21.09375 36.125 26.171875 
Q 35.9375 31.25 33.390625 34.765625 
Q 30.859375 38.28125 26.953125 39.453125 
Q 23.046875 40.625 18.15625 39.453125 
Q 13.28125 38.28125 10.15625 33.984375 
L 3.515625 34.765625 
Q 4.296875 37.109375 10.9375 68.359375 
L 41.796875 68.359375 
L 41.796875 61.328125 
L 16.796875 61.328125 
Q 14.84375 50.78125 12.890625 44.53125 
Q 18.75 47.265625 23.828125 47.0625 
Q 28.90625 46.875 33.59375 44.71875 
Q 38.28125 42.578125 40.421875 38.859375 
Q 42.578125 35.15625 43.546875 31.4375 
Q 44.53125 27.734375 44.328125 23.4375 
Q 44.140625 19.140625 42.578125 14.640625 
Q 41.015625 10.15625 37.890625 7.21875 
Q 34.765625 4.296875 30.265625 2.53125 
Q 25.78125 0.78125 19.921875 1.171875 
Q 14.0625 1.5625 8.78125 5.46875 
Q 3.515625 9.375 1.5625 18.75 
z
" id="SimHei-35"/>
      </defs>
      <g transform="translate(96.758444 187.55625)scale(0.1 -0.1)">
       <use xlink:href="#SimHei-35"/>
       <use x="50" xlink:href="#SimHei-30"/>
      </g>
     </g>
    </g>
    <g id="xtick_3">
     <g id="line2d_3">
      <g>
       <use style="stroke:#000000;stroke-width:0.8;" x="147.439503" xlink:href="#m9e0eb2c18e" y="173.68125"/>
      </g>
     </g>
     <g id="text_3">
      <!-- 100 -->
      <defs>
       <path d="M 21.875 56.25 
Q 16.796875 51.171875 8.984375 46.484375 
L 8.984375 53.90625 
Q 18.75 60.546875 25 69.53125 
L 29.6875 69.53125 
L 29.6875 2.34375 
L 21.875 2.34375 
z
" id="SimHei-31"/>
      </defs>
      <g transform="translate(139.939503 187.55625)scale(0.1 -0.1)">
       <use xlink:href="#SimHei-31"/>
       <use x="50" xlink:href="#SimHei-30"/>
       <use x="100" xlink:href="#SimHei-30"/>
      </g>
     </g>
    </g>
    <g id="xtick_4">
     <g id="line2d_4">
      <g>
       <use style="stroke:#000000;stroke-width:0.8;" x="193.120561" xlink:href="#m9e0eb2c18e" y="173.68125"/>
      </g>
     </g>
     <g id="text_4">
      <!-- 150 -->
      <g transform="translate(185.620561 187.55625)scale(0.1 -0.1)">
       <use xlink:href="#SimHei-31"/>
       <use x="50" xlink:href="#SimHei-35"/>
       <use x="100" xlink:href="#SimHei-30"/>
      </g>
     </g>
    </g>
    <g id="xtick_5">
     <g id="line2d_5">
      <g>
       <use style="stroke:#000000;stroke-width:0.8;" x="238.801619" xlink:href="#m9e0eb2c18e" y="173.68125"/>
      </g>
     </g>
     <g id="text_5">
      <!-- 200 -->
      <defs>
       <path d="M 4.6875 3.90625 
Q 5.078125 9.765625 10.15625 14.453125 
Q 15.234375 19.140625 23.046875 29.09375 
Q 30.859375 39.0625 33.203125 44.53125 
Q 35.546875 50 34.953125 53.90625 
Q 34.375 57.8125 31.25 60.34375 
Q 28.125 62.890625 24.015625 62.5 
Q 19.921875 62.109375 16.203125 59.375 
Q 12.5 56.640625 10.546875 51.171875 
L 3.125 52.34375 
Q 6.25 61.328125 11.125 65.421875 
Q 16.015625 69.53125 22.65625 69.921875 
Q 26.5625 70.3125 29.6875 69.71875 
Q 32.8125 69.140625 36.125 66.984375 
Q 39.453125 64.84375 41.59375 60.546875 
Q 43.75 56.25 43.15625 50.1875 
Q 42.578125 44.140625 37.109375 35.734375 
Q 31.640625 27.34375 16.015625 9.375 
L 44.140625 9.375 
L 44.140625 2.34375 
L 4.6875 2.34375 
z
" id="SimHei-32"/>
      </defs>
      <g transform="translate(231.301619 187.55625)scale(0.1 -0.1)">
       <use xlink:href="#SimHei-32"/>
       <use x="50" xlink:href="#SimHei-30"/>
       <use x="100" xlink:href="#SimHei-30"/>
      </g>
     </g>
    </g>
    <g id="xtick_6">
     <g id="line2d_6">
      <g>
       <use style="stroke:#000000;stroke-width:0.8;" x="284.482677" xlink:href="#m9e0eb2c18e" y="173.68125"/>
      </g>
     </g>
     <g id="text_6">
      <!-- 250 -->
      <g transform="translate(276.982677 187.55625)scale(0.1 -0.1)">
       <use xlink:href="#SimHei-32"/>
       <use x="50" xlink:href="#SimHei-35"/>
       <use x="100" xlink:href="#SimHei-30"/>
      </g>
     </g>
    </g>
    <g id="xtick_7">
     <g id="line2d_7">
      <g>
       <use style="stroke:#000000;stroke-width:0.8;" x="330.163735" xlink:href="#m9e0eb2c18e" y="173.68125"/>
      </g>
     </g>
     <g id="text_7">
      <!-- 300 -->
      <defs>
       <path d="M 3.90625 19.140625 
L 10.9375 20.3125 
Q 12.5 15.234375 16.015625 11.90625 
Q 19.53125 8.59375 24.796875 8.78125 
Q 30.078125 8.984375 33.203125 13.078125 
Q 36.328125 17.1875 35.9375 22.453125 
Q 35.546875 27.734375 31.828125 30.65625 
Q 28.125 33.59375 19.921875 34.765625 
L 19.921875 39.84375 
Q 28.125 40.625 31.828125 44.140625 
Q 35.546875 47.65625 35.15625 53.3125 
Q 34.765625 58.984375 30.078125 61.515625 
Q 25.390625 64.0625 20.109375 62.109375 
Q 14.84375 60.15625 11.71875 51.171875 
L 4.6875 52.34375 
Q 7.03125 59.375 11.125 64.0625 
Q 15.234375 68.75 22.265625 69.53125 
Q 29.296875 70.3125 34.5625 67.765625 
Q 39.84375 65.234375 41.984375 59.953125 
Q 44.140625 54.6875 42.578125 48.4375 
Q 41.015625 42.1875 33.59375 37.5 
Q 39.0625 35.15625 41.984375 30.46875 
Q 44.921875 25.78125 43.9375 18.15625 
Q 42.96875 10.546875 37.109375 5.859375 
Q 31.25 1.171875 23.828125 1.359375 
Q 16.40625 1.5625 10.9375 6.046875 
Q 5.46875 10.546875 3.90625 19.140625 
z
" id="SimHei-33"/>
      </defs>
      <g transform="translate(322.663735 187.55625)scale(0.1 -0.1)">
       <use xlink:href="#SimHei-33"/>
       <use x="50" xlink:href="#SimHei-30"/>
       <use x="100" xlink:href="#SimHei-30"/>
      </g>
     </g>
    </g>
    <g id="text_8">
     <!-- 训练回合数 -->
     <defs>
      <path d="M 25.78125 51.5625 
Q 25.390625 42.578125 25.390625 34.765625 
L 25.390625 10.546875 
Q 30.46875 17.578125 32.03125 19.921875 
Q 33.984375 17.578125 36.71875 14.0625 
Q 31.640625 7.8125 28.125 3.3125 
Q 24.609375 -1.171875 20.703125 -6.640625 
Q 17.96875 -3.125 14.84375 -0.78125 
Q 17.96875 3.515625 17.96875 9.765625 
L 17.96875 44.921875 
L 15.234375 44.921875 
Q 9.375 44.921875 4.6875 44.53125 
L 4.6875 51.953125 
Q 9.375 51.5625 15.234375 51.5625 
z
M 53.515625 71.875 
Q 52.734375 67.96875 52.921875 52.53125 
Q 53.125 37.109375 52.140625 29.484375 
Q 51.171875 21.875 48.234375 13.078125 
Q 45.3125 4.296875 38.28125 -5.859375 
Q 34.765625 -3.125 30.859375 -1.953125 
Q 39.84375 7.8125 43.15625 21.28125 
Q 46.484375 34.765625 46.09375 52.140625 
Q 45.703125 69.53125 45.3125 73.046875 
Q 49.21875 72.265625 53.515625 71.875 
z
M 91.796875 73.4375 
Q 91.40625 70.3125 91.40625 62.109375 
L 91.40625 9.765625 
Q 91.40625 1.953125 91.796875 -6.25 
L 84.375 -6.25 
Q 84.765625 1.953125 84.765625 9.375 
L 84.765625 62.109375 
Q 84.765625 70.3125 84.375 73.4375 
L 91.796875 73.4375 
z
M 71.875 2.734375 
L 64.453125 2.734375 
Q 64.84375 11.328125 64.84375 17.96875 
L 64.84375 56.25 
Q 64.84375 63.28125 64.453125 67.96875 
L 71.875 67.96875 
z
M 15.625 80.46875 
Q 25.78125 71.875 32.8125 64.0625 
Q 29.296875 61.328125 27.34375 58.59375 
Q 16.40625 71.09375 10.9375 75 
Q 13.28125 77.34375 15.625 80.46875 
z
" id="SimHei-8bad"/>
      <path d="M 51.5625 59.765625 
Q 46.09375 59.765625 37.5 59.375 
L 37.5 66.40625 
Q 46.09375 66.015625 51.953125 66.015625 
L 56.640625 66.015625 
Q 60.546875 77.34375 60.9375 80.859375 
Q 65.625 78.515625 69.53125 76.953125 
Q 67.96875 75.390625 66.59375 72.0625 
Q 65.234375 68.75 64.0625 66.015625 
L 78.515625 66.015625 
Q 84.765625 66.015625 92.1875 66.40625 
L 92.1875 59.375 
Q 86.71875 59.765625 78.515625 59.765625 
L 62.109375 59.765625 
Q 60.15625 55.078125 57.8125 49.21875 
L 73.046875 49.21875 
Q 72.65625 44.921875 72.65625 38.671875 
L 72.65625 30.859375 
L 77.734375 30.859375 
Q 83.59375 30.859375 90.625 31.25 
L 90.625 24.21875 
Q 83.59375 24.609375 77.734375 24.609375 
L 72.65625 24.609375 
L 72.65625 1.953125 
Q 72.65625 -4.6875 69.71875 -6.640625 
Q 66.796875 -8.59375 57.03125 -9.765625 
Q 56.640625 -5.859375 53.90625 -1.5625 
Q 63.671875 -1.953125 64.640625 -0.390625 
Q 65.625 1.171875 65.625 5.078125 
L 65.625 24.609375 
L 53.515625 24.609375 
Q 50.78125 24.609375 48.4375 24.40625 
Q 46.09375 24.21875 42.96875 23.046875 
Q 41.40625 26.953125 39.84375 30.46875 
Q 43.75 31.640625 48.828125 43.359375 
Q 46.09375 43.359375 38.28125 42.96875 
L 38.28125 49.609375 
Q 47.265625 49.21875 50.78125 49.21875 
Q 53.125 55.078125 54.6875 59.765625 
z
M 25.78125 46.09375 
Q 29.296875 51.5625 32.8125 60.9375 
Q 36.328125 58.203125 40.234375 56.25 
Q 36.328125 51.171875 31.640625 42.96875 
Q 26.953125 34.765625 16.796875 21.09375 
Q 20.3125 21.875 37.5 24.609375 
Q 36.71875 20.3125 37.109375 17.96875 
Q 28.515625 17.1875 10.15625 12.890625 
Q 8.203125 16.796875 6.25 19.921875 
Q 9.765625 21.875 13.859375 27.140625 
Q 17.96875 32.421875 22.65625 40.234375 
Q 20.3125 40.625 15.8125 40.03125 
Q 11.328125 39.453125 7.03125 38.28125 
Q 5.46875 41.796875 3.90625 45.703125 
Q 7.8125 48.046875 12.6875 58.203125 
Q 17.578125 68.359375 20.703125 78.125 
Q 25 75.390625 28.90625 74.21875 
Q 25 68.359375 21.671875 61.90625 
Q 18.359375 55.46875 12.5 45.703125 
Q 21.484375 45.703125 25.78125 46.09375 
z
M 37.890625 10.9375 
Q 37.5 6.640625 37.890625 3.90625 
Q 31.25 2.34375 22.84375 -0.390625 
Q 14.453125 -3.125 7.421875 -6.640625 
Q 6.25 -2.34375 4.6875 1.953125 
Q 14.84375 4.296875 18.546875 5.265625 
Q 22.265625 6.25 37.890625 10.9375 
z
M 58.203125 13.671875 
Q 57.03125 12.5 51.359375 6.25 
Q 45.703125 0 38.671875 -7.421875 
Q 35.9375 -3.90625 33.59375 -1.953125 
Q 37.890625 1.5625 42.96875 7.21875 
Q 48.046875 12.890625 51.953125 19.140625 
Q 54.296875 16.40625 58.203125 13.671875 
z
M 82.421875 19.140625 
Q 92.578125 5.859375 96.875 -1.5625 
Q 92.96875 -3.125 89.84375 -5.859375 
Q 85.546875 2.734375 76.5625 14.84375 
Q 79.296875 16.40625 82.421875 19.140625 
z
M 65.625 30.859375 
L 65.625 43.359375 
L 55.859375 43.359375 
Q 51.953125 35.15625 49.609375 30.859375 
z
" id="SimHei-7ec3"/>
      <path d="M 88.28125 75.78125 
Q 87.890625 64.453125 87.890625 53.90625 
L 87.890625 14.84375 
Q 87.890625 4.6875 88.28125 -5.859375 
L 80.46875 -5.859375 
L 80.46875 1.5625 
L 18.359375 1.5625 
L 18.359375 -5.859375 
L 10.9375 -5.859375 
Q 11.328125 3.90625 11.328125 14.84375 
L 11.328125 53.90625 
Q 11.328125 64.0625 10.9375 75.78125 
L 88.28125 75.78125 
z
M 80.46875 7.8125 
L 80.46875 69.140625 
L 18.75 69.140625 
L 18.75 7.8125 
z
M 67.578125 54.6875 
Q 67.1875 48.828125 67.1875 42.96875 
L 67.1875 33.984375 
Q 67.1875 28.90625 67.578125 21.875 
L 31.640625 21.875 
Q 32.03125 28.90625 32.03125 33.984375 
L 32.03125 43.75 
Q 32.03125 49.21875 31.640625 54.6875 
L 67.578125 54.6875 
z
M 59.765625 28.515625 
L 59.765625 48.4375 
L 39.0625 48.4375 
L 39.0625 28.515625 
z
" id="SimHei-56de"/>
      <path d="M 78.90625 28.125 
Q 78.515625 24.21875 78.515625 10.15625 
Q 78.515625 -3.90625 78.90625 -8.203125 
L 70.703125 -8.203125 
L 70.703125 -0.78125 
L 27.34375 -0.78125 
L 27.34375 -9.375 
L 19.53125 -9.375 
Q 19.921875 -4.6875 19.921875 8.59375 
Q 19.921875 22.265625 19.53125 28.125 
L 78.90625 28.125 
z
M 52.734375 75 
Q 64.0625 61.328125 71.09375 56.25 
Q 78.125 51.171875 83.984375 48.4375 
Q 89.84375 45.703125 95.3125 44.140625 
Q 91.40625 39.84375 90.234375 35.9375 
Q 82.421875 39.453125 76.171875 43.359375 
Q 69.921875 47.265625 63.46875 53.3125 
Q 57.03125 59.375 48.828125 69.921875 
Q 41.40625 59.375 34.171875 52.53125 
Q 26.953125 45.703125 21.875 41.796875 
Q 16.796875 37.890625 10.546875 33.984375 
Q 9.765625 35.546875 4.296875 40.234375 
Q 12.5 44.140625 19.921875 49.609375 
Q 27.34375 55.078125 34.765625 63.46875 
Q 42.1875 71.875 46.875 81.640625 
Q 51.171875 78.90625 54.6875 77.34375 
z
M 70.703125 5.46875 
L 70.703125 21.875 
L 27.34375 21.875 
L 27.34375 5.46875 
z
M 61.328125 44.140625 
Q 67.578125 44.140625 72.265625 44.53125 
L 72.265625 37.109375 
Q 67.1875 37.5 61.71875 37.5 
L 39.84375 37.5 
Q 31.640625 37.5 26.5625 37.109375 
L 26.5625 44.53125 
Q 33.984375 44.140625 39.84375 44.140625 
z
" id="SimHei-5408"/>
      <path d="M 70.703125 76.953125 
Q 69.921875 75 68.75 71.671875 
Q 67.578125 68.359375 65.234375 59.765625 
L 83.203125 59.765625 
Q 87.109375 59.765625 92.578125 60.15625 
L 92.578125 53.125 
Q 88.28125 53.515625 85.9375 53.515625 
Q 85.9375 47.265625 83.78125 33.78125 
Q 81.640625 20.3125 76.171875 10.546875 
Q 80.078125 5.859375 84.953125 2.140625 
Q 89.84375 -1.5625 94.140625 -3.125 
Q 89.453125 -6.640625 87.890625 -9.765625 
Q 83.203125 -7.03125 79.296875 -3.515625 
Q 75.390625 0 71.484375 5.078125 
Q 67.1875 0.390625 62.296875 -2.921875 
Q 57.421875 -6.25 50 -10.15625 
Q 48.046875 -6.640625 44.53125 -4.6875 
Q 50.390625 -2.34375 57.03125 1.953125 
Q 63.671875 6.25 67.1875 10.546875 
Q 64.453125 16.015625 61.90625 22.265625 
Q 59.375 28.515625 57.421875 38.671875 
Q 56.25 35.546875 53.515625 30.46875 
Q 50.78125 32.03125 46.875 33.59375 
Q 53.125 44.53125 57.03125 57.421875 
Q 60.9375 70.3125 62.109375 79.6875 
Q 66.796875 77.734375 70.703125 76.953125 
z
M 32.8125 35.15625 
Q 31.25 33.59375 29.296875 30.078125 
L 50.78125 30.078125 
Q 48.4375 20.3125 42.578125 10.546875 
Q 48.828125 8.203125 52.34375 6.25 
Q 50.390625 3.515625 48.828125 0.390625 
Q 45.3125 2.734375 38.28125 5.078125 
Q 30.46875 -3.515625 11.328125 -10.15625 
Q 9.375 -5.859375 6.25 -4.296875 
Q 24.609375 0 31.25 7.421875 
Q 20.3125 10.15625 13.28125 12.109375 
Q 15.625 15.625 19.53125 23.828125 
Q 15.625 23.828125 6.640625 23.4375 
L 6.640625 30.46875 
Q 14.0625 30.078125 21.875 30.078125 
Q 23.4375 33.59375 24.21875 37.890625 
Q 28.515625 36.328125 32.8125 35.15625 
z
M 27.734375 61.71875 
Q 27.734375 71.09375 27.34375 79.6875 
L 35.15625 79.6875 
Q 34.765625 71.484375 34.765625 61.71875 
Q 48.046875 61.71875 53.515625 62.109375 
L 53.515625 55.078125 
Q 48.046875 55.46875 34.765625 55.46875 
Q 34.765625 44.140625 35.15625 37.890625 
L 27.34375 37.890625 
Q 27.734375 43.359375 27.734375 51.5625 
Q 25.78125 48.4375 20.3125 43.546875 
Q 14.84375 38.671875 10.15625 35.9375 
Q 8.203125 39.453125 4.296875 41.015625 
Q 7.8125 42.1875 13.671875 46.484375 
Q 19.53125 50.78125 22.65625 55.46875 
Q 14.84375 55.46875 7.8125 55.078125 
L 7.8125 62.109375 
Q 14.453125 61.71875 27.734375 61.71875 
z
M 62.109375 49.609375 
Q 65.625 26.5625 71.875 17.578125 
Q 75.78125 26.5625 77.140625 35.734375 
Q 78.515625 44.921875 78.90625 53.515625 
L 63.671875 53.515625 
L 62.109375 49.609375 
z
M 22.65625 15.625 
Q 27.34375 14.453125 35.546875 12.5 
Q 38.671875 16.40625 41.40625 23.828125 
L 26.953125 23.828125 
Q 25 19.921875 22.65625 15.625 
z
M 51.953125 75.390625 
Q 50 72.265625 48.828125 69.53125 
Q 47.65625 66.796875 45.703125 62.890625 
Q 42.578125 64.453125 39.453125 65.234375 
Q 42.578125 70.3125 45.3125 78.125 
Q 49.21875 76.171875 51.953125 75.390625 
z
M 40.234375 52.734375 
Q 45.3125 47.65625 50 42.578125 
Q 47.65625 40.625 44.921875 37.890625 
Q 39.453125 44.53125 35.9375 48.4375 
Q 38.28125 50.390625 40.234375 52.734375 
z
M 14.453125 78.125 
Q 19.921875 72.65625 23.4375 67.1875 
L 17.578125 63.671875 
Q 14.84375 69.140625 9.375 73.828125 
Q 12.890625 76.171875 14.453125 78.125 
z
" id="SimHei-6570"/>
     </defs>
     <g transform="translate(167.66375 200.735937)scale(0.1 -0.1)">
      <use xlink:href="#SimHei-8bad"/>
      <use x="100" xlink:href="#SimHei-7ec3"/>
      <use x="200" xlink:href="#SimHei-56de"/>
      <use x="300" xlink:href="#SimHei-5408"/>
      <use x="400" xlink:href="#SimHei-6570"/>
     </g>
    </g>
   </g>
   <g id="matplotlib.axis_2">
    <g id="ytick_1">
     <g id="line2d_8">
      <defs>
       <path d="M 0 0 
L -3.5 0 
" id="m9f0919310a" style="stroke:#000000;stroke-width:0.8;"/>
      </defs>
      <g>
       <use style="stroke:#000000;stroke-width:0.8;" x="42.41875" xlink:href="#m9f0919310a" y="173.938873"/>
      </g>
     </g>
     <g id="text_9">
      <!-- 0 -->
      <g transform="translate(30.41875 177.376373)scale(0.1 -0.1)">
       <use xlink:href="#SimHei-30"/>
      </g>
     </g>
    </g>
    <g id="ytick_2">
     <g id="line2d_9">
      <g>
       <use style="stroke:#000000;stroke-width:0.8;" x="42.41875" xlink:href="#m9f0919310a" y="134.981215"/>
      </g>
     </g>
     <g id="text_10">
      <!-- 50 -->
      <g transform="translate(25.41875 138.418715)scale(0.1 -0.1)">
       <use xlink:href="#SimHei-35"/>
       <use x="50" xlink:href="#SimHei-30"/>
      </g>
     </g>
    </g>
    <g id="ytick_3">
     <g id="line2d_10">
      <g>
       <use style="stroke:#000000;stroke-width:0.8;" x="42.41875" xlink:href="#m9f0919310a" y="96.023556"/>
      </g>
     </g>
     <g id="text_11">
      <!-- 100 -->
      <g transform="translate(20.41875 99.461056)scale(0.1 -0.1)">
       <use xlink:href="#SimHei-31"/>
       <use x="50" xlink:href="#SimHei-30"/>
       <use x="100" xlink:href="#SimHei-30"/>
      </g>
     </g>
    </g>
    <g id="ytick_4">
     <g id="line2d_11">
      <g>
       <use style="stroke:#000000;stroke-width:0.8;" x="42.41875" xlink:href="#m9f0919310a" y="57.065897"/>
      </g>
     </g>
     <g id="text_12">
      <!-- 150 -->
      <g transform="translate(20.41875 60.503397)scale(0.1 -0.1)">
       <use xlink:href="#SimHei-31"/>
       <use x="50" xlink:href="#SimHei-35"/>
       <use x="100" xlink:href="#SimHei-30"/>
      </g>
     </g>
    </g>
    <g id="ytick_5">
     <g id="line2d_12">
      <g>
       <use style="stroke:#000000;stroke-width:0.8;" x="42.41875" xlink:href="#m9f0919310a" y="18.108239"/>
      </g>
     </g>
     <g id="text_13">
      <!-- 200 -->
      <g transform="translate(20.41875 21.545739)scale(0.1 -0.1)">
       <use xlink:href="#SimHei-32"/>
       <use x="50" xlink:href="#SimHei-30"/>
       <use x="100" xlink:href="#SimHei-30"/>
      </g>
     </g>
    </g>
    <g id="text_14">
     <!-- 平均奖赏值 -->
     <defs>
      <path d="M 70.703125 75.390625 
Q 76.5625 75.390625 85.15625 75.78125 
L 85.15625 68.359375 
Q 76.953125 68.75 70.703125 68.75 
L 54.296875 68.75 
L 54.296875 31.640625 
L 78.125 31.640625 
Q 86.71875 31.640625 94.140625 32.03125 
L 94.140625 24.609375 
Q 86.71875 25 78.125 25 
L 54.296875 25 
L 54.296875 7.03125 
Q 54.296875 -1.5625 54.6875 -9.375 
L 45.703125 -9.375 
Q 46.09375 -1.5625 46.09375 7.03125 
L 46.09375 25 
L 17.578125 25 
Q 12.109375 25 5.859375 24.609375 
L 5.859375 32.03125 
Q 12.109375 31.640625 18.359375 31.640625 
L 46.09375 31.640625 
L 46.09375 68.75 
L 27.734375 68.75 
Q 21.875 68.75 13.671875 68.359375 
L 13.671875 75.78125 
Q 21.875 75.390625 27.34375 75.390625 
z
M 61.328125 40.625 
Q 70.3125 51.5625 76.5625 64.453125 
Q 80.46875 61.71875 84.375 59.765625 
Q 74.609375 44.53125 67.96875 35.9375 
Q 64.84375 38.671875 61.328125 40.625 
z
M 30.859375 36.71875 
Q 25 48.4375 16.40625 58.203125 
Q 19.53125 60.546875 22.65625 63.28125 
Q 32.421875 51.5625 38.28125 42.578125 
Q 33.59375 39.0625 30.859375 36.71875 
z
" id="SimHei-5e73"/>
      <path d="M 90.234375 4.296875 
Q 90.234375 -5.078125 83.78125 -7.03125 
Q 77.34375 -8.984375 69.140625 -9.375 
Q 68.359375 -4.296875 66.40625 0.390625 
Q 77.34375 -0.390625 80.078125 0.96875 
Q 82.8125 2.34375 82.8125 7.8125 
L 83.984375 57.8125 
L 55.46875 57.8125 
Q 53.515625 52.734375 50.96875 47.453125 
Q 48.4375 42.1875 45.703125 37.5 
Q 41.796875 39.84375 38.671875 41.015625 
Q 49.21875 56.640625 54.6875 81.25 
Q 59.375 79.6875 63.671875 78.515625 
Q 62.109375 76.171875 60.546875 72.65625 
Q 58.984375 69.140625 57.421875 64.453125 
L 92.1875 64.453125 
L 90.234375 4.296875 
z
M 19.53125 56.640625 
L 19.53125 68.359375 
Q 19.53125 74.609375 19.140625 79.6875 
L 27.734375 79.6875 
Q 27.34375 73.828125 27.34375 68.359375 
L 27.34375 56.640625 
L 29.6875 56.640625 
Q 34.375 56.640625 39.453125 57.03125 
L 39.453125 49.21875 
Q 34.375 49.609375 29.6875 49.609375 
L 27.34375 49.609375 
L 27.34375 17.1875 
L 39.0625 21.484375 
Q 38.671875 17.578125 39.453125 14.0625 
Q 19.140625 7.421875 15.03125 5.65625 
Q 10.9375 3.90625 7.421875 2.34375 
Q 5.859375 7.421875 3.90625 11.71875 
Q 8.984375 12.5 12.5 13.28125 
Q 16.015625 14.0625 19.53125 15.234375 
L 19.53125 49.609375 
L 17.578125 49.609375 
Q 13.28125 49.609375 6.25 49.21875 
L 6.25 57.03125 
Q 13.28125 56.640625 17.1875 56.640625 
z
M 77.34375 25.390625 
Q 73.046875 22.265625 64.640625 16.40625 
Q 56.25 10.546875 49.609375 4.6875 
Q 46.875 8.984375 44.53125 12.109375 
Q 52.34375 16.40625 58.78125 20.703125 
Q 65.234375 25 74.609375 32.421875 
Q 75.390625 28.90625 77.34375 25.390625 
z
M 58.984375 49.21875 
Q 64.453125 43.75 69.921875 35.9375 
Q 66.40625 33.203125 64.0625 30.859375 
Q 60.9375 36.328125 53.90625 44.140625 
Q 56.25 46.875 58.984375 49.21875 
z
" id="SimHei-5747"/>
      <path d="M 79.296875 24.609375 
Q 88.28125 24.609375 94.921875 25 
L 94.921875 17.578125 
Q 88.671875 18.75 79.296875 18.359375 
L 55.46875 18.359375 
Q 62.109375 9.375 73.625 4.6875 
Q 85.15625 0 96.09375 -0.78125 
Q 93.75 -3.515625 91.40625 -8.59375 
Q 83.59375 -7.03125 77.734375 -5.078125 
Q 71.875 -3.125 64.640625 1.359375 
Q 57.421875 5.859375 50.78125 13.671875 
Q 47.265625 8.59375 43.75 5.46875 
Q 40.234375 2.34375 35.15625 -0.78125 
Q 30.078125 -3.90625 24.40625 -5.859375 
Q 18.75 -7.8125 10.9375 -9.765625 
Q 9.375 -5.859375 6.25 -1.953125 
Q 13.671875 -1.171875 19.71875 0.578125 
Q 25.78125 2.34375 30.65625 4.875 
Q 35.546875 7.421875 39.0625 10.734375 
Q 42.578125 14.0625 44.53125 18.359375 
L 20.703125 18.359375 
Q 12.890625 18.359375 5.46875 17.96875 
L 5.46875 25 
Q 12.890625 24.609375 20.703125 24.609375 
L 46.09375 24.609375 
Q 46.484375 27.34375 46.484375 30.46875 
Q 54.296875 29.296875 55.46875 29.296875 
Q 54.296875 26.953125 53.90625 24.609375 
z
M 67.578125 78.125 
Q 64.453125 75 61.328125 70.3125 
L 92.1875 70.3125 
Q 88.671875 61.71875 85.34375 56.046875 
Q 82.03125 50.390625 77.921875 45.890625 
Q 73.828125 41.40625 66.984375 37.5 
Q 60.15625 33.59375 47.65625 30.859375 
Q 45.703125 34.375 42.96875 37.890625 
Q 54.6875 38.28125 64.0625 43.75 
L 53.515625 50.78125 
Q 55.859375 53.515625 57.8125 56.25 
Q 61.71875 53.90625 64.0625 52.140625 
Q 66.40625 50.390625 69.921875 48.046875 
Q 76.5625 53.90625 80.859375 64.0625 
L 57.421875 64.0625 
Q 55.46875 61.71875 52.734375 58.59375 
Q 50 55.46875 45.3125 50 
Q 42.1875 52.734375 38.671875 54.296875 
Q 44.53125 59.375 49.796875 66.40625 
Q 55.078125 73.4375 58.59375 81.640625 
Q 63.671875 79.296875 67.578125 78.125 
z
M 38.28125 80.859375 
Q 37.890625 76.171875 37.890625 69.921875 
L 37.890625 44.921875 
Q 37.890625 39.0625 38.28125 30.859375 
L 30.078125 30.859375 
Q 30.46875 39.0625 30.46875 44.921875 
L 30.46875 47.65625 
Q 19.140625 40.234375 11.71875 35.546875 
Q 8.984375 39.84375 6.25 42.1875 
Q 12.890625 44.140625 30.46875 55.078125 
L 30.46875 69.921875 
Q 30.46875 75.78125 30.078125 80.859375 
L 38.28125 80.859375 
z
M 15.625 73.4375 
Q 23.046875 67.578125 28.125 62.890625 
L 22.265625 57.03125 
Q 17.1875 62.5 10.546875 67.96875 
Q 13.28125 70.3125 15.625 73.4375 
z
" id="SimHei-5956"/>
      <path d="M 76.953125 34.375 
L 23.4375 34.375 
Q 23.828125 39.453125 23.828125 44.140625 
Q 23.828125 48.828125 23.4375 53.125 
L 76.953125 53.125 
z
M 82.421875 76.171875 
Q 78.515625 73.4375 73.046875 65.234375 
L 91.015625 65.234375 
Q 90.625 61.328125 90.625 57.421875 
Q 90.625 53.90625 91.015625 49.21875 
L 83.203125 49.21875 
L 83.203125 59.375 
L 17.1875 59.375 
L 17.1875 47.65625 
L 9.375 47.65625 
Q 9.765625 52.34375 9.765625 56.640625 
Q 9.765625 61.328125 9.375 65.234375 
L 28.90625 65.234375 
Q 23.828125 71.875 19.921875 76.5625 
L 26.171875 80.46875 
Q 31.25 75.390625 35.546875 68.75 
Q 32.421875 66.796875 29.6875 65.234375 
L 46.484375 65.234375 
Q 46.484375 73.046875 46.09375 80.859375 
L 54.296875 80.859375 
Q 53.90625 73.828125 53.90625 65.234375 
L 65.234375 65.234375 
Q 71.875 75 73.046875 79.6875 
Q 77.734375 77.34375 82.421875 76.171875 
z
M 81.25 28.90625 
Q 80.859375 24.21875 80.859375 18.75 
Q 80.859375 13.28125 81.25 8.59375 
L 73.4375 8.59375 
L 73.4375 23.046875 
L 26.953125 23.046875 
L 26.953125 7.03125 
L 19.140625 7.03125 
Q 19.53125 12.5 19.53125 17.96875 
Q 19.53125 23.4375 19.140625 28.90625 
L 81.25 28.90625 
z
M 54.296875 17.1875 
Q 50 5.078125 45.3125 1.171875 
Q 40.625 -2.734375 33.390625 -5.65625 
Q 26.171875 -8.59375 12.890625 -10.546875 
Q 12.109375 -7.03125 7.8125 -2.734375 
Q 18.359375 -2.34375 25.390625 -0.578125 
Q 32.421875 1.171875 38.28125 5.46875 
Q 44.140625 9.765625 45.3125 19.53125 
L 54.296875 17.1875 
z
M 69.140625 39.84375 
L 69.140625 47.265625 
L 31.25 47.265625 
L 31.25 39.84375 
z
M 61.328125 10.15625 
Q 78.515625 3.515625 90.234375 -3.90625 
Q 86.71875 -6.640625 84.375 -10.15625 
Q 76.5625 -3.90625 56.640625 3.90625 
Q 59.765625 7.8125 61.328125 10.15625 
z
" id="SimHei-8d4f"/>
      <path d="M 57.421875 69.53125 
L 57.421875 79.6875 
Q 62.109375 79.296875 67.96875 78.90625 
Q 66.015625 76.171875 65.625 69.53125 
L 80.078125 69.53125 
Q 86.71875 69.53125 91.796875 69.921875 
L 91.796875 62.890625 
Q 86.328125 63.28125 80.078125 63.28125 
L 65.234375 63.28125 
L 64.453125 54.6875 
L 84.375 54.6875 
Q 83.984375 50 83.984375 42.1875 
L 83.984375 2.34375 
Q 91.796875 2.34375 95.3125 2.734375 
L 95.3125 -4.296875 
Q 90.234375 -3.90625 81.25 -3.90625 
L 44.53125 -3.90625 
Q 35.546875 -3.90625 29.6875 -4.296875 
L 29.6875 2.734375 
Q 33.203125 2.34375 40.625 2.34375 
L 40.625 42.1875 
Q 40.625 49.609375 40.234375 54.6875 
L 56.25 54.6875 
L 57.03125 63.28125 
L 50 63.28125 
Q 40.234375 63.28125 34.765625 62.890625 
L 34.765625 69.921875 
Q 39.84375 69.53125 50 69.53125 
z
M 34.765625 76.5625 
Q 31.640625 73.046875 25.78125 58.59375 
L 25.78125 7.03125 
Q 25.78125 -1.171875 26.171875 -8.59375 
L 17.96875 -8.59375 
Q 18.359375 -1.953125 18.359375 5.859375 
L 18.359375 46.09375 
Q 13.671875 38.28125 9.765625 33.59375 
Q 6.640625 37.890625 3.90625 40.234375 
Q 7.8125 44.140625 14.640625 55.265625 
Q 21.484375 66.40625 25.390625 80.46875 
Q 30.859375 77.734375 34.765625 76.5625 
z
M 76.953125 41.40625 
L 76.953125 49.21875 
L 48.046875 49.21875 
L 48.046875 41.40625 
z
M 76.953125 2.34375 
L 76.953125 9.765625 
L 48.046875 9.765625 
L 48.046875 2.34375 
z
M 76.953125 15.625 
L 76.953125 22.65625 
L 48.046875 22.65625 
L 48.046875 15.625 
z
M 76.953125 28.515625 
L 76.953125 35.546875 
L 48.046875 35.546875 
L 48.046875 28.515625 
z
" id="SimHei-503c"/>
     </defs>
     <g transform="translate(15.16875 117.190625)rotate(-90)scale(0.1 -0.1)">
      <use xlink:href="#SimHei-5e73"/>
      <use x="100" xlink:href="#SimHei-5747"/>
      <use x="200" xlink:href="#SimHei-5956"/>
      <use x="300" xlink:href="#SimHei-8d4f"/>
      <use x="400" xlink:href="#SimHei-503c"/>
     </g>
    </g>
   </g>
   <g id="line2d_13">
    <path clip-path="url(#p46bbfdf7fc)" d="M 56.077386 152.901738 
L 57.904629 157.316939 
L 59.731871 159.446624 
L 60.645492 159.914116 
L 61.559113 160.581962 
L 62.472734 160.790663 
L 63.386356 160.260406 
L 64.299977 159.52454 
L 66.127219 160.368622 
L 67.04084 159.374702 
L 67.954461 159.52454 
L 68.868083 159.914116 
L 69.781704 159.865419 
L 72.522567 160.570245 
L 73.436188 160.576396 
L 74.34981 160.878782 
L 75.263431 160.799517 
L 76.177052 159.812487 
L 78.004294 158.760969 
L 78.917915 158.655484 
L 81.658779 158.785687 
L 82.5724 158.329838 
L 83.486021 158.255274 
L 84.399642 158.657417 
L 86.226885 157.9788 
L 88.054127 157.802862 
L 88.967748 157.300183 
L 89.881369 157.099111 
L 91.708612 157.249915 
L 92.622233 157.526389 
L 93.535854 156.696968 
L 94.449475 154.56058 
L 96.276717 151.494235 
L 97.190339 150.463742 
L 98.10396 146.341771 
L 99.017581 146.015029 
L 99.931202 141.641718 
L 100.844823 140.359885 
L 101.758444 139.857205 
L 102.672066 137.67055 
L 103.585687 136.790861 
L 104.499308 137.444344 
L 105.412929 137.79622 
L 106.32655 137.871622 
L 107.240171 135.96144 
L 108.153793 132.995631 
L 109.067414 132.492951 
L 109.981035 132.492951 
L 110.894656 131.7892 
L 112.721898 125.254367 
L 113.63552 122.690702 
L 114.549141 122.23829 
L 115.462762 122.213156 
L 116.376383 119.925965 
L 117.290004 120.453778 
L 118.203625 118.518462 
L 120.030868 114.295955 
L 120.944489 111.330146 
L 121.85811 109.470232 
L 122.771731 108.590543 
L 123.685352 108.464873 
L 124.598973 107.786255 
L 125.512595 105.850939 
L 126.426216 106.604959 
L 127.339837 105.172322 
L 128.253458 108.89215 
L 129.167079 107.735987 
L 130.994322 103.76482 
L 134.648806 88.83524 
L 136.476049 85.718627 
L 137.38967 82.95389 
L 138.303291 78.605712 
L 140.130533 81.093976 
L 141.044154 81.496119 
L 141.957776 81.747459 
L 143.785018 77.399282 
L 144.698639 77.097674 
L 145.61226 75.262894 
L 146.525881 74.885884 
L 147.439503 74.282669 
L 148.353124 74.232401 
L 149.266745 74.433473 
L 150.180366 74.106731 
L 151.093987 74.307803 
L 152.007608 76.519593 
L 152.921229 76.067181 
L 153.834851 77.248478 
L 154.748472 78.002497 
L 155.662093 76.519593 
L 156.575714 77.07254 
L 157.489335 76.519593 
L 158.402956 76.142583 
L 159.316578 77.223344 
L 160.230199 78.831918 
L 161.14382 78.605712 
L 162.057441 77.700889 
L 162.971062 77.700889 
L 163.884683 76.745798 
L 164.798305 76.846334 
L 165.711926 75.589636 
L 166.625547 79.988081 
L 167.539168 76.469325 
L 168.452789 75.413698 
L 169.36641 75.061822 
L 170.280032 74.031329 
L 171.193653 73.52865 
L 172.107274 72.674095 
L 173.020895 70.839315 
L 173.934516 69.582616 
L 174.848137 68.099712 
L 175.761759 66.264932 
L 176.67538 65.536046 
L 177.589001 64.555821 
L 178.502622 62.871845 
L 179.416243 62.519969 
L 180.329864 59.076615 
L 181.243485 58.699606 
L 182.157107 57.317237 
L 183.070728 57.091031 
L 184.89797 56.940227 
L 185.811591 56.965361 
L 186.725212 59.880902 
L 187.638834 60.18251 
L 188.552455 60.05684 
L 189.466076 59.202285 
L 190.379697 59.202285 
L 191.293318 61.916754 
L 193.120561 71.166056 
L 194.034182 73.553784 
L 194.947803 69.079937 
L 196.775045 69.909358 
L 197.688666 68.401319 
L 198.602288 68.451587 
L 201.343151 73.578918 
L 202.256772 71.995477 
L 203.170393 71.266592 
L 204.084015 71.266592 
L 204.997636 69.456946 
L 205.911257 68.929133 
L 206.824878 69.35641 
L 207.738499 68.426453 
L 208.65212 68.903999 
L 209.565741 68.652659 
L 212.306605 68.225381 
L 213.220226 63.60073 
L 214.133847 62.3943 
L 215.047468 58.020988 
L 216.874711 55.784065 
L 218.701953 55.784065 
L 219.615574 53.069596 
L 221.442817 44.147035 
L 222.356438 42.965738 
L 223.270059 44.599447 
L 224.18368 45.102126 
L 225.097301 44.976456 
L 226.010922 46.283423 
L 226.924544 46.660432 
L 228.751786 42.764666 
L 229.665407 42.186585 
L 230.579028 43.870561 
L 233.319892 43.870561 
L 234.233513 43.719757 
L 235.147134 44.021365 
L 236.974376 43.217078 
L 237.887997 43.141676 
L 238.801619 41.884977 
L 239.71524 40.351805 
L 240.628861 39.12024 
L 242.456103 39.095106 
L 245.196967 40.175867 
L 246.110588 40.175867 
L 247.024209 40.452341 
L 247.93783 44.825652 
L 248.851451 44.825652 
L 249.765073 44.348107 
L 250.678694 43.141676 
L 253.419557 37.78814 
L 254.333178 36.883317 
L 255.2468 35.626618 
L 257.074042 33.515364 
L 257.987663 32.15813 
L 258.901284 30.474154 
L 261.642148 30.474154 
L 262.555769 30.273082 
L 263.46939 29.544196 
L 264.383011 29.242589 
L 266.210253 26.678924 
L 267.123875 26.477852 
L 269.864738 26.477852 
L 270.778359 26.000306 
L 271.69198 25.271421 
L 272.605602 24.039856 
L 273.519223 23.386373 
L 274.432844 23.386373 
L 275.346465 23.109899 
L 276.260086 18.736588 
L 281.741813 18.736588 
L 282.655434 18.108239 
L 309.150448 18.108239 
L 310.064069 22.808292 
L 321.941144 22.808292 
L 323.768387 24.165526 
L 324.682008 24.165526 
L 325.595629 25.246287 
L 326.50925 27.005665 
L 327.422871 29.418527 
L 328.336492 34.168848 
L 329.250114 35.70202 
L 329.250114 35.70202 
" style="fill:none;stroke:#ff4500;stroke-linecap:square;stroke-width:1.5;"/>
   </g>
   <g id="line2d_14">
    <path clip-path="url(#p46bbfdf7fc)" d="M 56.077386 159.134963 
L 56.991008 162.251576 
L 57.904629 159.914116 
L 58.81825 161.667211 
L 60.645492 154.330185 
L 62.472734 157.089686 
L 63.386356 156.797503 
L 64.299977 157.498741 
L 65.213598 157.930817 
L 66.127219 157.706515 
L 67.04084 158.056135 
L 67.954461 157.854926 
L 69.781704 158.647992 
L 70.695325 157.668322 
L 75.263431 156.620423 
L 76.177052 156.763627 
L 77.090673 156.472856 
L 78.917915 156.048318 
L 80.745158 152.122584 
L 81.658779 152.283788 
L 82.5724 149.603322 
L 83.486021 149.910795 
L 84.399642 149.810259 
L 86.226885 149.081374 
L 87.140506 148.779766 
L 88.054127 147.673871 
L 88.967748 145.286144 
L 89.881369 145.26101 
L 90.79499 140.485555 
L 91.708612 139.957741 
L 92.622233 139.781803 
L 93.535854 136.589789 
L 94.449475 132.16621 
L 95.363096 132.266745 
L 96.276717 129.124999 
L 97.190339 124.399812 
L 98.10396 122.414228 
L 99.017581 119.900831 
L 99.931202 116.382074 
L 104.499308 95.068465 
L 105.412929 95.646546 
L 106.32655 94.942795 
L 107.240171 95.344939 
L 109.067414 98.310748 
L 109.981035 98.411283 
L 110.894656 100.497403 
L 112.721898 100.346599 
L 113.63552 100.597939 
L 114.549141 101.125753 
L 115.462762 101.30169 
L 116.376383 102.910265 
L 117.290004 105.700136 
L 118.203625 105.34826 
L 119.117247 108.942418 
L 120.030868 109.746705 
L 120.944489 108.791614 
L 121.85811 111.883093 
L 122.771731 116.558012 
L 123.685352 114.748366 
L 124.598973 117.915247 
L 125.512595 122.313692 
L 126.426216 123.595525 
L 129.167079 132.719157 
L 130.994322 141.918191 
L 131.907943 145.839091 
L 132.821564 146.794182 
L 133.735185 143.903775 
L 134.648806 140.284483 
L 135.562427 135.634698 
L 137.38967 129.426606 
L 138.303291 125.555975 
L 139.216912 122.288558 
L 141.957776 108.967552 
L 142.871397 104.820447 
L 144.698639 95.596278 
L 145.61226 91.398905 
L 146.525881 88.986043 
L 147.439503 88.433096 
L 148.353124 86.346976 
L 149.266745 87.352335 
L 151.093987 83.607373 
L 152.007608 84.361392 
L 152.921229 84.336258 
L 153.834851 84.512196 
L 154.748472 83.230364 
L 156.575714 79.208928 
L 157.489335 78.128167 
L 158.402956 74.885884 
L 159.316578 72.447889 
L 160.230199 70.713645 
L 161.14382 70.713645 
L 162.057441 68.778329 
L 163.884683 68.828597 
L 164.798305 68.099712 
L 165.711926 67.77297 
L 166.625547 67.144621 
L 167.539168 67.169755 
L 168.452789 69.85909 
L 169.36641 69.85909 
L 170.280032 69.73342 
L 171.193653 73.176774 
L 172.107274 73.52865 
L 173.020895 76.871468 
L 173.934516 77.424416 
L 174.848137 76.494459 
L 175.761759 76.645263 
L 176.67538 74.056463 
L 177.589001 69.85909 
L 178.502622 67.069219 
L 179.416243 65.334975 
L 180.329864 62.293764 
L 181.243485 58.649338 
L 182.157107 54.074954 
L 183.070728 51.360485 
L 183.984349 52.290442 
L 184.89797 50.179189 
L 185.811591 49.098428 
L 186.725212 47.640657 
L 187.638834 50.003251 
L 188.552455 49.023026 
L 189.466076 48.470078 
L 190.379697 48.470078 
L 191.293318 50.707002 
L 192.206939 50.656734 
L 193.120561 50.857806 
L 194.034182 50.933208 
L 194.947803 51.963701 
L 195.861424 51.385619 
L 196.775045 48.997892 
L 197.688666 48.997892 
L 198.602288 51.109146 
L 199.515909 47.188246 
L 200.42953 47.288782 
L 201.343151 43.945963 
L 202.256772 43.393016 
L 203.170393 42.990872 
L 204.084015 40.477475 
L 205.911257 47.690925 
L 206.824878 47.690925 
L 207.738499 47.565255 
L 208.65212 47.716059 
L 209.565741 46.936906 
L 211.392984 47.012308 
L 212.306605 43.66949 
L 213.220226 43.66949 
L 214.133847 45.881279 
L 215.047468 46.559896 
L 215.96109 42.136317 
L 216.874711 43.317614 
L 217.788332 42.261987 
L 218.701953 42.261987 
L 219.615574 40.753949 
L 220.529195 41.910111 
L 221.442817 41.859843 
L 222.356438 41.181226 
L 223.270059 40.075331 
L 224.18368 40.251269 
L 225.097301 39.949661 
L 226.010922 39.949661 
L 226.924544 37.838408 
L 227.838165 37.838408 
L 228.751786 40.603145 
L 230.579028 40.603145 
L 231.492649 39.999929 
L 232.406271 41.658772 
L 233.319892 38.114881 
L 234.233513 34.068312 
L 235.147134 34.068312 
L 236.974376 32.434603 
L 241.542482 32.359202 
L 242.456103 29.393393 
L 243.369724 28.840445 
L 244.283346 28.840445 
L 245.196967 30.524421 
L 247.024209 30.524421 
L 247.93783 29.795536 
L 248.851451 28.639373 
L 249.765073 28.036158 
L 250.678694 32.761345 
L 251.592315 32.761345 
L 252.505936 32.585407 
L 256.160421 32.585407 
L 257.074042 29.368259 
L 259.814905 29.368259 
L 260.728527 27.030799 
L 270.778359 27.030799 
L 271.69198 26.905129 
L 272.605602 26.905129 
L 273.519223 22.833426 
L 278.087329 22.833426 
L 279.00095 18.108239 
L 281.741813 18.108239 
L 282.655434 20.495966 
L 297.273373 20.495966 
L 298.186994 25.120617 
L 299.100615 25.120617 
L 300.014236 27.156469 
L 300.927858 28.614239 
L 301.841479 29.82067 
L 302.7551 32.585407 
L 307.323206 32.585407 
L 308.236827 33.590766 
L 309.150448 36.556575 
L 310.064069 41.231494 
L 310.97769 43.29248 
L 311.891312 43.29248 
L 312.804933 44.951322 
L 320.113902 44.951322 
L 321.027523 49.098428 
L 325.595629 49.17383 
L 326.50925 44.549179 
L 327.422871 47.741193 
L 328.336492 45.705341 
L 329.250114 44.247571 
L 329.250114 44.247571 
" style="fill:none;stroke:#fa8072;stroke-linecap:square;stroke-width:1.5;"/>
   </g>
   <g id="line2d_15">
    <path clip-path="url(#p46bbfdf7fc)" d="M 56.077386 163.809882 
L 56.991008 159.914116 
L 57.904629 162.251576 
L 59.731871 164.121543 
L 60.645492 164.589035 
L 61.559113 164.589035 
L 62.472734 162.835941 
L 63.386356 163.203874 
L 64.299977 162.329491 
L 65.213598 162.109911 
L 67.04084 162.731055 
L 67.954461 162.975075 
L 69.781704 162.884638 
L 71.608946 162.424721 
L 73.436188 162.641152 
L 74.34981 162.808114 
L 75.263431 162.074495 
L 77.090673 162.186646 
L 78.004294 162.407406 
L 80.745158 162.75246 
L 81.658779 162.896392 
L 82.5724 162.537265 
L 84.399642 162.653719 
L 85.313264 163.005595 
L 88.054127 162.678853 
L 88.967748 162.100772 
L 89.881369 162.15104 
L 90.79499 162.603451 
L 91.708612 162.452647 
L 92.622233 162.829657 
L 95.363096 162.678853 
L 97.190339 162.326978 
L 99.017581 162.452647 
L 99.931202 161.145681 
L 101.758444 160.844073 
L 103.585687 160.416796 
L 104.499308 158.707685 
L 106.32655 149.961063 
L 108.153793 144.230517 
L 109.067414 142.194665 
L 110.894656 137.444344 
L 111.808277 134.227195 
L 113.63552 125.028161 
L 115.462762 115.653189 
L 121.85811 92.932077 
L 123.685352 88.181756 
L 125.512595 82.199871 
L 126.426216 80.113751 
L 127.339837 77.726023 
L 128.253458 77.047406 
L 130.994322 77.273612 
L 131.907943 78.077899 
L 132.821564 76.745798 
L 133.735185 77.19821 
L 134.648806 77.44955 
L 135.562427 75.941511 
L 136.476049 73.981061 
L 137.38967 71.216324 
L 138.303291 68.828597 
L 139.216912 66.843013 
L 140.130533 65.385242 
L 141.044154 64.983099 
L 141.957776 64.983099 
L 142.871397 65.360108 
L 143.785018 65.360108 
L 144.698639 64.681491 
L 145.61226 65.81252 
L 146.525881 64.731759 
L 147.439503 63.826936 
L 148.353124 64.254214 
L 149.266745 64.505553 
L 150.180366 64.22908 
L 151.093987 63.273989 
L 152.007608 65.510912 
L 152.921229 65.711984 
L 153.834851 66.667075 
L 154.748472 68.803463 
L 155.662093 71.291726 
L 156.575714 73.428114 
L 158.402956 73.453248 
L 160.230199 73.377846 
L 161.14382 76.419057 
L 162.057441 76.921736 
L 162.971062 77.650621 
L 164.798305 86.925058 
L 170.280032 115.552653 
L 173.020895 128.697721 
L 173.934516 131.638396 
L 176.67538 142.67221 
L 178.502622 149.609187 
L 179.416243 152.952006 
L 180.329864 153.278747 
L 181.243485 156.169154 
L 182.157107 158.60715 
L 185.811591 158.984159 
L 187.638834 159.336035 
L 189.466076 159.461705 
L 191.293318 166.273011 
L 194.034182 166.197609 
L 194.947803 166.046806 
L 196.775045 160.969743 
L 199.515909 151.368565 
L 201.343151 143.476498 
L 204.997636 130.130358 
L 205.911257 125.555975 
L 207.738499 117.940381 
L 208.65212 114.446758 
L 209.565741 111.455816 
L 213.220226 94.716589 
L 214.133847 89.916 
L 215.96109 82.023933 
L 218.701953 68.200247 
L 219.615574 64.304482 
L 220.529195 59.529027 
L 221.442817 55.407055 
L 223.270059 46.057217 
L 224.18368 45.051858 
L 225.097301 44.348107 
L 226.010922 44.524045 
L 226.924544 45.12726 
L 227.838165 45.931547 
L 229.665407 48.470078 
L 230.579028 48.495212 
L 231.492649 48.67115 
L 232.406271 48.41981 
L 233.319892 47.414452 
L 234.233513 49.224098 
L 235.147134 50.38026 
L 236.974376 56.839692 
L 239.71524 61.665414 
L 240.628861 62.771309 
L 241.542482 63.525328 
L 242.456103 63.525328 
L 243.369724 62.570237 
L 244.283346 63.60073 
L 245.196967 68.325917 
L 246.110588 72.372487 
L 247.024209 76.94687 
L 247.93783 80.86777 
L 248.851451 85.618091 
L 249.765073 89.740063 
L 250.678694 94.515518 
L 251.592315 97.305389 
L 253.419557 104.066427 
L 254.333178 107.05737 
L 255.2468 109.495366 
L 256.160421 110.425323 
L 257.987663 115.778859 
L 260.728527 125.430305 
L 261.642148 130.20576 
L 263.46939 135.760368 
L 264.383011 136.087109 
L 265.296632 136.237913 
L 266.210253 137.444344 
L 268.037496 142.068995 
L 268.951117 142.823014 
L 269.864738 146.693646 
L 270.778359 149.18191 
L 271.69198 150.26267 
L 272.605602 148.453024 
L 273.519223 143.727837 
L 274.432844 140.83743 
L 275.346465 137.218138 
L 278.087329 128.11964 
L 279.00095 124.676286 
L 279.914571 122.916907 
L 281.741813 117.387433 
L 283.569056 110.777198 
L 284.482677 108.112997 
L 285.396298 104.166963 
L 287.22354 98.13481 
L 289.050783 93.309087 
L 289.964404 90.267876 
L 290.878025 85.844297 
L 293.618888 76.419057 
L 294.53251 72.271951 
L 296.359752 62.947247 
L 297.273373 61.715682 
L 298.186994 58.448266 
L 299.100615 57.870184 
L 300.014236 58.523668 
L 300.927858 60.18251 
L 301.841479 61.464343 
L 302.7551 62.042424 
L 304.582342 62.067558 
L 305.495963 62.519969 
L 306.409585 63.449927 
L 307.323206 63.449927 
L 309.150448 64.35475 
L 310.064069 63.148319 
L 310.97769 62.519969 
L 311.891312 62.746175 
L 312.804933 62.796443 
L 313.718554 62.318898 
L 314.632175 61.213003 
L 316.459417 57.694247 
L 318.28666 57.392639 
L 319.200281 58.775007 
L 320.113902 59.076615 
L 321.027523 59.252553 
L 321.941144 59.855768 
L 322.854766 61.037065 
L 324.682008 61.037065 
L 325.595629 59.529027 
L 326.50925 59.277687 
L 327.422871 58.448266 
L 329.250114 55.055179 
L 329.250114 55.055179 
" style="fill:none;stroke:#ffd700;stroke-dasharray:5.55,2.4;stroke-dashoffset:0;stroke-width:1.5;"/>
   </g>
   <g id="line2d_16">
    <path clip-path="url(#p46bbfdf7fc)" d="M 56.077386 156.797503 
L 56.991008 161.082846 
L 57.904629 162.771011 
L 58.81825 163.615094 
L 59.731871 164.121543 
L 60.645492 162.121717 
L 61.559113 162.696806 
L 62.472734 162.835941 
L 63.386356 161.818713 
L 64.299977 161.472422 
L 65.213598 161.826583 
L 66.127219 161.73214 
L 67.04084 160.753204 
L 67.954461 161.082846 
L 73.436188 161.51138 
L 75.263431 161.968247 
L 76.177052 162.014442 
L 77.090673 161.569817 
L 79.831537 161.876428 
L 80.745158 161.889826 
L 81.658779 161.418688 
L 82.5724 161.602281 
L 83.486021 161.497556 
L 84.399642 161.723762 
L 85.313264 161.623226 
L 87.140506 161.145681 
L 88.054127 160.994877 
L 88.967748 161.422155 
L 89.881369 160.919475 
L 90.79499 160.567599 
L 92.622233 161.070279 
L 93.535854 160.969743 
L 94.449475 161.020011 
L 95.363096 161.296485 
L 97.190339 160.818939 
L 98.10396 160.869207 
L 101.758444 160.014652 
L 102.672066 158.984159 
L 103.585687 158.883623 
L 104.499308 157.199647 
L 105.412929 156.571298 
L 106.32655 154.585714 
L 107.240171 154.083034 
L 108.153793 152.574996 
L 109.067414 152.172852 
L 109.981035 151.921513 
L 110.894656 151.469101 
L 111.808277 151.318297 
L 112.721898 150.89102 
L 113.63552 150.312938 
L 114.549141 150.38834 
L 115.462762 149.508651 
L 116.376383 149.533785 
L 117.290004 148.8049 
L 119.117247 148.578694 
L 121.85811 147.045522 
L 122.771731 146.643378 
L 123.685352 145.914493 
L 124.598973 145.587751 
L 125.512595 144.104847 
L 126.426216 141.968459 
L 128.253458 137.16787 
L 130.0807 133.950722 
L 130.994322 133.071033 
L 131.907943 130.808975 
L 132.821564 128.848525 
L 133.735185 127.692362 
L 134.648806 126.008386 
L 137.38967 118.94574 
L 138.303291 116.98529 
L 140.130533 111.003404 
L 141.044154 108.565409 
L 141.957776 106.956834 
L 142.871397 104.644509 
L 143.785018 103.51348 
L 144.698639 99.617714 
L 145.61226 98.159944 
L 147.439503 93.610694 
L 148.353124 91.801048 
L 149.266745 89.740063 
L 151.093987 84.562464 
L 152.007608 83.154962 
L 152.921229 81.11911 
L 153.834851 80.390225 
L 154.748472 79.962947 
L 155.662093 80.61643 
L 156.575714 80.641564 
L 157.489335 79.007856 
L 158.402956 77.952229 
L 159.316578 76.645263 
L 160.230199 76.092315 
L 161.14382 76.796066 
L 162.057441 74.282669 
L 162.971062 74.483741 
L 163.884683 73.503516 
L 164.798305 73.15164 
L 165.711926 73.578918 
L 166.625547 71.593334 
L 167.539168 70.210965 
L 169.36641 71.844674 
L 170.280032 72.020611 
L 171.193653 69.884224 
L 172.107274 69.783688 
L 173.020895 70.688511 
L 173.934516 70.738779 
L 175.761759 72.648961 
L 176.67538 73.629186 
L 177.589001 75.086956 
L 178.502622 77.700889 
L 179.416243 79.28433 
L 180.329864 80.465626 
L 181.243485 83.054426 
L 182.157107 84.160321 
L 183.070728 86.598316 
L 183.984349 86.950192 
L 184.89797 88.257158 
L 185.811591 90.267876 
L 186.725212 91.599977 
L 187.638834 94.666321 
L 188.552455 96.17436 
L 189.466076 98.989365 
L 190.379697 103.211872 
L 191.293318 106.529557 
L 193.120561 113.944079 
L 194.034182 115.175644 
L 195.861424 121.258065 
L 196.775045 122.137754 
L 198.602288 123.143113 
L 199.515909 126.184324 
L 200.42953 126.963477 
L 201.343151 128.019104 
L 203.170393 128.320712 
L 204.084015 125.279501 
L 205.911257 121.735611 
L 206.824878 119.322749 
L 207.738499 118.618998 
L 208.65212 118.292256 
L 209.565741 116.206137 
L 210.479363 116.005065 
L 211.392984 114.120017 
L 212.306605 114.245687 
L 213.220226 115.175644 
L 214.133847 116.708816 
L 215.047468 116.909888 
L 215.96109 115.200778 
L 216.874711 116.382074 
L 217.788332 116.48261 
L 218.701953 116.98529 
L 220.529195 117.035558 
L 221.442817 117.563371 
L 223.270059 120.202438 
L 224.18368 121.861281 
L 225.097301 121.886414 
L 226.924544 124.751687 
L 228.751786 127.61696 
L 230.579028 131.387056 
L 231.492649 133.297238 
L 232.406271 138.022425 
L 233.319892 141.164172 
L 234.233513 143.828373 
L 235.147134 145.110206 
L 236.060755 145.38668 
L 236.974376 145.085072 
L 237.887997 145.411814 
L 238.801619 144.808598 
L 240.628861 142.848148 
L 241.542482 140.083411 
L 242.456103 136.162511 
L 244.283346 134.00099 
L 245.196967 130.909511 
L 249.765073 117.337165 
L 252.505936 108.439739 
L 253.419557 106.80603 
L 255.2468 100.522537 
L 258.901284 87.478005 
L 259.814905 84.41166 
L 260.728527 80.465626 
L 262.555769 74.534009 
L 263.46939 72.623827 
L 265.296632 67.6473 
L 266.210253 65.93819 
L 267.123875 65.334975 
L 268.037496 68.124846 
L 268.951117 67.848372 
L 269.864738 70.964985 
L 270.778359 72.422755 
L 271.69198 72.724363 
L 272.605602 75.438832 
L 273.519223 76.142583 
L 274.432844 78.731382 
L 275.346465 79.460268 
L 277.173707 84.939474 
L 279.00095 90.720288 
L 280.828192 96.702173 
L 281.741813 98.310748 
L 282.655434 101.30169 
L 286.309919 108.339203 
L 289.050783 112.310371 
L 289.964404 111.682021 
L 290.878025 111.581485 
L 291.791646 110.500725 
L 293.618888 114.974572 
L 294.53251 116.281538 
L 295.446131 116.60828 
L 296.359752 112.56171 
L 297.273373 113.944079 
L 298.186994 111.757423 
L 299.100615 112.988988 
L 300.014236 113.240328 
L 300.927858 111.204476 
L 301.841479 111.254744 
L 302.7551 109.118356 
L 303.668721 109.01782 
L 304.582342 107.459514 
L 305.495963 105.398528 
L 306.409585 103.940758 
L 309.150448 96.325164 
L 310.064069 94.817125 
L 310.97769 91.097297 
L 311.891312 89.815465 
L 312.804933 88.784972 
L 313.718554 87.151263 
L 314.632175 85.869431 
L 315.545796 85.215947 
L 316.459417 84.91434 
L 317.373039 84.91434 
L 318.28666 86.37211 
L 319.200281 87.276933 
L 320.113902 90.117072 
L 321.027523 92.027254 
L 321.941144 93.158283 
L 322.854766 92.982345 
L 323.768387 93.032613 
L 324.682008 97.305389 
L 325.595629 95.872752 
L 326.50925 95.998422 
L 327.422871 97.028915 
L 328.336492 96.903245 
L 329.250114 97.682398 
L 329.250114 97.682398 
" style="fill:none;stroke:#a9a9a9;stroke-dasharray:5.55,2.4;stroke-dashoffset:0;stroke-width:1.5;"/>
   </g>
   <g id="patch_3">
    <path d="M 42.41875 173.68125 
L 42.41875 10.7 
" style="fill:none;stroke:#000000;stroke-linecap:square;stroke-linejoin:miter;stroke-width:0.8;"/>
   </g>
   <g id="patch_4">
    <path d="M 342.90875 173.68125 
L 342.90875 10.7 
" style="fill:none;stroke:#000000;stroke-linecap:square;stroke-linejoin:miter;stroke-width:0.8;"/>
   </g>
   <g id="patch_5">
    <path d="M 42.41875 173.68125 
L 342.90875 173.68125 
" style="fill:none;stroke:#000000;stroke-linecap:square;stroke-linejoin:miter;stroke-width:0.8;"/>
   </g>
   <g id="patch_6">
    <path d="M 42.41875 10.7 
L 342.90875 10.7 
" style="fill:none;stroke:#000000;stroke-linecap:square;stroke-linejoin:miter;stroke-width:0.8;"/>
   </g>
   <g id="legend_1">
    <g id="patch_7">
     <path d="M 49.41875 71.7 
L 146.41875 71.7 
Q 148.41875 71.7 148.41875 69.7 
L 148.41875 17.7 
Q 148.41875 15.7 146.41875 15.7 
L 49.41875 15.7 
Q 47.41875 15.7 47.41875 17.7 
L 47.41875 69.7 
Q 47.41875 71.7 49.41875 71.7 
z
" style="fill:none;opacity:0.8;"/>
    </g>
    <g id="line2d_17">
     <path d="M 51.41875 23.2 
L 71.41875 23.2 
" style="fill:none;stroke:#ff4500;stroke-linecap:square;stroke-width:1.5;"/>
    </g>
    <g id="line2d_18"/>
    <g id="text_15">
     <!-- Dueling-DN -->
     <defs>
      <path d="M 45.703125 35.15625 
Q 45.703125 17.1875 38.078125 9.5625 
Q 30.46875 1.953125 17.578125 1.953125 
L 4.296875 1.953125 
L 4.296875 68.75 
L 17.578125 68.75 
Q 32.03125 68.75 38.859375 60.9375 
Q 45.703125 53.125 45.703125 35.15625 
z
M 36.328125 35.15625 
Q 36.328125 49.609375 31.640625 55.46875 
Q 26.953125 61.328125 17.578125 61.328125 
L 13.28125 61.328125 
L 13.28125 9.375 
L 17.578125 9.375 
Q 26.953125 9.375 31.640625 15.03125 
Q 36.328125 20.703125 36.328125 35.15625 
z
" id="SimHei-44"/>
      <path d="M 43.75 1.953125 
L 35.9375 1.953125 
L 35.9375 10.15625 
Q 32.8125 5.859375 29.09375 3.515625 
Q 25.390625 1.171875 19.53125 1.171875 
Q 12.5 1.171875 8.984375 5.078125 
Q 5.46875 8.984375 5.46875 14.84375 
L 5.46875 45.703125 
L 13.28125 45.703125 
L 13.28125 17.578125 
Q 13.28125 12.890625 15.625 10.15625 
Q 17.96875 7.421875 21.875 7.421875 
Q 26.953125 7.421875 31.4375 12.6875 
Q 35.9375 17.96875 35.9375 25.78125 
L 35.9375 45.703125 
L 43.75 45.703125 
z
" id="SimHei-75"/>
      <path d="M 44.53125 16.796875 
Q 43.75 9.765625 38.28125 5.46875 
Q 32.8125 1.171875 25.390625 1.171875 
Q 16.015625 1.171875 9.953125 7.21875 
Q 3.90625 13.28125 3.90625 23.828125 
Q 3.90625 34.375 9.953125 40.421875 
Q 16.015625 46.484375 25.390625 46.484375 
Q 33.59375 46.484375 38.859375 41.203125 
Q 44.140625 35.9375 44.140625 23.828125 
L 12.5 23.828125 
Q 12.5 15.234375 16.203125 11.71875 
Q 19.921875 8.203125 25.390625 8.203125 
Q 29.6875 8.203125 32.421875 10.34375 
Q 35.15625 12.5 35.9375 16.796875 
z
M 35.15625 30.078125 
Q 34.375 35.546875 31.640625 37.6875 
Q 28.90625 39.84375 24.609375 39.84375 
Q 20.703125 39.84375 17.578125 37.6875 
Q 14.453125 35.546875 12.890625 30.078125 
z
" id="SimHei-65"/>
      <path d="M 28.515625 1.953125 
L 20.703125 1.953125 
L 20.703125 68.75 
L 28.515625 68.75 
z
" id="SimHei-6c"/>
      <path d="M 28.125 58.203125 
L 20.3125 58.203125 
L 20.3125 68.359375 
L 28.125 68.359375 
z
M 28.125 1.953125 
L 20.3125 1.953125 
L 20.3125 45.703125 
L 28.125 45.703125 
z
" id="SimHei-69"/>
      <path d="M 43.75 1.953125 
L 35.9375 1.953125 
L 35.9375 30.078125 
Q 35.9375 34.765625 33.59375 37.5 
Q 31.25 40.234375 27.34375 40.234375 
Q 22.265625 40.234375 17.765625 34.953125 
Q 13.28125 29.6875 13.28125 21.875 
L 13.28125 1.953125 
L 5.46875 1.953125 
L 5.46875 45.703125 
L 13.28125 45.703125 
L 13.28125 37.5 
Q 16.40625 41.796875 20.109375 44.140625 
Q 23.828125 46.484375 29.6875 46.484375 
Q 36.71875 46.484375 40.234375 42.578125 
Q 43.75 38.671875 43.75 32.8125 
z
" id="SimHei-6e"/>
      <path d="M 46.484375 39.0625 
Q 43.75 39.84375 41.203125 40.03125 
Q 38.671875 40.234375 35.9375 39.453125 
Q 37.109375 38.28125 37.890625 36.515625 
Q 38.671875 34.765625 38.671875 31.25 
Q 38.671875 24.609375 34.171875 20.3125 
Q 29.6875 16.015625 23.046875 16.015625 
Q 21.484375 16.015625 18.9375 16.59375 
Q 16.40625 17.1875 14.84375 17.96875 
Q 13.671875 17.1875 13.28125 16.40625 
Q 12.890625 15.625 12.890625 14.453125 
Q 12.890625 12.5 15.625 11.515625 
Q 18.359375 10.546875 25.390625 10.546875 
Q 36.71875 10.546875 40.8125 7.421875 
Q 44.921875 4.296875 44.921875 -0.390625 
Q 44.921875 -6.640625 38.859375 -9.5625 
Q 32.8125 -12.5 24.609375 -12.5 
Q 14.0625 -12.5 8.984375 -9.765625 
Q 3.90625 -7.03125 3.90625 -2.34375 
Q 3.90625 0 5.859375 2.34375 
Q 7.8125 4.6875 10.9375 6.25 
Q 8.59375 7.421875 7.21875 9.171875 
Q 5.859375 10.9375 5.859375 13.671875 
Q 5.859375 16.015625 7.609375 17.765625 
Q 9.375 19.53125 11.71875 20.703125 
Q 9.765625 22.65625 8.59375 25.390625 
Q 7.421875 28.125 7.421875 31.25 
Q 7.421875 37.890625 11.90625 42.1875 
Q 16.40625 46.484375 23.046875 46.484375 
Q 26.5625 46.484375 29.09375 45.5 
Q 31.640625 44.53125 33.59375 42.578125 
Q 36.71875 44.921875 39.84375 45.890625 
Q 42.96875 46.875 46.484375 46.484375 
z
M 30.859375 31.25 
Q 30.859375 35.15625 28.90625 37.5 
Q 26.953125 39.84375 23.046875 39.84375 
Q 19.140625 39.84375 17.1875 37.5 
Q 15.234375 35.15625 15.234375 31.25 
Q 15.234375 27.34375 17.1875 25 
Q 19.140625 22.65625 23.046875 22.65625 
Q 26.953125 22.65625 28.90625 25 
Q 30.859375 27.34375 30.859375 31.25 
z
M 37.5 -1.171875 
Q 37.5 0.390625 35.734375 1.953125 
Q 33.984375 3.515625 26.953125 3.515625 
Q 25.390625 3.515625 22.65625 3.703125 
Q 19.921875 3.90625 16.40625 4.296875 
Q 13.28125 3.125 12.109375 1.5625 
Q 10.9375 0 10.9375 -1.5625 
Q 10.9375 -3.90625 14.0625 -5.46875 
Q 17.1875 -7.03125 25 -7.03125 
Q 31.640625 -7.03125 34.5625 -5.265625 
Q 37.5 -3.515625 37.5 -1.171875 
z
" id="SimHei-67"/>
      <path d="M 46.484375 33.203125 
L 1.953125 33.203125 
L 1.953125 39.453125 
L 46.484375 39.453125 
z
" id="SimHei-2d"/>
      <path d="M 44.53125 1.953125 
L 34.765625 1.953125 
L 13.28125 50.390625 
L 12.890625 50.390625 
L 12.890625 1.953125 
L 3.90625 1.953125 
L 3.90625 68.75 
L 13.671875 68.75 
L 35.15625 20.3125 
L 35.546875 20.3125 
L 35.546875 68.75 
L 44.53125 68.75 
z
" id="SimHei-4e"/>
     </defs>
     <g transform="translate(79.41875 26.7)scale(0.1 -0.1)">
      <use xlink:href="#SimHei-44"/>
      <use x="50" xlink:href="#SimHei-75"/>
      <use x="100" xlink:href="#SimHei-65"/>
      <use x="150" xlink:href="#SimHei-6c"/>
      <use x="200" xlink:href="#SimHei-69"/>
      <use x="250" xlink:href="#SimHei-6e"/>
      <use x="300" xlink:href="#SimHei-67"/>
      <use x="350" xlink:href="#SimHei-2d"/>
      <use x="400" xlink:href="#SimHei-44"/>
      <use x="450" xlink:href="#SimHei-4e"/>
     </g>
    </g>
    <g id="line2d_19">
     <path d="M 51.41875 36.45 
L 71.41875 36.45 
" style="fill:none;stroke:#fa8072;stroke-linecap:square;stroke-width:1.5;"/>
    </g>
    <g id="line2d_20"/>
    <g id="text_16">
     <!-- DQN-DN -->
     <defs>
      <path d="M 46.09375 35.546875 
Q 46.09375 26.171875 44.71875 19.71875 
Q 43.359375 13.28125 40.234375 9.375 
L 43.359375 3.515625 
L 37.109375 -3.125 
L 33.59375 3.515625 
Q 32.03125 2.34375 29.6875 1.75 
Q 27.34375 1.171875 24.609375 1.171875 
Q 14.453125 1.171875 8.59375 9.171875 
Q 2.734375 17.1875 2.734375 35.546875 
Q 2.734375 53.90625 8.59375 61.71875 
Q 14.453125 69.53125 24.609375 69.53125 
Q 34.765625 69.53125 40.421875 61.71875 
Q 46.09375 53.90625 46.09375 35.546875 
z
M 36.71875 35.546875 
Q 36.71875 51.953125 33.203125 57.03125 
Q 29.6875 62.109375 24.609375 62.109375 
Q 19.53125 62.109375 15.8125 57.03125 
Q 12.109375 51.953125 12.109375 35.546875 
Q 12.109375 19.140625 15.8125 13.859375 
Q 19.53125 8.59375 24.609375 8.59375 
Q 26.5625 8.59375 28.125 9.171875 
Q 29.6875 9.765625 30.46875 10.546875 
L 24.21875 22.65625 
L 29.6875 29.296875 
L 35.15625 18.75 
Q 35.9375 22.65625 36.328125 25.78125 
Q 36.71875 28.90625 36.71875 35.546875 
z
" id="SimHei-51"/>
     </defs>
     <g transform="translate(79.41875 39.95)scale(0.1 -0.1)">
      <use xlink:href="#SimHei-44"/>
      <use x="50" xlink:href="#SimHei-51"/>
      <use x="100" xlink:href="#SimHei-4e"/>
      <use x="150" xlink:href="#SimHei-2d"/>
      <use x="200" xlink:href="#SimHei-44"/>
      <use x="250" xlink:href="#SimHei-4e"/>
     </g>
    </g>
    <g id="line2d_21">
     <path d="M 51.41875 49.7 
L 71.41875 49.7 
" style="fill:none;stroke:#ffd700;stroke-dasharray:5.55,2.4;stroke-dashoffset:0;stroke-width:1.5;"/>
    </g>
    <g id="line2d_22"/>
    <g id="text_17">
     <!-- Dueling Noisy -->
     <defs>
      <path id="SimHei-20"/>
      <path d="M 45.703125 23.828125 
Q 45.703125 13.671875 39.453125 7.421875 
Q 33.203125 1.171875 24.609375 1.171875 
Q 16.015625 1.171875 9.765625 7.421875 
Q 3.515625 13.671875 3.515625 23.828125 
Q 3.515625 33.984375 9.765625 40.234375 
Q 16.015625 46.484375 24.609375 46.484375 
Q 33.203125 46.484375 39.453125 40.234375 
Q 45.703125 33.984375 45.703125 23.828125 
z
M 37.109375 23.828125 
Q 37.109375 31.640625 33.203125 35.546875 
Q 29.296875 39.453125 24.609375 39.453125 
Q 19.921875 39.453125 16.015625 35.546875 
Q 12.109375 31.640625 12.109375 23.828125 
Q 12.109375 16.015625 16.015625 12.109375 
Q 19.921875 8.203125 24.609375 8.203125 
Q 29.296875 8.203125 33.203125 12.109375 
Q 37.109375 16.015625 37.109375 23.828125 
z
" id="SimHei-6f"/>
      <path d="M 42.96875 14.0625 
Q 42.96875 7.8125 38.078125 4.484375 
Q 33.203125 1.171875 25.78125 1.171875 
Q 16.40625 1.171875 11.328125 4.875 
Q 6.25 8.59375 6.25 15.625 
L 14.0625 15.625 
Q 14.0625 10.9375 17.375 9.375 
Q 20.703125 7.8125 25.390625 7.8125 
Q 30.078125 7.8125 32.421875 9.5625 
Q 34.765625 11.328125 34.765625 14.0625 
Q 34.765625 16.015625 32.8125 17.96875 
Q 30.859375 19.921875 23.046875 21.09375 
Q 14.0625 22.265625 10.734375 25.578125 
Q 7.421875 28.90625 7.421875 34.375 
Q 7.421875 39.0625 11.90625 42.765625 
Q 16.40625 46.484375 25 46.484375 
Q 32.8125 46.484375 37.296875 42.96875 
Q 41.796875 39.453125 41.796875 33.59375 
L 33.984375 33.59375 
Q 33.984375 37.109375 31.4375 38.46875 
Q 28.90625 39.84375 25 39.84375 
Q 19.921875 39.84375 17.765625 38.078125 
Q 15.625 36.328125 15.625 33.984375 
Q 15.625 31.25 17.578125 29.6875 
Q 19.53125 28.125 25.78125 27.34375 
Q 35.9375 25.78125 39.453125 22.453125 
Q 42.96875 19.140625 42.96875 14.0625 
z
" id="SimHei-73"/>
      <path d="M 45.3125 45.703125 
L 27.34375 -1.5625 
Q 25.78125 -7.03125 22.65625 -9.765625 
Q 19.53125 -12.5 14.84375 -12.5 
Q 12.890625 -12.5 11.125 -12.296875 
Q 9.375 -12.109375 7.8125 -11.328125 
L 7.8125 -3.515625 
Q 9.375 -4.296875 10.9375 -4.6875 
Q 12.5 -5.078125 13.671875 -5.078125 
Q 16.796875 -5.078125 17.96875 -4.09375 
Q 19.140625 -3.125 20.3125 0.390625 
L 3.125 45.703125 
L 11.71875 45.703125 
L 24.21875 11.328125 
L 24.609375 11.328125 
L 36.71875 45.703125 
z
" id="SimHei-79"/>
     </defs>
     <g transform="translate(79.41875 53.2)scale(0.1 -0.1)">
      <use xlink:href="#SimHei-44"/>
      <use x="50" xlink:href="#SimHei-75"/>
      <use x="100" xlink:href="#SimHei-65"/>
      <use x="150" xlink:href="#SimHei-6c"/>
      <use x="200" xlink:href="#SimHei-69"/>
      <use x="250" xlink:href="#SimHei-6e"/>
      <use x="300" xlink:href="#SimHei-67"/>
      <use x="350" xlink:href="#SimHei-20"/>
      <use x="400" xlink:href="#SimHei-4e"/>
      <use x="450" xlink:href="#SimHei-6f"/>
      <use x="500" xlink:href="#SimHei-69"/>
      <use x="550" xlink:href="#SimHei-73"/>
      <use x="600" xlink:href="#SimHei-79"/>
     </g>
    </g>
    <g id="line2d_23">
     <path d="M 51.41875 62.95 
L 71.41875 62.95 
" style="fill:none;stroke:#a9a9a9;stroke-dasharray:5.55,2.4;stroke-dashoffset:0;stroke-width:1.5;"/>
    </g>
    <g id="line2d_24"/>
    <g id="text_18">
     <!-- Noisy DQN -->
     <g transform="translate(79.41875 66.45)scale(0.1 -0.1)">
      <use xlink:href="#SimHei-4e"/>
      <use x="50" xlink:href="#SimHei-6f"/>
      <use x="100" xlink:href="#SimHei-69"/>
      <use x="150" xlink:href="#SimHei-73"/>
      <use x="200" xlink:href="#SimHei-79"/>
      <use x="250" xlink:href="#SimHei-20"/>
      <use x="300" xlink:href="#SimHei-44"/>
      <use x="350" xlink:href="#SimHei-51"/>
      <use x="400" xlink:href="#SimHei-4e"/>
     </g>
    </g>
   </g>
  </g>
 </g>
 <defs>
  <clipPath id="p46bbfdf7fc">
   <rect height="162.98125" width="300.49" x="42.41875" y="10.7"/>
  </clipPath>
 </defs>
</svg>
