<?xml version="1.0" encoding="utf-8" standalone="no"?>
<!DOCTYPE svg PUBLIC "-//W3C//DTD SVG 1.1//EN"
  "http://www.w3.org/Graphics/SVG/1.1/DTD/svg11.dtd">
<!-- Created with matplotlib (http://matplotlib.org/) -->
<svg height="209.185937pt" version="1.1" viewBox="0 0 353.65875 209.185937" width="353.65875pt" xmlns="http://www.w3.org/2000/svg" xmlns:xlink="http://www.w3.org/1999/xlink">
 <defs>
  <style type="text/css">
*{stroke-linecap:butt;stroke-linejoin:round;}
  </style>
 </defs>
 <g id="figure_1">
  <g id="patch_1">
   <path d="M 0 209.185937 
L 353.65875 209.185937 
L 353.65875 0 
L 0 0 
z
" style="fill:none;"/>
  </g>
  <g id="axes_1">
   <g id="patch_2">
    <path d="M 47.41875 173.68125 
L 342.95875 173.68125 
L 342.95875 10.7 
L 47.41875 10.7 
z
" style="fill:#ffffff;"/>
   </g>
   <g id="matplotlib.axis_1">
    <g id="xtick_1">
     <g id="line2d_1">
      <defs>
       <path d="M 0 0 
L 0 3.5 
" id="m093cdb0001" style="stroke:#000000;stroke-width:0.8;"/>
      </defs>
      <g>
       <use style="stroke:#000000;stroke-width:0.8;" x="60.852386" xlink:href="#m093cdb0001" y="173.68125"/>
      </g>
     </g>
     <g id="text_1">
      <!-- 0 -->
      <defs>
       <path d="M 3.125 29.296875 
Q 3.90625 50 6.4375 56.046875 
Q 8.984375 62.109375 13.671875 66.015625 
Q 18.359375 69.921875 25.1875 69.921875 
Q 32.03125 69.921875 37.109375 64.25 
Q 42.1875 58.59375 43.75 50 
Q 45.3125 41.40625 44.71875 30.265625 
Q 44.140625 19.140625 40.8125 12.109375 
Q 37.5 5.078125 30.859375 2.34375 
Q 24.21875 -0.390625 17.578125 2.921875 
Q 10.9375 6.25 8.203125 11.71875 
Q 5.46875 17.1875 4.296875 23.234375 
Q 3.125 29.296875 3.90625 50 
z
M 12.890625 52.734375 
Q 10.546875 31.25 12.5 22.84375 
Q 14.453125 14.453125 18.9375 10.9375 
Q 23.4375 7.421875 28.125 9.5625 
Q 32.8125 11.71875 34.953125 18.15625 
Q 37.109375 24.609375 37.109375 32.21875 
Q 37.109375 39.84375 36.515625 46.09375 
Q 35.9375 52.34375 33 57.421875 
Q 30.078125 62.5 25.1875 62.6875 
Q 20.3125 62.890625 16.59375 57.8125 
Q 12.890625 52.734375 10.546875 31.25 
z
" id="SimHei-30"/>
      </defs>
      <g transform="translate(58.352386 187.55625)scale(0.1 -0.1)">
       <use xlink:href="#SimHei-30"/>
      </g>
     </g>
    </g>
    <g id="xtick_2">
     <g id="line2d_2">
      <g>
       <use style="stroke:#000000;stroke-width:0.8;" x="105.780936" xlink:href="#m093cdb0001" y="173.68125"/>
      </g>
     </g>
     <g id="text_2">
      <!-- 50 -->
      <defs>
       <path d="M 8.59375 20.703125 
Q 11.328125 10.15625 17.96875 8.984375 
Q 24.609375 7.8125 28.703125 10.34375 
Q 32.8125 12.890625 34.5625 16.984375 
Q 36.328125 21.09375 36.125 26.171875 
Q 35.9375 31.25 33.390625 34.765625 
Q 30.859375 38.28125 26.953125 39.453125 
Q 23.046875 40.625 18.15625 39.453125 
Q 13.28125 38.28125 10.15625 33.984375 
L 3.515625 34.765625 
Q 4.296875 37.109375 10.9375 68.359375 
L 41.796875 68.359375 
L 41.796875 61.328125 
L 16.796875 61.328125 
Q 14.84375 50.78125 12.890625 44.53125 
Q 18.75 47.265625 23.828125 47.0625 
Q 28.90625 46.875 33.59375 44.71875 
Q 38.28125 42.578125 40.421875 38.859375 
Q 42.578125 35.15625 43.546875 31.4375 
Q 44.53125 27.734375 44.328125 23.4375 
Q 44.140625 19.140625 42.578125 14.640625 
Q 41.015625 10.15625 37.890625 7.21875 
Q 34.765625 4.296875 30.265625 2.53125 
Q 25.78125 0.78125 19.921875 1.171875 
Q 14.0625 1.5625 8.78125 5.46875 
Q 3.515625 9.375 1.5625 18.75 
z
" id="SimHei-35"/>
      </defs>
      <g transform="translate(100.780936 187.55625)scale(0.1 -0.1)">
       <use xlink:href="#SimHei-35"/>
       <use x="50" xlink:href="#SimHei-30"/>
      </g>
     </g>
    </g>
    <g id="xtick_3">
     <g id="line2d_3">
      <g>
       <use style="stroke:#000000;stroke-width:0.8;" x="150.709486" xlink:href="#m093cdb0001" y="173.68125"/>
      </g>
     </g>
     <g id="text_3">
      <!-- 100 -->
      <defs>
       <path d="M 21.875 56.25 
Q 16.796875 51.171875 8.984375 46.484375 
L 8.984375 53.90625 
Q 18.75 60.546875 25 69.53125 
L 29.6875 69.53125 
L 29.6875 2.34375 
L 21.875 2.34375 
z
" id="SimHei-31"/>
      </defs>
      <g transform="translate(143.209486 187.55625)scale(0.1 -0.1)">
       <use xlink:href="#SimHei-31"/>
       <use x="50" xlink:href="#SimHei-30"/>
       <use x="100" xlink:href="#SimHei-30"/>
      </g>
     </g>
    </g>
    <g id="xtick_4">
     <g id="line2d_4">
      <g>
       <use style="stroke:#000000;stroke-width:0.8;" x="195.638035" xlink:href="#m093cdb0001" y="173.68125"/>
      </g>
     </g>
     <g id="text_4">
      <!-- 150 -->
      <g transform="translate(188.138035 187.55625)scale(0.1 -0.1)">
       <use xlink:href="#SimHei-31"/>
       <use x="50" xlink:href="#SimHei-35"/>
       <use x="100" xlink:href="#SimHei-30"/>
      </g>
     </g>
    </g>
    <g id="xtick_5">
     <g id="line2d_5">
      <g>
       <use style="stroke:#000000;stroke-width:0.8;" x="240.566585" xlink:href="#m093cdb0001" y="173.68125"/>
      </g>
     </g>
     <g id="text_5">
      <!-- 200 -->
      <defs>
       <path d="M 4.6875 3.90625 
Q 5.078125 9.765625 10.15625 14.453125 
Q 15.234375 19.140625 23.046875 29.09375 
Q 30.859375 39.0625 33.203125 44.53125 
Q 35.546875 50 34.953125 53.90625 
Q 34.375 57.8125 31.25 60.34375 
Q 28.125 62.890625 24.015625 62.5 
Q 19.921875 62.109375 16.203125 59.375 
Q 12.5 56.640625 10.546875 51.171875 
L 3.125 52.34375 
Q 6.25 61.328125 11.125 65.421875 
Q 16.015625 69.53125 22.65625 69.921875 
Q 26.5625 70.3125 29.6875 69.71875 
Q 32.8125 69.140625 36.125 66.984375 
Q 39.453125 64.84375 41.59375 60.546875 
Q 43.75 56.25 43.15625 50.1875 
Q 42.578125 44.140625 37.109375 35.734375 
Q 31.640625 27.34375 16.015625 9.375 
L 44.140625 9.375 
L 44.140625 2.34375 
L 4.6875 2.34375 
z
" id="SimHei-32"/>
      </defs>
      <g transform="translate(233.066585 187.55625)scale(0.1 -0.1)">
       <use xlink:href="#SimHei-32"/>
       <use x="50" xlink:href="#SimHei-30"/>
       <use x="100" xlink:href="#SimHei-30"/>
      </g>
     </g>
    </g>
    <g id="xtick_6">
     <g id="line2d_6">
      <g>
       <use style="stroke:#000000;stroke-width:0.8;" x="285.495135" xlink:href="#m093cdb0001" y="173.68125"/>
      </g>
     </g>
     <g id="text_6">
      <!-- 250 -->
      <g transform="translate(277.995135 187.55625)scale(0.1 -0.1)">
       <use xlink:href="#SimHei-32"/>
       <use x="50" xlink:href="#SimHei-35"/>
       <use x="100" xlink:href="#SimHei-30"/>
      </g>
     </g>
    </g>
    <g id="xtick_7">
     <g id="line2d_7">
      <g>
       <use style="stroke:#000000;stroke-width:0.8;" x="330.423685" xlink:href="#m093cdb0001" y="173.68125"/>
      </g>
     </g>
     <g id="text_7">
      <!-- 300 -->
      <defs>
       <path d="M 3.90625 19.140625 
L 10.9375 20.3125 
Q 12.5 15.234375 16.015625 11.90625 
Q 19.53125 8.59375 24.796875 8.78125 
Q 30.078125 8.984375 33.203125 13.078125 
Q 36.328125 17.1875 35.9375 22.453125 
Q 35.546875 27.734375 31.828125 30.65625 
Q 28.125 33.59375 19.921875 34.765625 
L 19.921875 39.84375 
Q 28.125 40.625 31.828125 44.140625 
Q 35.546875 47.65625 35.15625 53.3125 
Q 34.765625 58.984375 30.078125 61.515625 
Q 25.390625 64.0625 20.109375 62.109375 
Q 14.84375 60.15625 11.71875 51.171875 
L 4.6875 52.34375 
Q 7.03125 59.375 11.125 64.0625 
Q 15.234375 68.75 22.265625 69.53125 
Q 29.296875 70.3125 34.5625 67.765625 
Q 39.84375 65.234375 41.984375 59.953125 
Q 44.140625 54.6875 42.578125 48.4375 
Q 41.015625 42.1875 33.59375 37.5 
Q 39.0625 35.15625 41.984375 30.46875 
Q 44.921875 25.78125 43.9375 18.15625 
Q 42.96875 10.546875 37.109375 5.859375 
Q 31.25 1.171875 23.828125 1.359375 
Q 16.40625 1.5625 10.9375 6.046875 
Q 5.46875 10.546875 3.90625 19.140625 
z
" id="SimHei-33"/>
      </defs>
      <g transform="translate(322.923685 187.55625)scale(0.1 -0.1)">
       <use xlink:href="#SimHei-33"/>
       <use x="50" xlink:href="#SimHei-30"/>
       <use x="100" xlink:href="#SimHei-30"/>
      </g>
     </g>
    </g>
    <g id="text_8">
     <!-- 训练回合数 -->
     <defs>
      <path d="M 25.78125 51.5625 
Q 25.390625 42.578125 25.390625 34.765625 
L 25.390625 10.546875 
Q 30.46875 17.578125 32.03125 19.921875 
Q 33.984375 17.578125 36.71875 14.0625 
Q 31.640625 7.8125 28.125 3.3125 
Q 24.609375 -1.171875 20.703125 -6.640625 
Q 17.96875 -3.125 14.84375 -0.78125 
Q 17.96875 3.515625 17.96875 9.765625 
L 17.96875 44.921875 
L 15.234375 44.921875 
Q 9.375 44.921875 4.6875 44.53125 
L 4.6875 51.953125 
Q 9.375 51.5625 15.234375 51.5625 
z
M 53.515625 71.875 
Q 52.734375 67.96875 52.921875 52.53125 
Q 53.125 37.109375 52.140625 29.484375 
Q 51.171875 21.875 48.234375 13.078125 
Q 45.3125 4.296875 38.28125 -5.859375 
Q 34.765625 -3.125 30.859375 -1.953125 
Q 39.84375 7.8125 43.15625 21.28125 
Q 46.484375 34.765625 46.09375 52.140625 
Q 45.703125 69.53125 45.3125 73.046875 
Q 49.21875 72.265625 53.515625 71.875 
z
M 91.796875 73.4375 
Q 91.40625 70.3125 91.40625 62.109375 
L 91.40625 9.765625 
Q 91.40625 1.953125 91.796875 -6.25 
L 84.375 -6.25 
Q 84.765625 1.953125 84.765625 9.375 
L 84.765625 62.109375 
Q 84.765625 70.3125 84.375 73.4375 
L 91.796875 73.4375 
z
M 71.875 2.734375 
L 64.453125 2.734375 
Q 64.84375 11.328125 64.84375 17.96875 
L 64.84375 56.25 
Q 64.84375 63.28125 64.453125 67.96875 
L 71.875 67.96875 
z
M 15.625 80.46875 
Q 25.78125 71.875 32.8125 64.0625 
Q 29.296875 61.328125 27.34375 58.59375 
Q 16.40625 71.09375 10.9375 75 
Q 13.28125 77.34375 15.625 80.46875 
z
" id="SimHei-8bad"/>
      <path d="M 51.5625 59.765625 
Q 46.09375 59.765625 37.5 59.375 
L 37.5 66.40625 
Q 46.09375 66.015625 51.953125 66.015625 
L 56.640625 66.015625 
Q 60.546875 77.34375 60.9375 80.859375 
Q 65.625 78.515625 69.53125 76.953125 
Q 67.96875 75.390625 66.59375 72.0625 
Q 65.234375 68.75 64.0625 66.015625 
L 78.515625 66.015625 
Q 84.765625 66.015625 92.1875 66.40625 
L 92.1875 59.375 
Q 86.71875 59.765625 78.515625 59.765625 
L 62.109375 59.765625 
Q 60.15625 55.078125 57.8125 49.21875 
L 73.046875 49.21875 
Q 72.65625 44.921875 72.65625 38.671875 
L 72.65625 30.859375 
L 77.734375 30.859375 
Q 83.59375 30.859375 90.625 31.25 
L 90.625 24.21875 
Q 83.59375 24.609375 77.734375 24.609375 
L 72.65625 24.609375 
L 72.65625 1.953125 
Q 72.65625 -4.6875 69.71875 -6.640625 
Q 66.796875 -8.59375 57.03125 -9.765625 
Q 56.640625 -5.859375 53.90625 -1.5625 
Q 63.671875 -1.953125 64.640625 -0.390625 
Q 65.625 1.171875 65.625 5.078125 
L 65.625 24.609375 
L 53.515625 24.609375 
Q 50.78125 24.609375 48.4375 24.40625 
Q 46.09375 24.21875 42.96875 23.046875 
Q 41.40625 26.953125 39.84375 30.46875 
Q 43.75 31.640625 48.828125 43.359375 
Q 46.09375 43.359375 38.28125 42.96875 
L 38.28125 49.609375 
Q 47.265625 49.21875 50.78125 49.21875 
Q 53.125 55.078125 54.6875 59.765625 
z
M 25.78125 46.09375 
Q 29.296875 51.5625 32.8125 60.9375 
Q 36.328125 58.203125 40.234375 56.25 
Q 36.328125 51.171875 31.640625 42.96875 
Q 26.953125 34.765625 16.796875 21.09375 
Q 20.3125 21.875 37.5 24.609375 
Q 36.71875 20.3125 37.109375 17.96875 
Q 28.515625 17.1875 10.15625 12.890625 
Q 8.203125 16.796875 6.25 19.921875 
Q 9.765625 21.875 13.859375 27.140625 
Q 17.96875 32.421875 22.65625 40.234375 
Q 20.3125 40.625 15.8125 40.03125 
Q 11.328125 39.453125 7.03125 38.28125 
Q 5.46875 41.796875 3.90625 45.703125 
Q 7.8125 48.046875 12.6875 58.203125 
Q 17.578125 68.359375 20.703125 78.125 
Q 25 75.390625 28.90625 74.21875 
Q 25 68.359375 21.671875 61.90625 
Q 18.359375 55.46875 12.5 45.703125 
Q 21.484375 45.703125 25.78125 46.09375 
z
M 37.890625 10.9375 
Q 37.5 6.640625 37.890625 3.90625 
Q 31.25 2.34375 22.84375 -0.390625 
Q 14.453125 -3.125 7.421875 -6.640625 
Q 6.25 -2.34375 4.6875 1.953125 
Q 14.84375 4.296875 18.546875 5.265625 
Q 22.265625 6.25 37.890625 10.9375 
z
M 58.203125 13.671875 
Q 57.03125 12.5 51.359375 6.25 
Q 45.703125 0 38.671875 -7.421875 
Q 35.9375 -3.90625 33.59375 -1.953125 
Q 37.890625 1.5625 42.96875 7.21875 
Q 48.046875 12.890625 51.953125 19.140625 
Q 54.296875 16.40625 58.203125 13.671875 
z
M 82.421875 19.140625 
Q 92.578125 5.859375 96.875 -1.5625 
Q 92.96875 -3.125 89.84375 -5.859375 
Q 85.546875 2.734375 76.5625 14.84375 
Q 79.296875 16.40625 82.421875 19.140625 
z
M 65.625 30.859375 
L 65.625 43.359375 
L 55.859375 43.359375 
Q 51.953125 35.15625 49.609375 30.859375 
z
" id="SimHei-7ec3"/>
      <path d="M 88.28125 75.78125 
Q 87.890625 64.453125 87.890625 53.90625 
L 87.890625 14.84375 
Q 87.890625 4.6875 88.28125 -5.859375 
L 80.46875 -5.859375 
L 80.46875 1.5625 
L 18.359375 1.5625 
L 18.359375 -5.859375 
L 10.9375 -5.859375 
Q 11.328125 3.90625 11.328125 14.84375 
L 11.328125 53.90625 
Q 11.328125 64.0625 10.9375 75.78125 
L 88.28125 75.78125 
z
M 80.46875 7.8125 
L 80.46875 69.140625 
L 18.75 69.140625 
L 18.75 7.8125 
z
M 67.578125 54.6875 
Q 67.1875 48.828125 67.1875 42.96875 
L 67.1875 33.984375 
Q 67.1875 28.90625 67.578125 21.875 
L 31.640625 21.875 
Q 32.03125 28.90625 32.03125 33.984375 
L 32.03125 43.75 
Q 32.03125 49.21875 31.640625 54.6875 
L 67.578125 54.6875 
z
M 59.765625 28.515625 
L 59.765625 48.4375 
L 39.0625 48.4375 
L 39.0625 28.515625 
z
" id="SimHei-56de"/>
      <path d="M 78.90625 28.125 
Q 78.515625 24.21875 78.515625 10.15625 
Q 78.515625 -3.90625 78.90625 -8.203125 
L 70.703125 -8.203125 
L 70.703125 -0.78125 
L 27.34375 -0.78125 
L 27.34375 -9.375 
L 19.53125 -9.375 
Q 19.921875 -4.6875 19.921875 8.59375 
Q 19.921875 22.265625 19.53125 28.125 
L 78.90625 28.125 
z
M 52.734375 75 
Q 64.0625 61.328125 71.09375 56.25 
Q 78.125 51.171875 83.984375 48.4375 
Q 89.84375 45.703125 95.3125 44.140625 
Q 91.40625 39.84375 90.234375 35.9375 
Q 82.421875 39.453125 76.171875 43.359375 
Q 69.921875 47.265625 63.46875 53.3125 
Q 57.03125 59.375 48.828125 69.921875 
Q 41.40625 59.375 34.171875 52.53125 
Q 26.953125 45.703125 21.875 41.796875 
Q 16.796875 37.890625 10.546875 33.984375 
Q 9.765625 35.546875 4.296875 40.234375 
Q 12.5 44.140625 19.921875 49.609375 
Q 27.34375 55.078125 34.765625 63.46875 
Q 42.1875 71.875 46.875 81.640625 
Q 51.171875 78.90625 54.6875 77.34375 
z
M 70.703125 5.46875 
L 70.703125 21.875 
L 27.34375 21.875 
L 27.34375 5.46875 
z
M 61.328125 44.140625 
Q 67.578125 44.140625 72.265625 44.53125 
L 72.265625 37.109375 
Q 67.1875 37.5 61.71875 37.5 
L 39.84375 37.5 
Q 31.640625 37.5 26.5625 37.109375 
L 26.5625 44.53125 
Q 33.984375 44.140625 39.84375 44.140625 
z
" id="SimHei-5408"/>
      <path d="M 70.703125 76.953125 
Q 69.921875 75 68.75 71.671875 
Q 67.578125 68.359375 65.234375 59.765625 
L 83.203125 59.765625 
Q 87.109375 59.765625 92.578125 60.15625 
L 92.578125 53.125 
Q 88.28125 53.515625 85.9375 53.515625 
Q 85.9375 47.265625 83.78125 33.78125 
Q 81.640625 20.3125 76.171875 10.546875 
Q 80.078125 5.859375 84.953125 2.140625 
Q 89.84375 -1.5625 94.140625 -3.125 
Q 89.453125 -6.640625 87.890625 -9.765625 
Q 83.203125 -7.03125 79.296875 -3.515625 
Q 75.390625 0 71.484375 5.078125 
Q 67.1875 0.390625 62.296875 -2.921875 
Q 57.421875 -6.25 50 -10.15625 
Q 48.046875 -6.640625 44.53125 -4.6875 
Q 50.390625 -2.34375 57.03125 1.953125 
Q 63.671875 6.25 67.1875 10.546875 
Q 64.453125 16.015625 61.90625 22.265625 
Q 59.375 28.515625 57.421875 38.671875 
Q 56.25 35.546875 53.515625 30.46875 
Q 50.78125 32.03125 46.875 33.59375 
Q 53.125 44.53125 57.03125 57.421875 
Q 60.9375 70.3125 62.109375 79.6875 
Q 66.796875 77.734375 70.703125 76.953125 
z
M 32.8125 35.15625 
Q 31.25 33.59375 29.296875 30.078125 
L 50.78125 30.078125 
Q 48.4375 20.3125 42.578125 10.546875 
Q 48.828125 8.203125 52.34375 6.25 
Q 50.390625 3.515625 48.828125 0.390625 
Q 45.3125 2.734375 38.28125 5.078125 
Q 30.46875 -3.515625 11.328125 -10.15625 
Q 9.375 -5.859375 6.25 -4.296875 
Q 24.609375 0 31.25 7.421875 
Q 20.3125 10.15625 13.28125 12.109375 
Q 15.625 15.625 19.53125 23.828125 
Q 15.625 23.828125 6.640625 23.4375 
L 6.640625 30.46875 
Q 14.0625 30.078125 21.875 30.078125 
Q 23.4375 33.59375 24.21875 37.890625 
Q 28.515625 36.328125 32.8125 35.15625 
z
M 27.734375 61.71875 
Q 27.734375 71.09375 27.34375 79.6875 
L 35.15625 79.6875 
Q 34.765625 71.484375 34.765625 61.71875 
Q 48.046875 61.71875 53.515625 62.109375 
L 53.515625 55.078125 
Q 48.046875 55.46875 34.765625 55.46875 
Q 34.765625 44.140625 35.15625 37.890625 
L 27.34375 37.890625 
Q 27.734375 43.359375 27.734375 51.5625 
Q 25.78125 48.4375 20.3125 43.546875 
Q 14.84375 38.671875 10.15625 35.9375 
Q 8.203125 39.453125 4.296875 41.015625 
Q 7.8125 42.1875 13.671875 46.484375 
Q 19.53125 50.78125 22.65625 55.46875 
Q 14.84375 55.46875 7.8125 55.078125 
L 7.8125 62.109375 
Q 14.453125 61.71875 27.734375 61.71875 
z
M 62.109375 49.609375 
Q 65.625 26.5625 71.875 17.578125 
Q 75.78125 26.5625 77.140625 35.734375 
Q 78.515625 44.921875 78.90625 53.515625 
L 63.671875 53.515625 
L 62.109375 49.609375 
z
M 22.65625 15.625 
Q 27.34375 14.453125 35.546875 12.5 
Q 38.671875 16.40625 41.40625 23.828125 
L 26.953125 23.828125 
Q 25 19.921875 22.65625 15.625 
z
M 51.953125 75.390625 
Q 50 72.265625 48.828125 69.53125 
Q 47.65625 66.796875 45.703125 62.890625 
Q 42.578125 64.453125 39.453125 65.234375 
Q 42.578125 70.3125 45.3125 78.125 
Q 49.21875 76.171875 51.953125 75.390625 
z
M 40.234375 52.734375 
Q 45.3125 47.65625 50 42.578125 
Q 47.65625 40.625 44.921875 37.890625 
Q 39.453125 44.53125 35.9375 48.4375 
Q 38.28125 50.390625 40.234375 52.734375 
z
M 14.453125 78.125 
Q 19.921875 72.65625 23.4375 67.1875 
L 17.578125 63.671875 
Q 14.84375 69.140625 9.375 73.828125 
Q 12.890625 76.171875 14.453125 78.125 
z
" id="SimHei-6570"/>
     </defs>
     <g transform="translate(170.18875 200.735937)scale(0.1 -0.1)">
      <use xlink:href="#SimHei-8bad"/>
      <use x="100" xlink:href="#SimHei-7ec3"/>
      <use x="200" xlink:href="#SimHei-56de"/>
      <use x="300" xlink:href="#SimHei-5408"/>
      <use x="400" xlink:href="#SimHei-6570"/>
     </g>
    </g>
   </g>
   <g id="matplotlib.axis_2">
    <g id="ytick_1">
     <g id="line2d_8">
      <defs>
       <path d="M 0 0 
L -3.5 0 
" id="m143ff9b92d" style="stroke:#000000;stroke-width:0.8;"/>
      </defs>
      <g>
       <use style="stroke:#000000;stroke-width:0.8;" x="47.41875" xlink:href="#m143ff9b92d" y="166.273011"/>
      </g>
     </g>
     <g id="text_9">
      <!-- -500 -->
      <defs>
       <path d="M 46.484375 33.203125 
L 1.953125 33.203125 
L 1.953125 39.453125 
L 46.484375 39.453125 
z
" id="SimHei-2d"/>
      </defs>
      <g transform="translate(20.41875 169.710511)scale(0.1 -0.1)">
       <use xlink:href="#SimHei-2d"/>
       <use x="50" xlink:href="#SimHei-35"/>
       <use x="100" xlink:href="#SimHei-30"/>
       <use x="150" xlink:href="#SimHei-30"/>
      </g>
     </g>
    </g>
    <g id="ytick_2">
     <g id="line2d_9">
      <g>
       <use style="stroke:#000000;stroke-width:0.8;" x="47.41875" xlink:href="#m143ff9b92d" y="130.810473"/>
      </g>
     </g>
     <g id="text_10">
      <!-- -400 -->
      <defs>
       <path d="M 31.25 17.1875 
L 1.171875 17.1875 
L 1.171875 23.828125 
L 32.8125 69.53125 
L 38.671875 69.53125 
L 38.671875 23.828125 
L 48.046875 23.828125 
L 48.046875 17.1875 
L 38.671875 17.1875 
L 38.671875 2.34375 
L 31.25 2.34375 
z
M 31.25 23.828125 
L 31.25 54.6875 
L 9.375 23.828125 
z
" id="SimHei-34"/>
      </defs>
      <g transform="translate(20.41875 134.247973)scale(0.1 -0.1)">
       <use xlink:href="#SimHei-2d"/>
       <use x="50" xlink:href="#SimHei-34"/>
       <use x="100" xlink:href="#SimHei-30"/>
       <use x="150" xlink:href="#SimHei-30"/>
      </g>
     </g>
    </g>
    <g id="ytick_3">
     <g id="line2d_10">
      <g>
       <use style="stroke:#000000;stroke-width:0.8;" x="47.41875" xlink:href="#m143ff9b92d" y="95.347935"/>
      </g>
     </g>
     <g id="text_11">
      <!-- -300 -->
      <g transform="translate(20.41875 98.785435)scale(0.1 -0.1)">
       <use xlink:href="#SimHei-2d"/>
       <use x="50" xlink:href="#SimHei-33"/>
       <use x="100" xlink:href="#SimHei-30"/>
       <use x="150" xlink:href="#SimHei-30"/>
      </g>
     </g>
    </g>
    <g id="ytick_4">
     <g id="line2d_11">
      <g>
       <use style="stroke:#000000;stroke-width:0.8;" x="47.41875" xlink:href="#m143ff9b92d" y="59.885397"/>
      </g>
     </g>
     <g id="text_12">
      <!-- -200 -->
      <g transform="translate(20.41875 63.322897)scale(0.1 -0.1)">
       <use xlink:href="#SimHei-2d"/>
       <use x="50" xlink:href="#SimHei-32"/>
       <use x="100" xlink:href="#SimHei-30"/>
       <use x="150" xlink:href="#SimHei-30"/>
      </g>
     </g>
    </g>
    <g id="ytick_5">
     <g id="line2d_12">
      <g>
       <use style="stroke:#000000;stroke-width:0.8;" x="47.41875" xlink:href="#m143ff9b92d" y="24.422858"/>
      </g>
     </g>
     <g id="text_13">
      <!-- -100 -->
      <g transform="translate(20.41875 27.860358)scale(0.1 -0.1)">
       <use xlink:href="#SimHei-2d"/>
       <use x="50" xlink:href="#SimHei-31"/>
       <use x="100" xlink:href="#SimHei-30"/>
       <use x="150" xlink:href="#SimHei-30"/>
      </g>
     </g>
    </g>
    <g id="text_14">
     <!-- 平均奖赏值 -->
     <defs>
      <path d="M 70.703125 75.390625 
Q 76.5625 75.390625 85.15625 75.78125 
L 85.15625 68.359375 
Q 76.953125 68.75 70.703125 68.75 
L 54.296875 68.75 
L 54.296875 31.640625 
L 78.125 31.640625 
Q 86.71875 31.640625 94.140625 32.03125 
L 94.140625 24.609375 
Q 86.71875 25 78.125 25 
L 54.296875 25 
L 54.296875 7.03125 
Q 54.296875 -1.5625 54.6875 -9.375 
L 45.703125 -9.375 
Q 46.09375 -1.5625 46.09375 7.03125 
L 46.09375 25 
L 17.578125 25 
Q 12.109375 25 5.859375 24.609375 
L 5.859375 32.03125 
Q 12.109375 31.640625 18.359375 31.640625 
L 46.09375 31.640625 
L 46.09375 68.75 
L 27.734375 68.75 
Q 21.875 68.75 13.671875 68.359375 
L 13.671875 75.78125 
Q 21.875 75.390625 27.34375 75.390625 
z
M 61.328125 40.625 
Q 70.3125 51.5625 76.5625 64.453125 
Q 80.46875 61.71875 84.375 59.765625 
Q 74.609375 44.53125 67.96875 35.9375 
Q 64.84375 38.671875 61.328125 40.625 
z
M 30.859375 36.71875 
Q 25 48.4375 16.40625 58.203125 
Q 19.53125 60.546875 22.65625 63.28125 
Q 32.421875 51.5625 38.28125 42.578125 
Q 33.59375 39.0625 30.859375 36.71875 
z
" id="SimHei-5e73"/>
      <path d="M 90.234375 4.296875 
Q 90.234375 -5.078125 83.78125 -7.03125 
Q 77.34375 -8.984375 69.140625 -9.375 
Q 68.359375 -4.296875 66.40625 0.390625 
Q 77.34375 -0.390625 80.078125 0.96875 
Q 82.8125 2.34375 82.8125 7.8125 
L 83.984375 57.8125 
L 55.46875 57.8125 
Q 53.515625 52.734375 50.96875 47.453125 
Q 48.4375 42.1875 45.703125 37.5 
Q 41.796875 39.84375 38.671875 41.015625 
Q 49.21875 56.640625 54.6875 81.25 
Q 59.375 79.6875 63.671875 78.515625 
Q 62.109375 76.171875 60.546875 72.65625 
Q 58.984375 69.140625 57.421875 64.453125 
L 92.1875 64.453125 
L 90.234375 4.296875 
z
M 19.53125 56.640625 
L 19.53125 68.359375 
Q 19.53125 74.609375 19.140625 79.6875 
L 27.734375 79.6875 
Q 27.34375 73.828125 27.34375 68.359375 
L 27.34375 56.640625 
L 29.6875 56.640625 
Q 34.375 56.640625 39.453125 57.03125 
L 39.453125 49.21875 
Q 34.375 49.609375 29.6875 49.609375 
L 27.34375 49.609375 
L 27.34375 17.1875 
L 39.0625 21.484375 
Q 38.671875 17.578125 39.453125 14.0625 
Q 19.140625 7.421875 15.03125 5.65625 
Q 10.9375 3.90625 7.421875 2.34375 
Q 5.859375 7.421875 3.90625 11.71875 
Q 8.984375 12.5 12.5 13.28125 
Q 16.015625 14.0625 19.53125 15.234375 
L 19.53125 49.609375 
L 17.578125 49.609375 
Q 13.28125 49.609375 6.25 49.21875 
L 6.25 57.03125 
Q 13.28125 56.640625 17.1875 56.640625 
z
M 77.34375 25.390625 
Q 73.046875 22.265625 64.640625 16.40625 
Q 56.25 10.546875 49.609375 4.6875 
Q 46.875 8.984375 44.53125 12.109375 
Q 52.34375 16.40625 58.78125 20.703125 
Q 65.234375 25 74.609375 32.421875 
Q 75.390625 28.90625 77.34375 25.390625 
z
M 58.984375 49.21875 
Q 64.453125 43.75 69.921875 35.9375 
Q 66.40625 33.203125 64.0625 30.859375 
Q 60.9375 36.328125 53.90625 44.140625 
Q 56.25 46.875 58.984375 49.21875 
z
" id="SimHei-5747"/>
      <path d="M 79.296875 24.609375 
Q 88.28125 24.609375 94.921875 25 
L 94.921875 17.578125 
Q 88.671875 18.75 79.296875 18.359375 
L 55.46875 18.359375 
Q 62.109375 9.375 73.625 4.6875 
Q 85.15625 0 96.09375 -0.78125 
Q 93.75 -3.515625 91.40625 -8.59375 
Q 83.59375 -7.03125 77.734375 -5.078125 
Q 71.875 -3.125 64.640625 1.359375 
Q 57.421875 5.859375 50.78125 13.671875 
Q 47.265625 8.59375 43.75 5.46875 
Q 40.234375 2.34375 35.15625 -0.78125 
Q 30.078125 -3.90625 24.40625 -5.859375 
Q 18.75 -7.8125 10.9375 -9.765625 
Q 9.375 -5.859375 6.25 -1.953125 
Q 13.671875 -1.171875 19.71875 0.578125 
Q 25.78125 2.34375 30.65625 4.875 
Q 35.546875 7.421875 39.0625 10.734375 
Q 42.578125 14.0625 44.53125 18.359375 
L 20.703125 18.359375 
Q 12.890625 18.359375 5.46875 17.96875 
L 5.46875 25 
Q 12.890625 24.609375 20.703125 24.609375 
L 46.09375 24.609375 
Q 46.484375 27.34375 46.484375 30.46875 
Q 54.296875 29.296875 55.46875 29.296875 
Q 54.296875 26.953125 53.90625 24.609375 
z
M 67.578125 78.125 
Q 64.453125 75 61.328125 70.3125 
L 92.1875 70.3125 
Q 88.671875 61.71875 85.34375 56.046875 
Q 82.03125 50.390625 77.921875 45.890625 
Q 73.828125 41.40625 66.984375 37.5 
Q 60.15625 33.59375 47.65625 30.859375 
Q 45.703125 34.375 42.96875 37.890625 
Q 54.6875 38.28125 64.0625 43.75 
L 53.515625 50.78125 
Q 55.859375 53.515625 57.8125 56.25 
Q 61.71875 53.90625 64.0625 52.140625 
Q 66.40625 50.390625 69.921875 48.046875 
Q 76.5625 53.90625 80.859375 64.0625 
L 57.421875 64.0625 
Q 55.46875 61.71875 52.734375 58.59375 
Q 50 55.46875 45.3125 50 
Q 42.1875 52.734375 38.671875 54.296875 
Q 44.53125 59.375 49.796875 66.40625 
Q 55.078125 73.4375 58.59375 81.640625 
Q 63.671875 79.296875 67.578125 78.125 
z
M 38.28125 80.859375 
Q 37.890625 76.171875 37.890625 69.921875 
L 37.890625 44.921875 
Q 37.890625 39.0625 38.28125 30.859375 
L 30.078125 30.859375 
Q 30.46875 39.0625 30.46875 44.921875 
L 30.46875 47.65625 
Q 19.140625 40.234375 11.71875 35.546875 
Q 8.984375 39.84375 6.25 42.1875 
Q 12.890625 44.140625 30.46875 55.078125 
L 30.46875 69.921875 
Q 30.46875 75.78125 30.078125 80.859375 
L 38.28125 80.859375 
z
M 15.625 73.4375 
Q 23.046875 67.578125 28.125 62.890625 
L 22.265625 57.03125 
Q 17.1875 62.5 10.546875 67.96875 
Q 13.28125 70.3125 15.625 73.4375 
z
" id="SimHei-5956"/>
      <path d="M 76.953125 34.375 
L 23.4375 34.375 
Q 23.828125 39.453125 23.828125 44.140625 
Q 23.828125 48.828125 23.4375 53.125 
L 76.953125 53.125 
z
M 82.421875 76.171875 
Q 78.515625 73.4375 73.046875 65.234375 
L 91.015625 65.234375 
Q 90.625 61.328125 90.625 57.421875 
Q 90.625 53.90625 91.015625 49.21875 
L 83.203125 49.21875 
L 83.203125 59.375 
L 17.1875 59.375 
L 17.1875 47.65625 
L 9.375 47.65625 
Q 9.765625 52.34375 9.765625 56.640625 
Q 9.765625 61.328125 9.375 65.234375 
L 28.90625 65.234375 
Q 23.828125 71.875 19.921875 76.5625 
L 26.171875 80.46875 
Q 31.25 75.390625 35.546875 68.75 
Q 32.421875 66.796875 29.6875 65.234375 
L 46.484375 65.234375 
Q 46.484375 73.046875 46.09375 80.859375 
L 54.296875 80.859375 
Q 53.90625 73.828125 53.90625 65.234375 
L 65.234375 65.234375 
Q 71.875 75 73.046875 79.6875 
Q 77.734375 77.34375 82.421875 76.171875 
z
M 81.25 28.90625 
Q 80.859375 24.21875 80.859375 18.75 
Q 80.859375 13.28125 81.25 8.59375 
L 73.4375 8.59375 
L 73.4375 23.046875 
L 26.953125 23.046875 
L 26.953125 7.03125 
L 19.140625 7.03125 
Q 19.53125 12.5 19.53125 17.96875 
Q 19.53125 23.4375 19.140625 28.90625 
L 81.25 28.90625 
z
M 54.296875 17.1875 
Q 50 5.078125 45.3125 1.171875 
Q 40.625 -2.734375 33.390625 -5.65625 
Q 26.171875 -8.59375 12.890625 -10.546875 
Q 12.109375 -7.03125 7.8125 -2.734375 
Q 18.359375 -2.34375 25.390625 -0.578125 
Q 32.421875 1.171875 38.28125 5.46875 
Q 44.140625 9.765625 45.3125 19.53125 
L 54.296875 17.1875 
z
M 69.140625 39.84375 
L 69.140625 47.265625 
L 31.25 47.265625 
L 31.25 39.84375 
z
M 61.328125 10.15625 
Q 78.515625 3.515625 90.234375 -3.90625 
Q 86.71875 -6.640625 84.375 -10.15625 
Q 76.5625 -3.90625 56.640625 3.90625 
Q 59.765625 7.8125 61.328125 10.15625 
z
" id="SimHei-8d4f"/>
      <path d="M 57.421875 69.53125 
L 57.421875 79.6875 
Q 62.109375 79.296875 67.96875 78.90625 
Q 66.015625 76.171875 65.625 69.53125 
L 80.078125 69.53125 
Q 86.71875 69.53125 91.796875 69.921875 
L 91.796875 62.890625 
Q 86.328125 63.28125 80.078125 63.28125 
L 65.234375 63.28125 
L 64.453125 54.6875 
L 84.375 54.6875 
Q 83.984375 50 83.984375 42.1875 
L 83.984375 2.34375 
Q 91.796875 2.34375 95.3125 2.734375 
L 95.3125 -4.296875 
Q 90.234375 -3.90625 81.25 -3.90625 
L 44.53125 -3.90625 
Q 35.546875 -3.90625 29.6875 -4.296875 
L 29.6875 2.734375 
Q 33.203125 2.34375 40.625 2.34375 
L 40.625 42.1875 
Q 40.625 49.609375 40.234375 54.6875 
L 56.25 54.6875 
L 57.03125 63.28125 
L 50 63.28125 
Q 40.234375 63.28125 34.765625 62.890625 
L 34.765625 69.921875 
Q 39.84375 69.53125 50 69.53125 
z
M 34.765625 76.5625 
Q 31.640625 73.046875 25.78125 58.59375 
L 25.78125 7.03125 
Q 25.78125 -1.171875 26.171875 -8.59375 
L 17.96875 -8.59375 
Q 18.359375 -1.953125 18.359375 5.859375 
L 18.359375 46.09375 
Q 13.671875 38.28125 9.765625 33.59375 
Q 6.640625 37.890625 3.90625 40.234375 
Q 7.8125 44.140625 14.640625 55.265625 
Q 21.484375 66.40625 25.390625 80.46875 
Q 30.859375 77.734375 34.765625 76.5625 
z
M 76.953125 41.40625 
L 76.953125 49.21875 
L 48.046875 49.21875 
L 48.046875 41.40625 
z
M 76.953125 2.34375 
L 76.953125 9.765625 
L 48.046875 9.765625 
L 48.046875 2.34375 
z
M 76.953125 15.625 
L 76.953125 22.65625 
L 48.046875 22.65625 
L 48.046875 15.625 
z
M 76.953125 28.515625 
L 76.953125 35.546875 
L 48.046875 35.546875 
L 48.046875 28.515625 
z
" id="SimHei-503c"/>
     </defs>
     <g transform="translate(15.16875 117.190625)rotate(-90)scale(0.1 -0.1)">
      <use xlink:href="#SimHei-5e73"/>
      <use x="100" xlink:href="#SimHei-5747"/>
      <use x="200" xlink:href="#SimHei-5956"/>
      <use x="300" xlink:href="#SimHei-8d4f"/>
      <use x="400" xlink:href="#SimHei-503c"/>
     </g>
    </g>
   </g>
   <g id="line2d_13">
    <path clip-path="url(#p102395257e)" d="M 60.852386 166.273011 
L 62.649528 166.273011 
L 63.548099 156.343501 
L 64.44667 153.151872 
L 65.345241 139.912525 
L 66.243812 133.140868 
L 67.142383 124.028263 
L 68.040954 117.374111 
L 68.939525 119.817086 
L 69.838096 114.336512 
L 70.736667 110.301305 
L 71.635238 105.550234 
L 73.43238 98.728697 
L 74.330951 95.347935 
L 75.229522 91.530497 
L 77.026664 85.810379 
L 77.925235 84.531861 
L 78.823806 82.851612 
L 79.722377 80.324714 
L 80.620948 78.38759 
L 81.519519 76.951743 
L 83.316661 72.979257 
L 84.215232 72.625642 
L 86.012374 69.179027 
L 87.809516 67.241013 
L 90.505229 53.353426 
L 91.4038 49.933007 
L 92.302371 45.997809 
L 93.200942 44.350517 
L 94.099513 42.09693 
L 94.998084 41.37624 
L 95.896655 39.91198 
L 96.795226 35.919584 
L 98.592368 33.242735 
L 99.490939 32.339012 
L 101.288081 30.028227 
L 103.085223 29.685041 
L 103.983794 29.273218 
L 104.882365 29.273218 
L 105.780936 28.655484 
L 106.679507 27.763201 
L 107.578078 31.263696 
L 108.476649 33.380009 
L 109.37522 33.986304 
L 110.273791 35.130257 
L 111.172362 35.645036 
L 112.070933 34.901466 
L 112.969504 35.347608 
L 113.868075 36.457242 
L 114.766646 36.297089 
L 115.665217 35.759431 
L 116.563788 36.125496 
L 117.462359 38.390523 
L 118.36093 38.150293 
L 119.259501 38.230369 
L 120.158072 38.69939 
L 121.056643 38.562116 
L 121.955214 39.305685 
L 122.853785 38.665071 
L 123.752356 39.351443 
L 124.650927 39.843343 
L 126.448069 39.625992 
L 127.34664 39.740387 
L 128.245211 40.472517 
L 129.143782 42.291402 
L 130.940924 41.84526 
L 131.839495 42.028293 
L 132.738066 41.742304 
L 133.636637 41.238965 
L 134.535208 42.142688 
L 135.433779 38.768027 
L 136.33235 36.194133 
L 138.129492 33.986304 
L 139.028063 34.489643 
L 139.926634 34.157897 
L 140.825205 34.009183 
L 141.723776 33.013944 
L 142.622347 32.544924 
L 143.520918 33.059702 
L 144.419489 35.770871 
L 145.31806 33.631679 
L 146.216631 34.935785 
L 147.115202 38.424841 
L 148.013773 37.944381 
L 148.912344 38.161732 
L 149.810915 37.669832 
L 151.608057 38.45916 
L 152.506628 38.44772 
L 153.405199 38.722269 
L 155.202341 41.204647 
L 156.100912 40.666989 
L 156.999483 39.088334 
L 157.898054 38.596434 
L 158.796625 38.676511 
L 159.695196 38.253248 
L 160.593767 38.001579 
L 161.492338 38.024458 
L 162.390909 37.269449 
L 163.28948 37.063537 
L 164.188051 37.086416 
L 165.086622 36.743231 
L 165.985193 38.058776 
L 166.883764 37.498239 
L 167.782335 37.258009 
L 168.680906 36.857626 
L 169.579477 36.605956 
L 170.478048 36.731791 
L 171.376619 36.114056 
L 172.27519 33.471525 
L 173.173761 33.402888 
L 174.072332 32.15598 
L 174.970903 28.712682 
L 177.666616 28.655484 
L 178.565187 28.094947 
L 179.463758 26.870917 
L 180.362329 26.722204 
L 181.2609 26.687885 
L 183.058042 24.468616 
L 183.956613 24.319903 
L 184.855184 23.999596 
L 185.753755 24.331342 
L 186.652326 24.205507 
L 187.550897 24.594451 
L 188.449468 24.697407 
L 190.24661 24.354221 
L 191.145181 24.205507 
L 192.043752 24.960516 
L 192.942323 24.983395 
L 193.840894 23.324664 
L 194.739465 22.455259 
L 195.638035 22.226469 
L 197.435177 22.44382 
L 198.333748 22.157832 
L 199.232319 22.123513 
L 200.13089 21.803206 
L 201.029461 22.295106 
L 201.928032 22.466699 
L 202.826603 22.363743 
L 203.725174 22.626852 
L 204.623745 22.661171 
L 205.522316 22.169271 
L 206.420887 22.706929 
L 207.319458 23.107313 
L 208.218029 22.775566 
L 209.1166 22.661171 
L 210.015171 22.226469 
L 210.913742 21.917602 
L 212.710884 21.780327 
L 213.609455 21.357065 
L 214.508026 24.468616 
L 215.406597 23.942398 
L 216.305168 23.747926 
L 217.203739 23.805124 
L 219.000881 24.605891 
L 219.899452 23.850882 
L 220.798023 24.045354 
L 221.696594 23.953838 
L 223.493736 24.033914 
L 224.392307 24.331342 
L 225.290878 24.239826 
L 226.189449 24.914758 
L 227.08802 25.086351 
L 227.986591 24.926198 
L 228.885162 24.091112 
L 230.682304 24.14831 
L 231.580875 23.953838 
L 232.479446 23.64497 
L 233.378017 23.759366 
L 234.276588 23.130192 
L 235.175159 22.787006 
L 236.972301 22.69549 
L 237.870872 23.610652 
L 239.668014 23.999596 
L 240.566585 23.942398 
L 241.465156 24.022475 
L 242.363727 21.208351 
L 243.262298 21.448581 
L 245.05944 21.174032 
L 245.958011 20.624935 
L 248.653724 19.641135 
L 249.552295 19.652575 
L 251.349437 19.984321 
L 252.248008 19.641135 
L 253.146579 19.606817 
L 254.04515 18.909006 
L 254.943721 19.194994 
L 255.842292 19.000522 
L 259.436576 18.828929 
L 261.233718 18.817489 
L 263.03086 19.320829 
L 263.929431 19.423784 
L 264.828002 19.869926 
L 265.726573 19.080599 
L 266.625144 18.863248 
L 267.523715 18.897566 
L 268.422286 19.149236 
L 269.320857 19.183554 
L 270.219428 18.989082 
L 271.117999 18.668776 
L 272.01657 18.886127 
L 273.813712 19.103478 
L 274.712283 18.954764 
L 275.610854 19.698333 
L 277.407996 20.224551 
L 278.306567 20.0072 
L 280.103709 19.972882 
L 281.00228 21.391383 
L 281.900851 21.551537 
L 282.799422 20.910923 
L 284.596564 21.368504 
L 285.495135 21.128274 
L 286.393706 21.242669 
L 287.292277 21.071077 
L 289.089419 21.105395 
L 289.98799 20.796528 
L 290.886561 20.796528 
L 291.785132 20.682133 
L 292.683703 20.098717 
L 295.379416 19.984321 
L 296.277987 19.732652 
L 297.176558 19.77841 
L 298.075129 19.629696 
L 298.9737 19.835607 
L 300.770842 19.652575 
L 302.567984 20.602056 
L 303.466555 20.098717 
L 304.365126 19.858486 
L 305.263697 19.881366 
L 306.162268 20.178793 
L 307.95941 19.984321 
L 308.857981 18.462864 
L 309.756552 18.268392 
L 310.655123 18.359908 
L 311.553694 18.108239 
L 312.452265 19.28651 
L 313.350836 19.240752 
L 314.249407 19.023401 
L 316.046549 19.04628 
L 316.94512 18.851808 
L 317.843691 18.966203 
L 318.742262 18.79461 
L 320.539404 18.748852 
L 322.336546 19.332268 
L 323.235117 19.114917 
L 324.133688 19.149236 
L 325.032259 18.966203 
L 326.829401 19.217873 
L 327.727972 19.160675 
L 328.626543 19.53818 
L 329.525114 19.080599 
L 329.525114 19.080599 
" style="fill:none;stroke:#ff4500;stroke-linecap:square;stroke-width:1.5;"/>
   </g>
   <g id="line2d_14">
    <path clip-path="url(#p102395257e)" d="M 60.852386 166.273011 
L 61.750957 166.273011 
L 62.649528 148.068908 
L 63.548099 152.087996 
L 64.44667 152.017071 
L 65.345241 148.305325 
L 66.243812 139.118839 
L 67.142383 141.715204 
L 68.040954 134.199116 
L 68.939525 129.533822 
L 69.838096 122.331703 
L 70.736667 116.123072 
L 71.635238 112.179001 
L 72.533809 110.140879 
L 73.43238 105.750279 
L 74.330951 102.817232 
L 75.229522 99.415697 
L 76.128093 97.574194 
L 77.026664 94.974645 
L 77.925235 93.379764 
L 78.823806 91.447056 
L 79.722377 88.900201 
L 80.620948 87.669524 
L 81.519519 85.640065 
L 82.41809 85.035429 
L 83.316661 83.467985 
L 84.215232 83.343209 
L 86.910945 78.432304 
L 87.809516 77.467952 
L 88.708087 74.333521 
L 89.606658 70.249609 
L 90.505229 67.893067 
L 91.4038 65.078943 
L 92.302371 61.887314 
L 93.200942 59.290541 
L 94.099513 57.505975 
L 94.998084 57.711886 
L 95.896655 60.686164 
L 96.795226 60.308659 
L 99.490939 71.141893 
L 100.38951 72.731987 
L 103.085223 84.045681 
L 103.983794 86.356465 
L 104.882365 88.026637 
L 105.780936 91.355539 
L 107.578078 93.906554 
L 108.476649 94.695882 
L 110.273791 99.786472 
L 111.172362 100.667316 
L 112.070933 100.106779 
L 112.969504 102.291729 
L 113.868075 104.099174 
L 114.766646 105.197369 
L 115.665217 105.90662 
L 116.563788 105.597752 
L 117.462359 107.439516 
L 118.36093 109.750301 
L 119.259501 108.709304 
L 121.056643 111.008649 
L 121.955214 113.605422 
L 122.853785 110.287959 
L 123.752356 107.919977 
L 124.650927 107.942856 
L 125.549498 104.327965 
L 126.448069 102.200212 
L 127.34664 98.734035 
L 128.245211 98.093422 
L 130.940924 86.96276 
L 132.738066 82.638619 
L 133.636637 78.691981 
L 134.535208 77.03325 
L 135.433779 76.118088 
L 136.33235 74.390719 
L 137.230921 71.988418 
L 138.129492 68.53368 
L 139.028063 67.847308 
L 139.926634 69.620435 
L 141.723776 65.525084 
L 143.520918 63.397332 
L 144.419489 62.436411 
L 145.31806 60.102748 
L 146.216631 58.752883 
L 147.115202 60.011231 
L 148.912344 56.65945 
L 149.810915 53.936842 
L 150.709486 53.01024 
L 151.608057 50.779532 
L 152.506628 49.097921 
L 153.405199 47.965408 
L 154.30377 45.837656 
L 155.202341 45.025449 
L 156.100912 42.177007 
L 156.999483 42.016853 
L 157.898054 40.792824 
L 158.796625 40.747065 
L 159.695196 40.106452 
L 160.593767 40.117891 
L 161.492338 40.861461 
L 162.390909 40.175089 
L 163.28948 39.328564 
L 164.188051 38.836664 
L 165.086622 39.282806 
L 166.883764 38.150293 
L 167.782335 35.30185 
L 168.680906 34.82139 
L 169.579477 34.478204 
L 170.478048 34.32949 
L 171.376619 33.940546 
L 172.27519 33.768953 
L 173.173761 33.83759 
L 174.072332 32.339012 
L 174.970903 30.257018 
L 175.869474 29.639283 
L 176.768045 29.250339 
L 177.666616 29.22746 
L 178.565187 28.724121 
L 179.463758 30.909071 
L 181.2609 30.93195 
L 183.058042 29.856634 
L 183.956613 29.662162 
L 184.855184 29.090186 
L 185.753755 28.918593 
L 187.550897 27.831838 
L 188.449468 27.763201 
L 189.348039 26.401897 
L 190.24661 26.607808 
L 191.145181 26.996752 
L 192.043752 27.05395 
L 192.942323 26.310381 
L 193.840894 26.035832 
L 197.435177 25.475295 
L 198.333748 26.001513 
L 199.232319 25.704086 
L 200.13089 26.80228 
L 201.029461 26.81372 
L 202.826603 26.539171 
L 203.725174 26.619248 
L 204.623745 26.504853 
L 205.522316 26.687885 
L 206.420887 26.710764 
L 207.319458 24.3771 
L 208.218029 24.205507 
L 210.015171 24.399979 
L 210.913742 24.468616 
L 211.812313 24.3771 
L 212.710884 23.839442 
L 213.609455 23.736487 
L 214.508026 23.759366 
L 215.406597 23.301785 
L 216.305168 22.638292 
L 217.203739 22.398062 
L 219.000881 21.597295 
L 221.696594 21.597295 
L 222.595165 21.379944 
L 223.493736 21.391383 
L 225.290878 21.208351 
L 226.189449 22.523897 
L 227.08802 22.603973 
L 227.986591 21.505779 
L 228.885162 21.208351 
L 229.783733 21.265548 
L 230.682304 21.46002 
L 231.580875 21.116835 
L 233.378017 21.299867 
L 238.769443 21.814646 
L 239.668014 21.848964 
L 242.363727 22.889962 
L 243.262298 22.970038 
L 244.160869 24.514375 
L 245.05944 24.846121 
L 246.856582 25.189307 
L 247.755153 25.143549 
L 248.653724 24.663088 
L 250.450866 24.766044 
L 251.349437 24.663088 
L 252.248008 24.846121 
L 253.146579 24.834681 
L 254.04515 23.221708 
L 254.943721 23.118752 
L 256.740863 23.427619 
L 257.639434 23.370422 
L 258.538005 23.473377 
L 259.436576 23.942398 
L 260.335147 24.079672 
L 261.233718 23.747926 
L 262.132289 24.022475 
L 263.03086 24.011035 
L 263.929431 23.64497 
L 264.828002 23.553454 
L 265.726573 23.267466 
L 266.625144 23.381861 
L 267.523715 23.759366 
L 268.422286 23.610652 
L 269.320857 23.587773 
L 270.219428 23.027236 
L 271.117999 23.576333 
L 272.01657 22.089195 
L 272.915141 21.71169 
L 274.712283 21.608734 
L 276.509425 21.746009 
L 279.205138 21.574416 
L 280.103709 21.288428 
L 281.00228 21.665932 
L 281.900851 21.162593 
L 283.697993 20.647814 
L 285.495135 20.647814 
L 286.393706 20.327507 
L 287.292277 20.235991 
L 288.190848 19.961442 
L 289.98799 19.972882 
L 293.582274 20.521979 
L 295.379416 20.441902 
L 296.277987 20.624935 
L 297.176558 20.361826 
L 298.075129 20.613495 
L 298.9737 20.098717 
L 299.872271 20.430463 
L 301.669413 20.830846 
L 302.567984 20.590616 
L 304.365126 20.945242 
L 306.162268 20.796528 
L 307.060839 21.574416 
L 307.95941 21.734569 
L 308.857981 21.494339 
L 310.655123 21.803206 
L 311.553694 22.009118 
L 312.452265 22.089195 
L 314.249407 22.626852 
L 316.046549 22.729808 
L 316.94512 22.764127 
L 317.843691 22.581094 
L 318.742262 22.283667 
L 319.640833 22.512457 
L 320.539404 22.295106 
L 321.437975 22.478139 
L 322.336546 22.398062 
L 323.235117 22.512457 
L 324.133688 22.409501 
L 326.829401 22.93572 
L 327.727972 22.787006 
L 328.626543 22.947159 
L 329.525114 23.439059 
L 329.525114 23.439059 
" style="fill:none;stroke:#fa8072;stroke-linecap:square;stroke-width:1.5;"/>
   </g>
   <g id="line2d_15">
    <path clip-path="url(#p102395257e)" d="M 60.852386 166.273011 
L 61.750957 122.122151 
L 62.649528 136.720896 
L 63.548099 144.108925 
L 64.44667 147.336016 
L 65.345241 130.869577 
L 66.243812 134.762013 
L 67.142383 129.569284 
L 68.040954 121.077977 
L 68.939525 120.668187 
L 69.838096 120.46186 
L 70.736667 114.970539 
L 71.635238 111.878933 
L 72.533809 111.255416 
L 73.43238 114.355855 
L 74.330951 110.884959 
L 75.229522 108.573376 
L 76.128093 104.528792 
L 77.026664 102.141811 
L 77.925235 100.507734 
L 78.823806 98.607111 
L 81.519519 91.09243 
L 82.41809 92.283972 
L 83.316661 89.864881 
L 84.215232 88.01901 
L 85.113803 90.813796 
L 86.012374 88.940221 
L 86.910945 91.517981 
L 87.809516 89.87984 
L 88.708087 89.87984 
L 89.606658 88.392702 
L 90.505229 83.702495 
L 91.4038 83.187716 
L 92.302371 79.046607 
L 93.200942 78.955091 
L 94.099513 75.431716 
L 94.998084 75.145728 
L 95.896655 74.264884 
L 96.795226 75.111409 
L 97.693797 72.18289 
L 98.592368 71.599474 
L 99.490939 70.158093 
L 100.38951 67.664276 
L 101.288081 63.500288 
L 103.085223 61.406854 
L 103.983794 61.040789 
L 104.882365 59.80532 
L 105.780936 58.032193 
L 106.679507 56.590812 
L 107.578078 56.121792 
L 108.476649 55.240948 
L 109.37522 54.566016 
L 110.273791 51.019762 
L 111.172362 50.504983 
L 112.070933 50.768092 
L 112.969504 46.135083 
L 113.868075 45.551667 
L 114.766646 40.792824 
L 115.665217 40.278045 
L 116.563788 35.53064 
L 117.462359 36.26277 
L 118.36093 36.491561 
L 119.259501 32.224617 
L 120.158072 32.018705 
L 121.056643 35.908145 
L 121.955214 34.947225 
L 122.853785 32.739396 
L 123.752356 32.407649 
L 124.650927 28.369496 
L 125.549498 27.991991 
L 126.448069 27.351378 
L 127.34664 27.111148 
L 128.245211 27.179785 
L 129.143782 27.957673 
L 130.042353 27.751761 
L 130.940924 26.985313 
L 131.839495 26.928115 
L 132.738066 26.687885 
L 134.535208 27.019631 
L 135.433779 27.122587 
L 137.230921 29.250339 
L 139.028063 29.993909 
L 139.926634 29.090186 
L 140.825205 28.975791 
L 141.723776 29.170263 
L 142.622347 29.147384 
L 143.520918 32.281814 
L 144.419489 32.327573 
L 145.31806 31.103543 
L 146.216631 31.092103 
L 147.115202 31.320894 
L 148.013773 31.034906 
L 148.912344 26.459094 
L 149.810915 27.660245 
L 151.608057 27.991991 
L 152.506628 28.666923 
L 154.30377 29.193142 
L 155.202341 30.039667 
L 156.100912 31.320894 
L 156.999483 30.234139 
L 157.898054 30.188381 
L 158.796625 30.794676 
L 159.695196 33.12834 
L 160.593767 33.551602 
L 161.492338 34.855708 
L 162.390909 34.558281 
L 163.28948 34.695555 
L 164.188051 33.986304 
L 165.086622 32.945307 
L 165.985193 33.1169 
L 166.883764 32.842351 
L 168.680906 32.945307 
L 169.579477 32.727956 
L 170.478048 32.979626 
L 171.376619 29.650723 
L 172.27519 29.593525 
L 173.173761 29.833755 
L 174.970903 29.101625 
L 176.768045 28.907154 
L 177.666616 27.889035 
L 178.565187 27.557289 
L 179.463758 27.397136 
L 180.362329 26.722204 
L 181.2609 26.665006 
L 182.159471 26.367578 
L 183.058042 25.257944 
L 183.956613 23.667849 
L 184.855184 23.484817 
L 185.753755 23.747926 
L 186.652326 23.393301 
L 187.550897 20.945242 
L 188.449468 20.659253 
L 189.348039 19.52674 
L 190.24661 19.755531 
L 191.145181 19.252191 
L 192.043752 19.400905 
L 192.942323 19.686894 
L 193.840894 19.252191 
L 194.739465 19.252191 
L 195.638035 19.069159 
L 196.536606 19.057719 
L 197.435177 20.441902 
L 198.333748 20.430463 
L 199.232319 20.659253 
L 200.13089 20.647814 
L 201.029461 20.373265 
L 201.928032 20.73933 
L 205.522316 21.185472 
L 206.420887 21.4829 
L 208.218029 21.574416 
L 209.1166 22.100634 
L 210.913742 22.398062 
L 212.710884 22.237908 
L 213.609455 21.814646 
L 214.508026 21.528658 
L 215.406597 21.814646 
L 216.305168 21.95192 
L 217.203739 21.4829 
L 219.000881 21.631613 
L 220.798023 21.151153 
L 223.493736 21.21979 
L 224.392307 20.991 
L 225.290878 19.869926 
L 226.189449 19.572498 
L 227.08802 19.412345 
L 227.986591 19.53818 
L 228.885162 19.515301 
L 229.783733 19.194994 
L 231.580875 19.332268 
L 232.479446 19.275071 
L 235.175159 18.611578 
L 236.07373 18.611578 
L 236.972301 18.920445 
L 237.870872 19.686894 
L 238.769443 19.618256 
L 241.465156 19.755531 
L 242.363727 22.44382 
L 244.160869 21.96336 
L 245.05944 22.455259 
L 247.755153 21.837525 
L 248.653724 22.123513 
L 249.552295 22.272227 
L 250.450866 22.68405 
L 251.349437 23.519136 
L 252.248008 23.873761 
L 253.146579 23.622091 
L 254.04515 24.468616 
L 254.943721 24.525814 
L 256.740863 24.869 
L 257.639434 25.875678 
L 258.538005 25.795602 
L 259.436576 25.463855 
L 261.233718 25.154988 
L 263.03086 25.58969 
L 263.929431 25.521053 
L 264.828002 24.491496 
L 265.726573 23.793684 
L 266.625144 23.576333 
L 267.523715 23.839442 
L 269.320857 23.953838 
L 270.219428 21.379944 
L 271.117999 21.4829 
L 272.01657 21.917602 
L 272.915141 21.71169 
L 275.610854 21.894723 
L 276.509425 21.643053 
L 277.407996 21.574416 
L 279.205138 20.922363 
L 280.103709 21.116835 
L 281.00228 20.97956 
L 281.900851 20.121596 
L 283.697993 20.030079 
L 284.596564 19.938563 
L 285.495135 19.469543 
L 286.393706 19.664015 
L 287.292277 20.121596 
L 288.190848 20.727891 
L 289.98799 21.071077 
L 290.886561 21.837525 
L 291.785132 23.095873 
L 292.683703 23.210268 
L 293.582274 23.187389 
L 294.480845 23.324664 
L 295.379416 23.118752 
L 296.277987 23.576333 
L 297.176558 23.679289 
L 298.075129 24.171189 
L 298.9737 23.930959 
L 299.872271 23.347543 
L 300.770842 23.061554 
L 301.669413 23.061554 
L 302.567984 24.102552 
L 303.466555 24.651649 
L 304.365126 25.052032 
L 305.263697 24.983395 
L 306.162268 25.086351 
L 307.95941 24.102552 
L 312.452265 24.548693 
L 314.249407 24.331342 
L 315.147978 24.056793 
L 316.046549 23.576333 
L 317.843691 23.015796 
L 318.742262 22.169271 
L 319.640833 21.093956 
L 323.235117 20.4991 
L 324.133688 21.494339 
L 325.032259 21.505779 
L 325.93083 20.956681 
L 326.829401 20.922363 
L 328.626543 21.23123 
L 329.525114 21.059637 
L 329.525114 21.059637 
" style="fill:none;stroke:#ffd700;stroke-dasharray:5.55,2.4;stroke-dashoffset:0;stroke-width:1.5;"/>
   </g>
   <g id="line2d_16">
    <path clip-path="url(#p102395257e)" d="M 60.852386 166.273011 
L 77.026664 166.273011 
L 77.925235 164.943166 
L 84.215232 165.287941 
L 89.606658 165.415047 
L 95.896655 165.415047 
L 96.795226 165.003224 
L 99.490939 165.003224 
L 100.38951 163.516085 
L 104.882365 163.516085 
L 105.780936 164.37405 
L 108.476649 164.37405 
L 109.37522 164.156699 
L 123.752356 164.156699 
L 124.650927 164.568522 
L 125.549498 164.259654 
L 127.34664 164.259654 
L 128.245211 165.746793 
L 136.33235 165.746793 
L 137.230921 165.964144 
L 140.825205 165.964144 
L 141.723776 164.682917 
L 149.810915 164.682917 
L 150.709486 164.145259 
L 152.506628 164.145259 
L 153.405199 164.454126 
L 156.100912 164.454126 
L 156.999483 162.41789 
L 161.492338 162.337814 
L 163.28948 158.173825 
L 164.188051 157.395937 
L 165.086622 157.395937 
L 165.985193 155.073713 
L 167.782335 155.073713 
L 168.680906 154.295825 
L 169.579477 152.762928 
L 171.376619 152.762928 
L 172.27519 151.493141 
L 173.173761 150.028881 
L 174.072332 148.038403 
L 174.970903 147.294834 
L 176.768045 142.570308 
L 177.666616 139.710426 
L 178.565187 140.202326 
L 180.362329 135.855305 
L 182.159471 127.813317 
L 183.058042 125.376697 
L 183.956613 121.098313 
L 184.855184 118.99344 
L 185.753755 115.001045 
L 186.652326 111.855174 
L 187.550897 109.590148 
L 188.449468 106.535794 
L 189.348039 102.291729 
L 191.145181 98.573882 
L 192.043752 96.491888 
L 192.942323 92.030472 
L 193.840894 90.165828 
L 194.739465 87.900802 
L 195.638035 83.302111 
L 196.536606 79.69866 
L 197.435177 77.822577 
L 199.232319 69.197173 
L 200.13089 67.355409 
L 201.029461 64.060824 
L 201.928032 61.567007 
L 202.826603 57.586051 
L 203.725174 55.160871 
L 204.623745 53.284789 
L 205.522316 51.854848 
L 206.420887 47.519266 
L 207.319458 44.865296 
L 208.218029 42.565951 
L 209.1166 42.188446 
L 210.015171 44.7509 
L 210.913742 42.57739 
L 211.812313 42.32572 
L 212.710884 41.685107 
L 213.609455 41.193207 
L 214.508026 39.580234 
L 215.406597 37.24657 
L 216.305168 35.507761 
L 217.203739 34.992983 
L 218.10231 33.986304 
L 219.000881 33.974865 
L 219.899452 32.087342 
L 220.798023 32.361891 
L 221.696594 31.538245 
L 222.595165 29.216021 
L 223.493736 29.2389 
L 224.392307 28.975791 
L 225.290878 28.964351 
L 226.189449 28.243661 
L 227.08802 28.186463 
L 227.986591 26.539171 
L 228.885162 26.527732 
L 230.682304 26.012953 
L 231.580875 25.887118 
L 234.276588 24.079672 
L 235.175159 24.056793 
L 236.07373 23.90808 
L 236.972301 23.919519 
L 237.870872 20.384705 
L 239.668014 20.0072 
L 241.465156 20.293189 
L 243.262298 20.155914 
L 245.05944 20.590616 
L 245.958011 21.391383 
L 246.856582 20.785088 
L 247.755153 20.853725 
L 248.653724 20.235991 
L 249.552295 20.659253 
L 253.146579 19.881366 
L 254.04515 19.950003 
L 254.943721 20.201672 
L 255.842292 20.224551 
L 256.740863 21.002439 
L 257.639434 21.254109 
L 258.538005 21.986239 
L 259.436576 22.501018 
L 260.335147 22.569655 
L 263.929431 23.713608 
L 266.625144 24.125431 
L 267.523715 24.537254 
L 268.422286 24.823242 
L 269.320857 24.61733 
L 270.219428 24.869 
L 272.01657 24.61733 
L 272.915141 24.640209 
L 273.813712 23.953838 
L 274.712283 24.14831 
L 275.610854 24.228386 
L 276.509425 24.525814 
L 277.407996 24.411419 
L 278.306567 24.468616 
L 279.205138 25.097791 
L 280.103709 24.971956 
L 281.00228 25.052032 
L 281.900851 25.006274 
L 282.799422 24.811802 
L 283.697993 25.017714 
L 284.596564 24.411419 
L 285.495135 24.365661 
L 286.393706 24.182628 
L 287.292277 23.793684 
L 288.190848 23.919519 
L 289.089419 23.885201 
L 289.98799 24.113991 
L 290.886561 24.525814 
L 292.683703 24.068233 
L 294.480845 24.194068 
L 295.379416 23.862321 
L 296.277987 23.702168 
L 297.176558 23.393301 
L 298.075129 24.560133 
L 298.9737 24.937637 
L 300.770842 24.571572 
L 301.669413 24.85756 
L 302.567984 24.319903 
L 303.466555 24.38854 
L 304.365126 24.274144 
L 305.263697 24.468616 
L 306.162268 25.052032 
L 307.060839 24.457177 
L 307.95941 24.61733 
L 309.756552 24.663088 
L 310.655123 24.594451 
L 311.553694 24.38854 
L 312.452265 26.687885 
L 314.249407 26.138788 
L 315.147978 26.07015 
L 316.046549 26.630687 
L 316.94512 26.459094 
L 317.843691 26.173106 
L 318.742262 25.646888 
L 319.640833 25.715525 
L 320.539404 25.635448 
L 322.336546 25.177867 
L 323.235117 25.246504 
L 324.133688 25.063472 
L 325.032259 25.418097 
L 325.93083 24.068233 
L 326.829401 23.690729 
L 327.727972 25.143549 
L 328.626543 24.949077 
L 329.525114 24.926198 
L 329.525114 24.926198 
" style="fill:none;stroke:#a9a9a9;stroke-dasharray:5.55,2.4;stroke-dashoffset:0;stroke-width:1.5;"/>
   </g>
   <g id="patch_3">
    <path d="M 47.41875 173.68125 
L 47.41875 10.7 
" style="fill:none;stroke:#000000;stroke-linecap:square;stroke-linejoin:miter;stroke-width:0.8;"/>
   </g>
   <g id="patch_4">
    <path d="M 342.95875 173.68125 
L 342.95875 10.7 
" style="fill:none;stroke:#000000;stroke-linecap:square;stroke-linejoin:miter;stroke-width:0.8;"/>
   </g>
   <g id="patch_5">
    <path d="M 47.41875 173.68125 
L 342.95875 173.68125 
" style="fill:none;stroke:#000000;stroke-linecap:square;stroke-linejoin:miter;stroke-width:0.8;"/>
   </g>
   <g id="patch_6">
    <path d="M 47.41875 10.7 
L 342.95875 10.7 
" style="fill:none;stroke:#000000;stroke-linecap:square;stroke-linejoin:miter;stroke-width:0.8;"/>
   </g>
   <g id="legend_1">
    <g id="patch_7">
     <path d="M 238.95875 168.68125 
L 335.95875 168.68125 
Q 337.95875 168.68125 337.95875 166.68125 
L 337.95875 114.68125 
Q 337.95875 112.68125 335.95875 112.68125 
L 238.95875 112.68125 
Q 236.95875 112.68125 236.95875 114.68125 
L 236.95875 166.68125 
Q 236.95875 168.68125 238.95875 168.68125 
z
" style="fill:none;opacity:0.8;"/>
    </g>
    <g id="line2d_17">
     <path d="M 240.95875 120.18125 
L 260.95875 120.18125 
" style="fill:none;stroke:#ff4500;stroke-linecap:square;stroke-width:1.5;"/>
    </g>
    <g id="line2d_18"/>
    <g id="text_15">
     <!-- Dueling-DN -->
     <defs>
      <path d="M 45.703125 35.15625 
Q 45.703125 17.1875 38.078125 9.5625 
Q 30.46875 1.953125 17.578125 1.953125 
L 4.296875 1.953125 
L 4.296875 68.75 
L 17.578125 68.75 
Q 32.03125 68.75 38.859375 60.9375 
Q 45.703125 53.125 45.703125 35.15625 
z
M 36.328125 35.15625 
Q 36.328125 49.609375 31.640625 55.46875 
Q 26.953125 61.328125 17.578125 61.328125 
L 13.28125 61.328125 
L 13.28125 9.375 
L 17.578125 9.375 
Q 26.953125 9.375 31.640625 15.03125 
Q 36.328125 20.703125 36.328125 35.15625 
z
" id="SimHei-44"/>
      <path d="M 43.75 1.953125 
L 35.9375 1.953125 
L 35.9375 10.15625 
Q 32.8125 5.859375 29.09375 3.515625 
Q 25.390625 1.171875 19.53125 1.171875 
Q 12.5 1.171875 8.984375 5.078125 
Q 5.46875 8.984375 5.46875 14.84375 
L 5.46875 45.703125 
L 13.28125 45.703125 
L 13.28125 17.578125 
Q 13.28125 12.890625 15.625 10.15625 
Q 17.96875 7.421875 21.875 7.421875 
Q 26.953125 7.421875 31.4375 12.6875 
Q 35.9375 17.96875 35.9375 25.78125 
L 35.9375 45.703125 
L 43.75 45.703125 
z
" id="SimHei-75"/>
      <path d="M 44.53125 16.796875 
Q 43.75 9.765625 38.28125 5.46875 
Q 32.8125 1.171875 25.390625 1.171875 
Q 16.015625 1.171875 9.953125 7.21875 
Q 3.90625 13.28125 3.90625 23.828125 
Q 3.90625 34.375 9.953125 40.421875 
Q 16.015625 46.484375 25.390625 46.484375 
Q 33.59375 46.484375 38.859375 41.203125 
Q 44.140625 35.9375 44.140625 23.828125 
L 12.5 23.828125 
Q 12.5 15.234375 16.203125 11.71875 
Q 19.921875 8.203125 25.390625 8.203125 
Q 29.6875 8.203125 32.421875 10.34375 
Q 35.15625 12.5 35.9375 16.796875 
z
M 35.15625 30.078125 
Q 34.375 35.546875 31.640625 37.6875 
Q 28.90625 39.84375 24.609375 39.84375 
Q 20.703125 39.84375 17.578125 37.6875 
Q 14.453125 35.546875 12.890625 30.078125 
z
" id="SimHei-65"/>
      <path d="M 28.515625 1.953125 
L 20.703125 1.953125 
L 20.703125 68.75 
L 28.515625 68.75 
z
" id="SimHei-6c"/>
      <path d="M 28.125 58.203125 
L 20.3125 58.203125 
L 20.3125 68.359375 
L 28.125 68.359375 
z
M 28.125 1.953125 
L 20.3125 1.953125 
L 20.3125 45.703125 
L 28.125 45.703125 
z
" id="SimHei-69"/>
      <path d="M 43.75 1.953125 
L 35.9375 1.953125 
L 35.9375 30.078125 
Q 35.9375 34.765625 33.59375 37.5 
Q 31.25 40.234375 27.34375 40.234375 
Q 22.265625 40.234375 17.765625 34.953125 
Q 13.28125 29.6875 13.28125 21.875 
L 13.28125 1.953125 
L 5.46875 1.953125 
L 5.46875 45.703125 
L 13.28125 45.703125 
L 13.28125 37.5 
Q 16.40625 41.796875 20.109375 44.140625 
Q 23.828125 46.484375 29.6875 46.484375 
Q 36.71875 46.484375 40.234375 42.578125 
Q 43.75 38.671875 43.75 32.8125 
z
" id="SimHei-6e"/>
      <path d="M 46.484375 39.0625 
Q 43.75 39.84375 41.203125 40.03125 
Q 38.671875 40.234375 35.9375 39.453125 
Q 37.109375 38.28125 37.890625 36.515625 
Q 38.671875 34.765625 38.671875 31.25 
Q 38.671875 24.609375 34.171875 20.3125 
Q 29.6875 16.015625 23.046875 16.015625 
Q 21.484375 16.015625 18.9375 16.59375 
Q 16.40625 17.1875 14.84375 17.96875 
Q 13.671875 17.1875 13.28125 16.40625 
Q 12.890625 15.625 12.890625 14.453125 
Q 12.890625 12.5 15.625 11.515625 
Q 18.359375 10.546875 25.390625 10.546875 
Q 36.71875 10.546875 40.8125 7.421875 
Q 44.921875 4.296875 44.921875 -0.390625 
Q 44.921875 -6.640625 38.859375 -9.5625 
Q 32.8125 -12.5 24.609375 -12.5 
Q 14.0625 -12.5 8.984375 -9.765625 
Q 3.90625 -7.03125 3.90625 -2.34375 
Q 3.90625 0 5.859375 2.34375 
Q 7.8125 4.6875 10.9375 6.25 
Q 8.59375 7.421875 7.21875 9.171875 
Q 5.859375 10.9375 5.859375 13.671875 
Q 5.859375 16.015625 7.609375 17.765625 
Q 9.375 19.53125 11.71875 20.703125 
Q 9.765625 22.65625 8.59375 25.390625 
Q 7.421875 28.125 7.421875 31.25 
Q 7.421875 37.890625 11.90625 42.1875 
Q 16.40625 46.484375 23.046875 46.484375 
Q 26.5625 46.484375 29.09375 45.5 
Q 31.640625 44.53125 33.59375 42.578125 
Q 36.71875 44.921875 39.84375 45.890625 
Q 42.96875 46.875 46.484375 46.484375 
z
M 30.859375 31.25 
Q 30.859375 35.15625 28.90625 37.5 
Q 26.953125 39.84375 23.046875 39.84375 
Q 19.140625 39.84375 17.1875 37.5 
Q 15.234375 35.15625 15.234375 31.25 
Q 15.234375 27.34375 17.1875 25 
Q 19.140625 22.65625 23.046875 22.65625 
Q 26.953125 22.65625 28.90625 25 
Q 30.859375 27.34375 30.859375 31.25 
z
M 37.5 -1.171875 
Q 37.5 0.390625 35.734375 1.953125 
Q 33.984375 3.515625 26.953125 3.515625 
Q 25.390625 3.515625 22.65625 3.703125 
Q 19.921875 3.90625 16.40625 4.296875 
Q 13.28125 3.125 12.109375 1.5625 
Q 10.9375 0 10.9375 -1.5625 
Q 10.9375 -3.90625 14.0625 -5.46875 
Q 17.1875 -7.03125 25 -7.03125 
Q 31.640625 -7.03125 34.5625 -5.265625 
Q 37.5 -3.515625 37.5 -1.171875 
z
" id="SimHei-67"/>
      <path d="M 44.53125 1.953125 
L 34.765625 1.953125 
L 13.28125 50.390625 
L 12.890625 50.390625 
L 12.890625 1.953125 
L 3.90625 1.953125 
L 3.90625 68.75 
L 13.671875 68.75 
L 35.15625 20.3125 
L 35.546875 20.3125 
L 35.546875 68.75 
L 44.53125 68.75 
z
" id="SimHei-4e"/>
     </defs>
     <g transform="translate(268.95875 123.68125)scale(0.1 -0.1)">
      <use xlink:href="#SimHei-44"/>
      <use x="50" xlink:href="#SimHei-75"/>
      <use x="100" xlink:href="#SimHei-65"/>
      <use x="150" xlink:href="#SimHei-6c"/>
      <use x="200" xlink:href="#SimHei-69"/>
      <use x="250" xlink:href="#SimHei-6e"/>
      <use x="300" xlink:href="#SimHei-67"/>
      <use x="350" xlink:href="#SimHei-2d"/>
      <use x="400" xlink:href="#SimHei-44"/>
      <use x="450" xlink:href="#SimHei-4e"/>
     </g>
    </g>
    <g id="line2d_19">
     <path d="M 240.95875 133.43125 
L 260.95875 133.43125 
" style="fill:none;stroke:#fa8072;stroke-linecap:square;stroke-width:1.5;"/>
    </g>
    <g id="line2d_20"/>
    <g id="text_16">
     <!-- DQN-DN -->
     <defs>
      <path d="M 46.09375 35.546875 
Q 46.09375 26.171875 44.71875 19.71875 
Q 43.359375 13.28125 40.234375 9.375 
L 43.359375 3.515625 
L 37.109375 -3.125 
L 33.59375 3.515625 
Q 32.03125 2.34375 29.6875 1.75 
Q 27.34375 1.171875 24.609375 1.171875 
Q 14.453125 1.171875 8.59375 9.171875 
Q 2.734375 17.1875 2.734375 35.546875 
Q 2.734375 53.90625 8.59375 61.71875 
Q 14.453125 69.53125 24.609375 69.53125 
Q 34.765625 69.53125 40.421875 61.71875 
Q 46.09375 53.90625 46.09375 35.546875 
z
M 36.71875 35.546875 
Q 36.71875 51.953125 33.203125 57.03125 
Q 29.6875 62.109375 24.609375 62.109375 
Q 19.53125 62.109375 15.8125 57.03125 
Q 12.109375 51.953125 12.109375 35.546875 
Q 12.109375 19.140625 15.8125 13.859375 
Q 19.53125 8.59375 24.609375 8.59375 
Q 26.5625 8.59375 28.125 9.171875 
Q 29.6875 9.765625 30.46875 10.546875 
L 24.21875 22.65625 
L 29.6875 29.296875 
L 35.15625 18.75 
Q 35.9375 22.65625 36.328125 25.78125 
Q 36.71875 28.90625 36.71875 35.546875 
z
" id="SimHei-51"/>
     </defs>
     <g transform="translate(268.95875 136.93125)scale(0.1 -0.1)">
      <use xlink:href="#SimHei-44"/>
      <use x="50" xlink:href="#SimHei-51"/>
      <use x="100" xlink:href="#SimHei-4e"/>
      <use x="150" xlink:href="#SimHei-2d"/>
      <use x="200" xlink:href="#SimHei-44"/>
      <use x="250" xlink:href="#SimHei-4e"/>
     </g>
    </g>
    <g id="line2d_21">
     <path d="M 240.95875 146.68125 
L 260.95875 146.68125 
" style="fill:none;stroke:#ffd700;stroke-dasharray:5.55,2.4;stroke-dashoffset:0;stroke-width:1.5;"/>
    </g>
    <g id="line2d_22"/>
    <g id="text_17">
     <!-- Dueling Noisy -->
     <defs>
      <path id="SimHei-20"/>
      <path d="M 45.703125 23.828125 
Q 45.703125 13.671875 39.453125 7.421875 
Q 33.203125 1.171875 24.609375 1.171875 
Q 16.015625 1.171875 9.765625 7.421875 
Q 3.515625 13.671875 3.515625 23.828125 
Q 3.515625 33.984375 9.765625 40.234375 
Q 16.015625 46.484375 24.609375 46.484375 
Q 33.203125 46.484375 39.453125 40.234375 
Q 45.703125 33.984375 45.703125 23.828125 
z
M 37.109375 23.828125 
Q 37.109375 31.640625 33.203125 35.546875 
Q 29.296875 39.453125 24.609375 39.453125 
Q 19.921875 39.453125 16.015625 35.546875 
Q 12.109375 31.640625 12.109375 23.828125 
Q 12.109375 16.015625 16.015625 12.109375 
Q 19.921875 8.203125 24.609375 8.203125 
Q 29.296875 8.203125 33.203125 12.109375 
Q 37.109375 16.015625 37.109375 23.828125 
z
" id="SimHei-6f"/>
      <path d="M 42.96875 14.0625 
Q 42.96875 7.8125 38.078125 4.484375 
Q 33.203125 1.171875 25.78125 1.171875 
Q 16.40625 1.171875 11.328125 4.875 
Q 6.25 8.59375 6.25 15.625 
L 14.0625 15.625 
Q 14.0625 10.9375 17.375 9.375 
Q 20.703125 7.8125 25.390625 7.8125 
Q 30.078125 7.8125 32.421875 9.5625 
Q 34.765625 11.328125 34.765625 14.0625 
Q 34.765625 16.015625 32.8125 17.96875 
Q 30.859375 19.921875 23.046875 21.09375 
Q 14.0625 22.265625 10.734375 25.578125 
Q 7.421875 28.90625 7.421875 34.375 
Q 7.421875 39.0625 11.90625 42.765625 
Q 16.40625 46.484375 25 46.484375 
Q 32.8125 46.484375 37.296875 42.96875 
Q 41.796875 39.453125 41.796875 33.59375 
L 33.984375 33.59375 
Q 33.984375 37.109375 31.4375 38.46875 
Q 28.90625 39.84375 25 39.84375 
Q 19.921875 39.84375 17.765625 38.078125 
Q 15.625 36.328125 15.625 33.984375 
Q 15.625 31.25 17.578125 29.6875 
Q 19.53125 28.125 25.78125 27.34375 
Q 35.9375 25.78125 39.453125 22.453125 
Q 42.96875 19.140625 42.96875 14.0625 
z
" id="SimHei-73"/>
      <path d="M 45.3125 45.703125 
L 27.34375 -1.5625 
Q 25.78125 -7.03125 22.65625 -9.765625 
Q 19.53125 -12.5 14.84375 -12.5 
Q 12.890625 -12.5 11.125 -12.296875 
Q 9.375 -12.109375 7.8125 -11.328125 
L 7.8125 -3.515625 
Q 9.375 -4.296875 10.9375 -4.6875 
Q 12.5 -5.078125 13.671875 -5.078125 
Q 16.796875 -5.078125 17.96875 -4.09375 
Q 19.140625 -3.125 20.3125 0.390625 
L 3.125 45.703125 
L 11.71875 45.703125 
L 24.21875 11.328125 
L 24.609375 11.328125 
L 36.71875 45.703125 
z
" id="SimHei-79"/>
     </defs>
     <g transform="translate(268.95875 150.18125)scale(0.1 -0.1)">
      <use xlink:href="#SimHei-44"/>
      <use x="50" xlink:href="#SimHei-75"/>
      <use x="100" xlink:href="#SimHei-65"/>
      <use x="150" xlink:href="#SimHei-6c"/>
      <use x="200" xlink:href="#SimHei-69"/>
      <use x="250" xlink:href="#SimHei-6e"/>
      <use x="300" xlink:href="#SimHei-67"/>
      <use x="350" xlink:href="#SimHei-20"/>
      <use x="400" xlink:href="#SimHei-4e"/>
      <use x="450" xlink:href="#SimHei-6f"/>
      <use x="500" xlink:href="#SimHei-69"/>
      <use x="550" xlink:href="#SimHei-73"/>
      <use x="600" xlink:href="#SimHei-79"/>
     </g>
    </g>
    <g id="line2d_23">
     <path d="M 240.95875 159.93125 
L 260.95875 159.93125 
" style="fill:none;stroke:#a9a9a9;stroke-dasharray:5.55,2.4;stroke-dashoffset:0;stroke-width:1.5;"/>
    </g>
    <g id="line2d_24"/>
    <g id="text_18">
     <!-- Noisy DQN -->
     <g transform="translate(268.95875 163.43125)scale(0.1 -0.1)">
      <use xlink:href="#SimHei-4e"/>
      <use x="50" xlink:href="#SimHei-6f"/>
      <use x="100" xlink:href="#SimHei-69"/>
      <use x="150" xlink:href="#SimHei-73"/>
      <use x="200" xlink:href="#SimHei-79"/>
      <use x="250" xlink:href="#SimHei-20"/>
      <use x="300" xlink:href="#SimHei-44"/>
      <use x="350" xlink:href="#SimHei-51"/>
      <use x="400" xlink:href="#SimHei-4e"/>
     </g>
    </g>
   </g>
  </g>
 </g>
 <defs>
  <clipPath id="p102395257e">
   <rect height="162.98125" width="295.54" x="47.41875" y="10.7"/>
  </clipPath>
 </defs>
</svg>
