<?xml version="1.0" encoding="utf-8" standalone="no"?>
<!DOCTYPE svg PUBLIC "-//W3C//DTD SVG 1.1//EN"
  "http://www.w3.org/Graphics/SVG/1.1/DTD/svg11.dtd">
<!-- Created with matplotlib (http://matplotlib.org/) -->
<svg height="209.185937pt" version="1.1" viewBox="0 0 353.65875 209.185937" width="353.65875pt" xmlns="http://www.w3.org/2000/svg" xmlns:xlink="http://www.w3.org/1999/xlink">
 <defs>
  <style type="text/css">
*{stroke-linecap:butt;stroke-linejoin:round;}
  </style>
 </defs>
 <g id="figure_1">
  <g id="patch_1">
   <path d="M 0 209.185937 
L 353.65875 209.185937 
L 353.65875 0 
L 0 0 
z
" style="fill:none;"/>
  </g>
  <g id="axes_1">
   <g id="patch_2">
    <path d="M 47.41875 173.68125 
L 342.95875 173.68125 
L 342.95875 10.7 
L 47.41875 10.7 
z
" style="fill:#ffffff;"/>
   </g>
   <g id="matplotlib.axis_1">
    <g id="xtick_1">
     <g id="line2d_1">
      <defs>
       <path d="M 0 0 
L 0 3.5 
" id="mbcb0131189" style="stroke:#000000;stroke-width:0.8;"/>
      </defs>
      <g>
       <use style="stroke:#000000;stroke-width:0.8;" x="60.852386" xlink:href="#mbcb0131189" y="173.68125"/>
      </g>
     </g>
     <g id="text_1">
      <!-- 0 -->
      <defs>
       <path d="M 3.125 29.296875 
Q 3.90625 50 6.4375 56.046875 
Q 8.984375 62.109375 13.671875 66.015625 
Q 18.359375 69.921875 25.1875 69.921875 
Q 32.03125 69.921875 37.109375 64.25 
Q 42.1875 58.59375 43.75 50 
Q 45.3125 41.40625 44.71875 30.265625 
Q 44.140625 19.140625 40.8125 12.109375 
Q 37.5 5.078125 30.859375 2.34375 
Q 24.21875 -0.390625 17.578125 2.921875 
Q 10.9375 6.25 8.203125 11.71875 
Q 5.46875 17.1875 4.296875 23.234375 
Q 3.125 29.296875 3.90625 50 
z
M 12.890625 52.734375 
Q 10.546875 31.25 12.5 22.84375 
Q 14.453125 14.453125 18.9375 10.9375 
Q 23.4375 7.421875 28.125 9.5625 
Q 32.8125 11.71875 34.953125 18.15625 
Q 37.109375 24.609375 37.109375 32.21875 
Q 37.109375 39.84375 36.515625 46.09375 
Q 35.9375 52.34375 33 57.421875 
Q 30.078125 62.5 25.1875 62.6875 
Q 20.3125 62.890625 16.59375 57.8125 
Q 12.890625 52.734375 10.546875 31.25 
z
" id="SimHei-30"/>
      </defs>
      <g transform="translate(58.352386 187.55625)scale(0.1 -0.1)">
       <use xlink:href="#SimHei-30"/>
      </g>
     </g>
    </g>
    <g id="xtick_2">
     <g id="line2d_2">
      <g>
       <use style="stroke:#000000;stroke-width:0.8;" x="94.605242" xlink:href="#mbcb0131189" y="173.68125"/>
      </g>
     </g>
     <g id="text_2">
      <!-- 25 -->
      <defs>
       <path d="M 4.6875 3.90625 
Q 5.078125 9.765625 10.15625 14.453125 
Q 15.234375 19.140625 23.046875 29.09375 
Q 30.859375 39.0625 33.203125 44.53125 
Q 35.546875 50 34.953125 53.90625 
Q 34.375 57.8125 31.25 60.34375 
Q 28.125 62.890625 24.015625 62.5 
Q 19.921875 62.109375 16.203125 59.375 
Q 12.5 56.640625 10.546875 51.171875 
L 3.125 52.34375 
Q 6.25 61.328125 11.125 65.421875 
Q 16.015625 69.53125 22.65625 69.921875 
Q 26.5625 70.3125 29.6875 69.71875 
Q 32.8125 69.140625 36.125 66.984375 
Q 39.453125 64.84375 41.59375 60.546875 
Q 43.75 56.25 43.15625 50.1875 
Q 42.578125 44.140625 37.109375 35.734375 
Q 31.640625 27.34375 16.015625 9.375 
L 44.140625 9.375 
L 44.140625 2.34375 
L 4.6875 2.34375 
z
" id="SimHei-32"/>
       <path d="M 8.59375 20.703125 
Q 11.328125 10.15625 17.96875 8.984375 
Q 24.609375 7.8125 28.703125 10.34375 
Q 32.8125 12.890625 34.5625 16.984375 
Q 36.328125 21.09375 36.125 26.171875 
Q 35.9375 31.25 33.390625 34.765625 
Q 30.859375 38.28125 26.953125 39.453125 
Q 23.046875 40.625 18.15625 39.453125 
Q 13.28125 38.28125 10.15625 33.984375 
L 3.515625 34.765625 
Q 4.296875 37.109375 10.9375 68.359375 
L 41.796875 68.359375 
L 41.796875 61.328125 
L 16.796875 61.328125 
Q 14.84375 50.78125 12.890625 44.53125 
Q 18.75 47.265625 23.828125 47.0625 
Q 28.90625 46.875 33.59375 44.71875 
Q 38.28125 42.578125 40.421875 38.859375 
Q 42.578125 35.15625 43.546875 31.4375 
Q 44.53125 27.734375 44.328125 23.4375 
Q 44.140625 19.140625 42.578125 14.640625 
Q 41.015625 10.15625 37.890625 7.21875 
Q 34.765625 4.296875 30.265625 2.53125 
Q 25.78125 0.78125 19.921875 1.171875 
Q 14.0625 1.5625 8.78125 5.46875 
Q 3.515625 9.375 1.5625 18.75 
z
" id="SimHei-35"/>
      </defs>
      <g transform="translate(89.605242 187.55625)scale(0.1 -0.1)">
       <use xlink:href="#SimHei-32"/>
       <use x="50" xlink:href="#SimHei-35"/>
      </g>
     </g>
    </g>
    <g id="xtick_3">
     <g id="line2d_3">
      <g>
       <use style="stroke:#000000;stroke-width:0.8;" x="128.358097" xlink:href="#mbcb0131189" y="173.68125"/>
      </g>
     </g>
     <g id="text_3">
      <!-- 50 -->
      <g transform="translate(123.358097 187.55625)scale(0.1 -0.1)">
       <use xlink:href="#SimHei-35"/>
       <use x="50" xlink:href="#SimHei-30"/>
      </g>
     </g>
    </g>
    <g id="xtick_4">
     <g id="line2d_4">
      <g>
       <use style="stroke:#000000;stroke-width:0.8;" x="162.110952" xlink:href="#mbcb0131189" y="173.68125"/>
      </g>
     </g>
     <g id="text_4">
      <!-- 75 -->
      <defs>
       <path d="M 13.28125 2.34375 
Q 20.3125 32.03125 37.890625 61.328125 
L 4.296875 61.328125 
L 4.296875 68.359375 
L 46.09375 68.359375 
L 46.09375 61.71875 
Q 27.734375 32.03125 21.875 2.34375 
L 13.28125 2.34375 
z
" id="SimHei-37"/>
      </defs>
      <g transform="translate(157.110952 187.55625)scale(0.1 -0.1)">
       <use xlink:href="#SimHei-37"/>
       <use x="50" xlink:href="#SimHei-35"/>
      </g>
     </g>
    </g>
    <g id="xtick_5">
     <g id="line2d_5">
      <g>
       <use style="stroke:#000000;stroke-width:0.8;" x="195.863807" xlink:href="#mbcb0131189" y="173.68125"/>
      </g>
     </g>
     <g id="text_5">
      <!-- 100 -->
      <defs>
       <path d="M 21.875 56.25 
Q 16.796875 51.171875 8.984375 46.484375 
L 8.984375 53.90625 
Q 18.75 60.546875 25 69.53125 
L 29.6875 69.53125 
L 29.6875 2.34375 
L 21.875 2.34375 
z
" id="SimHei-31"/>
      </defs>
      <g transform="translate(188.363807 187.55625)scale(0.1 -0.1)">
       <use xlink:href="#SimHei-31"/>
       <use x="50" xlink:href="#SimHei-30"/>
       <use x="100" xlink:href="#SimHei-30"/>
      </g>
     </g>
    </g>
    <g id="xtick_6">
     <g id="line2d_6">
      <g>
       <use style="stroke:#000000;stroke-width:0.8;" x="229.616662" xlink:href="#mbcb0131189" y="173.68125"/>
      </g>
     </g>
     <g id="text_6">
      <!-- 125 -->
      <g transform="translate(222.116662 187.55625)scale(0.1 -0.1)">
       <use xlink:href="#SimHei-31"/>
       <use x="50" xlink:href="#SimHei-32"/>
       <use x="100" xlink:href="#SimHei-35"/>
      </g>
     </g>
    </g>
    <g id="xtick_7">
     <g id="line2d_7">
      <g>
       <use style="stroke:#000000;stroke-width:0.8;" x="263.369517" xlink:href="#mbcb0131189" y="173.68125"/>
      </g>
     </g>
     <g id="text_7">
      <!-- 150 -->
      <g transform="translate(255.869517 187.55625)scale(0.1 -0.1)">
       <use xlink:href="#SimHei-31"/>
       <use x="50" xlink:href="#SimHei-35"/>
       <use x="100" xlink:href="#SimHei-30"/>
      </g>
     </g>
    </g>
    <g id="xtick_8">
     <g id="line2d_8">
      <g>
       <use style="stroke:#000000;stroke-width:0.8;" x="297.122373" xlink:href="#mbcb0131189" y="173.68125"/>
      </g>
     </g>
     <g id="text_8">
      <!-- 175 -->
      <g transform="translate(289.622373 187.55625)scale(0.1 -0.1)">
       <use xlink:href="#SimHei-31"/>
       <use x="50" xlink:href="#SimHei-37"/>
       <use x="100" xlink:href="#SimHei-35"/>
      </g>
     </g>
    </g>
    <g id="xtick_9">
     <g id="line2d_9">
      <g>
       <use style="stroke:#000000;stroke-width:0.8;" x="330.875228" xlink:href="#mbcb0131189" y="173.68125"/>
      </g>
     </g>
     <g id="text_9">
      <!-- 200 -->
      <g transform="translate(323.375228 187.55625)scale(0.1 -0.1)">
       <use xlink:href="#SimHei-32"/>
       <use x="50" xlink:href="#SimHei-30"/>
       <use x="100" xlink:href="#SimHei-30"/>
      </g>
     </g>
    </g>
    <g id="text_10">
     <!-- 训练回合数 -->
     <defs>
      <path d="M 25.78125 51.5625 
Q 25.390625 42.578125 25.390625 34.765625 
L 25.390625 10.546875 
Q 30.46875 17.578125 32.03125 19.921875 
Q 33.984375 17.578125 36.71875 14.0625 
Q 31.640625 7.8125 28.125 3.3125 
Q 24.609375 -1.171875 20.703125 -6.640625 
Q 17.96875 -3.125 14.84375 -0.78125 
Q 17.96875 3.515625 17.96875 9.765625 
L 17.96875 44.921875 
L 15.234375 44.921875 
Q 9.375 44.921875 4.6875 44.53125 
L 4.6875 51.953125 
Q 9.375 51.5625 15.234375 51.5625 
z
M 53.515625 71.875 
Q 52.734375 67.96875 52.921875 52.53125 
Q 53.125 37.109375 52.140625 29.484375 
Q 51.171875 21.875 48.234375 13.078125 
Q 45.3125 4.296875 38.28125 -5.859375 
Q 34.765625 -3.125 30.859375 -1.953125 
Q 39.84375 7.8125 43.15625 21.28125 
Q 46.484375 34.765625 46.09375 52.140625 
Q 45.703125 69.53125 45.3125 73.046875 
Q 49.21875 72.265625 53.515625 71.875 
z
M 91.796875 73.4375 
Q 91.40625 70.3125 91.40625 62.109375 
L 91.40625 9.765625 
Q 91.40625 1.953125 91.796875 -6.25 
L 84.375 -6.25 
Q 84.765625 1.953125 84.765625 9.375 
L 84.765625 62.109375 
Q 84.765625 70.3125 84.375 73.4375 
L 91.796875 73.4375 
z
M 71.875 2.734375 
L 64.453125 2.734375 
Q 64.84375 11.328125 64.84375 17.96875 
L 64.84375 56.25 
Q 64.84375 63.28125 64.453125 67.96875 
L 71.875 67.96875 
z
M 15.625 80.46875 
Q 25.78125 71.875 32.8125 64.0625 
Q 29.296875 61.328125 27.34375 58.59375 
Q 16.40625 71.09375 10.9375 75 
Q 13.28125 77.34375 15.625 80.46875 
z
" id="SimHei-8bad"/>
      <path d="M 51.5625 59.765625 
Q 46.09375 59.765625 37.5 59.375 
L 37.5 66.40625 
Q 46.09375 66.015625 51.953125 66.015625 
L 56.640625 66.015625 
Q 60.546875 77.34375 60.9375 80.859375 
Q 65.625 78.515625 69.53125 76.953125 
Q 67.96875 75.390625 66.59375 72.0625 
Q 65.234375 68.75 64.0625 66.015625 
L 78.515625 66.015625 
Q 84.765625 66.015625 92.1875 66.40625 
L 92.1875 59.375 
Q 86.71875 59.765625 78.515625 59.765625 
L 62.109375 59.765625 
Q 60.15625 55.078125 57.8125 49.21875 
L 73.046875 49.21875 
Q 72.65625 44.921875 72.65625 38.671875 
L 72.65625 30.859375 
L 77.734375 30.859375 
Q 83.59375 30.859375 90.625 31.25 
L 90.625 24.21875 
Q 83.59375 24.609375 77.734375 24.609375 
L 72.65625 24.609375 
L 72.65625 1.953125 
Q 72.65625 -4.6875 69.71875 -6.640625 
Q 66.796875 -8.59375 57.03125 -9.765625 
Q 56.640625 -5.859375 53.90625 -1.5625 
Q 63.671875 -1.953125 64.640625 -0.390625 
Q 65.625 1.171875 65.625 5.078125 
L 65.625 24.609375 
L 53.515625 24.609375 
Q 50.78125 24.609375 48.4375 24.40625 
Q 46.09375 24.21875 42.96875 23.046875 
Q 41.40625 26.953125 39.84375 30.46875 
Q 43.75 31.640625 48.828125 43.359375 
Q 46.09375 43.359375 38.28125 42.96875 
L 38.28125 49.609375 
Q 47.265625 49.21875 50.78125 49.21875 
Q 53.125 55.078125 54.6875 59.765625 
z
M 25.78125 46.09375 
Q 29.296875 51.5625 32.8125 60.9375 
Q 36.328125 58.203125 40.234375 56.25 
Q 36.328125 51.171875 31.640625 42.96875 
Q 26.953125 34.765625 16.796875 21.09375 
Q 20.3125 21.875 37.5 24.609375 
Q 36.71875 20.3125 37.109375 17.96875 
Q 28.515625 17.1875 10.15625 12.890625 
Q 8.203125 16.796875 6.25 19.921875 
Q 9.765625 21.875 13.859375 27.140625 
Q 17.96875 32.421875 22.65625 40.234375 
Q 20.3125 40.625 15.8125 40.03125 
Q 11.328125 39.453125 7.03125 38.28125 
Q 5.46875 41.796875 3.90625 45.703125 
Q 7.8125 48.046875 12.6875 58.203125 
Q 17.578125 68.359375 20.703125 78.125 
Q 25 75.390625 28.90625 74.21875 
Q 25 68.359375 21.671875 61.90625 
Q 18.359375 55.46875 12.5 45.703125 
Q 21.484375 45.703125 25.78125 46.09375 
z
M 37.890625 10.9375 
Q 37.5 6.640625 37.890625 3.90625 
Q 31.25 2.34375 22.84375 -0.390625 
Q 14.453125 -3.125 7.421875 -6.640625 
Q 6.25 -2.34375 4.6875 1.953125 
Q 14.84375 4.296875 18.546875 5.265625 
Q 22.265625 6.25 37.890625 10.9375 
z
M 58.203125 13.671875 
Q 57.03125 12.5 51.359375 6.25 
Q 45.703125 0 38.671875 -7.421875 
Q 35.9375 -3.90625 33.59375 -1.953125 
Q 37.890625 1.5625 42.96875 7.21875 
Q 48.046875 12.890625 51.953125 19.140625 
Q 54.296875 16.40625 58.203125 13.671875 
z
M 82.421875 19.140625 
Q 92.578125 5.859375 96.875 -1.5625 
Q 92.96875 -3.125 89.84375 -5.859375 
Q 85.546875 2.734375 76.5625 14.84375 
Q 79.296875 16.40625 82.421875 19.140625 
z
M 65.625 30.859375 
L 65.625 43.359375 
L 55.859375 43.359375 
Q 51.953125 35.15625 49.609375 30.859375 
z
" id="SimHei-7ec3"/>
      <path d="M 88.28125 75.78125 
Q 87.890625 64.453125 87.890625 53.90625 
L 87.890625 14.84375 
Q 87.890625 4.6875 88.28125 -5.859375 
L 80.46875 -5.859375 
L 80.46875 1.5625 
L 18.359375 1.5625 
L 18.359375 -5.859375 
L 10.9375 -5.859375 
Q 11.328125 3.90625 11.328125 14.84375 
L 11.328125 53.90625 
Q 11.328125 64.0625 10.9375 75.78125 
L 88.28125 75.78125 
z
M 80.46875 7.8125 
L 80.46875 69.140625 
L 18.75 69.140625 
L 18.75 7.8125 
z
M 67.578125 54.6875 
Q 67.1875 48.828125 67.1875 42.96875 
L 67.1875 33.984375 
Q 67.1875 28.90625 67.578125 21.875 
L 31.640625 21.875 
Q 32.03125 28.90625 32.03125 33.984375 
L 32.03125 43.75 
Q 32.03125 49.21875 31.640625 54.6875 
L 67.578125 54.6875 
z
M 59.765625 28.515625 
L 59.765625 48.4375 
L 39.0625 48.4375 
L 39.0625 28.515625 
z
" id="SimHei-56de"/>
      <path d="M 78.90625 28.125 
Q 78.515625 24.21875 78.515625 10.15625 
Q 78.515625 -3.90625 78.90625 -8.203125 
L 70.703125 -8.203125 
L 70.703125 -0.78125 
L 27.34375 -0.78125 
L 27.34375 -9.375 
L 19.53125 -9.375 
Q 19.921875 -4.6875 19.921875 8.59375 
Q 19.921875 22.265625 19.53125 28.125 
L 78.90625 28.125 
z
M 52.734375 75 
Q 64.0625 61.328125 71.09375 56.25 
Q 78.125 51.171875 83.984375 48.4375 
Q 89.84375 45.703125 95.3125 44.140625 
Q 91.40625 39.84375 90.234375 35.9375 
Q 82.421875 39.453125 76.171875 43.359375 
Q 69.921875 47.265625 63.46875 53.3125 
Q 57.03125 59.375 48.828125 69.921875 
Q 41.40625 59.375 34.171875 52.53125 
Q 26.953125 45.703125 21.875 41.796875 
Q 16.796875 37.890625 10.546875 33.984375 
Q 9.765625 35.546875 4.296875 40.234375 
Q 12.5 44.140625 19.921875 49.609375 
Q 27.34375 55.078125 34.765625 63.46875 
Q 42.1875 71.875 46.875 81.640625 
Q 51.171875 78.90625 54.6875 77.34375 
z
M 70.703125 5.46875 
L 70.703125 21.875 
L 27.34375 21.875 
L 27.34375 5.46875 
z
M 61.328125 44.140625 
Q 67.578125 44.140625 72.265625 44.53125 
L 72.265625 37.109375 
Q 67.1875 37.5 61.71875 37.5 
L 39.84375 37.5 
Q 31.640625 37.5 26.5625 37.109375 
L 26.5625 44.53125 
Q 33.984375 44.140625 39.84375 44.140625 
z
" id="SimHei-5408"/>
      <path d="M 70.703125 76.953125 
Q 69.921875 75 68.75 71.671875 
Q 67.578125 68.359375 65.234375 59.765625 
L 83.203125 59.765625 
Q 87.109375 59.765625 92.578125 60.15625 
L 92.578125 53.125 
Q 88.28125 53.515625 85.9375 53.515625 
Q 85.9375 47.265625 83.78125 33.78125 
Q 81.640625 20.3125 76.171875 10.546875 
Q 80.078125 5.859375 84.953125 2.140625 
Q 89.84375 -1.5625 94.140625 -3.125 
Q 89.453125 -6.640625 87.890625 -9.765625 
Q 83.203125 -7.03125 79.296875 -3.515625 
Q 75.390625 0 71.484375 5.078125 
Q 67.1875 0.390625 62.296875 -2.921875 
Q 57.421875 -6.25 50 -10.15625 
Q 48.046875 -6.640625 44.53125 -4.6875 
Q 50.390625 -2.34375 57.03125 1.953125 
Q 63.671875 6.25 67.1875 10.546875 
Q 64.453125 16.015625 61.90625 22.265625 
Q 59.375 28.515625 57.421875 38.671875 
Q 56.25 35.546875 53.515625 30.46875 
Q 50.78125 32.03125 46.875 33.59375 
Q 53.125 44.53125 57.03125 57.421875 
Q 60.9375 70.3125 62.109375 79.6875 
Q 66.796875 77.734375 70.703125 76.953125 
z
M 32.8125 35.15625 
Q 31.25 33.59375 29.296875 30.078125 
L 50.78125 30.078125 
Q 48.4375 20.3125 42.578125 10.546875 
Q 48.828125 8.203125 52.34375 6.25 
Q 50.390625 3.515625 48.828125 0.390625 
Q 45.3125 2.734375 38.28125 5.078125 
Q 30.46875 -3.515625 11.328125 -10.15625 
Q 9.375 -5.859375 6.25 -4.296875 
Q 24.609375 0 31.25 7.421875 
Q 20.3125 10.15625 13.28125 12.109375 
Q 15.625 15.625 19.53125 23.828125 
Q 15.625 23.828125 6.640625 23.4375 
L 6.640625 30.46875 
Q 14.0625 30.078125 21.875 30.078125 
Q 23.4375 33.59375 24.21875 37.890625 
Q 28.515625 36.328125 32.8125 35.15625 
z
M 27.734375 61.71875 
Q 27.734375 71.09375 27.34375 79.6875 
L 35.15625 79.6875 
Q 34.765625 71.484375 34.765625 61.71875 
Q 48.046875 61.71875 53.515625 62.109375 
L 53.515625 55.078125 
Q 48.046875 55.46875 34.765625 55.46875 
Q 34.765625 44.140625 35.15625 37.890625 
L 27.34375 37.890625 
Q 27.734375 43.359375 27.734375 51.5625 
Q 25.78125 48.4375 20.3125 43.546875 
Q 14.84375 38.671875 10.15625 35.9375 
Q 8.203125 39.453125 4.296875 41.015625 
Q 7.8125 42.1875 13.671875 46.484375 
Q 19.53125 50.78125 22.65625 55.46875 
Q 14.84375 55.46875 7.8125 55.078125 
L 7.8125 62.109375 
Q 14.453125 61.71875 27.734375 61.71875 
z
M 62.109375 49.609375 
Q 65.625 26.5625 71.875 17.578125 
Q 75.78125 26.5625 77.140625 35.734375 
Q 78.515625 44.921875 78.90625 53.515625 
L 63.671875 53.515625 
L 62.109375 49.609375 
z
M 22.65625 15.625 
Q 27.34375 14.453125 35.546875 12.5 
Q 38.671875 16.40625 41.40625 23.828125 
L 26.953125 23.828125 
Q 25 19.921875 22.65625 15.625 
z
M 51.953125 75.390625 
Q 50 72.265625 48.828125 69.53125 
Q 47.65625 66.796875 45.703125 62.890625 
Q 42.578125 64.453125 39.453125 65.234375 
Q 42.578125 70.3125 45.3125 78.125 
Q 49.21875 76.171875 51.953125 75.390625 
z
M 40.234375 52.734375 
Q 45.3125 47.65625 50 42.578125 
Q 47.65625 40.625 44.921875 37.890625 
Q 39.453125 44.53125 35.9375 48.4375 
Q 38.28125 50.390625 40.234375 52.734375 
z
M 14.453125 78.125 
Q 19.921875 72.65625 23.4375 67.1875 
L 17.578125 63.671875 
Q 14.84375 69.140625 9.375 73.828125 
Q 12.890625 76.171875 14.453125 78.125 
z
" id="SimHei-6570"/>
     </defs>
     <g transform="translate(170.18875 200.735937)scale(0.1 -0.1)">
      <use xlink:href="#SimHei-8bad"/>
      <use x="100" xlink:href="#SimHei-7ec3"/>
      <use x="200" xlink:href="#SimHei-56de"/>
      <use x="300" xlink:href="#SimHei-5408"/>
      <use x="400" xlink:href="#SimHei-6570"/>
     </g>
    </g>
   </g>
   <g id="matplotlib.axis_2">
    <g id="ytick_1">
     <g id="line2d_10">
      <defs>
       <path d="M 0 0 
L -3.5 0 
" id="mb86feed1b9" style="stroke:#000000;stroke-width:0.8;"/>
      </defs>
      <g>
       <use style="stroke:#000000;stroke-width:0.8;" x="47.41875" xlink:href="#mb86feed1b9" y="164.531383"/>
      </g>
     </g>
     <g id="text_11">
      <!-- -400 -->
      <defs>
       <path d="M 46.484375 33.203125 
L 1.953125 33.203125 
L 1.953125 39.453125 
L 46.484375 39.453125 
z
" id="SimHei-2d"/>
       <path d="M 31.25 17.1875 
L 1.171875 17.1875 
L 1.171875 23.828125 
L 32.8125 69.53125 
L 38.671875 69.53125 
L 38.671875 23.828125 
L 48.046875 23.828125 
L 48.046875 17.1875 
L 38.671875 17.1875 
L 38.671875 2.34375 
L 31.25 2.34375 
z
M 31.25 23.828125 
L 31.25 54.6875 
L 9.375 23.828125 
z
" id="SimHei-34"/>
      </defs>
      <g transform="translate(20.41875 167.968883)scale(0.1 -0.1)">
       <use xlink:href="#SimHei-2d"/>
       <use x="50" xlink:href="#SimHei-34"/>
       <use x="100" xlink:href="#SimHei-30"/>
       <use x="150" xlink:href="#SimHei-30"/>
      </g>
     </g>
    </g>
    <g id="ytick_2">
     <g id="line2d_11">
      <g>
       <use style="stroke:#000000;stroke-width:0.8;" x="47.41875" xlink:href="#mb86feed1b9" y="141.548938"/>
      </g>
     </g>
     <g id="text_12">
      <!-- -300 -->
      <defs>
       <path d="M 3.90625 19.140625 
L 10.9375 20.3125 
Q 12.5 15.234375 16.015625 11.90625 
Q 19.53125 8.59375 24.796875 8.78125 
Q 30.078125 8.984375 33.203125 13.078125 
Q 36.328125 17.1875 35.9375 22.453125 
Q 35.546875 27.734375 31.828125 30.65625 
Q 28.125 33.59375 19.921875 34.765625 
L 19.921875 39.84375 
Q 28.125 40.625 31.828125 44.140625 
Q 35.546875 47.65625 35.15625 53.3125 
Q 34.765625 58.984375 30.078125 61.515625 
Q 25.390625 64.0625 20.109375 62.109375 
Q 14.84375 60.15625 11.71875 51.171875 
L 4.6875 52.34375 
Q 7.03125 59.375 11.125 64.0625 
Q 15.234375 68.75 22.265625 69.53125 
Q 29.296875 70.3125 34.5625 67.765625 
Q 39.84375 65.234375 41.984375 59.953125 
Q 44.140625 54.6875 42.578125 48.4375 
Q 41.015625 42.1875 33.59375 37.5 
Q 39.0625 35.15625 41.984375 30.46875 
Q 44.921875 25.78125 43.9375 18.15625 
Q 42.96875 10.546875 37.109375 5.859375 
Q 31.25 1.171875 23.828125 1.359375 
Q 16.40625 1.5625 10.9375 6.046875 
Q 5.46875 10.546875 3.90625 19.140625 
z
" id="SimHei-33"/>
      </defs>
      <g transform="translate(20.41875 144.986438)scale(0.1 -0.1)">
       <use xlink:href="#SimHei-2d"/>
       <use x="50" xlink:href="#SimHei-33"/>
       <use x="100" xlink:href="#SimHei-30"/>
       <use x="150" xlink:href="#SimHei-30"/>
      </g>
     </g>
    </g>
    <g id="ytick_3">
     <g id="line2d_12">
      <g>
       <use style="stroke:#000000;stroke-width:0.8;" x="47.41875" xlink:href="#mb86feed1b9" y="118.566493"/>
      </g>
     </g>
     <g id="text_13">
      <!-- -200 -->
      <g transform="translate(20.41875 122.003993)scale(0.1 -0.1)">
       <use xlink:href="#SimHei-2d"/>
       <use x="50" xlink:href="#SimHei-32"/>
       <use x="100" xlink:href="#SimHei-30"/>
       <use x="150" xlink:href="#SimHei-30"/>
      </g>
     </g>
    </g>
    <g id="ytick_4">
     <g id="line2d_13">
      <g>
       <use style="stroke:#000000;stroke-width:0.8;" x="47.41875" xlink:href="#mb86feed1b9" y="95.584047"/>
      </g>
     </g>
     <g id="text_14">
      <!-- -100 -->
      <g transform="translate(20.41875 99.021547)scale(0.1 -0.1)">
       <use xlink:href="#SimHei-2d"/>
       <use x="50" xlink:href="#SimHei-31"/>
       <use x="100" xlink:href="#SimHei-30"/>
       <use x="150" xlink:href="#SimHei-30"/>
      </g>
     </g>
    </g>
    <g id="ytick_5">
     <g id="line2d_14">
      <g>
       <use style="stroke:#000000;stroke-width:0.8;" x="47.41875" xlink:href="#mb86feed1b9" y="72.601602"/>
      </g>
     </g>
     <g id="text_15">
      <!-- 0 -->
      <g transform="translate(35.41875 76.039102)scale(0.1 -0.1)">
       <use xlink:href="#SimHei-30"/>
      </g>
     </g>
    </g>
    <g id="ytick_6">
     <g id="line2d_15">
      <g>
       <use style="stroke:#000000;stroke-width:0.8;" x="47.41875" xlink:href="#mb86feed1b9" y="49.619157"/>
      </g>
     </g>
     <g id="text_16">
      <!-- 100 -->
      <g transform="translate(25.41875 53.056657)scale(0.1 -0.1)">
       <use xlink:href="#SimHei-31"/>
       <use x="50" xlink:href="#SimHei-30"/>
       <use x="100" xlink:href="#SimHei-30"/>
      </g>
     </g>
    </g>
    <g id="ytick_7">
     <g id="line2d_16">
      <g>
       <use style="stroke:#000000;stroke-width:0.8;" x="47.41875" xlink:href="#mb86feed1b9" y="26.636712"/>
      </g>
     </g>
     <g id="text_17">
      <!-- 200 -->
      <g transform="translate(25.41875 30.074212)scale(0.1 -0.1)">
       <use xlink:href="#SimHei-32"/>
       <use x="50" xlink:href="#SimHei-30"/>
       <use x="100" xlink:href="#SimHei-30"/>
      </g>
     </g>
    </g>
    <g id="text_18">
     <!-- 平均奖赏值 -->
     <defs>
      <path d="M 70.703125 75.390625 
Q 76.5625 75.390625 85.15625 75.78125 
L 85.15625 68.359375 
Q 76.953125 68.75 70.703125 68.75 
L 54.296875 68.75 
L 54.296875 31.640625 
L 78.125 31.640625 
Q 86.71875 31.640625 94.140625 32.03125 
L 94.140625 24.609375 
Q 86.71875 25 78.125 25 
L 54.296875 25 
L 54.296875 7.03125 
Q 54.296875 -1.5625 54.6875 -9.375 
L 45.703125 -9.375 
Q 46.09375 -1.5625 46.09375 7.03125 
L 46.09375 25 
L 17.578125 25 
Q 12.109375 25 5.859375 24.609375 
L 5.859375 32.03125 
Q 12.109375 31.640625 18.359375 31.640625 
L 46.09375 31.640625 
L 46.09375 68.75 
L 27.734375 68.75 
Q 21.875 68.75 13.671875 68.359375 
L 13.671875 75.78125 
Q 21.875 75.390625 27.34375 75.390625 
z
M 61.328125 40.625 
Q 70.3125 51.5625 76.5625 64.453125 
Q 80.46875 61.71875 84.375 59.765625 
Q 74.609375 44.53125 67.96875 35.9375 
Q 64.84375 38.671875 61.328125 40.625 
z
M 30.859375 36.71875 
Q 25 48.4375 16.40625 58.203125 
Q 19.53125 60.546875 22.65625 63.28125 
Q 32.421875 51.5625 38.28125 42.578125 
Q 33.59375 39.0625 30.859375 36.71875 
z
" id="SimHei-5e73"/>
      <path d="M 90.234375 4.296875 
Q 90.234375 -5.078125 83.78125 -7.03125 
Q 77.34375 -8.984375 69.140625 -9.375 
Q 68.359375 -4.296875 66.40625 0.390625 
Q 77.34375 -0.390625 80.078125 0.96875 
Q 82.8125 2.34375 82.8125 7.8125 
L 83.984375 57.8125 
L 55.46875 57.8125 
Q 53.515625 52.734375 50.96875 47.453125 
Q 48.4375 42.1875 45.703125 37.5 
Q 41.796875 39.84375 38.671875 41.015625 
Q 49.21875 56.640625 54.6875 81.25 
Q 59.375 79.6875 63.671875 78.515625 
Q 62.109375 76.171875 60.546875 72.65625 
Q 58.984375 69.140625 57.421875 64.453125 
L 92.1875 64.453125 
L 90.234375 4.296875 
z
M 19.53125 56.640625 
L 19.53125 68.359375 
Q 19.53125 74.609375 19.140625 79.6875 
L 27.734375 79.6875 
Q 27.34375 73.828125 27.34375 68.359375 
L 27.34375 56.640625 
L 29.6875 56.640625 
Q 34.375 56.640625 39.453125 57.03125 
L 39.453125 49.21875 
Q 34.375 49.609375 29.6875 49.609375 
L 27.34375 49.609375 
L 27.34375 17.1875 
L 39.0625 21.484375 
Q 38.671875 17.578125 39.453125 14.0625 
Q 19.140625 7.421875 15.03125 5.65625 
Q 10.9375 3.90625 7.421875 2.34375 
Q 5.859375 7.421875 3.90625 11.71875 
Q 8.984375 12.5 12.5 13.28125 
Q 16.015625 14.0625 19.53125 15.234375 
L 19.53125 49.609375 
L 17.578125 49.609375 
Q 13.28125 49.609375 6.25 49.21875 
L 6.25 57.03125 
Q 13.28125 56.640625 17.1875 56.640625 
z
M 77.34375 25.390625 
Q 73.046875 22.265625 64.640625 16.40625 
Q 56.25 10.546875 49.609375 4.6875 
Q 46.875 8.984375 44.53125 12.109375 
Q 52.34375 16.40625 58.78125 20.703125 
Q 65.234375 25 74.609375 32.421875 
Q 75.390625 28.90625 77.34375 25.390625 
z
M 58.984375 49.21875 
Q 64.453125 43.75 69.921875 35.9375 
Q 66.40625 33.203125 64.0625 30.859375 
Q 60.9375 36.328125 53.90625 44.140625 
Q 56.25 46.875 58.984375 49.21875 
z
" id="SimHei-5747"/>
      <path d="M 79.296875 24.609375 
Q 88.28125 24.609375 94.921875 25 
L 94.921875 17.578125 
Q 88.671875 18.75 79.296875 18.359375 
L 55.46875 18.359375 
Q 62.109375 9.375 73.625 4.6875 
Q 85.15625 0 96.09375 -0.78125 
Q 93.75 -3.515625 91.40625 -8.59375 
Q 83.59375 -7.03125 77.734375 -5.078125 
Q 71.875 -3.125 64.640625 1.359375 
Q 57.421875 5.859375 50.78125 13.671875 
Q 47.265625 8.59375 43.75 5.46875 
Q 40.234375 2.34375 35.15625 -0.78125 
Q 30.078125 -3.90625 24.40625 -5.859375 
Q 18.75 -7.8125 10.9375 -9.765625 
Q 9.375 -5.859375 6.25 -1.953125 
Q 13.671875 -1.171875 19.71875 0.578125 
Q 25.78125 2.34375 30.65625 4.875 
Q 35.546875 7.421875 39.0625 10.734375 
Q 42.578125 14.0625 44.53125 18.359375 
L 20.703125 18.359375 
Q 12.890625 18.359375 5.46875 17.96875 
L 5.46875 25 
Q 12.890625 24.609375 20.703125 24.609375 
L 46.09375 24.609375 
Q 46.484375 27.34375 46.484375 30.46875 
Q 54.296875 29.296875 55.46875 29.296875 
Q 54.296875 26.953125 53.90625 24.609375 
z
M 67.578125 78.125 
Q 64.453125 75 61.328125 70.3125 
L 92.1875 70.3125 
Q 88.671875 61.71875 85.34375 56.046875 
Q 82.03125 50.390625 77.921875 45.890625 
Q 73.828125 41.40625 66.984375 37.5 
Q 60.15625 33.59375 47.65625 30.859375 
Q 45.703125 34.375 42.96875 37.890625 
Q 54.6875 38.28125 64.0625 43.75 
L 53.515625 50.78125 
Q 55.859375 53.515625 57.8125 56.25 
Q 61.71875 53.90625 64.0625 52.140625 
Q 66.40625 50.390625 69.921875 48.046875 
Q 76.5625 53.90625 80.859375 64.0625 
L 57.421875 64.0625 
Q 55.46875 61.71875 52.734375 58.59375 
Q 50 55.46875 45.3125 50 
Q 42.1875 52.734375 38.671875 54.296875 
Q 44.53125 59.375 49.796875 66.40625 
Q 55.078125 73.4375 58.59375 81.640625 
Q 63.671875 79.296875 67.578125 78.125 
z
M 38.28125 80.859375 
Q 37.890625 76.171875 37.890625 69.921875 
L 37.890625 44.921875 
Q 37.890625 39.0625 38.28125 30.859375 
L 30.078125 30.859375 
Q 30.46875 39.0625 30.46875 44.921875 
L 30.46875 47.65625 
Q 19.140625 40.234375 11.71875 35.546875 
Q 8.984375 39.84375 6.25 42.1875 
Q 12.890625 44.140625 30.46875 55.078125 
L 30.46875 69.921875 
Q 30.46875 75.78125 30.078125 80.859375 
L 38.28125 80.859375 
z
M 15.625 73.4375 
Q 23.046875 67.578125 28.125 62.890625 
L 22.265625 57.03125 
Q 17.1875 62.5 10.546875 67.96875 
Q 13.28125 70.3125 15.625 73.4375 
z
" id="SimHei-5956"/>
      <path d="M 76.953125 34.375 
L 23.4375 34.375 
Q 23.828125 39.453125 23.828125 44.140625 
Q 23.828125 48.828125 23.4375 53.125 
L 76.953125 53.125 
z
M 82.421875 76.171875 
Q 78.515625 73.4375 73.046875 65.234375 
L 91.015625 65.234375 
Q 90.625 61.328125 90.625 57.421875 
Q 90.625 53.90625 91.015625 49.21875 
L 83.203125 49.21875 
L 83.203125 59.375 
L 17.1875 59.375 
L 17.1875 47.65625 
L 9.375 47.65625 
Q 9.765625 52.34375 9.765625 56.640625 
Q 9.765625 61.328125 9.375 65.234375 
L 28.90625 65.234375 
Q 23.828125 71.875 19.921875 76.5625 
L 26.171875 80.46875 
Q 31.25 75.390625 35.546875 68.75 
Q 32.421875 66.796875 29.6875 65.234375 
L 46.484375 65.234375 
Q 46.484375 73.046875 46.09375 80.859375 
L 54.296875 80.859375 
Q 53.90625 73.828125 53.90625 65.234375 
L 65.234375 65.234375 
Q 71.875 75 73.046875 79.6875 
Q 77.734375 77.34375 82.421875 76.171875 
z
M 81.25 28.90625 
Q 80.859375 24.21875 80.859375 18.75 
Q 80.859375 13.28125 81.25 8.59375 
L 73.4375 8.59375 
L 73.4375 23.046875 
L 26.953125 23.046875 
L 26.953125 7.03125 
L 19.140625 7.03125 
Q 19.53125 12.5 19.53125 17.96875 
Q 19.53125 23.4375 19.140625 28.90625 
L 81.25 28.90625 
z
M 54.296875 17.1875 
Q 50 5.078125 45.3125 1.171875 
Q 40.625 -2.734375 33.390625 -5.65625 
Q 26.171875 -8.59375 12.890625 -10.546875 
Q 12.109375 -7.03125 7.8125 -2.734375 
Q 18.359375 -2.34375 25.390625 -0.578125 
Q 32.421875 1.171875 38.28125 5.46875 
Q 44.140625 9.765625 45.3125 19.53125 
L 54.296875 17.1875 
z
M 69.140625 39.84375 
L 69.140625 47.265625 
L 31.25 47.265625 
L 31.25 39.84375 
z
M 61.328125 10.15625 
Q 78.515625 3.515625 90.234375 -3.90625 
Q 86.71875 -6.640625 84.375 -10.15625 
Q 76.5625 -3.90625 56.640625 3.90625 
Q 59.765625 7.8125 61.328125 10.15625 
z
" id="SimHei-8d4f"/>
      <path d="M 57.421875 69.53125 
L 57.421875 79.6875 
Q 62.109375 79.296875 67.96875 78.90625 
Q 66.015625 76.171875 65.625 69.53125 
L 80.078125 69.53125 
Q 86.71875 69.53125 91.796875 69.921875 
L 91.796875 62.890625 
Q 86.328125 63.28125 80.078125 63.28125 
L 65.234375 63.28125 
L 64.453125 54.6875 
L 84.375 54.6875 
Q 83.984375 50 83.984375 42.1875 
L 83.984375 2.34375 
Q 91.796875 2.34375 95.3125 2.734375 
L 95.3125 -4.296875 
Q 90.234375 -3.90625 81.25 -3.90625 
L 44.53125 -3.90625 
Q 35.546875 -3.90625 29.6875 -4.296875 
L 29.6875 2.734375 
Q 33.203125 2.34375 40.625 2.34375 
L 40.625 42.1875 
Q 40.625 49.609375 40.234375 54.6875 
L 56.25 54.6875 
L 57.03125 63.28125 
L 50 63.28125 
Q 40.234375 63.28125 34.765625 62.890625 
L 34.765625 69.921875 
Q 39.84375 69.53125 50 69.53125 
z
M 34.765625 76.5625 
Q 31.640625 73.046875 25.78125 58.59375 
L 25.78125 7.03125 
Q 25.78125 -1.171875 26.171875 -8.59375 
L 17.96875 -8.59375 
Q 18.359375 -1.953125 18.359375 5.859375 
L 18.359375 46.09375 
Q 13.671875 38.28125 9.765625 33.59375 
Q 6.640625 37.890625 3.90625 40.234375 
Q 7.8125 44.140625 14.640625 55.265625 
Q 21.484375 66.40625 25.390625 80.46875 
Q 30.859375 77.734375 34.765625 76.5625 
z
M 76.953125 41.40625 
L 76.953125 49.21875 
L 48.046875 49.21875 
L 48.046875 41.40625 
z
M 76.953125 2.34375 
L 76.953125 9.765625 
L 48.046875 9.765625 
L 48.046875 2.34375 
z
M 76.953125 15.625 
L 76.953125 22.65625 
L 48.046875 22.65625 
L 48.046875 15.625 
z
M 76.953125 28.515625 
L 76.953125 35.546875 
L 48.046875 35.546875 
L 48.046875 28.515625 
z
" id="SimHei-503c"/>
     </defs>
     <g transform="translate(15.16875 117.190625)rotate(-90)scale(0.1 -0.1)">
      <use xlink:href="#SimHei-5e73"/>
      <use x="100" xlink:href="#SimHei-5747"/>
      <use x="200" xlink:href="#SimHei-5956"/>
      <use x="300" xlink:href="#SimHei-8d4f"/>
      <use x="400" xlink:href="#SimHei-503c"/>
     </g>
    </g>
   </g>
   <g id="line2d_17">
    <path clip-path="url(#p22b48333e5)" d="M 60.852386 72.56798 
L 62.202501 82.023388 
L 63.552615 92.332669 
L 64.902729 98.37918 
L 66.252843 95.83971 
L 67.602957 99.794187 
L 68.953072 99.857893 
L 70.303186 102.392324 
L 71.6533 100.234039 
L 73.003414 101.779368 
L 74.353528 101.881649 
L 75.703643 102.507612 
L 77.053757 102.52669 
L 78.403871 102.210731 
L 79.753985 102.086221 
L 81.104099 103.118782 
L 82.454214 102.41515 
L 83.804328 102.383768 
L 85.154442 101.589082 
L 86.504556 101.358418 
L 87.854671 100.692574 
L 89.204785 100.151711 
L 90.554899 99.897196 
L 91.905013 98.552436 
L 93.255127 97.781846 
L 94.605242 98.139063 
L 95.955356 97.974186 
L 97.30547 97.312542 
L 98.655584 95.836365 
L 100.005698 96.144557 
L 101.355813 97.987355 
L 102.705927 97.545816 
L 104.056041 97.35553 
L 105.406155 96.954561 
L 106.756269 97.331547 
L 109.456498 96.503651 
L 110.806612 96.883465 
L 112.156726 96.434655 
L 113.50684 96.300231 
L 114.856955 95.182873 
L 117.557183 94.361481 
L 118.907297 92.15037 
L 120.257411 92.093969 
L 121.607526 89.885168 
L 122.95764 89.809538 
L 124.307754 89.514939 
L 125.657868 88.861076 
L 127.007983 88.779308 
L 128.358097 88.179844 
L 129.708211 88.056843 
L 131.058325 87.215503 
L 132.408439 85.513238 
L 133.758554 86.614243 
L 135.108668 87.095238 
L 136.458782 86.454301 
L 137.808896 86.208931 
L 139.15901 86.797808 
L 140.509125 88.39187 
L 141.859239 86.480797 
L 143.209353 82.504569 
L 144.559467 81.426894 
L 145.909581 79.600218 
L 147.259696 79.213635 
L 148.60981 75.833095 
L 149.959924 74.431502 
L 151.310038 73.935373 
L 152.660152 71.220486 
L 154.010267 70.16281 
L 155.360381 69.876202 
L 156.710495 70.052699 
L 158.060609 69.479284 
L 159.410724 69.049748 
L 160.760838 70.168672 
L 162.110952 69.502683 
L 163.461066 70.70359 
L 164.81118 69.148335 
L 166.161295 69.127127 
L 167.511409 67.364018 
L 168.861523 67.448386 
L 170.211637 67.336628 
L 171.561751 65.140162 
L 172.911866 63.848759 
L 174.26198 65.040131 
L 175.612094 64.293239 
L 176.962208 62.66304 
L 178.312322 62.230435 
L 181.012551 58.506909 
L 182.362665 57.371743 
L 183.712779 58.972169 
L 185.062893 59.014147 
L 186.413008 60.511389 
L 187.763122 61.538896 
L 189.113236 60.871438 
L 190.46335 60.440581 
L 191.813464 61.454486 
L 193.163579 59.178043 
L 194.513693 59.212113 
L 195.863807 57.710095 
L 198.564036 57.288327 
L 199.91415 55.972934 
L 201.264264 55.479456 
L 202.614378 54.168108 
L 203.964492 53.943171 
L 205.314607 53.013118 
L 206.664721 53.323285 
L 208.014835 52.995054 
L 209.364949 54.717038 
L 210.715063 53.288764 
L 213.415292 53.176788 
L 214.765406 54.80196 
L 217.465634 54.587371 
L 218.815749 54.375785 
L 220.165863 54.662132 
L 221.515977 54.378063 
L 222.866091 53.429919 
L 224.216205 51.968696 
L 225.56632 51.492784 
L 226.916434 51.672236 
L 228.266548 50.001965 
L 230.966776 51.254223 
L 232.316891 51.087393 
L 233.667005 49.395201 
L 235.017119 51.063336 
L 236.367233 53.033859 
L 239.067462 52.019191 
L 240.417576 49.60045 
L 241.76769 49.775313 
L 243.117804 48.463753 
L 244.467919 48.165861 
L 245.818033 46.609293 
L 247.168147 45.685589 
L 249.868375 41.72501 
L 251.21849 41.74031 
L 252.568604 42.235622 
L 253.918718 40.476339 
L 255.268832 40.39996 
L 256.618946 39.325642 
L 257.969061 37.521979 
L 259.319175 36.194575 
L 260.669289 35.405112 
L 262.019403 32.937349 
L 263.369517 35.01838 
L 264.719632 35.56353 
L 266.069746 37.187926 
L 267.41986 36.129592 
L 268.769974 36.05035 
L 270.120089 35.818985 
L 271.470203 36.819784 
L 272.820317 34.697246 
L 274.170431 35.126544 
L 275.520545 35.203177 
L 276.87066 33.225342 
L 278.220774 30.868273 
L 279.570888 30.994378 
L 280.921002 30.062609 
L 282.271116 30.175232 
L 283.621231 29.383318 
L 284.971345 28.764549 
L 286.321459 30.445471 
L 287.671573 30.035869 
L 289.021687 30.188725 
L 290.371802 29.970776 
L 291.721916 29.928971 
L 293.07203 30.553212 
L 294.422144 29.051959 
L 295.772258 30.258154 
L 297.122373 30.003654 
L 298.472487 30.533292 
L 299.822601 30.162428 
L 301.172715 29.419382 
L 302.522829 29.351347 
L 303.872944 29.504165 
L 305.223058 26.954365 
L 306.573172 26.588934 
L 307.923286 24.483211 
L 309.273401 23.274659 
L 310.623515 22.494199 
L 311.973629 22.297771 
L 313.323743 18.844058 
L 314.673857 18.341 
L 316.023972 18.996946 
L 321.424428 18.562539 
L 322.774543 19.105827 
L 325.474771 19.05093 
L 326.824885 20.153467 
L 328.174999 18.108239 
L 329.525114 20.075122 
L 329.525114 20.075122 
" style="fill:none;stroke:#ff4500;stroke-linecap:square;stroke-width:1.5;"/>
   </g>
   <g id="line2d_18">
    <path clip-path="url(#p22b48333e5)" d="M 60.852386 137.105285 
L 62.202501 113.984757 
L 63.552615 116.540542 
L 64.902729 112.358326 
L 66.252843 113.22208 
L 67.602957 110.840741 
L 68.953072 108.188783 
L 70.303186 109.201318 
L 71.6533 108.155403 
L 73.003414 105.979649 
L 74.353528 106.595798 
L 75.703643 104.636801 
L 77.053757 102.952353 
L 78.403871 101.980817 
L 79.753985 103.342771 
L 82.454214 101.321699 
L 83.804328 100.716521 
L 86.504556 99.900001 
L 87.854671 99.606509 
L 89.204785 99.7493 
L 90.554899 99.136905 
L 91.905013 98.653439 
L 93.255127 97.859146 
L 94.605242 97.62865 
L 95.955356 97.51103 
L 97.30547 97.010694 
L 98.655584 96.914837 
L 100.005698 96.017824 
L 101.355813 96.096501 
L 102.705927 95.059261 
L 104.056041 96.051889 
L 105.406155 95.684101 
L 108.106384 97.088157 
L 109.456498 95.131561 
L 112.156726 96.07291 
L 113.50684 95.924644 
L 114.856955 93.845161 
L 116.207069 94.219122 
L 117.557183 93.835356 
L 118.907297 94.25941 
L 120.257411 94.389179 
L 121.607526 93.163881 
L 122.95764 93.503838 
L 124.307754 93.148689 
L 125.657868 91.791563 
L 127.007983 91.432705 
L 128.358097 90.901972 
L 129.708211 89.271432 
L 131.058325 89.309122 
L 132.408439 87.626022 
L 133.758554 87.499264 
L 135.108668 87.845601 
L 136.458782 87.274307 
L 137.808896 87.325991 
L 139.15901 87.673556 
L 140.509125 87.328514 
L 141.859239 87.752478 
L 143.209353 85.258639 
L 145.909581 83.289658 
L 147.259696 80.49707 
L 148.60981 79.372384 
L 149.959924 75.609225 
L 151.310038 76.578023 
L 152.660152 75.659811 
L 154.010267 73.847768 
L 155.360381 72.695682 
L 156.710495 74.623862 
L 158.060609 73.436007 
L 159.410724 73.574126 
L 160.760838 70.866351 
L 162.110952 70.267085 
L 163.461066 69.817515 
L 164.81118 68.863379 
L 166.161295 66.809433 
L 167.511409 66.14464 
L 170.211637 66.505 
L 171.561751 67.73944 
L 172.911866 66.953389 
L 174.26198 69.05885 
L 175.612094 69.169809 
L 176.962208 68.957134 
L 178.312322 67.954268 
L 179.662437 65.808278 
L 182.362665 64.883365 
L 183.712779 62.460853 
L 185.062893 64.283947 
L 186.413008 63.100867 
L 187.763122 62.855667 
L 189.113236 62.276228 
L 190.46335 61.312968 
L 191.813464 63.194861 
L 195.863807 63.277903 
L 197.213921 62.851987 
L 199.91415 62.581035 
L 201.264264 61.09556 
L 202.614378 61.805578 
L 203.964492 60.45649 
L 205.314607 62.533296 
L 206.664721 64.911491 
L 208.014835 67.026292 
L 209.364949 67.045417 
L 210.715063 68.022004 
L 212.065178 69.902155 
L 213.415292 69.807425 
L 214.765406 67.751272 
L 216.11552 67.4492 
L 217.465634 65.415296 
L 220.165863 67.044254 
L 221.515977 66.461147 
L 222.866091 67.883777 
L 224.216205 68.608679 
L 225.56632 72.011166 
L 226.916434 73.325718 
L 228.266548 76.273287 
L 229.616662 76.418007 
L 230.966776 80.12386 
L 232.316891 81.122115 
L 233.667005 82.266935 
L 235.017119 83.678036 
L 236.367233 83.527406 
L 237.717348 82.122382 
L 239.067462 82.918452 
L 240.417576 80.716237 
L 241.76769 80.509636 
L 243.117804 82.29873 
L 244.467919 83.769578 
L 245.818033 84.939745 
L 247.168147 83.028591 
L 248.518261 78.836182 
L 249.868375 78.803613 
L 251.21849 78.282891 
L 252.568604 75.205425 
L 253.918718 71.285153 
L 255.268832 71.277442 
L 256.618946 70.976511 
L 257.969061 70.364085 
L 259.319175 72.035885 
L 260.669289 70.983159 
L 262.019403 71.015914 
L 263.369517 73.274393 
L 264.719632 69.667194 
L 266.069746 67.275839 
L 267.41986 65.918547 
L 268.769974 64.229351 
L 270.120089 62.25792 
L 271.470203 61.532403 
L 272.820317 58.193504 
L 274.170431 56.106953 
L 275.520545 53.039391 
L 276.87066 49.685089 
L 278.220774 49.617903 
L 279.570888 49.255088 
L 280.921002 48.707453 
L 282.271116 50.404962 
L 283.621231 48.689139 
L 284.971345 46.334062 
L 286.321459 46.202686 
L 287.671573 45.924293 
L 289.021687 44.207135 
L 290.371802 44.139163 
L 291.721916 42.704408 
L 293.07203 42.740779 
L 294.422144 42.572658 
L 295.772258 42.734975 
L 297.122373 42.25634 
L 298.472487 42.434206 
L 301.172715 38.919551 
L 302.522829 38.889457 
L 305.223058 35.124047 
L 306.573172 35.49221 
L 307.923286 35.497505 
L 309.273401 33.671935 
L 310.623515 33.708749 
L 313.323743 30.325428 
L 314.673857 30.133328 
L 316.023972 30.951405 
L 317.374086 30.944023 
L 318.7242 31.716105 
L 320.074314 29.632697 
L 321.424428 29.322224 
L 322.774543 30.459548 
L 324.124657 28.535744 
L 325.474771 28.142891 
L 326.824885 29.776254 
L 328.174999 29.422065 
L 329.525114 30.825628 
L 329.525114 30.825628 
" style="fill:none;stroke:#fa8072;stroke-linecap:square;stroke-width:1.5;"/>
   </g>
   <g id="line2d_19">
    <path clip-path="url(#p22b48333e5)" d="M 60.852386 92.655657 
L 62.202501 100.872238 
L 63.552615 121.917963 
L 64.902729 110.98448 
L 66.252843 111.667232 
L 67.602957 126.276398 
L 68.953072 130.449109 
L 70.303186 128.07881 
L 71.6533 121.568633 
L 73.003414 135.382548 
L 74.353528 134.953561 
L 75.703643 131.859419 
L 77.053757 128.132117 
L 78.403871 131.259127 
L 81.104099 127.035521 
L 82.454214 125.378088 
L 83.804328 123.458012 
L 85.154442 124.3346 
L 86.504556 124.429805 
L 87.854671 123.178027 
L 89.204785 122.296279 
L 90.554899 121.550452 
L 93.255127 120.459455 
L 94.605242 119.601065 
L 95.955356 118.236266 
L 97.30547 117.582881 
L 98.655584 117.137837 
L 100.005698 116.536059 
L 101.355813 115.1674 
L 102.705927 115.404126 
L 104.056041 115.236733 
L 105.406155 112.606646 
L 106.756269 112.992632 
L 108.106384 112.124432 
L 109.456498 108.614461 
L 110.806612 107.058563 
L 112.156726 106.38354 
L 113.50684 107.068426 
L 114.856955 101.562186 
L 116.207069 101.061627 
L 117.557183 100.955044 
L 118.907297 101.172834 
L 120.257411 98.406076 
L 122.95764 98.385312 
L 124.307754 97.877313 
L 125.657868 98.07045 
L 127.007983 96.239898 
L 128.358097 94.639241 
L 131.058325 93.408993 
L 132.408439 93.097897 
L 133.758554 92.314212 
L 136.458782 91.529428 
L 137.808896 91.807609 
L 139.15901 91.552553 
L 140.509125 90.729803 
L 141.859239 90.335607 
L 143.209353 90.577434 
L 144.559467 89.619691 
L 145.909581 89.114418 
L 147.259696 89.34207 
L 148.60981 88.818995 
L 149.959924 88.919674 
L 151.310038 88.58325 
L 152.660152 87.967212 
L 154.010267 87.828463 
L 156.710495 88.252163 
L 158.060609 87.205521 
L 159.410724 86.629851 
L 160.760838 86.648141 
L 162.110952 86.45887 
L 164.81118 85.120387 
L 166.161295 85.554695 
L 167.511409 85.081744 
L 171.561751 85.759608 
L 172.911866 85.658672 
L 174.26198 84.980199 
L 176.962208 84.239474 
L 179.662437 84.193885 
L 181.012551 83.892481 
L 182.362665 84.007097 
L 183.712779 83.287596 
L 186.413008 83.92354 
L 187.763122 83.43387 
L 189.113236 83.1062 
L 190.46335 83.132065 
L 191.813464 82.52602 
L 193.163579 82.62093 
L 194.513693 82.151629 
L 195.863807 82.034026 
L 197.213921 81.437897 
L 198.564036 80.436228 
L 199.91415 80.087516 
L 201.264264 80.12919 
L 202.614378 77.835673 
L 203.964492 77.920134 
L 205.314607 77.498042 
L 206.664721 75.511297 
L 208.014835 75.232949 
L 209.364949 75.11135 
L 210.715063 74.455349 
L 212.065178 74.601516 
L 214.765406 74.252224 
L 216.11552 74.394958 
L 218.815749 75.061323 
L 222.866091 74.451206 
L 224.216205 73.948729 
L 225.56632 74.148687 
L 226.916434 71.904729 
L 228.266548 71.529664 
L 229.616662 71.974242 
L 230.966776 71.912743 
L 232.316891 72.229493 
L 235.017119 72.243537 
L 236.367233 72.490055 
L 237.717348 71.864666 
L 239.067462 71.688685 
L 240.417576 72.004327 
L 243.117804 71.690721 
L 244.467919 74.413381 
L 245.818033 72.87991 
L 247.168147 72.028766 
L 248.518261 71.948338 
L 249.868375 69.742927 
L 251.21849 70.715789 
L 252.568604 71.070923 
L 253.918718 70.707248 
L 255.268832 69.576228 
L 256.618946 67.971903 
L 257.969061 65.860461 
L 259.319175 65.637237 
L 262.019403 61.751585 
L 263.369517 60.030672 
L 264.719632 58.540502 
L 266.069746 58.763665 
L 267.41986 57.140058 
L 268.769974 59.122665 
L 270.120089 59.216055 
L 271.470203 57.040795 
L 272.820317 57.067134 
L 274.170431 56.839989 
L 276.87066 56.874303 
L 278.220774 55.06238 
L 279.570888 54.846071 
L 282.271116 51.705628 
L 283.621231 49.870434 
L 284.971345 49.879316 
L 286.321459 48.880027 
L 287.671573 49.955165 
L 289.021687 49.181028 
L 290.371802 49.353727 
L 291.721916 51.482882 
L 293.07203 50.60324 
L 295.772258 47.906017 
L 297.122373 47.800683 
L 298.472487 47.383025 
L 299.822601 49.475573 
L 301.172715 49.323709 
L 302.522829 50.641955 
L 303.872944 52.267918 
L 306.573172 54.525041 
L 307.923286 52.64917 
L 309.273401 53.962349 
L 311.973629 50.684473 
L 313.323743 50.440027 
L 314.673857 50.037032 
L 318.7242 44.369115 
L 320.074314 45.721518 
L 321.424428 44.23757 
L 324.124657 43.409237 
L 325.474771 44.253559 
L 326.824885 44.107432 
L 328.174999 42.684461 
L 329.525114 40.730081 
L 329.525114 40.730081 
" style="fill:none;stroke:#ffd700;stroke-dasharray:5.55,2.4;stroke-dashoffset:0;stroke-width:1.5;"/>
   </g>
   <g id="line2d_20">
    <path clip-path="url(#p22b48333e5)" d="M 60.852386 115.133769 
L 62.202501 105.978562 
L 63.552615 101.501014 
L 64.902729 134.430782 
L 67.602957 154.551654 
L 68.953072 155.585269 
L 70.303186 156.320981 
L 71.6533 162.2351 
L 73.003414 164.909866 
L 74.353528 166.273011 
L 75.703643 165.191091 
L 77.053757 158.310761 
L 78.403871 150.306299 
L 79.753985 143.793891 
L 81.104099 140.122123 
L 82.454214 137.456412 
L 83.804328 136.755316 
L 85.154442 135.511387 
L 87.854671 131.785977 
L 89.204785 128.828309 
L 90.554899 127.387562 
L 91.905013 125.66713 
L 97.30547 121.477909 
L 98.655584 121.670811 
L 100.005698 120.443063 
L 101.355813 119.646259 
L 102.705927 118.645269 
L 105.406155 118.084864 
L 106.756269 113.219591 
L 108.106384 110.138899 
L 109.456498 106.193768 
L 110.806612 104.076102 
L 112.156726 102.214416 
L 114.856955 93.205395 
L 116.207069 90.769008 
L 117.557183 88.852858 
L 118.907297 89.686042 
L 120.257411 90.738284 
L 122.95764 91.203607 
L 124.307754 90.91407 
L 125.657868 89.562127 
L 127.007983 89.574423 
L 128.358097 89.253977 
L 129.708211 87.508174 
L 131.058325 86.760038 
L 132.408439 84.632577 
L 133.758554 84.403491 
L 136.458782 83.414623 
L 137.808896 82.86957 
L 139.15901 80.716118 
L 140.509125 79.374558 
L 141.859239 79.281274 
L 143.209353 77.272516 
L 144.559467 77.1243 
L 145.909581 75.158512 
L 147.259696 75.588145 
L 148.60981 76.933973 
L 149.959924 75.390191 
L 151.310038 75.01846 
L 152.660152 74.431255 
L 154.010267 71.521168 
L 155.360381 72.315036 
L 156.710495 73.944909 
L 158.060609 73.372762 
L 159.410724 70.728499 
L 160.760838 70.277519 
L 162.110952 70.334296 
L 163.461066 71.066296 
L 164.81118 70.665385 
L 166.161295 70.5505 
L 167.511409 70.603129 
L 168.861523 69.013377 
L 170.211637 68.440029 
L 171.561751 69.835499 
L 172.911866 71.933266 
L 174.26198 72.964808 
L 175.612094 72.602971 
L 176.962208 71.960321 
L 178.312322 71.565546 
L 179.662437 69.570322 
L 181.012551 69.068797 
L 182.362665 68.774645 
L 183.712779 67.546577 
L 185.062893 68.920333 
L 186.413008 69.050873 
L 187.763122 68.582242 
L 189.113236 66.48967 
L 190.46335 63.030938 
L 191.813464 64.647058 
L 193.163579 62.940665 
L 194.513693 62.549565 
L 195.863807 62.60014 
L 197.213921 61.482365 
L 198.564036 60.687067 
L 199.91415 60.693565 
L 201.264264 60.570701 
L 202.614378 58.139864 
L 203.964492 56.946322 
L 205.314607 56.865126 
L 206.664721 56.628307 
L 208.014835 54.539543 
L 209.364949 54.41044 
L 210.715063 54.820775 
L 212.065178 53.06957 
L 213.415292 52.498903 
L 214.765406 49.187349 
L 216.11552 49.504861 
L 217.465634 48.488981 
L 218.815749 46.894649 
L 220.165863 45.757526 
L 221.515977 46.124964 
L 222.866091 47.73928 
L 224.216205 47.545437 
L 225.56632 48.425603 
L 226.916434 48.664223 
L 228.266548 46.356539 
L 229.616662 48.246964 
L 230.966776 53.563832 
L 232.316891 53.534835 
L 233.667005 53.240422 
L 235.017119 55.313819 
L 236.367233 55.813191 
L 237.717348 57.756637 
L 239.067462 56.853004 
L 240.417576 56.669444 
L 241.76769 56.149095 
L 243.117804 58.07118 
L 244.467919 60.187035 
L 245.818033 60.811218 
L 247.168147 61.109851 
L 249.868375 61.182771 
L 251.21849 60.581017 
L 252.568604 58.563708 
L 253.918718 60.427493 
L 255.268832 60.737851 
L 256.618946 63.484811 
L 257.969061 62.051599 
L 259.319175 63.083481 
L 260.669289 64.793948 
L 262.019403 63.911043 
L 263.369517 63.804012 
L 264.719632 64.309482 
L 266.069746 64.51913 
L 267.41986 64.343998 
L 268.769974 63.812963 
L 270.120089 66.095275 
L 271.470203 65.944556 
L 272.820317 61.870745 
L 274.170431 63.425089 
L 275.520545 61.138311 
L 276.87066 60.610709 
L 278.220774 58.572874 
L 279.570888 58.727185 
L 280.921002 58.042031 
L 282.271116 56.234553 
L 283.621231 55.84315 
L 284.971345 56.173179 
L 286.321459 56.107906 
L 287.671573 56.353436 
L 289.021687 53.825234 
L 290.371802 51.88525 
L 291.721916 53.415773 
L 293.07203 51.575945 
L 294.422144 53.634718 
L 295.772258 51.994668 
L 297.122373 49.884019 
L 298.472487 46.982758 
L 299.822601 48.089282 
L 302.522829 44.595071 
L 303.872944 46.405536 
L 305.223058 47.905781 
L 306.573172 45.796957 
L 307.923286 44.336258 
L 309.273401 43.417192 
L 310.623515 41.694524 
L 311.973629 39.549464 
L 313.323743 39.651241 
L 314.673857 38.696841 
L 316.023972 39.004945 
L 317.374086 38.91079 
L 318.7242 39.342155 
L 320.074314 40.958691 
L 321.424428 40.172656 
L 322.774543 40.023587 
L 324.124657 41.78107 
L 325.474771 42.240305 
L 326.824885 40.959493 
L 328.174999 40.547898 
L 329.525114 39.017685 
L 329.525114 39.017685 
" style="fill:none;stroke:#a9a9a9;stroke-dasharray:5.55,2.4;stroke-dashoffset:0;stroke-width:1.5;"/>
   </g>
   <g id="patch_3">
    <path d="M 47.41875 173.68125 
L 47.41875 10.7 
" style="fill:none;stroke:#000000;stroke-linecap:square;stroke-linejoin:miter;stroke-width:0.8;"/>
   </g>
   <g id="patch_4">
    <path d="M 342.95875 173.68125 
L 342.95875 10.7 
" style="fill:none;stroke:#000000;stroke-linecap:square;stroke-linejoin:miter;stroke-width:0.8;"/>
   </g>
   <g id="patch_5">
    <path d="M 47.41875 173.68125 
L 342.95875 173.68125 
" style="fill:none;stroke:#000000;stroke-linecap:square;stroke-linejoin:miter;stroke-width:0.8;"/>
   </g>
   <g id="patch_6">
    <path d="M 47.41875 10.7 
L 342.95875 10.7 
" style="fill:none;stroke:#000000;stroke-linecap:square;stroke-linejoin:miter;stroke-width:0.8;"/>
   </g>
   <g id="legend_1">
    <g id="patch_7">
     <path d="M 238.95875 168.68125 
L 335.95875 168.68125 
Q 337.95875 168.68125 337.95875 166.68125 
L 337.95875 114.68125 
Q 337.95875 112.68125 335.95875 112.68125 
L 238.95875 112.68125 
Q 236.95875 112.68125 236.95875 114.68125 
L 236.95875 166.68125 
Q 236.95875 168.68125 238.95875 168.68125 
z
" style="fill:none;opacity:0.8;"/>
    </g>
    <g id="line2d_21">
     <path d="M 240.95875 120.18125 
L 260.95875 120.18125 
" style="fill:none;stroke:#ff4500;stroke-linecap:square;stroke-width:1.5;"/>
    </g>
    <g id="line2d_22"/>
    <g id="text_19">
     <!-- Dueling-DN -->
     <defs>
      <path d="M 45.703125 35.15625 
Q 45.703125 17.1875 38.078125 9.5625 
Q 30.46875 1.953125 17.578125 1.953125 
L 4.296875 1.953125 
L 4.296875 68.75 
L 17.578125 68.75 
Q 32.03125 68.75 38.859375 60.9375 
Q 45.703125 53.125 45.703125 35.15625 
z
M 36.328125 35.15625 
Q 36.328125 49.609375 31.640625 55.46875 
Q 26.953125 61.328125 17.578125 61.328125 
L 13.28125 61.328125 
L 13.28125 9.375 
L 17.578125 9.375 
Q 26.953125 9.375 31.640625 15.03125 
Q 36.328125 20.703125 36.328125 35.15625 
z
" id="SimHei-44"/>
      <path d="M 43.75 1.953125 
L 35.9375 1.953125 
L 35.9375 10.15625 
Q 32.8125 5.859375 29.09375 3.515625 
Q 25.390625 1.171875 19.53125 1.171875 
Q 12.5 1.171875 8.984375 5.078125 
Q 5.46875 8.984375 5.46875 14.84375 
L 5.46875 45.703125 
L 13.28125 45.703125 
L 13.28125 17.578125 
Q 13.28125 12.890625 15.625 10.15625 
Q 17.96875 7.421875 21.875 7.421875 
Q 26.953125 7.421875 31.4375 12.6875 
Q 35.9375 17.96875 35.9375 25.78125 
L 35.9375 45.703125 
L 43.75 45.703125 
z
" id="SimHei-75"/>
      <path d="M 44.53125 16.796875 
Q 43.75 9.765625 38.28125 5.46875 
Q 32.8125 1.171875 25.390625 1.171875 
Q 16.015625 1.171875 9.953125 7.21875 
Q 3.90625 13.28125 3.90625 23.828125 
Q 3.90625 34.375 9.953125 40.421875 
Q 16.015625 46.484375 25.390625 46.484375 
Q 33.59375 46.484375 38.859375 41.203125 
Q 44.140625 35.9375 44.140625 23.828125 
L 12.5 23.828125 
Q 12.5 15.234375 16.203125 11.71875 
Q 19.921875 8.203125 25.390625 8.203125 
Q 29.6875 8.203125 32.421875 10.34375 
Q 35.15625 12.5 35.9375 16.796875 
z
M 35.15625 30.078125 
Q 34.375 35.546875 31.640625 37.6875 
Q 28.90625 39.84375 24.609375 39.84375 
Q 20.703125 39.84375 17.578125 37.6875 
Q 14.453125 35.546875 12.890625 30.078125 
z
" id="SimHei-65"/>
      <path d="M 28.515625 1.953125 
L 20.703125 1.953125 
L 20.703125 68.75 
L 28.515625 68.75 
z
" id="SimHei-6c"/>
      <path d="M 28.125 58.203125 
L 20.3125 58.203125 
L 20.3125 68.359375 
L 28.125 68.359375 
z
M 28.125 1.953125 
L 20.3125 1.953125 
L 20.3125 45.703125 
L 28.125 45.703125 
z
" id="SimHei-69"/>
      <path d="M 43.75 1.953125 
L 35.9375 1.953125 
L 35.9375 30.078125 
Q 35.9375 34.765625 33.59375 37.5 
Q 31.25 40.234375 27.34375 40.234375 
Q 22.265625 40.234375 17.765625 34.953125 
Q 13.28125 29.6875 13.28125 21.875 
L 13.28125 1.953125 
L 5.46875 1.953125 
L 5.46875 45.703125 
L 13.28125 45.703125 
L 13.28125 37.5 
Q 16.40625 41.796875 20.109375 44.140625 
Q 23.828125 46.484375 29.6875 46.484375 
Q 36.71875 46.484375 40.234375 42.578125 
Q 43.75 38.671875 43.75 32.8125 
z
" id="SimHei-6e"/>
      <path d="M 46.484375 39.0625 
Q 43.75 39.84375 41.203125 40.03125 
Q 38.671875 40.234375 35.9375 39.453125 
Q 37.109375 38.28125 37.890625 36.515625 
Q 38.671875 34.765625 38.671875 31.25 
Q 38.671875 24.609375 34.171875 20.3125 
Q 29.6875 16.015625 23.046875 16.015625 
Q 21.484375 16.015625 18.9375 16.59375 
Q 16.40625 17.1875 14.84375 17.96875 
Q 13.671875 17.1875 13.28125 16.40625 
Q 12.890625 15.625 12.890625 14.453125 
Q 12.890625 12.5 15.625 11.515625 
Q 18.359375 10.546875 25.390625 10.546875 
Q 36.71875 10.546875 40.8125 7.421875 
Q 44.921875 4.296875 44.921875 -0.390625 
Q 44.921875 -6.640625 38.859375 -9.5625 
Q 32.8125 -12.5 24.609375 -12.5 
Q 14.0625 -12.5 8.984375 -9.765625 
Q 3.90625 -7.03125 3.90625 -2.34375 
Q 3.90625 0 5.859375 2.34375 
Q 7.8125 4.6875 10.9375 6.25 
Q 8.59375 7.421875 7.21875 9.171875 
Q 5.859375 10.9375 5.859375 13.671875 
Q 5.859375 16.015625 7.609375 17.765625 
Q 9.375 19.53125 11.71875 20.703125 
Q 9.765625 22.65625 8.59375 25.390625 
Q 7.421875 28.125 7.421875 31.25 
Q 7.421875 37.890625 11.90625 42.1875 
Q 16.40625 46.484375 23.046875 46.484375 
Q 26.5625 46.484375 29.09375 45.5 
Q 31.640625 44.53125 33.59375 42.578125 
Q 36.71875 44.921875 39.84375 45.890625 
Q 42.96875 46.875 46.484375 46.484375 
z
M 30.859375 31.25 
Q 30.859375 35.15625 28.90625 37.5 
Q 26.953125 39.84375 23.046875 39.84375 
Q 19.140625 39.84375 17.1875 37.5 
Q 15.234375 35.15625 15.234375 31.25 
Q 15.234375 27.34375 17.1875 25 
Q 19.140625 22.65625 23.046875 22.65625 
Q 26.953125 22.65625 28.90625 25 
Q 30.859375 27.34375 30.859375 31.25 
z
M 37.5 -1.171875 
Q 37.5 0.390625 35.734375 1.953125 
Q 33.984375 3.515625 26.953125 3.515625 
Q 25.390625 3.515625 22.65625 3.703125 
Q 19.921875 3.90625 16.40625 4.296875 
Q 13.28125 3.125 12.109375 1.5625 
Q 10.9375 0 10.9375 -1.5625 
Q 10.9375 -3.90625 14.0625 -5.46875 
Q 17.1875 -7.03125 25 -7.03125 
Q 31.640625 -7.03125 34.5625 -5.265625 
Q 37.5 -3.515625 37.5 -1.171875 
z
" id="SimHei-67"/>
      <path d="M 44.53125 1.953125 
L 34.765625 1.953125 
L 13.28125 50.390625 
L 12.890625 50.390625 
L 12.890625 1.953125 
L 3.90625 1.953125 
L 3.90625 68.75 
L 13.671875 68.75 
L 35.15625 20.3125 
L 35.546875 20.3125 
L 35.546875 68.75 
L 44.53125 68.75 
z
" id="SimHei-4e"/>
     </defs>
     <g transform="translate(268.95875 123.68125)scale(0.1 -0.1)">
      <use xlink:href="#SimHei-44"/>
      <use x="50" xlink:href="#SimHei-75"/>
      <use x="100" xlink:href="#SimHei-65"/>
      <use x="150" xlink:href="#SimHei-6c"/>
      <use x="200" xlink:href="#SimHei-69"/>
      <use x="250" xlink:href="#SimHei-6e"/>
      <use x="300" xlink:href="#SimHei-67"/>
      <use x="350" xlink:href="#SimHei-2d"/>
      <use x="400" xlink:href="#SimHei-44"/>
      <use x="450" xlink:href="#SimHei-4e"/>
     </g>
    </g>
    <g id="line2d_23">
     <path d="M 240.95875 133.43125 
L 260.95875 133.43125 
" style="fill:none;stroke:#fa8072;stroke-linecap:square;stroke-width:1.5;"/>
    </g>
    <g id="line2d_24"/>
    <g id="text_20">
     <!-- DQN-DN -->
     <defs>
      <path d="M 46.09375 35.546875 
Q 46.09375 26.171875 44.71875 19.71875 
Q 43.359375 13.28125 40.234375 9.375 
L 43.359375 3.515625 
L 37.109375 -3.125 
L 33.59375 3.515625 
Q 32.03125 2.34375 29.6875 1.75 
Q 27.34375 1.171875 24.609375 1.171875 
Q 14.453125 1.171875 8.59375 9.171875 
Q 2.734375 17.1875 2.734375 35.546875 
Q 2.734375 53.90625 8.59375 61.71875 
Q 14.453125 69.53125 24.609375 69.53125 
Q 34.765625 69.53125 40.421875 61.71875 
Q 46.09375 53.90625 46.09375 35.546875 
z
M 36.71875 35.546875 
Q 36.71875 51.953125 33.203125 57.03125 
Q 29.6875 62.109375 24.609375 62.109375 
Q 19.53125 62.109375 15.8125 57.03125 
Q 12.109375 51.953125 12.109375 35.546875 
Q 12.109375 19.140625 15.8125 13.859375 
Q 19.53125 8.59375 24.609375 8.59375 
Q 26.5625 8.59375 28.125 9.171875 
Q 29.6875 9.765625 30.46875 10.546875 
L 24.21875 22.65625 
L 29.6875 29.296875 
L 35.15625 18.75 
Q 35.9375 22.65625 36.328125 25.78125 
Q 36.71875 28.90625 36.71875 35.546875 
z
" id="SimHei-51"/>
     </defs>
     <g transform="translate(268.95875 136.93125)scale(0.1 -0.1)">
      <use xlink:href="#SimHei-44"/>
      <use x="50" xlink:href="#SimHei-51"/>
      <use x="100" xlink:href="#SimHei-4e"/>
      <use x="150" xlink:href="#SimHei-2d"/>
      <use x="200" xlink:href="#SimHei-44"/>
      <use x="250" xlink:href="#SimHei-4e"/>
     </g>
    </g>
    <g id="line2d_25">
     <path d="M 240.95875 146.68125 
L 260.95875 146.68125 
" style="fill:none;stroke:#ffd700;stroke-dasharray:5.55,2.4;stroke-dashoffset:0;stroke-width:1.5;"/>
    </g>
    <g id="line2d_26"/>
    <g id="text_21">
     <!-- Dueling Noisy -->
     <defs>
      <path id="SimHei-20"/>
      <path d="M 45.703125 23.828125 
Q 45.703125 13.671875 39.453125 7.421875 
Q 33.203125 1.171875 24.609375 1.171875 
Q 16.015625 1.171875 9.765625 7.421875 
Q 3.515625 13.671875 3.515625 23.828125 
Q 3.515625 33.984375 9.765625 40.234375 
Q 16.015625 46.484375 24.609375 46.484375 
Q 33.203125 46.484375 39.453125 40.234375 
Q 45.703125 33.984375 45.703125 23.828125 
z
M 37.109375 23.828125 
Q 37.109375 31.640625 33.203125 35.546875 
Q 29.296875 39.453125 24.609375 39.453125 
Q 19.921875 39.453125 16.015625 35.546875 
Q 12.109375 31.640625 12.109375 23.828125 
Q 12.109375 16.015625 16.015625 12.109375 
Q 19.921875 8.203125 24.609375 8.203125 
Q 29.296875 8.203125 33.203125 12.109375 
Q 37.109375 16.015625 37.109375 23.828125 
z
" id="SimHei-6f"/>
      <path d="M 42.96875 14.0625 
Q 42.96875 7.8125 38.078125 4.484375 
Q 33.203125 1.171875 25.78125 1.171875 
Q 16.40625 1.171875 11.328125 4.875 
Q 6.25 8.59375 6.25 15.625 
L 14.0625 15.625 
Q 14.0625 10.9375 17.375 9.375 
Q 20.703125 7.8125 25.390625 7.8125 
Q 30.078125 7.8125 32.421875 9.5625 
Q 34.765625 11.328125 34.765625 14.0625 
Q 34.765625 16.015625 32.8125 17.96875 
Q 30.859375 19.921875 23.046875 21.09375 
Q 14.0625 22.265625 10.734375 25.578125 
Q 7.421875 28.90625 7.421875 34.375 
Q 7.421875 39.0625 11.90625 42.765625 
Q 16.40625 46.484375 25 46.484375 
Q 32.8125 46.484375 37.296875 42.96875 
Q 41.796875 39.453125 41.796875 33.59375 
L 33.984375 33.59375 
Q 33.984375 37.109375 31.4375 38.46875 
Q 28.90625 39.84375 25 39.84375 
Q 19.921875 39.84375 17.765625 38.078125 
Q 15.625 36.328125 15.625 33.984375 
Q 15.625 31.25 17.578125 29.6875 
Q 19.53125 28.125 25.78125 27.34375 
Q 35.9375 25.78125 39.453125 22.453125 
Q 42.96875 19.140625 42.96875 14.0625 
z
" id="SimHei-73"/>
      <path d="M 45.3125 45.703125 
L 27.34375 -1.5625 
Q 25.78125 -7.03125 22.65625 -9.765625 
Q 19.53125 -12.5 14.84375 -12.5 
Q 12.890625 -12.5 11.125 -12.296875 
Q 9.375 -12.109375 7.8125 -11.328125 
L 7.8125 -3.515625 
Q 9.375 -4.296875 10.9375 -4.6875 
Q 12.5 -5.078125 13.671875 -5.078125 
Q 16.796875 -5.078125 17.96875 -4.09375 
Q 19.140625 -3.125 20.3125 0.390625 
L 3.125 45.703125 
L 11.71875 45.703125 
L 24.21875 11.328125 
L 24.609375 11.328125 
L 36.71875 45.703125 
z
" id="SimHei-79"/>
     </defs>
     <g transform="translate(268.95875 150.18125)scale(0.1 -0.1)">
      <use xlink:href="#SimHei-44"/>
      <use x="50" xlink:href="#SimHei-75"/>
      <use x="100" xlink:href="#SimHei-65"/>
      <use x="150" xlink:href="#SimHei-6c"/>
      <use x="200" xlink:href="#SimHei-69"/>
      <use x="250" xlink:href="#SimHei-6e"/>
      <use x="300" xlink:href="#SimHei-67"/>
      <use x="350" xlink:href="#SimHei-20"/>
      <use x="400" xlink:href="#SimHei-4e"/>
      <use x="450" xlink:href="#SimHei-6f"/>
      <use x="500" xlink:href="#SimHei-69"/>
      <use x="550" xlink:href="#SimHei-73"/>
      <use x="600" xlink:href="#SimHei-79"/>
     </g>
    </g>
    <g id="line2d_27">
     <path d="M 240.95875 159.93125 
L 260.95875 159.93125 
" style="fill:none;stroke:#a9a9a9;stroke-dasharray:5.55,2.4;stroke-dashoffset:0;stroke-width:1.5;"/>
    </g>
    <g id="line2d_28"/>
    <g id="text_22">
     <!-- Noisy DQN -->
     <g transform="translate(268.95875 163.43125)scale(0.1 -0.1)">
      <use xlink:href="#SimHei-4e"/>
      <use x="50" xlink:href="#SimHei-6f"/>
      <use x="100" xlink:href="#SimHei-69"/>
      <use x="150" xlink:href="#SimHei-73"/>
      <use x="200" xlink:href="#SimHei-79"/>
      <use x="250" xlink:href="#SimHei-20"/>
      <use x="300" xlink:href="#SimHei-44"/>
      <use x="350" xlink:href="#SimHei-51"/>
      <use x="400" xlink:href="#SimHei-4e"/>
     </g>
    </g>
   </g>
  </g>
 </g>
 <defs>
  <clipPath id="p22b48333e5">
   <rect height="162.98125" width="295.54" x="47.41875" y="10.7"/>
  </clipPath>
 </defs>
</svg>
